<svg width="234" height="268" xmlns="http://www.w3.org/2000/svg" xmlns:xlink="http://www.w3.org/1999/xlink" xml:space="preserve" overflow="hidden"><defs><clipPath id="clip0"><rect x="1544" y="1049" width="234" height="268"/></clipPath></defs><g clip-path="url(#clip0)" transform="translate(-1544 -1049)"><path d="M1654 1132C1654 1128.13 1657.13 1125 1661 1125 1664.87 1125 1668 1128.13 1668 1132 1668 1135.87 1664.87 1139 1661 1139 1657.13 1139 1654 1135.87 1654 1132Z" fill-rule="evenodd"/><path d="M1654 1269C1654 1265.13 1657.13 1262 1661 1262 1664.87 1262 1668 1265.13 1668 1269 1668 1272.87 1664.87 1276 1661 1276 1657.13 1276 1654 1272.87 1654 1269Z" fill-rule="evenodd"/><path d="M1723 1197C1723 1193.13 1725.91 1190 1729.5 1190 1733.09 1190 1736 1193.13 1736 1197 1736 1200.87 1733.09 1204 1729.5 1204 1725.91 1204 1723 1200.87 1723 1197Z" fill-rule="evenodd"/><path d="M1585 1197C1585 1193.13 1588.13 1190 1592 1190 1595.87 1190 1599 1193.13 1599 1197 1599 1200.87 1595.87 1204 1592 1204 1588.13 1204 1585 1200.87 1585 1197Z" fill-rule="evenodd"/><path d="M1667.53 1149 1654 1149 1654 1197.14C1654 1198.86 1654.68 1200.58 1656.03 1201.96L1689.53 1236 1699 1226.37 1667.53 1194.39 1667.53 1149Z" fill-rule="evenodd"/><path d="M1660.79 1296.56C1607.5 1296.56 1564.52 1253.58 1564.52 1200.29 1564.52 1146.99 1607.5 1104.01 1660.79 1104.01 1714.08 1104.01 1757.06 1146.99 1757.06 1200.29 1757.06 1253.58 1714.08 1296.56 1660.79 1296.56L1660.79 1296.56ZM1742.28 1116.39 1752.59 1106.08C1756.37 1101.95 1756.37 1095.76 1752.25 1091.64 1748.47 1087.85 1741.93 1087.51 1737.81 1091.29L1726.12 1103.33C1709.61 1092.32 1690.7 1085.45 1671.11 1084.07L1671.11 1069.63 1702.05 1069.63 1702.05 1049 1619.53 1049 1619.53 1069.63 1650.48 1069.63 1650.48 1083.73C1595.81 1088.54 1551.8 1130.83 1544.93 1185.5 1538.05 1240.17 1570.03 1292.09 1621.94 1310.31 1673.86 1328.53 1731.27 1308.59 1760.5 1261.83 1789.72 1215.07 1781.47 1154.56 1742.28 1116.39L1742.28 1116.39Z" fill-rule="evenodd"/></g></svg>