<svg width="278" height="233" xmlns="http://www.w3.org/2000/svg" xmlns:xlink="http://www.w3.org/1999/xlink" xml:space="preserve" overflow="hidden"><defs><clipPath id="clip0"><rect x="2094" y="1121" width="278" height="233"/></clipPath></defs><g clip-path="url(#clip0)" transform="translate(-2094 -1121)"><path d="M2334.39 1148 2321 1161.44C2363.59 1204.19 2363.59 1273.81 2321 1316.56L2334.39 1330C2384.54 1280.02 2384.54 1198.33 2334.39 1148Z" fill-rule="evenodd"/><path d="M2307.42 1175 2294 1188.42C2321.87 1216.29 2321.87 1261.37 2294 1289.58L2307.42 1303C2342.86 1267.56 2342.86 1210.44 2307.42 1175Z" fill-rule="evenodd"/><path d="M2281.46 1202 2268 1215.42C2281.12 1228.5 2281.12 1249.5 2268 1262.58L2281.46 1276C2302.18 1255.35 2302.18 1222.31 2281.46 1202Z" fill-rule="evenodd"/><path d="M2094 1191.59 2094 1283.41 2160.7 1283.41 2247 1354 2247 1121 2160.7 1191.59Z" fill-rule="evenodd"/></g></svg>