<?xml version="1.0" encoding="UTF-8"?>
<svg id="Layer_1" xmlns="http://www.w3.org/2000/svg" width="200" height="251" version="1.1" viewBox="0 0 200 251">
  <!-- Generator: Adobe Illustrator 29.8.4, SVG Export Plug-In . SVG Version: 2.1.1 Build 6)  -->
  <rect x="64" y="41" width="34" height="7"/>
  <rect x="64" y="68" width="34" height="7"/>
  <rect x="64" y="96" width="34" height="7"/>
  <rect x="64" y="123" width="34" height="7"/>
  <path d="M35.16,19.38L.1,222.2c-.66,3.8,1.9,7.41,5.71,8.07.39.06.79.1,1.19.1h13.8v6.88c0,7.59,6.18,13.75,13.8,13.75s13.8-6.16,13.8-13.75v-6.88h65.34v6.88c0,7.59,6.18,13.75,13.8,13.75s13.8-6.16,13.8-13.75v-6.88h13.8c3.86-.01,7-3.13,7-6.99,0-.4-.04-.8-.11-1.19l-18.13-105.06-5.9,6.5,7.74,44.84h-57.77l74.17-81.66,6.14,5.53c1.1,1,2.8.99,3.89-.03l21.07-19.64c1.16-1.08,1.22-2.9.14-4.05-.06-.06-.11-.11-.17-.17l-7.93-7.14,13.89-15.3c1.24-1.44,1.07-3.61-.37-4.84-1.39-1.2-3.48-1.09-4.75.23l-13.88,15.31-7.91-7.14c-1.18-1.06-3-.97-4.07.2-.05.06-.1.12-.14.18l-17.52,22.85c-.91,1.18-.76,2.86.34,3.86l6.16,5.53-78.36,86.28H16.39L41.57,22.72C63.64,1.59,98.5,1.59,120.56,22.72l12.97,75.08,5.9-6.49-12.41-71.93-.78-.77c-24.95-24.81-65.34-24.81-90.29,0l-.79.77ZM170.87,57.58l14.45,13.05-15.17,14.14-11.9-10.74,12.62-16.45ZM41.52,237.25c0,3.79-3.09,6.87-6.9,6.87s-6.9-3.08-6.9-6.87v-6.88h13.8v6.88ZM134.44,237.25c0,3.79-3.09,6.87-6.9,6.87s-6.9-3.08-6.9-6.87v-6.88h13.8v6.88ZM146.93,175.35l8.31,48.1s-.05.04-.09.04l-148.25-.13,8.3-48.01h131.73Z" fill-rule="evenodd"/>
</svg>