<?xml version="1.0" encoding="UTF-8"?>
<svg id="Layer_1" xmlns="http://www.w3.org/2000/svg" width="206" height="255" version="1.1" viewBox="0 0 206 255">
  <!-- Generator: Adobe Illustrator 29.8.4, SVG Export Plug-In . SVG Version: 2.1.1 Build 6)  -->
  <rect x="67" y="69" width="34" height="14"/>
  <path d="M67,138h24.76l9.24-10.5v-3.5h-34v14Z" fill-rule="evenodd"/>
  <rect x="67" y="97" width="34" height="13"/>
  <rect x="67" y="42" width="34" height="13"/>
  <path d="M203.73,42.14c-2.81-2.55-7.15-2.34-9.7.48h0l-13.82,15.33-5.33-4.82c-1.17-1.07-2.98-.98-4.04.2-.06.06-.11.12-.16.18l-17.43,22.9c-.9,1.18-.75,2.87.35,3.87l3.56,3.24-80.06,88.77H23.23L48.01,27.93c20.41-18.87,51.83-18.87,72.24,0l11.33,65.98,11.71-12.99-10.25-59.71-1.54-1.55c-26.18-26.21-68.56-26.21-94.73,0l-1.54,1.55L.15,225.55c-.97,5.68,2.83,11.09,8.5,12.07.58.1,1.17.15,1.76.15h13.73v3.44c0,7.62,6.15,13.79,13.74,13.79s13.73-6.17,13.73-13.79v-3.44h65.03v3.44c0,7.62,6.15,13.79,13.73,13.79s13.73-6.17,13.73-13.79v-3.44h13.75c5.75,0,10.41-4.67,10.41-10.44.01-.6-.05-1.2-.15-1.79l-16.68-97.16-11.7,12.98,5.31,30.93h-49.41l71.72-79.54,3.56,3.24c1.1,1.01,2.79.99,3.88-.03l20.96-19.68c1.16-1.09,1.22-2.91.14-4.07-.06-.05-.11-.11-.17-.16l-5.33-4.83,13.83-15.33c2.55-2.81,2.34-7.17-.47-9.73l-.02-.02Z" fill-rule="evenodd"/>
</svg>