<?xml version="1.0" encoding="UTF-8"?>
<svg xmlns="http://www.w3.org/2000/svg" width="512" height="512" version="1.1" viewBox="0 0 512 512">
  <!-- Generator: Adobe Illustrator 29.8.4, SVG Export Plug-In . SVG Version: 2.1.1 Build 6)  -->
  <g id="metronome-subtick">
    <line x1="256" y1="255.97" x2="256" y2="0" fill="none" stroke="#ffa7ff" stroke-miterlimit="10" stroke-width="2"/>
  </g>
  <g id="metronome-tick">
    <line x1="256" y1="255.97" x2="256" y2="0" fill="none" stroke="#b3b3b3" stroke-miterlimit="10" stroke-width="2"/>
  </g>
  <g id="metronome-circle">
    <path d="M256,10c33.21,0,65.43,6.5,95.75,19.33,29.29,12.39,55.6,30.13,78.2,52.72,22.6,22.6,40.33,48.9,52.72,78.2,12.83,30.32,19.33,62.54,19.33,95.75s-6.5,65.43-19.33,95.75c-12.39,29.29-30.13,55.6-52.72,78.2s-48.9,40.33-78.2,52.72c-30.32,12.83-62.54,19.33-95.75,19.33s-65.43-6.5-95.75-19.33c-29.29-12.39-55.6-30.13-78.2-52.72-22.6-22.6-40.33-48.9-52.72-78.2-12.82-30.32-19.33-62.54-19.33-95.75s6.5-65.43,19.33-95.75c12.39-29.29,30.13-55.6,52.72-78.2,22.6-22.6,48.9-40.33,78.2-52.72,30.32-12.82,62.54-19.33,95.75-19.33M256,0C114.62,0,0,114.62,0,256s114.62,256,256,256,256-114.62,256-256S397.38,0,256,0h0Z" fill="#e1ffe1"/>
  </g>
  <g id="metronome-spinner">
    <polygon points="264.43 0 256 255.97 247.57 0 264.43 0 264.43 0" fill="#c1272d"/>
  </g>
</svg>