<?xml version="1.0" encoding="UTF-8"?>
<svg id="Layer_2" xmlns="http://www.w3.org/2000/svg" viewBox="0 0 42.22 50">
  <defs>
    <style>
      .cls-1 {
        fill: #66a844;
      }
    </style>
  </defs>
  <g id="Layer_1-2" data-name="Layer_1">
    <path class="cls-1" d="M39.99,39.97L42.21,1.55c.06-1.01-.9-1.77-1.87-1.49C13.16,8.03,13.64,7.29,13.51,9.52l-1.84,31.86C7.29,38.32-.33,41.01.01,45.56c.21,2.72,3.42,4.7,7.18,4.41,3.76-.29,6.64-2.73,6.44-5.45l1.72-29.76,24.37-7.15-1.69,29.21c-4.39-3.06-12-.37-11.66,4.17.21,2.72,3.42,4.7,7.18,4.41,3.76-.29,6.64-2.73,6.44-5.45Z"/>
  </g>
</svg>