<?xml version="1.0" encoding="UTF-8"?>
<svg id="Layer_2" xmlns="http://www.w3.org/2000/svg" viewBox="0 0 18.82 50">
  <defs>
    <style>
      .cls-1 {
        fill: #f597b1;
      }
    </style>
  </defs>
  <g id="Layer_1-2" data-name="Layer_1">
    <path class="cls-1" d="M11.45,22.21c-.19-1.93-.33-3.89-.38-5.88,1.32-1.24,3.94-3.85,5.02-5.36C18.7,8.13,18.6.65,14.79.02c.03,0-.13-.01-.13-.01-4.74-.27-5.83,11.47-5.79,16.38C4.18,19.8-.69,23.46.08,29.59c.84,4.81,6.02,8.06,10.75,7.71.17,3.22.38,8.91-1.81,10.73-2.22,1.83-5.31.52-5.07-2.23,0,.03,0,0,0,0,.21-1.02.81-1.48,1.11-1.68-.56.94.11,2.16,1.22,2.16,1.58,0,1.98-2.2.5-2.76h0c-3.37-.78-5.22,4.09-1.51,6.09,0,0,.05.03.05.02,1.56.67,3.15.43,4.52-.58-.11.09,3.12-1,2.89-12.08,9.46-2.78,7-15.75-1.28-14.75ZM14.38,1.76c2.14.05,4.5,6.63-3.33,12.97,0-3.14.76-11.76,3.33-12.97ZM8.92,18.36c.07,1.6.19,3.07.34,4.49-4.35,2.08-4.52,7.83-.94,10.55l.14-.16c-4.19-4.21.04-8.75-.73-7.73.38-.42.8-.9,1.68-1.32.39,3.48,1,7.46,1.3,11.31-.97.11-11.35-8.89-1.79-17.14ZM16.86,30.71c-.72,2.11-2.23,3.55-4.2,4.32-.19-3.9-.59-6.81-1.07-11.41,2.15-.14,3.48,1,3.34.91,1.24.99,1.89,2.22,2.1,3.69.13.98-.26,2.66-.17,2.49Z"/>
  </g>
</svg>