<?xml version="1.0" encoding="UTF-8"?>
<svg id="Layer_2" xmlns="http://www.w3.org/2000/svg" viewBox="0 0 42.46 50.05">
  <defs>
    <style>
      .cls-1 {
        fill: #e7a857;
      }
    </style>
  </defs>
  <g id="Layer_1-2" data-name="Layer_1">
    <g>
      <path class="cls-1" d="M10.68.56s-.14.02-.09.02C3.09,2.77-.06,9.21,0,11.93c.06,2.81,2.4,5.04,5.21,4.98,2.81-.06,5.04-2.4,4.98-5.21-.07-2.91-2.54-5.14-5.36-4.97,9.32-5.11,20.77.29,20.7,14.76,0,.92-.09,2.16-.04,1.63-1.24,12.57-6.93,20.13-15.66,26.92,14.18-3.08,24.31-17.81,22.53-32.67C30.52,4.02,19.56-1.94,10.68.56Z"/>
      <path class="cls-1" d="M42.23,19.33c-.1-4.14-6.35-4-6.26.14.09,4.14,6.35,4,6.26-.14Z"/>
      <path class="cls-1" d="M36.2,29.4c.1,4.14,6.35,4,6.26-.14-.1-4.14-6.35-4-6.26.14Z"/>
    </g>
  </g>
</svg>