<?xml version="1.0" encoding="UTF-8"?>
<svg id="Layer_2" xmlns="http://www.w3.org/2000/svg" viewBox="0 0 38.15 50">
  <defs>
    <style>
      .cls-1 {
        fill: #716f97;
      }
    </style>
  </defs>
  <g id="Layer_1-2" data-name="Layer_1">
    <path class="cls-1" d="M38.12,38.43l-.06-37.03c0-.97-.97-1.65-1.89-1.32C10.73,9.21,11.47,8.54,11.03,10.1c-.15.34-.09.05-.04,31.31-4.39-2.69-11.55.33-10.96,4.67.35,2.6,3.56,4.32,7.15,3.83,3.6-.49,6.22-3,5.87-5.6l-.03-21.63,23-8.25.03,21.1c-4.39-2.69-11.55.33-10.96,4.67.35,2.6,3.56,4.32,7.15,3.83,3.6-.49,6.23-3,5.87-5.6ZM13.02,19.72v-4.08s22.99-8.25,22.99-8.25v4.08s-22.99,8.25-22.99,8.25Z"/>
  </g>
</svg>