<?xml version="1.0" encoding="UTF-8"?>
<svg id="Layer_1" xmlns="http://www.w3.org/2000/svg" version="1.1" viewBox="0 0 512 512">
  <!-- Generator: Adobe Illustrator 29.8.4, SVG Export Plug-In . SVG Version: 2.1.1 Build 6)  -->
  <defs>
    <style>
      .st0 {
        fill-rule: evenodd;
      }
    </style>
  </defs>
  <path class="st0" d="M-4546.1-2081.5s-9.7-2.7-13.3-2.7c-182.2-39.7-172.4-37.1-259.1-240.2h0c-24.8-62.7-86.7-107.8-158.3-106-92.8.9-166.2,79.5-166.2,172.2v446c0,19.4,15.9,35.3,35.4,35.3h601.3c19.5,0,35.4-15.9,35.4-35.3v-167.8c0-47.7-31.8-88.3-75.2-101.6h0ZM-4506.3-1812.1h-601.3v-106h35.4v79.5h35.4v-79.5h17.7v79.5h35.4v-79.5h17.7v79.5h35.4v-79.5h79.6v79.5h35.4v-79.5h17.7v79.5h35.4v-79.5h79.6v79.5h35.4v-79.5h17.7v79.5h35.4v-79.5h17.7v79.5h35.4v-79.5h35.4v106h0Z"/>
  <g>
    <path class="st0" d="M-3695.3-2429.6c-21.2-21.3-37.2-24.8-37.2-24.8l-75.2,87.7,2.7,20.4-227.5,206.3c-71.7-62-100-37.2-118.6-20.4-17.7,15.1-12.4,50.5-31,69.1-30.1,30.1-100,0-156.7,56.7-92.1,90.3-.9,186.8,30.1,218.7,31.9,31,128.4,122.2,219.6,31,56.7-56.7,26.6-126.6,56.7-156.7,18.6-18.6,53.1-14.2,69.1-31,16.8-18.6,41.6-46.9-20.4-118.6l207.2-228.4,20.4,2.7,87.6-75.3c-1.8,0-5.3-16.8-26.6-37.2h0ZM-4152.1-1910.8l-62.9-62.9,24.8-24.8,62.9,62.9-24.8,24.8h0ZM-4070.7-1991.4c-17.7,17.7-45.1,17.7-62.9,0-17.7-17.7-17.7-45.2,0-62.9,17.7-17.7,45.1-17.7,62.9,0,17.7,16.8,17.7,45.2,0,62.9h0Z"/>
    <path class="st0" d="M-3783.3-2448.1c0-7.4,6-13.4,13.4-13.4s13.4,6,13.4,13.4-6,13.4-13.4,13.4-13.4-6-13.4-13.4h0Z"/>
    <path class="st0" d="M-3689.9-2354.7c0-7.4,6-13.4,13.4-13.4s13.4,6,13.4,13.4-6,13.4-13.4,13.4-13.4-6-13.4-13.4h0Z"/>
    <path class="st0" d="M-3814.5-2416.9c0-7.4,5.7-13.4,12.7-13.4s12.7,6,12.7,13.4-5.7,13.4-12.7,13.4-12.7-6-12.7-13.4h0Z"/>
    <path class="st0" d="M-3721.1-2322.9c0-7,6-12.7,13.4-12.7s13.4,5.7,13.4,12.7-6,12.7-13.4,12.7-13.4-5.7-13.4-12.7h0Z"/>
  </g>
  <g>
    <path class="st0" d="M-3055.4-1944l-102-102c1.8-3.5,2.6-7,2.6-11.4,0-14.9-11.4-26.4-26.4-26.4s-26.4,11.4-26.4,26.4,11.4,26.4,26.4,26.4,7.9-.9,11.4-2.6l102,102c1.8,1.8,3.5,3.5,7,3.5,5.3,0,8.8-3.5,8.8-8.8s-1.8-5.3-3.5-7h0Z"/>
    <path class="st0" d="M-2986.4-2368.4l-8-56.6c-1.8-9.7-10.6-16.8-20.3-15l-17.7,2.7c-9.7,1.8-16.8,10.6-15,20.3l7.1,49.5h-390.8l7.1-49.5c1.8-9.7-5.3-18.6-15-20.3l-17.7-2.7c-9.7-1.8-18.6,5.3-20.3,15l-8,56.6h-104.3v17.7c0,9.7,8,17.7,17.7,17.7h17.7c0,9.7,8,17.7,17.7,17.7h44.2l-78.7,548.5h53.9l76.9-537,73.4,73.4c-28.3,31-46,72.5-46,118.5,0,97.3,79.6,176.9,176.9,176.9s75.2-13.3,105.2-34.5l-44.2-44.2c-1.8,0-4.4.9-6.2.9-24.8,0-44.2-19.5-44.2-44.2s19.5-44.2,44.2-44.2,44.2,19.5,44.2,44.2,0,4.4-.9,6.2l44.2,44.2c22.1-29.2,34.5-65.5,34.5-105.3s-17.7-86.7-46-118.5l73.4-73.4,76.9,537h53.9l-78.7-548.5h44.2c9.7,0,17.7-8,17.7-17.7h17.7c9.7,0,17.7-8,17.7-17.7v-17.7h-104.3ZM-3117.3-2242.8c-30.9-28.3-72.5-46-118.5-46s-87.5,17.7-118.5,46l-72.5-72.5h382l-72.5,72.5h0Z"/>
  </g>
  <g>
    <path class="st0" d="M-2107.9-2061.7c-3.5-3.5-8.8-3.5-12.4,0l-6.2,6.2-18.5-18.6h0c-4.4-3.5-9.7-3.5-13.2.9-.9.9-56.5,69.1-130.6,143.4-74.2,74.4-142.1,130.2-143,130.2-3.5,3.5-4.4,8.9-.9,12.4h0v.9l18.5,18.6-7.1,7.1c-3.5,3.5-3.5,8.9,0,12.4,1.8,1.8,4.4,2.7,6.2,2.7s4.4-.9,6.2-2.7l300.1-301.1c4.4-3.5,4.4-8.9.9-12.4h0ZM-2413.3-1791.7c19.4-16.8,76.8-65.5,136.8-125.7s108.6-116.9,125.4-137.3l11.5,11.5-261.3,263-12.4-11.5h0Z"/>
    <polygon class="st0" points="-2645.7 -1963.5 -2764.7 -1818.6 -2739.1 -1793.7 -2596.3 -1912.8 -2645.7 -1963.5 -2645.7 -1963.5"/>
    <polygon class="st0" points="-2614.7 -1956.1 -2633.5 -1974.9 -2533.4 -2074.9 -2514.7 -2056.2 -2614.7 -1956.1 -2614.7 -1956.1"/>
    <path class="st0" d="M-2645.9-1988.2l99.9-99.9,173.2-160c-92.8-68.1-149.4.9-193.6,64.5,9.7,1.8,17.7,7.1,22.1,14.1,13.3,22.1-6.2,58.3-44.2,81.3-35.4,22.1-75.1,23.9-90.2,5.3-79.5,35.4-185.6,82.2-84,232.5l116.7-137.9h0Z"/>
    <polygon class="st0" points="-2502.2 -2043.9 -2483.5 -2025.1 -2583.5 -1925.1 -2602.3 -1943.8 -2502.2 -2043.9 -2502.2 -2043.9"/>
    <path class="st0" d="M-2470.6-2012.4l-100.9,99.9-138,116.7c150.4,101.6,197.3-4.4,232.7-84-18.6-15-16.8-54.8,5.3-90.2,23-38,59.3-57.5,81.4-44.2,7.1,4.4,12.4,12.4,14.2,22.1,63.7-44.2,131.8-100.8,64.6-193.6l-159.2,173.2h0Z"/>
    <path class="st0" d="M-2099.4-2397l-18.6-18.6,5.3-6.2h0l.9-.9h0c2.7-3.5,4.4-7.1,4.4-11.5,0-9.7-8-17.7-17.7-17.7s-10.6,2.7-13.3,6.2h0l-4.4,4.4-17.7-17.7c-3.5-3.5-8.8-3.5-12.4,0-3.5,3.5-3.5,8.8,0,12.4l17.7,17.7-14.2,13.3-16.8-16.8c-3.5-3.5-8.8-3.5-12.4,0-3.5,3.5-3.5,8.8,0,12.4l16.8,16.8-339.6,315.7,50.4,50.4,315.8-337.8,16.8,16.8c1.8,1.8,4.4,2.7,6.2,2.7s4.4-.9,6.2-2.7c3.5-3.5,3.5-8.8,0-12.4l-17.7-17.7,13.3-14.2,17.7,17.7c1.8,1.8,4.4,2.7,6.2,2.7s4.4-.9,6.2-2.7c4.4-3.5,4.4-8.8.9-12.4h0Z"/>
  </g>
  <g>
    <path class="st0" d="M-1695.7-1882.7l2.2-5-3.5-4.2c-14.7-17.5-10.8-54.7,9.1-86.6,22.7-37.6,59.2-57.3,81.2-44.2,1.8,1.1,3.6,2.5,5.1,4,2.4,2.4,4.4,5.1,5.9,8.1l4.7,9.2,8.4-6c36.6-26,74.9-58.3,81.9-100.1,4.5-27.2-4.1-55.4-26.7-86.4l-3.7-4.7,148.9-159.1,16.7,16.7c3.3,3.6,8.9,3.8,12.5.5,3.6-3.3,3.8-8.9.5-12.5-.2-.2-.3-.4-.5-.5l-17.1-17.1,12.1-12.9,17.5,17.5c3.4,3.5,9,3.6,12.5.2,3.5-3.4,3.6-9,.2-12.5,0,0-.1-.1-.2-.2l-18-17.9,30.2-32.3-37.1-37.1-32.2,30.3-17.9-17.9c-3.4-3.5-9-3.6-12.5-.2s-3.6,9-.2,12.5c0,0,.1.1.2.2l17.5,17.5-12.9,12.1-17.1-17.1c-3.5-3.5-9.1-3.5-12.5,0-3.5,3.5-3.5,9.1,0,12.5l16.7,16.7-159.3,148.9-4.7-3.7c-30.8-22.4-58.9-31.1-86.2-26.5-41.8,7-74.1,45.3-100.1,81.8l-6,8.4,9.2,4.6c3,1.5,5.8,3.5,8.2,5.9,1.5,1.5,2.8,3.2,4,5,13.3,22.1-6.5,58.5-44.2,81.3-31.8,19.8-69,23.7-86.5,9.1l-4.2-3.5-5,2.2c-43.1,19.2-102,45.4-116.7,96.7-10.2,35.6,2.5,80.3,38.1,133.1l4.9,6.5-17.7,21.6,36.3,36.3,21.7-17.7,7.1,5.5c40.7,27.4,76.8,41.2,107.5,41.2,8.5,0,17-1.1,25.2-3.4,51.3-14.7,77.5-73.7,96.7-116.7h0ZM-1353.4-2441.1l12.9,12.9-72.5,77.5-17.9-17.9,77.5-72.5h0ZM-1443.8-2356.6l18.7,18.7-266,284.2-37-37.1,284.3-265.8h0ZM-1715.8-2053.4l12.5,12.5-112.5,112.4-12.5-12.5,112.5-112.4h0ZM-1840.8-1953.5l-12.5-12.5,112.5-112.5,12.5,12.5-112.5,112.5h0ZM-1998.7-1984.2c11.1-38.8,52.6-61,102.2-83.3,24.5,15.8,66.4,11.6,102.5-11,46.7-28.2,68.7-74.5,50-105.6-1.9-3-4.1-5.7-6.5-8.2-1.3-1.3-2.6-2.5-4-3.6,22.9-31.2,50.4-61.7,83.2-67.2,22.3-3.7,46.1,3.9,72.6,23.2l2.3,1.8-157.1,147,.2.2-112.6,112.5-.7-.7-94.6,115.5-2.1-2.7c-32.3-47.9-44.2-87.5-35.5-117.9h0ZM-1952.8-1815.4l-13.7-13.7,101.3-123.7,36.2,36.2-123.8,101.2h0ZM-1914.9-1818.2l-3.4-2.7,115.6-94.6-.7-.7,112.5-112.3.2.2,147.1-157.2,1.8,2.3c19.5,26.7,27.1,50.5,23.4,72.8-5.5,32.8-36,60.3-67.2,83.2-1.1-1.4-2.3-2.7-3.6-4-2.5-2.5-5.3-4.7-8.4-6.6-30.9-18.6-77.3,3.4-105.5,50-22.6,36.2-26.9,78.1-11,102.5-22.3,49.6-44.5,91-83.4,102.2-30.4,8.8-70.1-3.2-117.5-35.1h0Z"/>
    <path class="st0" d="M-1322.6-2065.9c-3.3-3.4-8.7-3.6-12.1-.3,0,0-.2.2-.3.3l-6.2,6.2-18.5-18.6c-3.5-3.5-9-3.4-12.5,0-.3.3-.5.6-.8.9-.9.9-56.5,69.1-130.7,143.4-45.4,45.9-93.1,89.3-143,130.2-3.6,3-4.1,8.5-1.1,12.1,0,0,.2.2.2.3v.9l18.5,18.6-7.1,7.1c-3.4,3.3-3.5,8.7-.3,12.1,0,0,.2.2.3.3,3.3,3.4,8.7,3.6,12.1.3,0,0,.2-.2.3-.3l300.2-301.1c3.6-2.5,4.4-7.5,1.9-11.1-.3-.4-.7-.8-1-1.2h0ZM-1615.8-1784.3l-12.4-11.5c19.4-16.8,76.8-65.5,136.9-125.7,60-60.2,108.6-116.9,125.4-137.2l11.5,11.5-261.4,263h0Z"/>
  </g>
  <g>
    <path class="st0" d="M-248-1735.7c32.7,0,63.3-14.1,91.6-42.4,35-35,39-74.7,42.2-106.7,2.1-21.2,4-39.5,14.4-49.9,9.6-7.8,20.9-13,33.1-15.2,12.6-2.6,24.5-7.7,35.1-15,12.1-9.4,19.6-23.5,20.9-38.7,2.5-26.9-11.9-59-42.6-95.4l201.7-208.3,19.9.8,94.9-82.8-1.2-5.2c-4.8-15.2-13.7-28.8-25.6-39.3-10.6-12-24.7-20.5-40.3-24.1l-4.7-.6-82.4,94.6.8,19.9-207.6,200.4c-35.6-30-66.9-44.2-93.2-42.3-15.7,1.2-30.2,8.7-40.2,20.8-7.9,10.7-13.3,23-15.8,36-2,11.9-7.1,23.1-14.7,32.5-10.4,10.5-28.7,12.3-49.9,14.4-31.9,3.2-71.6,7.2-106.5,42.1-66.1,64.9-56,142.6,30.1,231.2,50.2,48.8,97.1,73.3,140.2,73.3h0ZM197.7-2439.3c9.9,4,18.8,10.2,26.1,17.9,8,7.3,14.5,16.1,19,25.9l-81.1,70.7-15.4-.6-19.2-19.2-.5-13.4,70.9-81.5h0ZM118.5-2328.2l12.8,12.9-253.8,262.1c-2.4-4.6-5.6-8.8-9.3-12.5-3.6-3.6-7.8-6.6-12.2-9l262.5-253.5ZM-133.7-2029c.1,9.7-3.7,19-10.7,25.9-13.2,13.8-35.1,14.3-48.9,1.1-.4-.3-.7-.7-1.1-1.1-13.8-13.2-14.3-35.1-1.1-48.9.4-.4.7-.7,1.1-1.1,13.2-13.8,35.1-14.3,48.9-1.1.4.3.7.7,1.1,1.1l.2.2.2.2c6.5,6.2,10.3,14.8,10.3,23.9h0ZM-405.8-2027.7c30.5-30.5,65.2-34,95.9-37.1,23.5-2.4,45.7-4.6,60.6-19.5,9.9-11.5,16.6-25.4,19.3-40.4,2-10.5,6.1-20.4,12.2-29.2,6.9-8.6,17.1-13.9,28.1-14.6,20.9-1.6,48.1,11.3,79,37l-52.3,50.5c-2.1-.3-4.2-.5-6.3-.6-29.4,0-53.2,23.7-53.3,53.2,0,29.4,23.7,53.3,53.1,53.3,29.4,0,53.2-23.8,53.3-53.2,0-1.9,0-3.8-.3-5.7l50.8-52.5c33.2,39.9,38.7,66,37.3,81-.8,10.4-6,20.1-14.2,26.5-8.8,5.8-18.6,9.8-28.9,11.9-15.1,2.8-29.2,9.6-40.9,19.7-14.9,14.9-17.1,37.2-19.5,60.7-3.1,30.7-6.6,65.4-37.1,96-58,58.1-125.7,47.9-206.7-30.9-78.9-81.2-88.8-148.6-30.1-206.2h0Z"/>
    <path class="st0" d="M144.2-2448.1c0,7.4,5.7,13.4,12.7,13.4s12.7-6,12.7-13.4-5.7-13.4-12.7-13.4-12.7,6-12.7,13.4h0Z"/>
    <path class="st0" d="M264.5-2354c0-7-6-12.7-13.4-12.7s-13.4,5.7-13.4,12.7,6,12.7,13.4,12.7,13.4-5.7,13.4-12.7h0Z"/>
    <path class="st0" d="M111.7-2415.5c0,7.4,6,13.4,13.4,13.4s13.4-6,13.4-13.4-6-13.4-13.4-13.4-13.4,6-13.4,13.4h0Z"/>
    <path class="st0" d="M205.1-2322.2c0-7.4,6-13.4,13.4-13.4s13.4,6,13.4,13.4-6,13.4-13.4,13.4-13.4-6-13.4-13.4h0Z"/>
    <polygon class="st0" points="-313.5 -1972.7 -301 -1985.2 -213.2 -1897.4 -225.7 -1884.9 -313.5 -1972.7 -313.5 -1972.7"/>
  </g>
  <g>
    <path class="st0" d="M1591.9-2203.6h-1.8l11.4,70.4,21.1-35.6-6.2-36.5c-7.9,1.8-15.8,1.8-24.6,1.8h0Z"/>
    <path class="st0" d="M1526.5-2215.3l25.9,164.1,20.8-35.3-19-120.9c-9.5-1.8-18.2-4.4-27.7-7.9h0Z"/>
    <path class="st0" d="M1457.2-2256.4l46.5,285.8,21.4-35.4-36.6-228.3c-11.6-5.3-21.4-13.3-31.3-22.1h0Z"/>
    <path class="st0" d="M1383.6-2334.2l72,445.7,21.3-35.3-61.4-380.4c-9.8-11.5-20.5-21.2-32-30h0Z"/>
    <path class="st0" d="M1750.8-2311.2c-1.8-.9-3.5-.9-5.3-.9-35.4-2.7-105.4,42.4-162.1,36.3-79.7-8.8-97.4-145.9-203.7-185.7-42.5-15.9-110.7-17.7-138.2-17.7l-.9-8c-1.8-13.3-12.4-23-24.8-23.9-15.1-.9-27.5,10.6-27.5,25.6v5.3l109.8,685.3h-15.1c-9.7,0-17.7,8-17.7,17.7v44.2h-8.9c-9.7,0-17.7,8-17.7,17.7v17.7h292.3v-17.7c0-9.7-8-17.7-17.7-17.7h-8.9v-44.2c0-9.7-8-17.7-17.7-17.7h-5.3l285.2-477.5c2.7-4.4,3.5-8.8,4.4-13.3.9-11.5-8-23-20.4-25.6h0ZM1665.8-2206.8l-245.4,410.3q0,.9-.9,1.8h-67.3l-93-580.9c22.1-1.8,75.3-2.7,113.4,15,78.8,35.4,66.4,111.4,192.2,137.1,27.5,4.4,55.8,2.7,82.4-6.2,8.9-2.7,17.7,2.7,20.4,11.5.9,3.5,0,8-1.8,11.5h0Z"/>
    <path class="st0" d="M1308.6-2356.8l87.8,544.7h13.3l10.6-17.7-84.3-522.6c-8.9-1.8-18.6-3.5-27.5-4.4h0Z"/>
  </g>
  <path class="st0" d="M2501.7-1984l-168.1-168c-7.1-7.1-17.7-7.1-24.8,0-7.1,7.1-7.1,17.7,0,24.8l17.7,17.7c-89.4,92.8-45.1,161.8-40.7,214v12.4c0,15-11.5,26.5-26.5,26.5s-26.5-11.5-26.5-26.5v-521.7c1.8-77.8-54-71.6-69.9-69.9-34.5,1.8-73.4,29.2-79.6,61h-54c-5.3,0-8.8,3.5-8.8,8.8,11.5,15.9,23,26.5,44.2,26.5s38.1-5.3,44.2-26.5c13.3-51.3,75.2-40.7,70.8,0l-51.3,504c-.9,7.1-1.8,14.1-1.8,22.1,0,80.5,65.5,145.9,146,145.9s102.6-30.1,127.4-74.3c27.4-64.5-4.4-152.1,58.4-169.8l18.6,18.6c3.5,3.5,8,5.3,12.4,5.3s8.8-1.8,12.4-5.3c7.1-8,7.1-18.6,0-25.6h0ZM2197.2-1971.6c-9.7,0-17.7-8-17.7-17.7s8-17.7,17.7-17.7,17.7,8,17.7,17.7-8,17.7-17.7,17.7h0ZM2197.2-2042.4c-9.7,0-17.7-8-17.7-17.7s8-17.7,17.7-17.7,17.7,8,17.7,17.7-8,17.7-17.7,17.7h0ZM2197.2-2113.1c-9.7,0-17.7-8-17.7-17.7s8-17.7,17.7-17.7,17.7,8,17.7,17.7-8,17.7-17.7,17.7h0ZM2197.2-2183.9c-9.7,0-17.7-8-17.7-17.7s8-17.7,17.7-17.7,17.7,8,17.7,17.7-8,17.7-17.7,17.7h0Z"/>
  <g>
    <path class="st0" d="M3374.6-2426.9c-10-11.3-22.8-19.9-37.2-24.7l-75.2,87.5,2.7,20.3-279.6,258.9c-84.4-58.3-200.1-37.2-258.5,47-58.4,84.2-37.3,199.7,47.1,258,84.4,58.3,200.1,37.2,258.5-47,43.8-63.1,44-146.7.6-210.1l260.3-280.3,20.4,2.7,87.6-75.1c-6.7-13.8-15.7-26.3-26.6-37.1h0ZM2804.3-1870.1l62.6-62.5,12.5,12.5-62.6,62.5-12.5-12.5h0ZM2891.9-1957.6l87.3-87.1c2.2,2,4.4,3.8,6.6,5.9,2.2,2.1,4,4.4,5.9,6.6l-87.3,87.1-12.5-12.5h0ZM2773-2038.8c51.5-51.4,132.5-58.5,192.3-17l-85.9,85.7-18.8-18.7-25,25,18.8,18.7-62.6,62.5-12.5-12.5-32.9,32.8c-30.8-58.3-20.1-129.8,26.6-176.5h0ZM2985.8-1826.4c-46.8,46.5-118.4,57.3-176.8,26.5l32.8-32.8-12.5-12.5,62.6-62.5,18.8,18.7,25-25-18.8-18.7,85.9-85.7c41.5,59.7,34.4,140.5-17,191.9h0Z"/>
    <path class="st0" d="M3300-2433.2c7.4,0,13.4-6,13.4-13.4s-6-13.4-13.4-13.4-13.4,6-13.4,13.4,6,13.4,13.4,13.4h0Z"/>
    <path class="st0" d="M3393.4-2366.7c-7.4,0-13.4,6-13.4,13.4s6,13.4,13.4,13.4,13.4-6,13.4-13.4-6-13.4-13.4-13.4h0Z"/>
    <path class="st0" d="M3268.1-2402.1c7,0,12.7-5.7,12.7-12.7s-5.7-12.7-12.7-12.7-12.7,5.7-12.7,12.7,5.7,12.7,12.7,12.7h0Z"/>
    <path class="st0" d="M3362.2-2334.2c-7.4,0-13.4,6-13.4,13.4s6,13.4,13.4,13.4,13.4-6,13.4-13.4-6-13.4-13.4-13.4h0Z"/>
  </g>
  <g>
    <path class="st0" d="M3951.5-2320.1c23.6,4.8,46.9,11.5,69.4,19.9l14-13.9c-24.8-9.9-50.4-17.5-76.5-22.9l-7,16.9Z"/>
    <path class="st0" d="M3498.8-2209.8v300.3c0,79.2,139.8,141.3,318.3,141.3s318.3-62.1,318.3-141.3v-300.3c0-29.2-19.1-56.1-52-78.4l-12.9,12.9c29.8,19.1,47.3,41.6,47.3,65.5,0,67-137.7,123.6-300.6,123.6s-300.6-56.6-300.6-123.6,137.7-123.6,300.6-123.6c26.8,0,53.6,1.6,80.3,4.7l7-17.2c-28.9-3.5-58.1-5.2-87.2-5.2-178.5,0-318.3,62.1-318.3,141.3h0ZM3516.4-2109.6c16.9,20,38.1,36.1,61.9,47.1v174c-38.7-20.8-61.9-46.6-61.9-74.1v-147ZM4117.7-1909.6c0,67-137.7,123.6-300.6,123.6s-300.6-56.6-300.6-123.6v-5.7c42.9,55.3,159.7,94,300.6,94s257.7-38.7,300.6-94v5.7ZM3596-1879.7v-174.6c28.5,11.8,58.1,20.6,88.4,26.4v175.9c-30.4-6-60-15.3-88.4-27.7h0ZM3702.1-1848.7v-176.1c35.1,5.7,70.6,8.8,106.1,9.1v176.6c-35.6-.4-71.1-3.6-106.1-9.7h0ZM3825.9-1839v-176.6c35.6-.3,71-3.4,106.1-9.1v176.1c-35.1,6.1-70.5,9.3-106.1,9.7h0ZM3949.7-1852.1v-175.9c30.3-5.8,59.9-14.6,88.4-26.4v174.6c-28.4,12.3-58,21.6-88.4,27.7h0ZM4117.7-1962.6c0,27.5-23.2,53.3-61.9,74.1v-174c23.8-11,45-27,61.9-47.1v147ZM3817.1-2068.5c141,0,257.7-38.7,300.6-94v5.7c0,67-137.7,123.6-300.6,123.6s-300.6-56.6-300.6-123.6v-5.7c42.9,55.3,159.7,94,300.6,94h0Z"/>
    <path class="st0" d="M3971.4-2439.6c-4.5-1.8-9.7.4-11.5,4.9l-115.3,283.6c-1.8,4.5.4,9.7,4.9,11.5,1.1.4,2.2.7,3.3.7,3.6,0,6.9-2.2,8.2-5.5l115.3-283.6c1.8-4.5-.3-9.7-4.9-11.5h0Z"/>
    <path class="st0" d="M3915-2147.4c2.3,0,4.6-.9,6.2-2.6l247-248.4c3.4-3.5,3.3-9.1-.2-12.5-3.4-3.3-8.8-3.3-12.3,0l-247,248.4c-3.4,3.5-3.4,9.1,0,12.5,1.7,1.7,3.9,2.6,6.2,2.6h0Z"/>
  </g>
  <g>
    <path class="st0" d="M4293.5-2333.8h8.8c0,14.7,11.9,26.6,26.5,26.6h29.8l-74.1,548.9h63.3l72-533.8,69.9,69.9c-65.6,72.3-60.2,184.1,12,249.7,63.6,57.8,159.5,61.4,227.2,8.6l-12.6-12.6c-70.4,53.2-170.6,39.2-223.8-31.3-53.2-70.5-39.2-170.8,31.3-224.1,70.4-53.2,170.6-39.2,223.8,31.3,43,57,43,135.7,0,192.8l12.6,12.6c52.8-67.6,49.2-163.6-8.6-227l70.9-71,72.2,534.9h63.3l-74.1-548.9h28.6c14.7,0,26.5-11.9,26.5-26.6h8.8c14.7,0,26.5-11.9,26.5-26.6v-26.6h-101.2l-6-44.5c-2-14.5-15.3-24.7-29.8-22.8-.6,0-1.1.2-1.6.3l-9.5,1.9c-13.7,2.8-22.9,15.7-21.1,29.6l4.8,35.5h-377.2l4.8-35.4c1.9-13.9-7.3-26.9-21-29.7l-9.5-1.9c-14.4-2.9-28.3,6.4-31.2,20.8-.1.5-.2,1.1-.3,1.7l-6,44.5h-102.4v26.6c0,14.7,11.9,26.6,26.5,26.6h0ZM4332.4-1776.1h-27.6l71.7-531.2h27.5l-71.6,531.2h0ZM4739.2-2234.8c-67.1-61.3-169.8-61.3-236.9,0l-72.5-72.5h381.8l-72.4,72.5h0ZM4937.8-1776.1h-27.6l-71.7-531.2h27.6l71.7,531.2h0ZM4829.7-2434.7l9.4-1.9c4.8-1,9.4,2.2,10.4,6.9,0,.2,0,.4,0,.5l5.7,42.1h-27.6l-5.1-37.8c-.6-4.6,2.4-9,7-9.9h0ZM4393-2429.1c.6-4.8,5.1-8.2,9.9-7.6.2,0,.4,0,.6,0l9.5,1.9c4.6.9,7.7,5.2,7,9.9l-5.1,37.8h-27.6l5.7-42.1h0ZM4284.7-2369.3h672v8.9c0,4.9-4,8.9-8.8,8.9h-26.5v17.7c0,4.9-4,8.9-8.8,8.9h-583.6c-4.9,0-8.8-4-8.8-8.9v-17.7h-26.5c-4.9,0-8.8-4-8.8-8.9v-8.9Z"/>
    <path class="st0" d="M4674-2076.7c-14.6,0-26.4,11.8-26.4,26.4s11.8,26.4,26.4,26.4c3.9,0,7.8-.9,11.3-2.6l105.8,105.8c3.5,3.4,9.1,3.3,12.5-.2,3.3-3.4,3.3-8.8,0-12.2l-105.8-105.8c1.7-3.5,2.6-7.4,2.6-11.3,0-14.6-11.8-26.4-26.4-26.4h0Z"/>
  </g>
  <g>
    <path class="st0" d="M5233.8-1745.6c102.5,0,185.7-82.8,185.8-185.3,0-37.1-11.1-73.4-31.9-104.1l257.8-267.5,19.3,2.5,93.5-80.2-3-6.1c-6.9-14.1-16.1-27-27.2-38.1-10.8-12.2-24.6-21.4-40-26.6l-5.7-1.9-79.7,92.8,2.5,19.3-267.5,256.1c-85-57.4-200.4-35.1-257.9,49.8-57.5,84.9-35.1,200.2,49.8,257.6,30.7,20.8,67,31.8,104.1,31.8h0ZM5623.9-2334.4l-2.7-20.3,66.6-77.6c10.5,4.5,19.8,11.3,27.3,19.9,8.3,8.2,15.3,17.6,21,27.8l-77,66-20.3-2.7-261.9,271.9c-3.7-4.5-7.6-8.8-11.8-13-4.2-4.2-8.6-8.1-13-11.8l271.8-260.3ZM5346.1-2055.8c2.2,2,4.4,3.8,6.6,5.9,2.2,2.1,4,4.4,5.9,6.6l-106,105.9-12.5-12.5,106-105.9h0ZM5114.9-2049.9c58.4-58.3,150.5-65.6,217.3-17.1l-104.7,104.6-18.8-18.8-12.5,12.5,18.8,18.8-75.1,75,12.5,12.5,75.1-75,12.5,12.5-75.1,75,12.5,12.5,75.1-75,18.8,18.8,12.5-12.5-18.8-18.7,104.7-104.6c54.5,74.9,37.8,179.8-37.2,234.2-53.5,38.8-124.7,42.6-182.1,9.8l39.5-39.4-62.6-62.5-39.5,39.4c-37.5-65.7-26.5-148.3,27-201.9h0ZM5127.5-1862.4l37.5,37.5-29.7,29.6c-14.6-10.2-27.3-22.9-37.5-37.5l29.6-29.6Z"/>
    <path class="st0" d="M5647.9-2438.9c7,0,12.7-6,12.7-13.4s-5.7-13.4-12.7-13.4-12.7,6-12.7,13.4,5.7,13.4,12.7,13.4h0Z"/>
    <path class="st0" d="M5741.2-2345.5c0,7,5.7,12.7,12.7,12.7s12.7-5.7,12.7-12.7-5.7-12.7-12.7-12.7-12.7,5.7-12.7,12.7h0Z"/>
    <path class="st0" d="M5616-2406.3c7.4,0,13.4-6,13.4-13.4s-6-13.4-13.4-13.4-13.4,6-13.4,13.4,6,13.4,13.4,13.4h0Z"/>
    <path class="st0" d="M5722.1-2327.1c-7.4,0-13.4,6-13.4,13.4s6,13.4,13.4,13.4,13.4-6,13.4-13.4-6-13.4-13.4-13.4h0Z"/>
  </g>
  <g>
    <path class="st0" d="M-4786.8,2620.5c-2.7,0-4.4,0-7.1-1.8-8.8-3.5-13.3-14.1-9.7-22.9l114.8-278.5c3.5-8.8,14.1-13.2,23-9.7,8.8,3.5,13.3,14.1,9.7,22.9l-114.8,278.5c-1.8,7.9-8.8,11.5-15.9,11.5h0Z"/>
    <path class="st0" d="M-4727.7,2616.3c-4.4,0-8.8-1.8-12.4-5.3-7.1-7.1-7.1-17.7,0-24.8l247.6-247.6c7.1-7.1,17.7-7.1,24.8,0,7.1,7.1,7.1,17.7,0,24.8l-247.6,247.6c-3.5,3.5-8,5.3-12.4,5.3h0Z"/>
    <path class="st0" d="M-4611,2431.1c-17.6-7.1-37.9-13.2-59-18.5l-20.2,50.3c13.2,2.6,25.5,6.2,37.9,10.6l41.4-42.3h0Z"/>
    <path class="st0" d="M-4547.3,2467.4l-37.1,37.1c21.2,14.1,33.6,30.9,33.6,48.6,0,60.9-144.9,106-273.8,106s-273.8-45-273.8-106,144.9-106,273.8-106,41.5.9,61.8,3.5l21.2-51.2c-26.5-3.5-53.9-5.3-83-5.3-186.4.9-326.8,68.9-326.8,159.8v282.5c0,90.9,140.4,158.9,326.8,158.9s326.8-68,326.8-158.9v-282.5c0-32.7-17.7-61.8-49.5-86.5h0ZM-5072,2879.8c-16.8-13.2-35.3-28.3-35.3-43.3v-200.4c10.6,8.8,22.1,16.8,35.3,23.8v219.9h0ZM-4948.3,2929.2c-12.4-2.6-23.8-5.3-35.3-8.8v-226.9c11.5,2.6,23,5.3,35.3,7.9v227.8h0ZM-4807,2941.6h-35.3v-229.6h35.3v229.6h0ZM-4665.6,2920.4c-11.5,3.5-23,6.2-35.3,8.8v-227.8c12.4-2.6,23.8-5.3,35.3-7.9v226.9h0ZM-4542,2836.5c0,15.9-18.5,30-35.3,43.3v-219.9c13.3-7.1,24.7-15,35.3-23.8v200.4h0Z"/>
  </g>
  <g>
    <path class="st0" d="M-4156.6,2854.4c-1.1,7.3-1.7,14.7-1.8,22.1,0,80.6,65.5,145.9,146.1,145.9,52.6,0,101.1-28.4,126.9-74.3,24.6-57.9,10.6-145.3,52.6-175.5l13.1,13.1c3.5,3.5,9,3.5,12.5,0,3.5-3.5,3.4-9.1,0-12.5l-151.7-151.8c-3.5-3.4-9.1-3.3-12.5.2-3.3,3.4-3.3,8.9,0,12.3l11.7,11.7c-74.3,87.4-43.8,164.4-39.6,214.1v12.4c0,14.6-11.9,26.5-26.5,26.5s-26.5-11.9-26.5-26.5v-521.8c1.4-62.3-33.9-70.7-56.3-70.7-4.5,0-9,.3-13.5.9-34.5,1.8-73.3,29.2-79.5,61h-53.9c-4.6-.3-8.6,3.2-8.8,7.8,0,.3,0,.7,0,1,11.5,15.9,23,26.5,44.2,26.5s38-5.3,44.2-26.5c6.3-24.2,23.3-34.6,39.1-34.6,16.8-.8,31,12.2,31.8,29,0,1.9,0,3.8-.3,5.6l-51.2,504.1ZM-4099.3,2314.3c-7.4-8.1-17.2-13.5-28-15.4,0,0,0,0,0,0s0,0,0,0c6.2-.9,12.5-1.4,18.7-1.5h0c9.9-.8,19.7,2.6,27.1,9.3,8,8.2,12,23.2,11.5,43.8v521.1c-.1,24.6,19.7,44.7,44.3,44.9,24.1.2,43.9-19.3,44-43.4,0-.3,0-.5,0-.8v-13.9c-.8-9.2-2.4-18.9-4-29.1-7.6-47.2-16.9-105.2,38.4-171l101.7,101.7c-29.3,23.1-35.1,67.6-40.3,107.7-2.1,24.8-7.2,49.3-15.4,72.8-35.3,61.4-113.7,82.6-175.1,47.3-39.8-22.9-64.3-65.2-64.3-111.1.1-6.8.7-13.6,1.7-20.3l51.2-503.9c1.8-13.7-2.4-27.5-11.6-37.9h0Z"/>
    <path class="st0" d="M-4103.1,2766.3c0-8.6,7-15.6,15.6-15.6s15.6,7,15.6,15.6-7,15.6-15.6,15.6-15.6-7-15.6-15.6h0Z"/>
    <path class="st0" d="M-4103.1,2695.5c0-8.6,7-15.6,15.6-15.6s15.6,7,15.6,15.6-7,15.6-15.6,15.6-15.6-7-15.6-15.6h0Z"/>
    <path class="st0" d="M-4103.1,2624.8c0-8.6,7-15.6,15.6-15.6s15.6,7,15.6,15.6-7,15.6-15.6,15.6-15.6-7-15.6-15.6h0Z"/>
    <path class="st0" d="M-4103.1,2554c0-8.6,7-15.6,15.6-15.6s15.6,7,15.6,15.6-7,15.6-15.6,15.6-15.6-7-15.6-15.6h0Z"/>
  </g>
  <g>
    <path class="st0" d="M-2883.5,2270.8l-157,150.3,56.4,56.5,103.8-109.6c3.7-4.3,5.7-9.7,5.7-15.4l7.9-73c.6-5.6-3.4-10.7-9-11.3-2.9-.3-5.8.6-7.9,2.5h0Z"/>
    <path class="st0" d="M-3067.1,2446.5l-73.9,70.6-15.3-15.1,12.5-12.4c5.4-5,5.7-13.4.7-18.7-5-5.3-13.4-5.6-18.7-.7-.2.2-.4.4-.7.7l-224.9,224.4c-5.2,5.2-5.2,13.7,0,18.9,5.2,5.2,13.7,5.2,19,0l18.5-18.9,11,10.9-73.6,70.2,73.4,73.3,329.8-345.7-57.6-57.5h0ZM-3174.9,2520.8l14.8,14.6-70.7,67.1-12.8-13.1,68.8-68.6h0ZM-3331.2,2676.7l68.9-68.6,12.8,12.9-70.3,67-11.4-11.3h0ZM-3275.7,2750.7c-10.3,10.4-27.1,10.4-37.5,0,0,0,0,0,0,0-6.6-6.7-9.2-16.4-6.7-25.5l8.1,8.2c4,4,10.4,4,14.4,0,0,0,0,0,0,0l4.3-4.4c4-3.9,4-10.3,0-14.2,0,0,0,0,0,0l-8.1-8.2c14.2-3.6,28.6,4.9,32.2,19.1,2.3,8.9-.3,18.4-6.7,25h0ZM-3188.2,2663.4c-10.3,10.4-27.1,10.4-37.5,0,0,0,0,0,0,0-6.6-6.7-9.2-16.4-6.7-25.5l8.1,8.2c4,4,10.4,4,14.4,0,0,0,0,0,0,0l4.3-4.4c4-3.9,4-10.3,0-14.2,0,0,0,0,0,0l-8.1-8.2c14.2-3.6,28.6,4.9,32.2,19.1,2.3,8.9-.3,18.4-6.7,25h0ZM-3100.7,2576.1c-10.5,10.2-27.3,10-37.5-.5-6.4-6.6-9-16.1-6.7-25l8.1,8.2c4,4,10.4,4,14.4,0,0,0,0,0,0,0l4.3-4.4c4-3.9,4-10.3,0-14.2,0,0,0,0,0,0l-8.1-8.2c14.2-3.5,28.6,5.1,32.2,19.3,2.2,8.9-.3,18.3-6.7,24.8h0Z"/>
    <path class="st0" d="M-3403.3,3015.7c-50.2-49.9,44.4-143.5,44.4-143.5l-75.4-74.8s-94.5,93.7-144.7,43.9c-6.9-6.9-18.2-6.9-25.1,0-6.9,6.9-6.9,18,0,24.9l175.8,174.4c6.6,7.2,17.8,7.7,25.1,1.2,7.3-6.5,7.8-17.7,1.2-24.9-.4-.4-.8-.8-1.2-1.2h0Z"/>
  </g>
  <g>
    <path class="st0" d="M-2733.5,2450.8q.9,0,0,0l.9,444.3-68.2,68c-3.5,3.5-3.5,8.8,0,12.4,3.5,3.5,8.9,3.5,12.4,0h0l55.8-55.7v58.3c0,5.3,3.5,8.8,8.9,8.8s8.9-3.5,8.9-8.8v-58.3l55.8,55.7c3.5,3.5,8.9,3.5,12.4,0,3.5-3.5,3.5-8.8,0-12.4h0l-68.2-68v-441.7c10.6,1.8,21.3,1.8,31.9,2.7,9.7,0,19.5-.9,30.1-2.7,24.8-4.4,40.7-15,43.4-30,2.7-15-7.1-30-29.2-44.2-23-14.1-48.7-23-74.4-28.3h-1.8v-44.2c0-5.3-3.5-8.8-8.9-8.8s-8.9,3.5-8.9,8.8v41.5c-20.4-2.7-40.7-2.7-60.2,0-24.8,4.4-40.7,15-43.4,30-7.1,31.8,47.8,61,102.7,72.4h0ZM-2819.4,2381.9c1.8-7.1,12.4-13.2,29.2-15.9,8.9-1.8,17.7-1.8,26.6-1.8s20.4.9,31,2.6v19.4c0,5.3,3.5,8.8,8.9,8.8s8.9-3.5,8.9-8.8v-17.7c23.9,4.4,46.1,13.2,66.4,24.7,14.2,8.8,22.1,19.4,21.3,25.6-.9,6.2-12.4,13.3-29.2,15.9-24.8,3.5-49.6,2.7-73.5-2.6-59.3-10.6-92.1-37.1-89.5-50.4h0Z"/>
    <path class="st0" d="M-2173.8,2577.6v-41.6c0-5.3-3.6-8.8-8.9-8.8s-8.9,3.5-8.9,8.8v44.2h-1.8c-55.1,10.6-110.1,39.8-103.9,72.5,2.7,15,18.7,25.6,43.5,30.1,9.8,1.8,19.5,2.7,30.2,2.7s21.3-.9,32-2.7v212.2l-68.4,68.1c-3.6,3.5-3.6,8.8,0,12.4,3.6,3.5,8.9,3.5,12.4,0h0l56-55.7v58.4c0,5.3,3.6,8.8,8.9,8.8s8.9-3.5,8.9-8.8v-58.4l55.9,55.7c3.6,3.5,8.9,3.5,12.4,0,3.6-3.5,3.6-8.8,0-12.4l-68.4-68.1v-214.9h.9c55.1-10.6,110.1-39.8,103.9-72.5-2.7-15-18.7-25.6-43.5-30.1-20.4-2.7-40.9-2.7-61.3,0h0ZM-2086.8,2611.2c2.7,13.3-30.2,39.8-89.7,51.3-24,5.3-48.8,6.2-73.7,2.7-16.9-2.7-28.4-8.8-29.3-15.9-2.7-13.3,29.3-38.9,87.9-51.3v17.7c0,5.3,3.6,8.8,8.9,8.8s8.9-3.5,8.9-8.8v-20.3c18.6-2.7,38.2-2.7,57.7,0,16.9,2.7,27.5,8.8,29.3,15.9h0Z"/>
    <path class="st0" d="M-2644.4,2837c0,97.3,79.6,176.9,176.9,176.9s176.9-79.6,176.9-176.9-59.2-156.5-141.5-173.3v-127.3h26.5v35.4c0,25.6,62.8,26.5,75.2,26.5s75.2-.9,75.2-26.5v-61.9c0-25.6-62.8-26.5-75.2-26.5s-75.2.9-75.2,26.5v8.8h-44.2v142.4c-6.2-.9-11.5-.9-17.7-.9s-11.5,0-17.7.9v-142.4h-44.2v-8.8c0-25.6-62.8-26.5-75.2-26.5s-75.2.9-75.2,26.5v61.9c0,25.6,62.8,26.5,75.2,26.5s75.2-.9,75.2-26.5v-35.4h26.5v127.3c-82.2,16.8-141.5,89.3-141.5,173.3h0ZM-2330.5,2580.6c-18.6.9-38-1.8-55.7-8.8h0c17.7-7.1,36.3-9.7,55.7-8.8,18.6-.9,38,1.8,55.7,8.8h0c-17.7,7.1-37.1,9.7-55.7,8.8h0ZM-2388,2510.7c4.4-3.5,23.9-9.7,57.5-9.7s53.1,6.2,57.5,9.7v42.4c-18.6-5.3-38-8-57.5-8s-38.9,2.7-57.5,8v-42.4h0ZM-2604.6,2580.6c-18.6.9-38-1.8-55.7-8.8h0c17.7-7.1,36.3-9.7,55.7-8.8,18.6-.9,38,1.8,55.7,8.8h0c-17.7,7.1-37.1,9.7-55.7,8.8h0ZM-2547.1,2553.1c-18.6-5.3-38-8-57.5-8s-38.9,2.7-57.5,8v-42.4c4.4-3.5,23.9-9.7,57.5-9.7s53.1,6.2,57.5,9.7v42.4h0ZM-2467.5,2677.8c87.5,0,159.2,71.6,159.2,159.2s-71.6,159.2-159.2,159.2-159.2-71.6-159.2-159.2,71.6-159.2,159.2-159.2h0Z"/>
    <path class="st0" d="M-2468.3,2960.1c68.1,0,123.8-55.7,123.8-123.8s-55.7-123.8-123.8-123.8-123.8,55.7-123.8,123.8,55.7,123.8,123.8,123.8h0ZM-2468.3,2730.2c58.4,0,106.1,47.8,106.1,106.1s-47.8,106.1-106.1,106.1-106.1-47.8-106.1-106.1,47.8-106.1,106.1-106.1h0Z"/>
  </g>
  <path class="st0" d="M-2053,2585.1v70.6c0,9.7,8,17.6,17.7,17.6s17.7-7.9,17.7-17.6v-17.6h70.8c-11.5,15-17.7,32.6-17.7,52.9,0,48.5,39.8,88.2,88.5,88.2h62v35.3h35.4v-35.3h35.4v35.3h35.4v-35.3h35.4v35.3h35.4v-35.3h62c48.7,0,88.5-39.7,88.5-88.2s-6.2-37.9-17.7-52l31.9.9c59.3,2.6,162,18.5,162,97v-.9c0,9.7,8,17.6,17.7,17.6s17.7-7.9,17.7-17.6v-229.3c0-9.7-8-17.6-17.7-17.6s-17.7,7.9-17.7,17.6c0,78.5-102.7,94.4-162,97h-164.7v-35.3h-35.4v35.3h-35.4v-35.3h-35.4v35.3h-35.4v-35.3h-35.4v35.3h-203.6v-17.6c0-9.7-8-17.6-17.7-17.6s-17.7,7.1-17.7,16.8h0ZM-1636.9,2743.8v-105.8h62c29.2,0,53.1,23.8,53.1,52.9s-23.9,52.9-53.1,52.9h-62ZM-1707.7,2743.8v-105.8h35.4v105.8h-35.4ZM-1778.6,2743.8v-105.8h35.4v105.8h-35.4ZM-1875.9,2638h62v105.8h-62c-29.2,0-53.1-23.8-53.1-52.9s23.9-52.9,53.1-52.9h0Z"/>
  <path class="st0" d="M-578,2333.3h-601.3c-9.8,0-17.7,7.9-17.7,17.7v601.3c0,9.8,7.9,17.7,17.7,17.7h601.3c9.8,0,17.7-7.9,17.7-17.7v-601.3c0-9.8-7.9-17.7-17.7-17.7h0ZM-765.2,2731.2h19.2v201.4c0,.6,0,1.3,0,1.9h-115v-203.4h19.2c8.8,0,16.2-9.7,16.2-21.8v-340.7h44.2v340.6c0,12.1,7.3,21.9,16.2,21.9h0ZM-992.2,2731.2c8.8,0,16.2-9.7,16.2-21.8v-340.7h44.2v340.6c0,12.1,7.3,21.8,16.2,21.8h19.2v203.5h-115v-203.4h19.2ZM-1161.7,2368.7h79.6v340.6c0,12.1,7.3,21.8,16.2,21.8h19.2v203.5h-115v-565.9h0ZM-595.7,2934.6h-115c0-.6,0-1.3,0-1.9v-201.4h19.2c8.8,0,16.2-9.7,16.2-21.8v-340.7h79.6v565.9h0Z"/>
  <g>
    <path class="st0" d="M462.6,2580.2c0-9.8,33.9-17.7,75.7-17.7s75.7,7.9,75.7,17.7-33.9,17.7-75.7,17.7-75.7-7.9-75.7-17.7h0Z"/>
    <path class="st0" d="M737,2580.2c0-9.8,33.6-17.7,75-17.7s75,7.9,75,17.7-33.6,17.7-75,17.7-75-7.9-75-17.7h0Z"/>
    <path class="st0" d="M1070.6,2613.1c-4.2-21.6-44.9-32.3-94.9-26.5v-59.4h-35.5v65.5c-52.5,13.1-89.8,39.6-85.4,61.9,3.9,20.2,39.7,30.8,85.4,27.7v211.5l-70.9,70.8,25.1,25,45.8-45.8v43.5h35.5v-43.6l46.2,46.1,24.7-25-70.9-70.8v-216.4c57.4-12.1,99.6-40.5,94.9-64.5h0Z"/>
    <path class="st0" d="M436.1,2359.8v-61.9h-35.5v56c-48-4.5-86.4,6.4-90.5,27.5-4.5,23.7,35.5,51.6,90.5,64.4v447.5l-71.6,71.4,25,25,46.6-46.7v44.2h35.5v-43l45.6,45.4,25.4-25-70.9-70.7v-442.5c47.7,4.2,85.7-6.5,89.8-27.7,4.5-23.5-35-51.4-89.8-64.1h0Z"/>
    <path class="st0" d="M577.2,2837c0-53.9,43.7-97.6,97.6-97.6s97.6,43.7,97.6,97.6-43.7,97.6-97.6,97.6-97.6-43.7-97.6-97.6h0Z"/>
    <path class="st0" d="M812.2,2544.4c22.5,0,54.8,2,74.8,11.9v-56.1c-1.7-10.4-34.8-18.6-75.2-18.6s-73.3,8.2-75.2,18.6h0v8.9h-53.1v150.5h-17.7v-150.5h-53.1v-8.9c-1.7-10.9-34.8-19.7-75.2-19.7s-73.3,8.8-75.2,19.7h0v56.5c19.9-9.9,53.1-12.2,75.5-12.2s54.8,2,74.8,11.7v-11.7h17.7v120.9c-94.6,24.4-151.4,121-127,215.7,24.4,94.7,120.9,151.6,215.5,127.2s151.4-121,127-215.7c-16.1-62.4-64.7-111.1-127-127.2v-120.9h17.7v12.4c19.9-10,53.1-12.4,75.5-12.4h0ZM798.6,2836.5c0,68.5-55.4,123.9-123.8,123.9s-123.8-55.5-123.8-123.9,55.4-123.9,123.8-123.9,123.8,55.5,123.8,123.9h0Z"/>
  </g>
  <g>
    <path class="st0" d="M1774.1,2334c0-7.4-6-13.4-13.4-13.4s-13.4,6-13.4,13.4,6,13.4,13.4,13.4,13.4-6,13.4-13.4h0Z"/>
    <path class="st0" d="M1726.7,2363c7.4,0,13.4-6,13.4-13.4s-6-13.4-13.4-13.4-13.4,6-13.4,13.4,6,13.4,13.4,13.4h0Z"/>
    <path class="st0" d="M1692.7,2353.1c-7.4,0-13.4,5.7-13.4,12.7s6,12.7,13.4,12.7,13.4-5.7,13.4-12.7-6-12.7-13.4-12.7h0Z"/>
    <path class="st0" d="M1229.7,2896.1c15.1,13.8,31,26.7,47.7,38.7,21.6,15.1,47,23.9,73.4,25.3,24.3,0,48.5-10.3,69.8-37.7.7-.9,1.4-1.8,2.1-2.7.5-.7,1.1-1.3,1.6-2.1,50.6-71.2,24.8-108.8,57.6-129.8,32.8-21,65.1-20.4,79.6-50.4,11.6-24.1.7-41-12.4-41-3.5,0-7,1.2-9.8,3.2-8,5.9-17.5,9.2-27.4,9.5-14-.2-26.8-7.7-33.8-19.8l4.3-4.6.2-.3h0l206.4-217.2,37.5-12.5c37.7-78.9,72-57.5,89.2-81.5,17.2-24-13.8-34.3-13.8-34.3l-131.6,59.6-12.6,37.5-192.5,183.8-.3-.3-.9.9c-25.5-2.2-50-43.4-9.2-77.4,14.1-11.7,5.2-24.9-13.1-24.9s-53.4,16.9-78.7,72.2c-47.5,104.2-64.9,47-154.8,110.9-89.9,64-14.4,158.6,21.5,194.7h0ZM1684.5,2411.5l116.9-52.9c.6.4,1.1.9,1.6,1.4-.5,1.1-1,2.1-1.8,3-2.5,3.5-5.8,4.9-14.8,8.2-18.4,6.7-45.7,16.7-72.6,69.1l-26.4,8.8-11.7-11.7,8.7-26h0ZM1470.7,2638.7h.2l5.6-5.4,189.4-180.8,6.4,6.4-202.8,213.3-4.5,4.5-16.2-16.3,21.9-21.9h0ZM1439.7,2630.2c.6.3,1.2.5,1.9.7,2.5,1.6,5.2,2.9,7.9,4l-19.4,19.5c-3.5,3.5-3.5,9.1,0,12.5l28.7,28.8c1,1,2.3,1.7,3.7,2.1,10.1,17.7,28.8,28.8,49.2,29,13-.2,25.7-4.4,36.4-11.9h.1c.9,5.1-.1,10.4-2.8,14.8-6,12.4-16.4,17.1-35.8,25-13,4.9-25.5,11-37.4,18.2-21.8,14-25.4,33.3-29.3,53.8-4.3,29.2-15.7,56.9-33.3,80.7l-.2.2c-.1.2-.3.2-.4.4-3.8,6.2-10.4,10.1-17.7,10.3-4.4-.3-8.2-3.2-9.8-7.3-2-5-2-10.6.2-15.5,3.4-11.4,3.5-23.4.4-34.8-8.3-30.7-33.4-47-55.6-61.3-26.9-17.3-43.1-29.2-38.1-54.5,5.8-29,30.9-35.8,57.5-43,22.3-6,45.4-12.3,52.5-34,6.7-20.4,17.1-34.9,28-38.9,4.3-1.8,9.2-1.3,13.2,1.3h0ZM1292.2,2681.8c35-8.8,56.3-17.2,86.9-84.1,18.4-40.2,40.7-57.6,56.5-61.1,0,0,.1,0,0,.2-17.4,16.2-24.2,40.9-17.6,63.7,1.3,3.9,3,7.6,5.2,11.1-.9.2-1.8.3-2.7.7-16.3,6-30.1,23.7-38.7,50-4.1,12.6-20.9,17.1-40.3,22.4-27.7,7.5-62.2,16.9-70.2,56.6-7.7,38.4,20.8,56.7,45.8,72.9,20.5,13.2,41.6,26.8,48.1,51,2.3,8.6,2.2,17.6-.5,26.1-3.2,9-2.8,18.8,1.1,27.5,3.1,6.9,8.7,12.4,15.8,15.3,0,0,0,0,0,.1,0,0,0,0,0,0-9.4,5.4-20.1,8.2-30.9,8.2-22.8-1.3-44.8-9.1-63.4-22.3-15.8-11.4-30.9-23.7-45.4-36.8-15.1-15.2-62.2-66.8-58.3-113.9,1.8-20.7,13.1-38.2,34.7-53.6,21.9-16.5,47.1-28.1,73.9-34h0Z"/>
    <path class="st0" d="M1385.5,2709.3c-3.4-3.4-8.9-3.3-12.2.2-3.2,3.4-3.2,8.9,0,12.3l36.7,37.7c3.4,3.4,8.9,3.3,12.2-.2,3.2-3.4,3.2-8.9,0-12.3l-36.7-37.7Z"/>
    <path class="st0" d="M1347.6,2747.5c-3.5-3.4-9.1-3.3-12.5.2-3.3,3.4-3.3,8.9,0,12.3l37.5,37.5c3.4,3.5,9,3.6,12.5.2,3.5-3.4,3.6-9,.2-12.5,0,0-.1-.1-.2-.2l-37.5-37.5Z"/>
  </g>
  <g>
    <path class="st0" d="M2759.4,2884.6l-49.4,38.1c-11.6,11.1-18.8,31.2,6.4,56.1,8.3,9.8,20.2,15.8,33,16.8,8.8-.2,17.2-3.9,23.2-10.4l38.1-49.4c13.8-11.2,26.2-24,37-38.1,6.5-8.1,256.3-256,256.3-256,13.2-12.5,28.1-23,44.2-31.3.7,0,1.3.1,2,.1,9.1,0,16.4-7.4,16.4-16.5,0-.6,0-1.3-.1-1.9,0-1.6,66.1-68.7,105.1-107l19.9-18.1c2.5-1.5,62.5-37.5,88.4-92.8,3.9-6.5,7.9-13,11.9-19.3,5.9-6.4,0-12.5-19.3-31.2-14.1-14.6-21.1-21.5-26.4-21.5-1.8,0-3.6.8-4.9,2.1-6.4,4.1-12.9,8-19.4,11.9-55.4,25.9-91.5,85.8-93,88.3l-17.9,19.5c-38.3,39.4-105.1,105-107.2,105-9-1.4-17.4,4.8-18.8,13.7-.3,1.7-.3,3.5,0,5.2-8.3,16.1-18.8,31-31.3,44.1,0,0-248.2,249.3-256.3,255.8-14.1,10.7-26.9,23-38.1,36.6h0ZM2759.2,2973.3c-2.6,2.7-6.1,4.3-9.9,4.5-8-1.2-15.3-5.4-20.5-11.6-6.3-5.1-10.5-12.4-11.7-20.5.2-3.7,1.9-7.2,4.6-9.8l22.2-17.1,32.4,32.4-17.1,22.1h0ZM3242,2416.5l1.2-1.4.9-1.5c3.6-5.9,36.6-58.6,85.3-81.4l.9-.4.8-.5c4.8-2.9,10-6,15-9.2,4,3.6,9.6,9.5,13.8,13.8l.2.2.2.2c4.3,4.1,10.1,9.7,13.7,13.7-3.2,5.1-6.3,10.2-9.2,15l-.5.8-.4.8c-22.7,48.6-75.5,81.5-81.6,85.2l-1.5.9-1.3,1.1-6.9,6.3-37-36.9,6.3-6.9h0ZM3156.3,2503.9c23.6-23.1,49.4-49,67.4-67.5l35.8,35.7h-.1c0,.1-.2.4-.2.4-76.9,75.6-100.2,100.1-107.3,110.6l-38.9-38.8c15.3-12.5,29.8-26,43.3-40.4h0ZM2808.4,2861.8h.2c8.3-6.8,199.4-198.6,258.1-257.5,13.4-14.1,24.8-30.1,33.8-47.4l38.5,38.5c-17.4,9-33.4,20.4-47.5,33.9-58.7,58.3-251,249.2-257.6,257.4l-.2.2v.2c-10.1,13-21.5,24.8-34.2,35.1l-1.6,1.3-1.3,1.6-9.4,12.2-29.2-29.1,12.2-9.4,1.6-1.2,1.3-1.6c10.4-12.6,22.2-23.9,35.1-33.8l.2-.2Z"/>
    <path class="st0" d="M2860.1,2846.9c2.5,0,4.9-.8,6.8-2.4l.8-.8c4-4.4,3.7-11.2-.7-15.2-4.1-3.8-10.5-3.8-14.6,0-4.2,4.2-4.2,11,0,15.2,2,2,4.8,3.2,7.6,3.2h0Z"/>
    <path class="st0" d="M2910.2,2797.4c2.6,0,5.2-.9,7.2-2.5l.9-.9c4.4-4.5,4.3-11.6-.2-16-4.5-4.4-11.6-4.3-16,.2-4.4,4.5-4.3,11.6.2,16,2.1,2.1,5,3.2,8,3.2h0Z"/>
    <path class="st0" d="M2960.5,2746.4c2.5,0,4.8-.8,6.7-2.4l.8-.8c4.1-4.2,4-10.9-.2-15-4.2-4.1-10.9-4-15,.2-4.1,4.2-4,10.9.2,15,2,1.9,4.7,3,7.5,3h0Z"/>
    <path class="st0" d="M3010.7,2696.9c2.6,0,5.1-.9,7.2-2.5l.9-.9c4.4-4.4,4.4-11.5,0-16-4.4-4.4-11.6-4.4-16,0-4.4,4.4-4.4,11.6,0,16,2.1,2.1,5,3.3,8,3.3h0Z"/>
    <path class="st0" d="M3060.2,2646h0c2.6,0,5.1-.8,7.1-2.4l.9-.8c4.4-4.2,4.3-10.9-.1-15-4.5-4.1-11.6-4.1-16,.1-4.4,4.2-4.3,10.8,0,15,2.1,2,5,3.1,8,3.1h0Z"/>
  </g>
  <g>
    <path class="st0" d="M3528.6,2902.1c-12.3,2.3-23.5,8.5-32,17.7-11.6,11.1-18.7,31.2,6.4,56.1,25,24.9,44.9,17.7,56,6.4,9.1-8.6,15.3-19.8,17.6-32.1l-48-48.1Z"/>
    <path class="st0" d="M4159.2,2319.5c-18.7-19.3-24.9-25.3-31.4-19.4h0c-6.4,4.1-12.9,8.1-19.4,12-55.5,26-91.7,86.2-93.2,88.7l62.7,62.7c2.5-1.5,62.7-37.6,88.7-93.2,3.9-6.5,7.9-13,12-19.4h0c5.9-6.4,0-12.6-19.3-31.3h0Z"/>
    <path class="st0" d="M3997.1,2419.6c-38.3,39.4-123.8,123.8-125.9,123.8-9-1.4-17.4,4.8-18.8,13.7-.3,1.7-.3,3.5,0,5.2-8.3,16.2-18.8,31-31.3,44.2,0,0-229.5,230.8-237.6,237.4-14.1,10.7-26.9,23-38.1,36.7l51.2,51.2c13.8-11.2,26.2-24,37-38.1,6.5-8.1,237.6-237.6,237.6-237.6,13.2-12.5,28.1-23,44.2-31.3,9,1.1,17.2-5.3,18.3-14.4.2-1.3.2-2.6,0-3.9,0-1.6,84.8-87.4,123.8-125.8l-60.5-61.1ZM3658.7,2844c-6.9,6.9-18.1,6.9-25,0-6.9-6.9-6.9-18.1,0-25,6.9-6.9,18.1-6.9,25,0,6.9,6.9,6.9,18,0,24.9h0ZM3708.6,2794c-6.9,6.9-18.1,6.9-25,0-6.9-6.9-6.9-18.1,0-25,6.9-6.9,18.1-6.9,25,0,6.9,6.9,6.9,18,0,24.9h0ZM3758.7,2744c-6.9,6.9-18.1,6.9-25,0-6.9-6.9-6.9-18.1,0-25,6.9-6.9,18.1-6.9,25,0,6.9,6.9,6.9,18,0,24.9h0ZM3808.7,2694c-6.9,6.9-18.1,6.9-25,0-6.9-6.9-6.9-18.1,0-25,6.9-6.9,18.1-6.9,25,0,6.9,6.9,6.9,18,0,24.9h0ZM3858.7,2643.9c-6.9,6.9-18.1,7-25,0-6.9-6.9-7-18.1,0-25,6.9-6.9,18.1-7,25,0,0,0,0,0,0,0,6.8,6.9,6.8,18,0,24.8h0Z"/>
  </g>
  <g>
    <path class="st0" d="M5674.8,2334c0-7.4,6-13.4,13.4-13.4s13.4,6,13.4,13.4-6,13.4-13.4,13.4-13.4-6-13.4-13.4h0Z"/>
    <path class="st0" d="M5640.8,2349.6c0-7.4,6-13.4,13.4-13.4s13.4,6,13.4,13.4-6,13.4-13.4,13.4-13.4-6-13.4-13.4h0Z"/>
    <path class="st0" d="M5606.8,2366.6c0-7.4,6-13.4,13.4-13.4s13.4,6,13.4,13.4-6,13.4-13.4,13.4-13.4-6-13.4-13.4h0Z"/>
    <path class="st0" d="M5729.4,2339l-131.6,59.6-12.6,37.5-193.2,184.5c-25.6-1.8-50.7-43.2-9.6-77.4,30-24.9-44.2-56.9-91.8,47.3-47.6,104.2-65,47-154.9,111-89.9,64-14.4,158.6,21.6,194.7,15.1,13.8,31,26.7,47.6,38.7,44.2,28.2,102.7,45,146.8-17.1,50.6-71.2,24.8-108.9,57.6-129.8,32.8-21,65.2-20.4,79.6-50.4,14.4-30-5.9-48.9-22.3-37.8-30.5,20.9-54.2,2.6-61.2-10.4l211-221.9,37.5-12.5c37.7-78.9,72-57.5,89.2-81.5,17.1-24-13.8-34.3-13.8-34.3h0ZM5459.9,2723.3c.8,2.8-9.7,17.7-29.1,25.2-13,4.8-25.4,10.9-37.2,18.1-21.8,14-25.5,33.4-29.3,53.8-5.1,29-16.5,56.5-33.2,80.7-9.8,15.1-29,21.5-36.3,1.1-6.7-18.6,8.8-23.5,0-50-18.7-56.4-113.9-63.5-93.8-118.9,25-68.8,93.8-37.5,106.1-75,12.3-37.5,31.3-44.2,44.2-31.3,12.9,12.9,6.6,49.6,37.5,87.6,14.1,17.6,40.7,32.6,71.2,8.7h0Z"/>
    <polygon class="st0" points="5310.6 2686.5 5373.1 2749.1 5348.1 2774.1 5285.6 2711.6 5310.6 2686.5 5310.6 2686.5"/>
    <polygon class="st0" points="5266.8 2730.3 5329.4 2792.8 5304.3 2817.9 5241.8 2755.3 5266.8 2730.3 5266.8 2730.3"/>
  </g>
  <path class="st0" d="M-1049.2-2430.4c-92.8.9-166.2,79.5-166.2,172.2v446.1c0,19.5,15.9,35.3,35.4,35.3h601.3c19.5,0,35.3-15.8,35.4-35.3v-167.8c.6-50.9-35.7-94.8-85.9-103.7l-2.5-.5c-182.2-39.7-172.4-37.1-259.1-240.3-24.9-63.5-85.9-105.5-154.2-106h-4.1ZM-907.3-2317.9v.2c0,0,.2.2.2.2,4.3,10,8.3,19.6,12.2,28.6,75.9,178.8,80.7,183,257.9,221.6l4.7.9c7.7,1.3,15.1,3.7,22.2,7.1,30,15.1,49,45.7,49.1,79.3v167.8c0,9.8-7.9,17.7-17.7,17.7h-601.3c-9.8,0-17.7-7.9-17.7-17.7v-97.3h61.9v79.5h17.7v-79.5h35.4v79.5h17.7v-79.5h35.4v79.5h17.7v-79.5h97.3v79.5h17.7v-79.5h35.4v79.5h17.7v-79.5h97.3v79.5h17.7v-79.5h35.4v79.5h17.7v-79.5h35.4v79.5h17.7v-79.5h61.9v-17.7h-636.7v-331.1c-1-83.5,65.4-152.4,149-154.6,1.2,0,2.4,0,3.6,0,61,.7,115.5,38.2,137.8,94.9h0Z"/>
  <path class="st0" d="M968.7-2308.5c-.9-.9-1.8-.9-2.7-.9h-.9c-.9-.9-2.7-.9-3.5-.9s-3.5-.9-3.5-.9h-5.3c-33.6,0-93.7,36.3-145.9,36.3s-7.1,0-11.5-.9c-79.6-8.8-97.2-145.9-203.3-185.7-42.4-15.9-110.5-17.7-138.8-17.7v-8.8c-1.8-12.4-12.4-22.1-25.6-23h-.9c-15,0-26.5,11.5-26.5,26.5v4.4l110.5,685.3h-15c-15,0-26.5,11.5-26.5,26.5v17.7h-8.8c-15,0-26.5,11.5-26.5,26.5v26.5h335.9v-26.5c0-15-11.5-26.5-26.5-26.5h-8.8v-17.7c0-15-11.5-26.5-26.5-26.5h-14.1l284.6-477.5c7.1-12.4,2.7-28.3-9.7-36.3h0ZM418-2482.7c-.9-4.4,2.7-9.7,7.1-9.7h1.8c4.4.9,8,4.4,8,8.8l.9,8,.9,3.5h0l17.7,112.3h0l91.9,565h-17.7l-110.5-688h0ZM722.9-1948.6l-34.5,58.4-72.5-450.1c21.2,17.7,35.4,39.8,53.9,60.1h0l53,331.6h0ZM772.5-2030.9l-34.5,58.4-46-288.3c14.1,11.5,30.9,20.3,48.6,26.5l31.8,203.4h0ZM758.3-2228.1c6.2,1.8,11.5,2.7,18.6,4.4,8.8,1.8,17.7,2.7,26.5,2.7h0l17.7,108.8-34.5,58.4-28.3-174.2h0ZM674.3-1867.3l-41.5,69.9h0l-91.9-575.7c15,1.8,30.1,6.2,44.2,12.4,4.4,1.8,8,3.5,11.5,6.2l77.8,487.2h0ZM615.1-1794.8h-51.3l-92.8-581c6.2,0,14.1-.9,23-.9s18.6,0,28.3.9l92.8,581h0ZM733.6-1732.9h8.8c5.3,0,8.8,3.5,8.8,8.8v8.8h-300.6v-8.8c0-5.3,3.5-8.8,8.8-8.8h274ZM707-1777.1c5.3,0,8.8,3.5,8.8,8.8v17.7h-229.8v-17.7c0-5.3,3.5-8.8,8.8-8.8h212.2ZM962.5-2281.1l-289.9,486.3h-20.3l259-434.2c5.3-8.8,2.7-21.2-7.1-26.5-2.7-1.8-6.2-2.7-9.7-2.7h-3.5c-8.8,1.8-17.7,4.4-26.5,7.1-19.4,7.1-39.8,10.6-61,11.5-8,0-15-.9-23-2.7-68.1-14.1-91-42.4-114.9-72.5-18.6-23-37.1-46-73.4-62.8-30.9-12.4-64.5-17.7-98.1-17.7s-15.9,0-23.9.9h-1.8l-11.5-69c28.3,0,91,2.7,129.1,16.8,48.6,18.6,76.9,60.1,104.3,99.9,28.3,41.6,55.7,81.4,102.5,86.7,4.4.9,8.8.9,13.3.9,31.8,0,65.4-11.5,94.6-22.1,16.8-7.1,33.6-11.5,51.3-14.1h6.2l.9.9c4.4,4.4,6.2,9.7,3.5,13.3h0ZM821.1-2222.8c30.1-3.5,54.8-14.1,72.5-17.7h0c.9,0,1.8.9,1.8,1.8v.9l-61,101.7-13.3-86.7h0Z"/>
  <path class="st0" d="M277.5,2483.3c-14.7,0-26.5,11.9-26.5,26.5,0,70.9-96.1,85.8-153,88.3H-75.4v-17.7h8.8c4.9,0,8.8-4,8.8-8.8s-4-8.8-8.8-8.8h-35.4c-4.9,0-8.8,4-8.8,8.8s4,8.8,8.8,8.8h8.8v17.7h-53.1v-17.7h8.8c4.9,0,8.8-4,8.8-8.8s-4-8.8-8.8-8.8h-35.4c-4.9,0-8.8,4-8.8,8.8s4,8.8,8.8,8.8h8.8v17.7h-53.1v-17.7h8.8c4.9,0,8.8-4,8.8-8.8s-4-8.8-8.8-8.8h-35.4c-4.9,0-8.8,4-8.8,8.8s4,8.8,8.8,8.8h8.8v17.7h-203.4v-8.8c0-14.6-11.9-26.5-26.5-26.5-14.3-.4-26.1,10.8-26.5,25.1,0,.2,0,.4,0,.5v70.7c0,14.6,11.9,26.5,26.5,26.5s26.5-11.9,26.5-26.5v-8.8h77.4c-15.5,13.4-24.3,32.7-24.3,53v1.8c0,38.5,31.3,69.7,69.9,69.8h80.5v35.3h17.7v-35.3h53.1v35.3h17.7v-35.3h53.1v35.3h17.7v-35.3H5.1c38.6,0,69.8-31.3,69.9-69.8v-1.8c0-19.9-8.6-38.9-23.6-52.1h14.5l31.7.9c57.3,2.6,153.4,17.4,153.4,88.3h0c.2,14.6,12.3,26.3,27,26.1s26.3-12.3,26.1-26.9v-229.7c0-14.6-11.9-26.5-26.5-26.5h0ZM-234.6,2757.1h-80.5c-28.8,0-52.2-23.3-52.2-52.1v-1.8c0-28.8,23.4-52.1,52.2-52.1h80.5v106h0ZM-234.6,2633l-221.1-.4v26.5c0,4.9-4,8.8-8.8,8.8s-8.8-4-8.8-8.8v-70.7c.1-4.5,3.9-8.1,8.4-8,.1,0,.3,0,.4,0,4.9,0,8.8,4,8.8,8.8v26.5h221.1v17.2h0ZM-163.8,2757.1h-53.1v-106h53.1v106h0ZM-163.8,2633.1h-53.1v-17.3h53.1v17.3h0ZM-93.1,2757.1h-53.1v-106h53.1v106h0ZM-93.1,2633.2h-53.1v-17.4h53.1v17.4h0ZM57.3,2703.2v1.8c0,28.8-23.4,52.1-52.2,52.1h-80.5v-106H5.1c28.8,0,52.2,23.3,52.2,52.1h0ZM286.4,2739.5c0,4.9-4,8.8-8.8,8.8s-8.8-4-8.8-8.8h0c-.6-62.9-61-100.2-170.5-105.1l-32.1-.9-141.5-.2v-17.5H98.4c109.8-4.9,170.3-42.5,170.3-106s4-8.8,8.8-8.8,8.8,4,8.8,8.8v229.7Z"/>
  <path class="st0" d="M2073,3043.4c6.6,7.2,17.7,7.8,25,1.2,7.2-6.6,7.8-17.8,1.2-25-.4-.4-.8-.8-1.2-1.2-49.9-50.1,44.2-144.2,44.2-144.2l478.4-504.5c3.7-4.3,5.7-9.7,5.7-15.4l8-73.1c.6-5.6-3.4-10.7-9-11.4h0c-.4,0-.8,0-1.1,0-2.5,0-4.9.9-6.8,2.6l-248.6,238.1-20-20,25-25.1c3.5-3.4,3.6-9,.2-12.5-3.4-3.5-9-3.6-12.5-.2,0,0-.1.1-.2.2l-237.4,237.8c-3.5,3.4-3.6,9-.2,12.5,3.4,3.5,9,3.6,12.5.2,0,0,.1-.1.2-.2l26.7-26.8,15.8,15.8-111.7,107s-58.7,58.8-107.9,58.8c-13.5.3-26.6-5-36.1-14.7-6.9-6.9-18.1-6.9-25,0-6.9,6.9-6.9,18.1,0,25l174.9,175.3ZM2614.3,2299.6s0,0,.1,0c0,0,0,0,0,0l-5.7,52.6v.9c0,0,0,.9,0,.9,0,1.4-.5,2.7-1.3,3.8l-99,104.4-31.2-31.3,137.3-131.4h0ZM2336.2,2502.7l19.7,19.8-74.9,71.7-18.1-18.1,73.2-73.3h0ZM2175.5,2663.7l75-75.1,17.8,17.8-76.7,73.4-16.1-16.1h0ZM2191.3,2704.6l9.3,9.2c-3.3,11.7,3.5,23.9,15.3,27.2,7.7,2.2,15.9,0,21.5-5.7h0c8.6-8.6,8.6-22.6,0-31.2-6.7-6.7-17-8.4-25.5-4.1l-7.8-7.8,76.7-73.4,7.3,7.3c-3.3,11.7,3.6,23.9,15.3,27.2,7.7,2.2,15.9,0,21.5-5.7h0c8.6-8.6,8.5-22.6-.1-31.2-6.7-6.7-17-8.3-25.4-4l-5.8-5.8,74.9-71.7,5.4,5.4c-3.3,11.7,3.6,23.9,15.3,27.2,7.7,2.1,15.9,0,21.5-5.7h0c8.6-8.6,8.7-22.6,0-31.2-6.7-6.8-17.1-8.5-25.6-4.1l-3.9-3.9,83-79.5,31.8,31.9-340.8,359.4-48.8-48.8,84.8-81.2h0ZM1959.2,2875.5c55,0,113.9-57.4,120.1-63.7l14.4-13.8,49.3,49.4-13.6,14.4c-36.3,36.4-84.5,106.9-54.1,156.4,2.4,3.7,5.1,7.2,8.2,10.5,0,0,0,.2-.1,0l-172-172.4s0,0,0-.1c0,0,0,0,.1,0,3.6,3.4,7.4,6.5,11.5,9.3,10.8,6.7,23.4,10.1,36.1,9.9h0Z"/>
  <path class="st0" d="M4824.3,2341.8h-504.6c-4.9,0-8.9,4-8.9,8.8v600.6c0,4.9,4,8.8,8.9,8.8h602c4.9,0,8.9-4,8.9-8.8v-600.6c0-4.9-4-8.8-8.9-8.8h-97.4ZM4735.8,2359.5h70.8v371h-70.8v-371h0ZM4585.3,2359.5h70.8v371h-70.8v-371h0ZM4434.8,2359.5h70.8v371h-70.8v-371h0ZM4461.4,2942.4h-132.8v-582.9h88.5v371c0,9.8,7.9,17.7,17.7,17.7h26.6v194.3h0ZM4611.9,2942.4h-132.8v-194.3h26.6c9.8,0,17.7-7.9,17.7-17.7v-371h44.3v371c0,9.8,7.9,17.7,17.7,17.7h26.6v194.3h0ZM4762.4,2942.4h-132.8v-194.3h26.6c9.8,0,17.7-7.9,17.7-17.7v-371h44.3v371c0,9.8,7.9,17.7,17.7,17.7h26.6v194.3h0ZM4912.9,2942.4h-132.8v-194.3h26.6c9.8,0,17.7-7.9,17.7-17.7v-371h88.5v582.9h0Z"/>
</svg>