<?xml version="1.0" encoding="UTF-8"?>
<svg xmlns="http://www.w3.org/2000/svg" width="360" height="360" version="1.1" viewBox="0 0 360 360">
  <!-- Generator: Adobe Illustrator 29.7.1, SVG Export Plug-In . SVG Version: 2.1.1 Build 8)  -->
  <g id="Background">
    <rect width="360" height="360" fill="none"/>
  </g>
  <g id="Graphic_Elements">
    <g>
      <path d="M281.5939,297.4998c-1.5571,0-3.1084-.2329-4.6099-.6929-1.6489-.5054-3.2012-1.3027-4.7446-2.439l-90.3774-66.5771c-.5908-.2339-1.2251-.356-1.8618-.356s-1.2715.1221-1.8628.356l-90.3726,66.5742c-1.5483,1.1392-3.1001,1.9365-4.7485,2.4419-1.5015.4595-3.0518.6929-4.6094.6929-4.9937.001-9.7734-2.4302-12.7866-6.5029-3.019-4.0811-3.9043-9.187-2.4282-14.0088.5068-1.6538,1.3057-3.207,2.4434-4.751l66.5762-90.3799c.4736-1.1929.4736-2.5215,0-3.7148l-66.5767-90.3809c-1.1353-1.5391-1.9351-3.0938-2.4419-4.7471-1.4766-4.8237-.5918-9.9292,2.4268-14.0103,3.0127-4.0728,7.7925-6.5044,12.7856-6.5044,1.5576,0,3.1089.2334,4.6104.6934,1.6528.5063,3.2061,1.3052,4.7495,2.4424l90.3726,66.5732c.5913.2344,1.2256.3564,1.8623.3564.6362,0,1.271-.1221,1.8618-.3564l90.373-66.5737c1.5425-1.1367,3.0957-1.9355,4.748-2.4414,1.5024-.4604,3.0537-.6938,4.6113-.6938,4.9932,0,9.7729,2.4316,12.7856,6.5044,3.0186,4.0811,3.9033,9.1865,2.4277,14.0073-.5078,1.6562-1.3076,3.2109-2.4463,4.7549l-66.5732,90.3765c-.4736,1.1929-.4736,2.5215,0,3.7144l66.5767,90.3809c1.1372,1.543,1.936,3.0962,2.4419,4.7476,1.4766,4.8232.5918,9.9292-2.4268,14.0103-3.0127,4.0728-7.7925,6.5039-12.7861,6.5039Z" fill="#e6c597"/>
      <path d="M281.5943,72.5001c3.7375-.0002,6.8298,3.7361,5.6514,7.5845-.1942.6343-.5383,1.2124-.9318,1.7466l-67.1375,91.1411c-2.3243,4.397-2.3243,9.6584,0,14.0554l67.1375,91.1412c.3934.5342.7375,1.1123.9318,1.7466,1.1783,3.848-1.9142,7.5845-5.6514,7.5845-.5507,0-1.1146-.0809-1.6816-.2546-.6342-.1942-1.2124-.5383-1.7463-.9318l-91.1348-67.1349c-2.1996-1.1626-4.6156-1.744-7.0315-1.744s-4.832.5814-7.0316,1.744l-91.1348,67.1349c-.5341.3934-1.1122.7375-1.7463.9318-.5668.1736-1.1313.2546-1.6816.2546-3.7375,0-6.8297-3.7361-5.6514-7.5845.1942-.6343.5383-1.2124.9318-1.7466l67.1375-91.1412c2.3242-4.397,2.3242-9.6584,0-14.0554l-67.1375-91.1411c-.3934-.5342-.7375-1.1123-.9318-1.7466-1.1783-3.8481,1.9141-7.5845,5.6512-7.5845.5507,0,1.1146.0808,1.6818.2546.6342.1941,1.2123.5383,1.7463.9316l91.1348,67.135c2.1996,1.1628,4.6156,1.7441,7.0316,1.7441s4.8319-.5813,7.0315-1.7441l91.1348-67.135c.5339-.3933,1.1122-.7375,1.7463-.9316.5668-.1736,1.1313-.2546,1.6816-.2546M281.5944,52.5001c-2.5513,0-5.088.3806-7.5397,1.1316-2.7078.8291-5.3163,2.1589-7.7502,3.9519l-86.3044,63.5769-86.3043-63.5767c-2.4362-1.7939-5.0439-3.1233-7.7534-3.9529-2.4492-.7502-4.9857-1.1309-7.5367-1.1309-8.1505,0-15.9359,3.947-20.8258,10.5581-4.8516,6.5596-6.3278,15.1138-3.949,22.8821.83,2.7104,2.1597,5.3186,3.9524,7.7524l63.5768,86.3071-63.5767,86.3073c-1.7927,2.4337-3.1223,5.0417-3.9523,7.752-2.3792,7.7694-.9028,16.3235,3.9487,22.8828,4.8898,6.6112,12.6752,10.5581,20.8258,10.5581,2.5513,0,5.088-.3807,7.5396-1.1317,2.7083-.8292,5.317-2.1593,7.7512-3.9526l86.3037-63.576,86.3043,63.5765c2.4316,1.792,5.0411,3.1227,7.7533,3.953,2.4492.7502,4.9856,1.1309,7.5366,1.1309,8.1508,0,15.9362-3.947,20.826-10.5585,4.8514-6.5596,6.3276-15.1136,3.9487-22.8821-.8291-2.7084-2.1586-5.3165-3.9512-7.7505l-63.5778-86.3091,63.5765-86.3069c1.7939-2.4358,3.1235-5.0444,3.9531-7.7546,2.3782-7.7664.9021-16.3203-3.9495-22.8799-4.8898-6.6113-12.6752-10.5583-20.8259-10.5583h0Z" fill="#c4b0d3"/>
    </g>
  </g>
</svg>