<?xml version="1.0" encoding="UTF-8"?>
<svg xmlns="http://www.w3.org/2000/svg" width="360" height="360" version="1.1" viewBox="0 0 360 360">
  <!-- Generator: Adobe Illustrator 29.7.1, SVG Export Plug-In . SVG Version: 2.1.1 Build 8)  -->
  <g id="Background">
    <rect width="360" height="360" fill="none"/>
  </g>
  <g id="Graphic_Elements">
    <g>
      <path d="M179.9997,291.0138c-31.4927,0-61.6064-9.7842-87.085-28.2954-25.9365-18.8447-36.7065-51.9912-26.7998-82.4814l31.0186-95.4648c1.1782-3.626,4.3159-6.2666,8.0898-6.8081.4756-.0684.9507-.1021,1.4229-.1021,3.2715,0,6.3755,1.6084,8.2549,4.3594l29.1943,42.7334c11.6187-3.627,23.6621-5.4614,35.9048-5.4614s24.2861,1.8345,35.9043,5.4614l29.1948-42.7334c1.8794-2.751,4.9834-4.3594,8.2549-4.3594.4722,0,.9473.0337,1.4233.1021,3.7734.542,6.9111,3.1821,8.0894,6.8081l31.0181,95.4648c9.9067,30.4907-.8633,63.6372-26.7998,82.4814-25.4785,18.5112-55.5923,28.2954-87.0854,28.2954Z" fill="#e6c597"/>
      <path d="M253.3559,87.8622l31.0184,95.4651c8.5377,26.2761-.8152,55.0613-23.167,71.3008h-.0001c-24.2113,17.5906-52.7092,26.3857-81.2073,26.3857s-56.9958-8.7952-81.2072-26.3857h-.0001c-22.3517-16.2395-31.7046-45.0247-23.167-71.3008l31.0186-95.4651c11.1702,16.3506,22.3402,32.7009,33.5104,49.0513,16.3884-6.3232,30.8477-7.4204,39.8455-7.4204,17.5659,0,31.4508,4.1816,39.8455,7.4204l33.5104-49.0513M253.3521,67.8617c-6.5436,0-12.7511,3.2158-16.5104,8.7185l-25.146,36.8076c-10.3364-2.5884-20.9454-3.8948-31.6957-3.8948s-21.3594,1.3064-31.6958,3.8948l-25.1459-36.8076c-3.7589-5.5022-9.9673-8.718-16.5104-8.7185-.9442,0-1.8942.0669-2.8459.2036-7.5477,1.0835-13.8228,6.3645-16.179,13.6165l-31.0186,95.4651c-11.2498,34.6235.9801,72.2632,30.4324,93.6614,27.1982,19.7607,59.3444,30.2056,92.963,30.2056s65.7648-10.4448,92.963-30.2056c29.4525-21.3982,41.6825-59.0378,30.4324-93.6614l-31.0183-95.4651c-2.3562-7.252-8.6312-12.533-16.179-13.6165-.9513-.1367-1.9022-.2036-2.8459-.2036h0Z" fill="#c4b0d3"/>
    </g>
  </g>
</svg>