<?xml version="1.0" encoding="UTF-8"?>
<svg xmlns="http://www.w3.org/2000/svg" width="360" height="360" version="1.1" viewBox="0 0 360 360">
  <!-- Generator: Adobe Illustrator 29.7.1, SVG Export Plug-In . SVG Version: 2.1.1 Build 8)  -->
  <g id="Background">
    <rect width="360" height="360" fill="none"/>
  </g>
  <g id="Graphic_Elements">
    <g>
      <path d="M102.5153,297.4999c-5.5229,0-10-4.4771-10-10l-.0005-60.0298c0-90.9648,74.0054-164.9702,164.9702-164.9702,5.5229,0,10,4.4771,10,10v60.0303c0,90.9648-74.0049,164.9697-164.9697,164.9697Z" fill="#e6c597"/>
      <path d="M257.485,72.5v60.0302c0,85.5874-69.3823,154.9698-154.97,154.9698v-60.0302c0-85.5875,69.3823-154.9698,154.9697-154.9698h.0002M257.485,52.5c-23.6121,0-46.5283,4.6289-68.1123,13.7582-20.8379,8.8136-39.5476,21.4269-55.6101,37.4893-16.0625,16.0625-28.6758,34.7725-37.4893,55.6101-9.1294,21.584-13.7583,44.5002-13.7583,68.1123v60.0302c0,11.0457,8.9543,20,20,20,23.6121,0,46.5283-4.6289,68.1123-13.7582,20.8379-8.8137,39.5476-21.4269,55.6101-37.4894s28.6758-34.7723,37.4893-55.6101c9.1294-21.584,13.7583-44.5002,13.7583-68.1122v-60.0302c0-11.0457-8.9543-20-20-20h0Z" fill="#c4b0d3"/>
    </g>
  </g>
</svg>