<?xml version="1.0" encoding="UTF-8"?>
<svg xmlns="http://www.w3.org/2000/svg" width="360" height="360" version="1.1" viewBox="0 0 360 360">
  <!-- Generator: Adobe Illustrator 29.7.1, SVG Export Plug-In . SVG Version: 2.1.1 Build 8)  -->
  <g id="Background">
    <rect width="360" height="360" fill="none"/>
  </g>
  <g id="Graphic_Elements">
    <g>
      <path d="M180.0006,296.9601c-6.0728,0-11.8057-2.9429-16.1426-8.2861-2.1655-2.6685-3.9331-5.8154-5.2964-9.3911-6.3652,6.3984-13.1094,9.0928-18.8486,9.0928-7.3047,0-13.7471-4.0537-17.2344-10.8442-2.2754-4.4307-3.2197-9.7036-2.895-15.5742-4.0381,1.5938-7.998,2.4189-11.7998,2.4189-9.7646,0-17.3252-5.4736-19.7305-14.2837-1.4893-5.4561-.8838-12.3408,2.9053-19.896-15.8955-.6978-23.5664-10.1528-24.1084-19.5269-.4111-7.106,3.0444-14.6909,10.8999-21.1353-.5083-.2544-1.0049-.5161-1.4912-.7861-8.7432-4.8545-13.7573-12.2261-13.7573-20.2236,0-8.8979,6.2031-17.8574,19.7241-21.5366-5.8687-7.231-7.6807-14.5215-6.7705-20.4697,1.5762-10.2964,10.4419-16.9492,22.5869-16.9492,1.7812,0,3.6123.1416,5.4878.4229-1.728-6.3623-1.6606-12.3389.3442-17.6265,2.9556-7.7939,10.0332-12.6357,18.4712-12.6357,5.2837,0,10.6309,1.769,15.8291,5.1079.7388-4.6255,2.2207-8.7256,4.4531-12.1802,3.9497-6.1123,10.0532-9.6172,16.7461-9.6172,7.2837,0,14.8413,4.2275,20.627,13.0913,5.7856-8.8638,13.3433-13.0913,20.627-13.0913,6.6919,0,12.7949,3.5049,16.7441,9.6167,2.2329,3.4551,3.7148,7.5557,4.4541,12.1816,5.1992-3.3398,10.5459-5.1089,15.8301-5.1089,8.437,0,15.5137,4.8418,18.4688,12.6353,2.0054,5.2881,2.0728,11.2651.3452,17.627,1.8755-.2808,3.7085-.4229,5.4897-.4229,12.1431,0,21.0073,6.6528,22.583,16.9492.9121,5.96-.9077,13.2671-6.8032,20.5117,7.896,2.1782,13.8901,6.2881,17.1733,11.9746,3.5195,6.0962,3.4658,13.1812-.147,19.438-2.6333,4.5601-6.9019,8.2979-12.5088,11.0938,7.854,6.4438,11.3096,14.0283,10.8984,21.1328-.542,9.3735-8.2144,18.8286-24.1108,19.5273,3.7905,7.5562,4.396,14.439,2.9062,19.895-2.4053,8.811-9.9668,14.2847-19.7334,14.2847-3.8008,0-7.7612-.8252-11.7983-2.4185.3252,5.8706-.6191,11.1431-2.894,15.5732-3.4873,6.7905-9.9307,10.8447-17.2368,10.8447-5.7388,0-12.4834-2.6943-18.8486-9.0933-1.3633,3.5762-3.1304,6.7231-5.2964,9.3916-4.3369,5.3433-10.0698,8.2861-16.1426,8.2861Z" fill="#e6c597"/>
      <path d="M200.6274,73.0399c10.5081.002,18.3108,18.2595,3.7407,50.593,10.9358-24.2688,24.3232-33.9041,33.2878-33.9031,13.5073.002,16.9722,21.8811-13.1335,48.5457,15.3342-13.5813,28.4519-18.7078,37.4375-18.7068,20.3645.0024,19.4937,26.3413-24.9817,40.2812,10.3989-3.2593,19.2495-4.6042,26.5061-4.6035,34.3545.0042,32.8345,30.1702-10.9312,30.1702-3.9717,0-8.2988-.249-12.9709-.7915,50.2717,5.8364,53.6416,35.6125,27.5586,35.6125-8.6946,0-20.6646-3.311-35.2568-11.9199,37.3354,22.0266,36.2983,46.0579,20.3335,46.0579-8.9939,0-22.7271-7.6306-37.0027-27.5444,22.3105,31.1223,16.7197,51.5444,5.0737,51.5444-9.0334,0-21.7104-12.2922-27.8318-41.4121,7.0066,33.3311-2.7246,49.9963-12.4558,49.9963s-19.4624-16.6653-12.4561-49.9963c-6.1221,29.124-18.7981,41.4121-27.8315,41.4121-11.6436,0-17.2346-20.4255,5.0735-51.5444-14.2781,19.9172-28.0088,27.5444-37.0027,27.5444-15.9607,0-16.9983-24.0332,20.3335-46.0579-14.5957,8.6111-26.5618,11.9199-35.2568,11.9199-26.0762,0-22.7092-29.7766,27.5586-35.6125-4.6763.543-8.9966.7915-12.9712.7915-43.7588,0-45.2913-30.1709-10.9309-30.1702,7.2549.0002,16.1111,1.3455,26.5061,4.6035-44.4792-13.9412-45.3516-40.2834-24.9814-40.2812,8.9854.001,22.1062,5.1282,37.4373,18.7068-30.1086-26.6672-26.6443-48.5481-13.1335-48.5457,8.9646.002,22.3535,9.6382,33.2878,33.9031-14.5718-32.3372-6.7693-50.5955,3.7405-50.593,9.262.0022,20.6267,14.186,20.6267,45.4136,0-31.2317,11.3643-45.415,20.6267-45.4136M159.3715,53.0399c-10.1506-.0005-19.313,5.1697-25.1406,14.1853-.8008,1.239-1.5308,2.5417-2.1885,3.9031-3.2231-.926-6.4668-1.3977-9.6929-1.3984h-.0066c-12.6943-.0007-23.3521,7.3125-27.8179,19.0864-1.1045,2.9121-2.0291,6.6443-2.1707,11.1443-14.2451,2.0071-24.7205,11.5662-26.7837,25.0425-.8911,5.8203-.0967,11.7283,2.2683,17.4429-4.8386,3.0029-8.7166,6.8894-11.4106,11.5557-5.2751,9.1365-5.2205,20.1409.1462,29.4363,1.637,2.8354,3.7065,5.426,6.1675,7.7534-4.2109,6.1968-6.2795,13.0725-5.8755,20.0557.6133,10.5991,7.4504,21.812,21.022,26.5994-.9285,5.1301-.7712,10.1567.5181,14.8792,3.5903,13.1521,15.1218,21.6501,29.3774,21.6501.9587,0,1.9224-.0371,2.8875-.1113.6768,2.7529,1.6455,5.3699,2.9116,7.8352,5.2339,10.1917,15.002,16.2761,26.1301,16.2761,5.0183,0,10.4106-1.2974,15.749-4.1992.207.2693.4182.5366.6313.7993,6.2727,7.728,14.7629,11.9841,23.9072,11.9841s17.6348-4.2561,23.9072-11.9841c.2131-.2627.4241-.53.6311-.7993,5.3386,2.9019,10.731,4.1992,15.7493,4.1992,11.1292,0,20.8982-6.0847,26.1323-16.2766,1.2654-2.4641,2.2346-5.083,2.9111-7.8345.9651.074,1.9268.1111,2.8855.1111,14.2573,0,25.7898-8.4983,29.3804-21.6506,1.2893-4.7227,1.4468-9.7488.5178-14.8792,13.5732-4.7874,20.4102-16,21.0232-26.5991.4038-6.9797-1.6619-13.8511-5.8689-20.0452,6.5938-6.2427,10.2297-14.146,10.2302-22.6719.0007-9.5791-4.9172-19.5945-15.3318-26.1045,2.3572-5.7063,3.1487-11.6057,2.2595-17.4172-2.062-13.4783-12.5359-23.0396-26.7832-25.0471-.1418-4.4968-1.0654-8.2275-2.1689-11.1384-4.4639-11.7749-15.1228-19.0908-27.8171-19.0925-3.2292-.0002-6.4761.4712-9.7024,1.3982-.6565-1.3586-1.385-2.6592-2.1838-3.8955-5.8264-9.0178-14.9902-14.1909-25.1414-14.1926h-.0054c-7.4924,0-14.5723,2.7686-20.6267,7.886-6.053-5.1155-13.1309-7.8843-20.6206-7.886h-.0068Z" fill="#c4b0d3"/>
    </g>
  </g>
</svg>