<?xml version="1.0" encoding="UTF-8"?>
<svg xmlns="http://www.w3.org/2000/svg" width="360" height="360" version="1.1" viewBox="0 0 360 360">
  <!-- Generator: Adobe Illustrator 29.7.1, SVG Export Plug-In . SVG Version: 2.1.1 Build 8)  -->
  <g id="Background">
    <rect width="360" height="360" fill="none"/>
  </g>
  <g id="Graphic_Elements">
    <g>
      <path d="M221.9904,243.7528c-5.5229,0-10-4.4771-10-10,0-17.6367-14.3481-31.9849-31.9849-31.9849s-31.9961,14.3481-31.9961,31.9849c0,5.5229-4.4771,10-10,10h-65.5093c-5.5229,0-10-4.4771-10-10,0-64.7925,52.7129-117.5054,117.5054-117.5054s117.4946,52.7129,117.4946,117.5054c0,5.5229-4.4771,10-10,10h-65.5098Z" fill="#e6c597"/>
      <path d="M180.0054,126.2474c59.3666,0,107.4945,48.1279,107.4945,107.5052h-65.5096c0-23.1932-18.8025-41.985-41.9849-41.985s-41.9958,18.7917-41.9958,41.985h-65.5096c0-59.3773,48.1279-107.5052,107.5055-107.5052M180.0054,106.2474c-34.0599,0-66.0798,13.2625-90.1615,37.344s-37.344,56.1016-37.344,90.1613c0,11.0457,8.9543,20,20,20h65.5096c11.0457,0,20-8.9543,20-20,0-12.1226,9.8673-21.985,21.9958-21.985s21.9849,9.8624,21.9849,21.985c0,11.0457,8.9543,20,20,20h65.5096c11.0457,0,20-8.9543,20-20,0-34.059-13.2617-66.0787-37.3422-90.1608-24.0803-24.082-56.097-37.3445-90.1523-37.3445h0Z" fill="#c4b0d3"/>
    </g>
  </g>
</svg>