<?xml version="1.0" encoding="UTF-8"?>
<svg xmlns="http://www.w3.org/2000/svg" width="360" height="360" version="1.1" viewBox="0 0 360 360">
  <!-- Generator: Adobe Illustrator 29.7.1, SVG Export Plug-In . SVG Version: 2.1.1 Build 8)  -->
  <g id="Background">
    <rect width="360" height="360" fill="none"/>
  </g>
  <g id="Graphic_Elements">
    <g>
      <path d="M246.4377,292.2387c-1.5918,0-3.189-.3794-4.6523-1.1489-18.9785-9.9775-40.3438-15.2515-61.7852-15.2515s-42.8066,5.2739-61.7852,15.2515c-1.4629.7695-3.0605,1.1489-4.6523,1.1489-2.0732,0-4.1367-.644-5.8789-1.9097-3.0791-2.2373-4.6216-6.0293-3.978-9.7808,7.3882-43.0796-6.8867-87.0137-38.1855-117.5229-2.7261-2.6567-3.707-6.6309-2.5308-10.251s4.3057-6.2583,8.0728-6.8057c43.2544-6.2852,80.6265-33.4375,99.9707-72.6328,1.6846-3.4131,5.1606-5.5742,8.9673-5.5742s7.2827,2.1611,8.9673,5.5742c19.3442,39.1953,56.7163,66.3477,99.9707,72.6328,3.7671.5474,6.8965,3.1855,8.0728,6.8057s.1953,7.5942-2.5308,10.251c-31.2988,30.5093-45.5737,74.4434-38.1855,117.5229.6436,3.7515-.8989,7.5435-3.978,9.7808-1.7422,1.2656-3.8057,1.9097-5.8789,1.9097Z" fill="#e6c597"/>
      <path d="M180.0002,77.7615c20.7968,42.1388,60.9969,71.3459,107.4999,78.1033h.0001-.0001c-33.6498,32.8005-49.0049,80.0587-41.0613,126.3738-20.7968-10.9335-43.6177-16.4003-66.4386-16.4003s-45.6418,5.4668-66.4386,16.4003h-.0001s.0001,0,.0001,0c7.9436-46.3151-7.4115-93.5732-41.0614-126.3737h0c46.5029-6.7574,86.7032-35.9646,107.5-78.1034M287.5002,155.8648h.005M246.4388,282.2385h0s0,0,0,0M180.0002,57.7615c-7.6128,0-14.5656,4.322-17.9347,11.1487-17.8871,36.2432-52.4446,61.3506-92.4413,67.1625-7.5337,1.0947-13.7926,6.3716-16.1451,13.6118s-.3906,15.1881,5.0609,20.5021c28.9418,28.2113,42.1417,68.8359,35.3094,108.6711-1.287,7.5032,1.7975,15.0864,7.9564,19.5612,3.4844,2.5315,7.6108,3.8198,11.7578,3.8198,3.1832,0,6.3784-.759,9.3047-2.2975,17.5493-9.2262,37.3052-14.1029,57.1318-14.1029s39.5825,4.8767,57.1318,14.1029c2.9258,1.5382,6.1219,2.2975,9.3047,2.2975,4.1475,0,8.2731-1.2881,11.7578-3.8198,6.1589-4.4747,9.2434-12.058,7.9564-19.5612-6.8226-39.7793,6.3313-80.3466,35.1884-108.5529,3.7981-3.6403,6.1635-8.7642,6.1635-14.4401,0-10.1801-7.6034-18.5836-17.4421-19.8383-39.8632-5.8977-74.2856-30.9684-92.1257-67.1163-3.3691-6.8267-10.3219-11.1487-17.9347-11.1487h0Z" fill="#c4b0d3"/>
    </g>
  </g>
</svg>