<?xml version="1.0" encoding="UTF-8"?>
<svg xmlns="http://www.w3.org/2000/svg" width="360" height="360" version="1.1" viewBox="0 0 360 360">
  <!-- Generator: Adobe Illustrator 29.7.1, SVG Export Plug-In . SVG Version: 2.1.1 Build 8)  -->
  <g id="Background">
    <rect width="360" height="360" fill="none"/>
  </g>
  <g id="Graphic_Elements">
    <g>
      <path d="M180.0002,283.0472c-1.5552,0-3.1104-.3623-4.5352-1.0874-98.2891-50.0161-112.9648-104.3232-112.9648-132.2437,0-18.7749,6.1382-36.4268,17.2832-49.7036,11.8887-14.1626,28.3906-21.9619,46.4663-21.9619,20.1201,0,37.541,9.5181,50.3799,27.5254,1.2197,1.7109,2.3418,3.4224,3.3706,5.1055,1.0288-1.6831,2.1509-3.3945,3.3706-5.105,12.8379-18.0078,30.2588-27.5259,50.3789-27.5259,18.0762,0,34.5781,7.7993,46.4668,21.9619,11.1455,13.2769,17.2837,30.9287,17.2837,49.7036,0,27.9204-14.6758,82.2275-112.9648,132.2437-1.4248.7251-2.98,1.0874-4.5352,1.0874Z" fill="#e6c597"/>
      <path d="M233.7498,88.0508c31.8201,0,53.7502,28.4883,53.7502,61.6655,0,38.4021-29.8936,83.8397-107.5,123.3312-77.6064-39.4915-107.5-84.9291-107.5-123.3312,0-33.1772,21.9299-61.6655,53.7498-61.6655,40.9651,0,53.7502,46.6614,53.7502,46.6614,0,0,12.7848-46.6614,53.7498-46.6614M233.7498,68.0508c-21.0559,0-39.4984,8.8142-53.7499,25.5862-14.2517-16.772-32.6943-25.5862-53.7501-25.5862-21.082,0-40.3042,9.0676-54.1255,25.5325-12.6549,15.0751-19.6243,35.0101-19.6243,56.1331,0,24.9203,10.0756,50.469,29.1373,73.8838,20.1367,24.7352,50.179,47.3688,89.2921,67.2722,2.8497,1.4502,5.9601,2.1752,9.0706,2.1752s6.2208-.725,9.0706-2.1752c39.1132-19.9034,69.1554-42.537,89.2921-67.2722,19.0618-23.4148,29.1373-48.9635,29.1373-73.8838,0-21.1229-6.9694-41.058-19.6244-56.1332-13.8215-16.4647-33.0438-25.5323-54.1259-25.5323h0Z" fill="#c4b0d3"/>
    </g>
  </g>
</svg>