<?xml version="1.0" encoding="UTF-8"?>
<svg xmlns="http://www.w3.org/2000/svg" width="360" height="360" version="1.1" viewBox="0 0 360 360">
  <!-- Generator: Adobe Illustrator 29.7.1, SVG Export Plug-In . SVG Version: 2.1.1 Build 8)  -->
  <g id="Background">
    <rect width="360" height="360" fill="none"/>
  </g>
  <g id="Graphic_Elements">
    <g>
      <path d="M251.6632,266.1984c-1.8975,0-3.7944-.5386-5.4517-1.6167l-30.3843-19.7603-30.3804,19.7598c-1.6572,1.0781-3.5547,1.6172-5.4521,1.6172s-3.7944-.5391-5.4521-1.6172l-30.3809-19.7593-30.3784,19.7593c-1.6577,1.0781-3.5552,1.6172-5.4526,1.6172s-3.7949-.5391-5.4526-1.6172l-35.8306-23.3057c-2.8364-1.8452-4.5474-4.999-4.5474-8.3828V103.8019c0-3.6675,2.0078-7.041,5.2314-8.79,1.4907-.8086,3.1313-1.21,4.7681-1.21,1.9028,0,3.8003.542,5.4531,1.6172l30.3779,19.7593,30.3784-19.7593c1.6577-1.0781,3.5552-1.6172,5.4526-1.6172s3.7944.5391,5.4521,1.6172l30.3809,19.7593,30.3799-19.7593c1.6572-1.0781,3.5547-1.6172,5.4521-1.6172s3.7944.5391,5.4517,1.6167l30.3848,19.7603,30.3853-19.7603c1.6523-1.0747,3.5498-1.6167,5.4521-1.6167,1.6372,0,3.2773.4014,4.7681,1.2104,3.2236,1.7485,5.2314,5.1221,5.2314,8.7896v129.0908c0,3.3838-1.7114,6.5381-4.5483,8.3833l-35.8369,23.3057c-1.6572,1.0776-3.5547,1.6167-5.4517,1.6167Z" fill="#e6c597"/>
      <path d="M287.5,103.8019v129.0908l-35.8368,23.3054-35.8367-23.3054-35.8318,23.3054-35.8328-23.3054-35.8313,23.3054-35.8307-23.3054V103.8019l35.8307,23.3054,35.8313-23.3054,35.8328,23.3054,35.8318-23.3054,35.8367,23.3054,35.8368-23.3054M144.162,83.8019c-3.7952-.0002-7.5892,1.0779-10.9047,3.2344l-24.9266,16.2126-24.9259-16.2126c-3.3053-2.1499-7.1008-3.2344-10.9059-3.2344-3.2736,0-6.554.8027-9.5358,2.4202-6.4476,3.4978-10.4631,10.2446-10.4631,17.5798v129.0908c0,6.7673,3.4222,13.0757,9.0952,16.7656l35.8307,23.3054c3.3151,2.1562,7.1101,3.2344,10.9049,3.2344s7.5895-1.0781,10.9045-3.2344l24.9269-16.2129,24.9281,16.2131c3.3147,2.1558,7.1102,3.2341,10.9044,3.2341s7.5891-1.0779,10.9047-3.2344l24.9279-16.2134,24.9324,16.2141c3.3149,2.1558,7.1093,3.2336,10.9036,3.2336s7.5887-1.0779,10.9036-3.2336l35.8368-23.3054c5.6737-3.6897,9.0964-9.9983,9.0964-16.7664V103.8019c0-7.335-4.0153-14.0815-10.4624-17.5793-2.9817-1.6177-6.2631-2.4207-9.5365-2.4207-3.8049,0-7.5992,1.084-10.9047,3.2336l-24.9332,16.2146-24.9331-16.2146c-3.3147-2.1555-7.1095-3.2334-10.9036-3.2336-3.795,0-7.5892,1.0779-10.9047,3.2344l-24.9272,16.2129-24.9282-16.2131c-3.3147-2.1558-7.1102-3.2339-10.9044-3.2341h0Z" fill="#c4b0d3"/>
    </g>
  </g>
</svg>