<?xml version="1.0" encoding="UTF-8"?>
<svg xmlns="http://www.w3.org/2000/svg" width="360" height="360" version="1.1" viewBox="0 0 360 360">
  <!-- Generator: Adobe Illustrator 29.7.1, SVG Export Plug-In . SVG Version: 2.1.1 Build 8)  -->
  <g id="Background">
    <rect width="360" height="360" fill="none"/>
  </g>
  <g id="Graphic_Elements">
    <g>
      <path d="M117.4904,278.9586c-19.856,0-37.6372-10.2661-47.5649-27.4619-9.9282-17.1953-9.9277-37.7275,0-54.9229l63.8159-110.5327c1.7861-3.0942,5.0874-5,8.6602-5h100.1084c19.8555,0,37.6367,10.2661,47.5645,27.4614,9.9282,17.1958,9.9282,37.728,0,54.9233l-63.8159,110.5327c-1.7861,3.0942-5.0874,5-8.6602,5h-100.1079Z" fill="#e6c597"/>
      <path d="M242.5099,91.0413c34.5818,0,56.1956,37.436,38.9045,67.3848l-63.8162,110.5326h-100.1082c-34.5818,0-56.1956-37.4359-38.9045-67.3846l63.8162-110.5327h100.1082M242.5099,71.0413h-100.1082c-7.1453,0-13.7478,3.812-17.3206,10l-63.8162,110.5327c-11.7354,20.3263-11.7354,44.5966,0,64.923s32.7542,32.4617,56.2251,32.4617h100.1082c7.1453,0,13.7478-3.812,17.3206-10l63.8162-110.5326c11.7354-20.3264,11.7354-44.5967,0-64.9231-11.7356-20.3264-32.7542-32.4617-56.2251-32.4617h0Z" fill="#c4b0d3"/>
    </g>
  </g>
</svg>