<?xml version="1.0" encoding="UTF-8"?>
<svg xmlns="http://www.w3.org/2000/svg" width="360" height="360" version="1.1" viewBox="0 0 360 360">
  <!-- Generator: Adobe Illustrator 29.7.1, SVG Export Plug-In . SVG Version: 2.1.1 Build 8)  -->
  <g id="Background">
    <rect width="360" height="360" fill="none"/>
  </g>
  <g id="Graphic_Elements">
    <g>
      <path d="M180.0002,267.7606c-28.8848,0-55.917-2.5234-76.1182-7.105-10.2354-2.3213-41.3823-9.3857-41.3818-30.3242v-100.6631c0-20.9385,31.147-28.0024,41.3818-30.3237,20.2012-4.582,47.2339-7.105,76.1182-7.105s55.917,2.5229,76.1182,7.105c10.2349,2.3213,41.3818,9.3853,41.3818,30.3237v100.6631c0,20.9385-31.147,28.0029-41.3818,30.3242-20.2012,4.5815-47.2339,7.105-76.1182,7.105Z" fill="#e6c597"/>
      <path d="M179.9999,102.2395c53.75,0,107.5,9.1429,107.5,27.429v100.6628c0,18.2861-53.75,27.4292-107.5,27.4292s-107.5-9.1431-107.5-27.4292v-100.6628c0-18.286,53.75-27.429,107.5-27.429M179.9999,82.2395c-29.6064,0-57.4246,2.6112-78.3298,7.3525-12.6516,2.8694-22.4673,6.402-30.0078,10.7997-16.6729,9.7238-19.1624,22.5166-19.1624,29.2767v100.6628c0,6.7601,2.4895,19.5529,19.1624,29.2767,7.5405,4.3977,17.356,7.9303,30.0076,10.7997,20.9053,4.7415,48.7236,7.3528,78.3301,7.3528s57.4246-2.6113,78.3298-7.3528c12.6516-2.8694,22.4673-6.402,30.0078-10.7997,16.6729-9.7238,19.1624-22.5166,19.1624-29.2767v-100.6628c0-6.76-2.4895-19.5529-19.1624-29.2767-7.5405-4.3977-17.356-7.9303-30.0076-10.7997-20.9053-4.7413-48.7234-7.3525-78.3301-7.3525h0Z" fill="#c4b0d3"/>
    </g>
  </g>
</svg>