<?xml version="1.0" encoding="UTF-8"?>
<svg xmlns="http://www.w3.org/2000/svg" width="360" height="360" version="1.1" viewBox="0 0 360 360">
  <!-- Generator: Adobe Illustrator 29.7.1, SVG Export Plug-In . SVG Version: 2.1.1 Build 8)  -->
  <g id="Background">
    <rect width="360" height="360" fill="none"/>
  </g>
  <g id="Graphic_Elements">
    <g>
      <path d="M167.4987,295.8668c-4.0352,0-7.6753-2.4253-9.229-6.1494l-6.5044-15.5913-11.3384-4.127-15.0044,7.7622c-1.4507.7505-3.0264,1.1182-4.5928,1.1182-2.3047,0-4.5898-.7954-6.4297-2.3394l-19.1528-16.0708c-3.0913-2.5938-4.3208-6.7915-3.1172-10.6431l5.0386-16.125-6.0327-10.4492-16.4839-3.6987c-3.9375-.8833-6.958-4.0469-7.6587-8.021l-4.3413-24.6221c-.7007-3.9736,1.0557-7.9795,4.4536-10.1562l14.2246-9.1138,2.0952-11.8823-10.25-13.4287c-2.4482-3.208-2.7285-7.5728-.7109-11.0674l12.501-21.6528c1.8008-3.1196,5.1191-5.0005,8.6572-5.0005.4253,0,.8535.0273,1.2827.0825l16.7549,2.1626,9.2427-7.7554.7803-16.876c.1865-4.0308,2.7773-7.5547,6.5688-8.9351l23.4941-8.5513c1.1167-.4062,2.2729-.6035,3.4185-.6035,2.7451,0,5.4287,1.1313,7.3574,3.2256l11.4448,12.4263h12.0659l11.4448-12.4263c1.9287-2.0938,4.6128-3.2256,7.3574-3.2256,1.1455,0,2.3018.1973,3.4185.6035l23.4946,8.5513c3.7915,1.3804,6.3828,4.9043,6.5688,8.9355l.7798,16.8755,9.2432,7.7554,16.7544-2.1626c.4287-.0552.8574-.0825,1.2827-.0825,3.5386,0,6.856,1.8804,8.6572,5.0005l12.5015,21.6528c2.0176,3.4946,1.7373,7.8594-.7109,11.0674l-10.25,13.4287,2.0952,11.8823,14.2246,9.1138c3.3979,2.1768,5.1543,6.1826,4.4536,10.1567l-4.3418,24.6221c-.7007,3.9736-3.7212,7.1372-7.6587,8.0205l-16.4839,3.6987-6.0327,10.4492,5.0391,16.1245c1.2036,3.8521-.0259,8.0498-3.1172,10.6436l-19.1528,16.0708c-1.8398,1.5435-4.1255,2.3394-6.4297,2.3394-1.5669,0-3.1421-.3677-4.5928-1.1182l-15.0049-7.7622-11.3379,4.127-6.5049,15.5913c-1.5537,3.7241-5.1938,6.1494-9.229,6.1494h-25.0024Z" fill="#e6c597"/>
      <path d="M204.8332,74.133l23.4944,8.5513.9827,21.2556,15.9607,13.3928,21.1035-2.7234,12.501,21.6526-12.9102,16.9143,3.6182,20.5188,17.9165,11.4788-4.3416,24.6226-20.7622,4.6587-10.4175,18.0437,6.3464,20.3098-19.1528,16.0713-18.8992-9.7769-19.5789,7.126-8.1931,19.6377h-25.0022l-8.1934-19.6377-19.5786-7.126-18.8994,9.7769-19.1528-16.0713,6.3467-20.3098-10.4177-18.0437-20.7622-4.6587-4.3416-24.6226,17.9167-11.4788,3.6179-20.5188-12.9102-16.9143,12.5012-21.6526,21.1033,2.7234,15.9607-13.3928.9827-21.2556,23.4944-8.5513,14.4158,15.6511h20.8352l14.4155-15.6511M155.163,54.1322c-2.2915-.0002-4.6033.394-6.8367,1.2068l-23.4944,8.5513c-7.584,2.7603-12.7656,9.8083-13.1384,17.8701l-.5776,12.4956-2.5249,2.1187-12.4055-1.6008c-.8584-.1108-1.7151-.165-2.5652-.165-7.0774-.0002-13.7124,3.7607-17.3149,10.0005l-12.5015,21.6526c-4.0352,6.9893-3.4744,15.7192,1.4224,22.1345l7.5894,9.9434-.5723,3.2458-10.5325,6.7478c-6.7957,4.3538-10.3086,12.3652-8.907,20.3132l4.3413,24.6226c1.4016,7.948,7.4426,14.2749,15.3176,16.0417l12.2053,2.7388,1.6479,2.8542-3.731,11.9392c-2.4072,7.7031.0513,16.0984,6.2336,21.2861l19.1528,16.0713c3.6804,3.0881,8.2507,4.6794,12.8596,4.6794,3.1333,0,6.2844-.7356,9.1858-2.2363l11.1104-5.7476,3.0972,1.1272,4.8164,11.5444c3.1077,7.448,10.3875,12.2988,18.458,12.2988h25.0022c8.0706,0,15.3503-4.8508,18.458-12.2991l4.8164-11.5442,3.0972-1.1272,11.1101,5.7476c2.9011,1.5007,6.0525,2.2363,9.1858,2.2363,4.6089,0,9.1792-1.5913,12.8596-4.6794l19.1528-16.0713c6.1824-5.1877,8.6409-13.5828,6.2339-21.2859l-3.731-11.9395,1.6479-2.8542,12.2051-2.7388c7.875-1.7668,13.916-8.0938,15.3176-16.0417l4.3413-24.6226c1.4016-7.948-2.1113-15.9595-8.9067-20.3132l-10.5325-6.7478-.5725-3.2461,7.5894-9.9431c4.8967-6.4153,5.4575-15.145,1.4224-22.1343l-12.501-21.6526c-3.6023-6.2395-10.2383-10.0005-17.3149-10.0007-.8506-.0002-1.7065.0542-2.5654.165l-12.4058,1.6008-2.5249-2.1187-.5776-12.4956c-.3728-8.0618-5.5544-15.1099-13.1384-17.8701l-23.4944-8.5513c-2.2329-.8125-4.5457-1.2068-6.8367-1.2068-5.49,0-10.8567,2.2627-14.7146,6.4512l-8.4744,9.2007h-3.2959l-8.4746-9.2007c-3.8574-4.188-9.2249-6.4509-14.7144-6.4512h0Z" fill="#c4b0d3"/>
    </g>
  </g>
</svg>