<?xml version="1.0" encoding="UTF-8"?>
<svg id="Group_NAMES" xmlns="http://www.w3.org/2000/svg" xmlns:xlink="http://www.w3.org/1999/xlink" viewBox="0 0 1584.87 369.37">
  <defs>
    <clipPath id="clippath">
      <path id="Guide_NAMES" d="M312.15,25.56c0,18.43-.74,46.11-2.23,83.04-1.49,36.93-2.23,64.69-2.23,83.28v159.77c0,4.36-2.27,6.55-6.8,6.55-3.75,0-9.41.16-16.99.49-7.58.32-13.24.48-16.99.48-4.06,0-10.16-.33-18.28-.97-8.12-.64-14.22-.97-18.28-.97-2.81,0-6.17-2.67-10.08-8-11.25-15.68-36.55-50.43-75.92-104.25-10.78-15.03-27.18-37.17-49.21-66.43-.63-.97-1.8-1.94-3.51-2.91-1.25,1.13-1.87,2.91-1.87,5.33,0,18.75.51,46.88,1.52,84.37,1.01,37.5,1.52,65.62,1.52,84.37,0,5.66-2.11,8.49-6.33,8.49H5.42c-4.53,0-6.8-2.5-6.8-7.52,0-17.46.82-43.8,2.46-79.04,1.64-35.23,2.46-61.66,2.46-79.28,0-18.58-.74-46.39-2.23-83.4C-.17,71.95-.91,44.23-.91,25.81c0-3.55,3.05-5.33,9.14-5.33,9.06,0,20.23-.64,33.51-1.94,3.12-.32,9.29-1.37,18.51-3.15,7.81-1.45,13.98-2.18,18.51-2.18,1.87,0,4.76,2.75,8.67,8.24l87.4,123.89c7.81,11.15,19.6,27.48,35.38,48.97,3.9,5.01,7.26,7.52,10.08,7.52,2.03,0,3.05-6.3,3.05-18.91,0-16.97-.9-42.51-2.69-76.61-1.8-34.1-2.69-59.72-2.69-76.85,0-5.98,1.64-8.97,4.92-8.97,9.37,0,23.51-.4,42.41-1.21,18.9-.81,33.04-1.21,42.41-1.21,2.97,0,4.45,2.51,4.45,7.52ZM664.81,352.13c0,2.91-1.96,4.93-5.86,6.06-4.69,1.29-19.21,1.94-43.58,1.94-22.34,0-36.71-.65-43.12-1.94-5.31-1.13-8.67-4.77-10.08-10.91-5.31-23.27-9.45-35.72-12.42-37.34-2.5-1.13-23.43-1.7-62.8-1.7-26.56,0-40.7.73-42.41,2.18-2.66,2.59-5.62,11.24-8.9,25.94-2.97,13.42-6.56,20.69-10.78,21.82-5.31,1.29-23.12,1.94-53.43,1.94-23.9,0-35.85-2.34-35.85-7.03,0-4.2,17.65-55.84,52.96-154.92,38.27-107.16,59.05-166.07,62.33-176.74,1.87-6.14,4.06-9.21,6.56-9.21,4.22,0,10.74.41,19.57,1.21,8.82.81,15.43,1.21,19.8,1.21s10.43-.28,18.63-.85c8.2-.56,14.33-.85,18.39-.85,2.97,0,5.7,2.67,8.2,8,7.65,16.97,29.99,75.16,67.02,174.56,37.18,100.05,55.77,152.25,55.77,156.62ZM498.67,131.27c-3.28,7.11-8.83,22.55-16.64,46.31-8.44,25.21-12.65,40-12.65,44.37,0,2.91,4.69,4.53,14.06,4.85,4.84.33,12.81.48,23.9.48,10.31,0,16.01-1.29,17.11-3.88.31-.81.47-1.94.47-3.39,0-5.33-3.6-20.04-10.78-44.12-7.03-23.27-12.18-38.14-15.47-44.61ZM1038.09,350.68c0,5.01-2.27,7.52-6.8,7.52h-82.95c-4.53,0-6.8-2.83-6.8-8.49,0-16.32.59-40.81,1.76-73.46,1.17-32.65,1.76-57.13,1.76-73.46,0-4.69-.7-7.19-2.11-7.52-1.72.97-12.18,25.94-31.4,74.91-11.25,28.77-22.5,57.46-33.74,86.07-1.56,3.72-3.51,5.9-5.86,6.55-.78.16-3.91.24-9.37.24-8.12,0-12.97-1.62-14.53-4.85-8.44-17.78-19.53-43.64-33.27-77.58-14.69-35.88-25.7-61.82-33.04-77.82-.31-.81-1.02-1.7-2.11-2.67-1.09,1.45-1.64,3.8-1.64,7.03,0,15.84.39,39.6,1.17,71.28.78,31.68,1.17,55.44,1.17,71.28,0,5.66-2.19,8.49-6.56,8.49h-78.26c-3.13,0-5.04-.52-5.74-1.58-.7-1.05-1.05-2.87-1.05-5.45,0-17.62.82-44.08,2.46-79.4,1.64-35.31,2.46-61.78,2.46-79.4,0-18.75-.78-53.9-2.34-105.46-.16-13.41-.86-33.37-2.11-59.88l-.23-4.12c-.16-3.23,3.12-4.85,9.84-4.85,8.59,0,21.48-.28,38.66-.85,17.18-.56,30.07-.85,38.66-.85,1.72,0,4.14,3.39,7.26,10.18l68.42,155.41c4.84,10.51,8.9,15.76,12.18,15.76,1.72,0,5.39-6.06,11.01-18.18,15.78-33.94,39.13-85.1,70.06-153.47,2.65-6.3,5.54-9.46,8.67-9.46,4.53,0,11.36.24,20.5.73,9.14.48,16.05.73,20.74.73,3.9,0,9.88-.4,17.93-1.21,8.04-.81,14.02-1.21,17.93-1.21,4.69,0,7.03,1.94,7.03,5.82,0,19.07-.67,47.56-1.99,85.46-1.33,37.9-1.99,66.39-1.99,85.46,0,17.62.7,44.05,2.11,79.28,1.41,35.24,2.11,61.58,2.11,79.04ZM1321.62,282.8c0,6.95-1.33,19.72-3.98,38.31-2.81,20.21-5.31,32.25-7.5,36.12-1.87,3.07-4.45,4.61-7.73,4.61-1.41,0-3.75-.24-7.03-.73-11.41-1.62-44.68-2.42-99.82-2.42-12.03,0-29.92-.08-53.66-.24-23.75-.16-41.56-.24-53.43-.24-5.16,0-7.73-2.34-7.73-7.03,0-18.1.97-45.3,2.93-81.58,1.95-36.28,2.93-63.48,2.93-81.58s-.94-52.77-2.81-103.04c-.47-12.93-1.33-32.24-2.58-57.94l-.23-3.39c-.31-3.72,1.64-5.58,5.86-5.58,11.56,0,28.94.33,52.14.97,23.2.65,40.57.97,52.14.97s28.59-.32,51.55-.97c22.96-.64,40.15-.97,51.55-.97,8.12,0,12.81,3.15,14.06,9.46.78,3.72,1.99,14.99,3.63,33.82,1.64,18.83,2.46,30.27,2.46,34.31,0,3.39-1.56,5.09-4.69,5.09-.94,0-2.58-.08-4.92-.24-41.56-3.55-78.89-5.33-112.01-5.33-8.28,0-13.36,2.02-15.23,6.06-.78,1.94-1.17,8.16-1.17,18.67s1.56,18.27,4.69,21.82c2.65,3.07,7.73,4.61,15.23,4.61,1.56,0,4.61-.12,9.14-.36,4.53-.24,8.28-.36,11.25-.36,19.68,0,39.6-.56,59.75-1.7,1.72-.16,6.01-.56,12.89-1.21,5.31-.64,9.53-.97,12.65-.97,3.75,0,5.62,1.86,5.62,5.58,0-3.39-1.41,8.97-4.22,37.09-1.25,12.93-1.87,25.86-1.87,38.79,0,3.24-2.27,4.85-6.8,4.85l-21.09-2.42c-8.9-.97-29.21-1.45-60.92-1.45h-24.84c-6.41,0-10.16,1.62-11.25,4.85-.16.81-.23,5.82-.23,15.03,0,12.29.78,20.21,2.34,23.76,2.65,6.14,12.65,9.78,29.99,10.91-.31,0,11.09,0,34.21,0,8.28,0,20.58-.76,36.91-2.3,16.32-1.53,28.55-2.3,36.67-2.3,3.43,0,5.16,2.91,5.16,8.73ZM1512.6,246.67c0,32.81-13.36,60.94-40.07,84.37-23.43,20.69-51.94,33.86-85.53,39.52-1.25.16-2.27.24-3.05.24-3.6,0-11.56-11.36-23.9-34.06-12.34-22.71-18.51-36.57-18.51-41.58,0-1.78,1.17-2.91,3.51-3.39,22.65-5.33,37.65-9.86,44.99-13.58,16.25-8.4,24.37-20.85,24.37-37.34,0-10.5-5.31-22.22-15.93-35.15-18.43-21.98-28.43-34.18-29.99-36.61-10.78-16.81-16.17-35.4-16.17-55.76,0-29.58,13.2-54.14,39.6-73.7,21.56-16.16,48.04-26.67,79.44-31.52,1.72-.16,3.05-.24,3.98-.24,2.34,0,4.22,1.94,5.62,5.82,4.06,11.8,13.51,33.14,28.35,64.01.47.97.7,1.78.7,2.42,0,2.75-1.41,4.12-4.22,4.12-1.25,0-3.36-.24-6.33-.73-2.97-.48-5.24-.73-6.8-.73-11.25,0-21.09,2.67-29.53,8-10.16,6.14-15.23,14.71-15.23,25.7,0,9.86,5.62,21.98,16.87,36.37,19.84,25.86,30.23,39.44,31.17,40.73,11.09,17.78,16.64,35.48,16.64,53.09Z" fill="none"/>
    </clipPath>
    <linearGradient id="linear-gradient" x1="792.43" y1="369.37" x2="792.43" y2="0" gradientUnits="userSpaceOnUse">
      <stop offset="0" stop-color="#000"/>
      <stop offset=".04" stop-color="#270405"/>
      <stop offset=".1" stop-color="#54090c"/>
      <stop offset=".16" stop-color="#7d0e12"/>
      <stop offset=".23" stop-color="#a01217"/>
      <stop offset=".3" stop-color="#bd151b"/>
      <stop offset=".38" stop-color="#d5181f"/>
      <stop offset=".47" stop-color="#e81a21"/>
      <stop offset=".57" stop-color="#f51b23"/>
      <stop offset=".71" stop-color="#fc1c24"/>
      <stop offset="1" stop-color="#ff1d25"/>
    </linearGradient>
    <linearGradient id="linear-gradient-2" x1="792.43" y1="369.37" x2="792.43" y2="0" gradientUnits="userSpaceOnUse">
      <stop offset="0" stop-color="#000"/>
      <stop offset=".04" stop-color="#001927"/>
      <stop offset=".1" stop-color="#003554"/>
      <stop offset=".16" stop-color="#004f7d"/>
      <stop offset=".23" stop-color="#0065a0"/>
      <stop offset=".3" stop-color="#0078bd"/>
      <stop offset=".38" stop-color="#0087d5"/>
      <stop offset=".47" stop-color="#0093e8"/>
      <stop offset=".57" stop-color="#009bf5"/>
      <stop offset=".71" stop-color="#00a0fc"/>
      <stop offset="1" stop-color="#00a2ff"/>
    </linearGradient>
  </defs>
  <g clip-path="url(#clippath)">
    <rect id="rectangleRed_ICONS" y="0" width="1584.87" height="369.37" fill="url(#linear-gradient)"/>
    <rect id="rectangleBlue_NAMES" width="1584.87" height="369.37" fill="url(#linear-gradient-2)"/>
  </g>
</svg>