<?xml version="1.0" encoding="UTF-8"?>
<svg id="Group_ICONS" xmlns="http://www.w3.org/2000/svg" xmlns:xlink="http://www.w3.org/1999/xlink" viewBox="0 0 1878.49 459.08">
  <defs>
    <clipPath id="clippath">
      <path id="Guide_ICONS" d="M279.79,215.54c0,23.29.59,58.33,1.78,105.11,1.18,46.78,1.78,81.82,1.78,105.11,0,3.95-.89,6.42-2.66,7.4-.4.2-2.96.59-7.7,1.18-12.83,1.58-30.01,2.37-51.52,2.37-28.82,0-47.18-.79-55.07-2.37-5.73-1.18-8.59-4.24-8.59-9.18,0,3.16.89-14.21,2.66-52.11,3.55-79.95,5.33-132.45,5.33-157.52,0-21.12-.69-52.8-2.07-95.05-1.38-42.24-2.07-73.92-2.07-95.05,0-4.34,2.27-6.51,6.81-6.51,6.12,0,15.35.3,27.69.89,12.33.59,21.56.89,27.69.89s15.15-.3,27.09-.89c11.94-.59,20.97-.89,27.09-.89,5.72,0,8.59,2.17,8.59,6.51,0,21.12-1.14,52.81-3.41,95.05-2.27,42.24-3.41,73.93-3.41,95.05ZM686.03,367.44c0,3.16-2.07,7.31-6.22,12.44-36.32,43.23-84.59,64.85-144.79,64.85s-111.53-21.02-149.83-63.07c-37.31-40.66-55.96-91.98-55.96-153.97s18.26-110.93,54.78-152.79c38.09-43.82,86.56-65.73,145.38-65.73,63.96,0,114.09,19.64,150.42,58.92,3.95,4.34,5.92,8.19,5.92,11.55,0,3.75-6.86,17.67-20.58,41.75-13.72,24.09-22.36,37.6-25.91,40.57-1.58,1.58-3.55,2.37-5.92,2.37-.99,0-5.92-3.95-14.8-11.84-10.66-9.48-21.12-16.88-31.39-22.21-15.6-7.89-31.78-11.84-48.56-11.84-29.02,0-52.22,10.86-69.58,32.57-15.99,20.13-23.98,45.01-23.98,74.62s7.99,55.18,23.98,75.5c17.37,22.11,40.57,33.16,69.58,33.16,17.17,0,33.46-3.75,48.86-11.25,10.07-4.93,20.33-11.84,30.79-20.73,8.68-7.5,13.52-11.25,14.51-11.25,1.97,0,3.95,1.09,5.92,3.26,3.16,3.55,11.74,15.89,25.76,37.01,14.41,21.91,21.62,33.95,21.62,36.12ZM1129.29,227.09c0,61.59-19.64,113.21-58.92,154.86-40.08,42.24-90.8,63.36-152.19,63.36s-111.63-21.32-151.9-63.96c-39.48-41.65-59.22-93.07-59.22-154.27s19.74-113.01,59.22-154.86c40.27-42.83,90.9-64.25,151.9-64.25s111.13,21.42,151.6,64.25c39.68,42.24,59.52,93.86,59.52,154.86ZM1017.07,226.49c0-29.61-8.98-54.78-26.94-75.5-18.76-21.71-42.74-32.57-71.95-32.57s-51.42,11.25-70.77,33.76c-18.76,21.72-28.13,46.69-28.13,74.91,0,30.2,8.78,55.37,26.35,75.5,18.55,21.12,42.74,31.68,72.54,31.68,27.83,0,51.52-11.15,71.06-33.46,18.55-21.32,27.83-46.09,27.83-74.32ZM1569.59,28.11c0,22.5-.94,56.31-2.81,101.41-1.88,45.11-2.81,79.01-2.81,101.71v195.13c0,5.33-2.86,7.99-8.59,7.99-4.74,0-11.89.19-21.47.59-9.58.39-16.73.59-21.47.59-5.14,0-12.83-.4-23.1-1.18-10.27-.79-17.96-1.18-23.1-1.18-3.55,0-7.8-3.26-12.73-9.77-14.21-19.14-46.19-61.59-95.94-127.32-13.62-18.36-34.35-45.4-62.18-81.13-.79-1.18-2.27-2.37-4.44-3.55-1.58,1.38-2.37,3.55-2.37,6.51,0,22.9.64,57.25,1.92,103.04,1.28,45.8,1.92,80.15,1.92,103.04,0,6.91-2.66,10.36-7.99,10.36h-102.45c-5.73,0-8.59-3.06-8.59-9.18,0-21.32,1.04-53.49,3.11-96.53,2.07-43.03,3.11-75.31,3.11-96.82,0-22.7-.94-56.65-2.81-101.86-1.88-45.2-2.81-79.06-2.81-101.56,0-4.34,3.85-6.51,11.55-6.51,11.45,0,25.56-.79,42.34-2.37,3.95-.39,11.74-1.67,23.39-3.85,9.87-1.78,17.66-2.66,23.39-2.66,2.37,0,6.02,3.36,10.96,10.07l110.44,151.31c9.87,13.62,24.77,33.56,44.71,59.81,4.93,6.12,9.18,9.18,12.73,9.18,2.56,0,3.85-7.7,3.85-23.1,0-20.73-1.14-51.91-3.41-93.57-2.27-41.65-3.41-72.94-3.41-93.86,0-7.3,2.07-10.96,6.22-10.96,11.84,0,29.71-.49,53.59-1.48,23.88-.99,41.75-1.48,53.59-1.48,3.75,0,5.63,3.06,5.63,9.18ZM1826.6,298.15c0,40.08-16.88,74.42-50.63,103.04-29.61,25.27-65.64,41.35-108.08,48.26-1.58.19-2.86.3-3.85.3-4.54,0-14.61-13.87-30.2-41.6-15.6-27.73-23.39-44.66-23.39-50.78,0-2.17,1.48-3.55,4.44-4.15,28.62-6.51,47.57-12.04,56.85-16.58,20.53-10.26,30.79-25.46,30.79-45.6,0-12.83-6.71-27.14-20.13-42.93-23.29-26.84-35.93-41.75-37.9-44.71-13.62-20.53-20.43-43.23-20.43-68.1,0-36.12,16.68-66.13,50.04-90.01,27.24-19.74,60.7-32.57,100.38-38.49,2.17-.19,3.85-.3,5.03-.3,2.96,0,5.33,2.37,7.11,7.11,5.13,14.41,17.07,40.47,35.83,78.17.59,1.18.89,2.17.89,2.96,0,3.36-1.78,5.03-5.33,5.03-1.58,0-4.25-.3-7.99-.89-3.75-.59-6.62-.89-8.59-.89-14.21,0-26.65,3.26-37.31,9.77-12.83,7.5-19.25,17.96-19.25,31.39,0,12.04,7.11,26.85,21.32,44.41,25.07,31.59,38.2,48.17,39.38,49.74,14.01,21.72,21.02,43.33,21.02,64.85Z" fill="none"/>
    </clipPath>
    <linearGradient id="linear-gradient" x1="939.4" y1="458.65" x2="939.4" y2=".37" gradientUnits="userSpaceOnUse">
      <stop offset="0" stop-color="#000"/>
      <stop offset=".04" stop-color="#270405"/>
      <stop offset=".1" stop-color="#54090c"/>
      <stop offset=".16" stop-color="#7d0e12"/>
      <stop offset=".23" stop-color="#a01217"/>
      <stop offset=".3" stop-color="#bd151b"/>
      <stop offset=".38" stop-color="#d5181f"/>
      <stop offset=".47" stop-color="#e81a21"/>
      <stop offset=".57" stop-color="#f51b23"/>
      <stop offset=".71" stop-color="#fc1c24"/>
      <stop offset="1" stop-color="#ff1d25"/>
    </linearGradient>
  </defs>
  <g clip-path="url(#clippath)">
    <rect id="rectangleRed_ICONS" x="1.12" y=".37" width="1876.57" height="458.29" fill="url(#linear-gradient)"/>
  </g>
</svg>