<?xml version="1.0" encoding="UTF-8"?>
<svg xmlns="http://www.w3.org/2000/svg" width="202.7302" height="201.3487" version="1.1" xmlns:xlink="http://www.w3.org/1999/xlink" viewBox="0 0 202.7302 201.3487">
  <!-- Generator: Adobe Illustrator 29.7.1, SVG Export Plug-In . SVG Version: 2.1.1 Build 8)  -->
  <defs>
    <radialGradient id="radial-gradient" cx="626.8659" cy="455.5184" fx="626.8659" fy="455.5184" r="54.414" gradientTransform="translate(130.4547 -635.9362) rotate(59.7461) scale(.9718 .7044)" gradientUnits="userSpaceOnUse">
      <stop offset=".0303" stop-color="#fff"/>
      <stop offset=".0998" stop-color="#cbcbcb"/>
      <stop offset=".1905" stop-color="#8e8e8e"/>
      <stop offset=".2777" stop-color="#5b5b5b"/>
      <stop offset=".3591" stop-color="#333"/>
      <stop offset=".4332" stop-color="#171717"/>
      <stop offset=".4978" stop-color="#060606"/>
      <stop offset=".5455" stop-color="#000"/>
    </radialGradient>
    <mask id="mask" x="117.729" y="2.3608" width="85.0012" height="99.2074" maskUnits="userSpaceOnUse">
      <path d="M186.8697,97.6436c-18.2764,10.6631-45.0244-1.1504-59.7471-26.3711-14.7183-25.2187-11.8237-54.3223,6.46-64.9824,18.2866-10.666,45.042,1.1289,59.7466,26.3486,14.725,25.2334,11.8383,54.3242-6.4595,65.0049Z" fill="url(#radial-gradient)"/>
    </mask>
    <radialGradient id="radial-gradient1" cx="100.6748" cy="100.6743" fx="100.6748" fy="100.6743" r="100.6746" gradientTransform="translate(183.3451 -15.2411) rotate(80.4962)" gradientUnits="userSpaceOnUse">
      <stop offset="0" stop-color="#fff"/>
      <stop offset="1" stop-color="#f5b034"/>
    </radialGradient>
    <linearGradient id="linear-gradient" x1="100.011" y1="4.4698" x2="100.011" y2="130.9838" gradientUnits="userSpaceOnUse">
      <stop offset="0" stop-color="gray"/>
      <stop offset=".2516" stop-color="#585858"/>
      <stop offset=".5917" stop-color="#282828"/>
      <stop offset=".8522" stop-color="#0b0b0b"/>
      <stop offset="1" stop-color="#000"/>
    </linearGradient>
    <mask id="mask-1" x="13.4913" y="2.2149" width="173.5356" height="153.3779" maskUnits="userSpaceOnUse">
      <path d="M100.0123,2.792C52.2349,2.792,13.4913,36.9971,13.4913,79.1875s38.7436,76.4053,86.521,76.4053,86.5185-34.206,86.5185-76.4053S147.7989,2.792,100.0123,2.792Z" fill="url(#linear-gradient)"/>
    </mask>
    <linearGradient id="Linear_Gradient" data-name="Linear Gradient" x1="-261.7743" y1="-136.2676" x2="-242.1848" y2="-110.5562" gradientTransform="translate(260.779 200.1855) rotate(5.2442)" gradientUnits="userSpaceOnUse">
      <stop offset="0" stop-color="#fff"/>
      <stop offset="1" stop-color="#000"/>
    </linearGradient>
    <linearGradient id="Linear_Gradient1" data-name="Linear Gradient" x1="-229.3886" y1="-160.9407" x2="-209.8015" y2="-135.2326" xlink:href="#Linear_Gradient"/>
    <linearGradient id="Linear_Gradient2" data-name="Linear Gradient" x1="-261.0305" y1="-136.8284" x2="-241.4439" y2="-111.1208" xlink:href="#Linear_Gradient"/>
    <linearGradient id="Linear_Gradient3" data-name="Linear Gradient" x1="-236.2648" y1="-155.7048" x2="-216.6725" y2="-129.9898" xlink:href="#Linear_Gradient"/>
    <mask id="mask-2" x="23.3196" y="14.1983" width="48.8054" height="68.3213" maskUnits="userSpaceOnUse">
      <g>
        <path d="M32.733,49.0831c-5.7671,9.6767-8.5918,21.0341-8.0713,32.1328-.2271.4277-.4463.8632-.6636,1.3037-1.773-10.9541-.2271-24.2285,6.4917-36.6709.7275,1.1006,1.4751,2.1797,2.2432,3.2344Z" fill="url(#Linear_Gradient)"/>
        <path d="M61.3135,24.7207c-10.2339,3.9698-19.4453,11.1329-25.9507,20.3213-.6137-1.4423-1.185-2.9218-1.7099-4.4296,8.0263-12.0088,21.3349-22.4073,38.4721-26.4141-4.2485,3.2041-7.8447,6.7676-10.8115,10.5224Z" fill="url(#Linear_Gradient1)"/>
        <path d="M35.4522,52.6172c-4.9731,6.7452-9.0645,15.9698-10.0015,27.1455-.2358.417-.4658.8399-.6928,1.2676-.3384-11.1123,2.6538-22.2012,8.31-31.4951.772,1.0508,1.5694,2.0752,2.3843,3.082Z" fill="url(#Linear_Gradient2)"/>
        <path d="M53.5464,38.1036c-4.896,1.9326-10.687,5.6464-15.9087,11.7588-.7114-1.3653-1.3794-2.7706-2.0087-4.2032,6.3183-8.7949,15.0332-15.5117,24.4502-19.3174-2.7876,3.8077-4.9527,7.7764-6.5328,11.7618Z" fill="url(#Linear_Gradient3)"/>
      </g>
    </mask>
    <radialGradient id="radial-gradient2" cx="635.8678" cy="468.6556" fx="635.8678" fy="468.6556" r="54.4141" xlink:href="#radial-gradient"/>
    <mask id="mask-3" x="114.1436" y="14.5805" width="85.0014" height="99.2074" maskUnits="userSpaceOnUse">
      <path d="M183.2852,109.8633c-18.2773,10.6631-45.0254-1.1504-59.748-26.3711-14.7188-25.2187-11.8233-54.3222,6.4599-64.9824,18.2862-10.666,45.043,1.1289,59.7471,26.3496,14.7246,25.2315,11.8379,54.3223-6.459,65.0039Z" fill="url(#radial-gradient2)"/>
    </mask>
  </defs>
  <g isolation="isolate">
    <g id="Objects">
      <g>
        <g>
          <g mask="url(#mask)">
            <path id="sun" d="M186.8697,97.6436c-18.2764,10.6631-45.0244-1.1504-59.7471-26.3711-14.7183-25.2187-11.8237-54.3223,6.46-64.9824,18.2866-10.666,45.042,1.1289,59.7466,26.3486,14.725,25.2334,11.8383,54.3242-6.4595,65.0049Z" fill="#f7eeda"/>
          </g>
          <path d="M165.271,56.1612c-1.269,1.7304-5.1098,1.0674-8.5761-1.4795-3.4634-2.543-5.2456-6.0098-3.9776-7.7363,1.2681-1.7286,5.1099-1.0664,8.5733,1.4765,3.4677,2.5469,5.2505,6.0127,3.9804,7.7393Z" fill="#f7eeda"/>
        </g>
        <g>
          <circle cx="100.6749" cy="100.6746" r="100.6741" transform="translate(-15.2406 183.3451) rotate(-80.4962)" fill="url(#radial-gradient1)" mix-blend-mode="hue"/>
          <g mask="url(#mask-1)">
            <path d="M100.5064,2.2149C52.7203,2.2149,13.9878,36.42,13.9878,78.6104s38.7325,76.4033,86.5186,76.4033,86.5205-34.2031,86.5205-76.4033S148.2881,2.2149,100.5064,2.2149Z" fill="#fff"/>
          </g>
          <g mask="url(#mask-2)">
            <g>
              <path d="M32.733,49.0831c-5.7671,9.6767-8.5918,21.0341-8.0713,32.1328-.2271.4277-.4463.8632-.6636,1.3037-1.773-10.9541-.2271-24.2285,6.4917-36.6709.7275,1.1006,1.4751,2.1797,2.2432,3.2344Z" fill="#fff"/>
              <path d="M61.3135,24.7207c-10.2339,3.9698-19.4453,11.1329-25.9507,20.3213-.6137-1.4423-1.185-2.9218-1.7099-4.4296,8.0263-12.0088,21.3349-22.4073,38.4721-26.4141-4.2485,3.2041-7.8447,6.7676-10.8115,10.5224Z" fill="#fff"/>
              <path d="M35.4522,52.6172c-4.9731,6.7452-9.0645,15.9698-10.0015,27.1455-.2358.417-.4658.8399-.6928,1.2676-.3384-11.1123,2.6538-22.2012,8.31-31.4951.772,1.0508,1.5694,2.0752,2.3843,3.082Z" fill="#fff"/>
              <path d="M53.5464,38.1036c-4.896,1.9326-10.687,5.6464-15.9087,11.7588-.7114-1.3653-1.3794-2.7706-2.0087-4.2032,6.3183-8.7949,15.0332-15.5117,24.4502-19.3174-2.7876,3.8077-4.9527,7.7764-6.5328,11.7618Z" fill="#fff"/>
            </g>
          </g>
        </g>
        <g>
          <g mask="url(#mask-3)">
            <path id="sun1" data-name="sun" d="M183.2852,109.8633c-18.2773,10.6631-45.0254-1.1504-59.748-26.3711-14.7188-25.2187-11.8233-54.3222,6.4599-64.9824,18.2862-10.666,45.043,1.1289,59.7471,26.3496,14.7246,25.2315,11.8379,54.3223-6.459,65.0039Z" fill="#f7eeda"/>
          </g>
          <path d="M161.6856,68.3809c-1.2686,1.7305-5.1094,1.0664-8.5762-1.4805-3.4629-2.542-5.2451-6.0088-3.9775-7.7363,1.2685-1.7275,5.1103-1.0664,8.5732,1.4775,3.4688,2.5459,5.25,6.0127,3.9805,7.7393Z" fill="#f7eeda"/>
        </g>
      </g>
    </g>
  </g>
</svg>