<?xml version="1.0" encoding="UTF-8"?>
<svg xmlns="http://www.w3.org/2000/svg" width="360" height="360" version="1.1" viewBox="0 0 360 360">
  <!-- Generator: Adobe Illustrator 29.7.1, SVG Export Plug-In . SVG Version: 2.1.1 Build 8)  -->
  <g id="Background">
    <rect width="360" height="360" fill="none"/>
  </g>
  <g id="Graphic_Elements">
    <g>
      <path d="M222.3322,244.1903c-5.5229,0-10-4.4771-10-10,0-17.8252-14.5015-32.3267-32.3267-32.3267s-32.3379,14.5015-32.3379,32.3267c0,5.5229-4.4771,10-10,10h-66.0425c-5.5229,0-10-4.4771-10-10,0-65.2754,53.105-118.3804,118.3804-118.3804s118.3696,53.105,118.3696,118.3804c0,5.5229-4.4771,10-10,10h-66.043Z" fill="#e6c597"/>
      <path d="M180.0054,125.8099c59.8499,0,108.3695,48.5195,108.3695,108.3802h-66.0428c0-23.382-18.9554-42.3268-42.3267-42.3268s-42.3376,18.9448-42.3376,42.3268h-66.0428c0-59.8607,48.5197-108.3802,108.3805-108.3802M180.0054,105.8099c-34.2937,0-66.5332,13.3533-90.7802,37.6001s-37.6003,56.4866-37.6003,90.7802c0,11.0457,8.9543,20,20,20h66.0428c11.0457,0,20-8.9543,20-20,0-12.311,10.0206-22.3268,22.3376-22.3268s22.3267,10.0157,22.3267,22.3268c0,11.0457,8.9543,20,20,20h66.0428c11.0457,0,20-8.9543,20-20,0-34.2928-13.3527-66.5321-37.5985-90.7794-24.2455-24.2473-56.4819-37.6008-90.771-37.6008h0Z" fill="#c4b0d3"/>
    </g>
  </g>
</svg>