<?xml version="1.0" encoding="UTF-8"?>
<svg xmlns="http://www.w3.org/2000/svg" width="360" height="360" version="1.1" viewBox="0 0 360 360">
  <!-- Generator: Adobe Illustrator 29.7.1, SVG Export Plug-In . SVG Version: 2.1.1 Build 8)  -->
  <g id="Background">
    <rect width="360" height="360" fill="none"/>
  </g>
  <g id="Graphic_Elements">
    <g>
      <path d="M180.0002,291.8004c-31.7324,0-62.0742-9.8589-87.7461-28.5107-26.1191-18.9766-36.9653-52.3564-26.9888-83.062l31.271-96.2417c1.1782-3.626,4.3159-6.2666,8.0898-6.8081.4756-.0684.9507-.1021,1.4229-.1021,3.2715,0,6.3755,1.6079,8.2549,4.3594l29.4663,43.1309c11.7227-3.666,23.875-5.52,36.23-5.52s24.5068,1.854,36.2295,5.52l29.4663-43.1309c1.8794-2.751,4.9834-4.3594,8.2549-4.3594.4722,0,.9473.0337,1.4229.1021,3.7739.5415,6.9116,3.1821,8.0898,6.8081l31.271,96.2417c9.9766,30.7051-.8691,64.085-26.9883,83.062-25.6719,18.6519-56.0142,28.5107-87.7461,28.5107Z" fill="#e6c597"/>
      <path d="M253.953,87.0763l31.2709,96.2419c8.6072,26.49-.8219,55.5093-23.3556,71.8811v.0002c-24.4086,17.7336-53.1384,26.6003-81.8684,26.6003s-57.4598-8.8667-81.8682-26.6003v-.0002c-22.5337-16.3718-31.9628-45.3911-23.3557-71.8811l31.271-96.2419c11.2611,16.4834,22.5221,32.9668,33.7832,49.4502,16.5219-6.3745,31.0988-7.4805,40.1698-7.4805,17.7089,0,31.7068,4.2153,40.1698,7.4805l33.7832-49.4502M253.9494,67.0758c-6.5436,0-12.7512,3.2158-16.5104,8.7185l-25.4148,37.2007c-10.442-2.6243-21.1616-3.949-32.0242-3.949s-21.5823,1.3247-32.0242,3.949l-14.1537-20.7173-11.2611-16.4834c-3.7589-5.5022-9.9673-8.718-16.5104-8.7185-.9441,0-1.8942.0669-2.8459.2036-7.5476,1.0835-13.8225,6.3645-16.1788,13.6165l-31.271,96.2419c-11.3195,34.8379.9862,72.7107,30.621,94.2417,27.3915,19.9014,59.7662,30.4204,93.624,30.4204s66.2324-10.519,93.624-30.4199c29.635-21.5315,41.9407-59.4045,30.621-94.2422l-31.2708-96.2417c-2.3563-7.2522-8.6311-12.5332-16.1788-13.6167-.9514-.1367-1.9023-.2036-2.8459-.2036h0Z" fill="#c4b0d3"/>
    </g>
  </g>
</svg>