<?xml version="1.0" encoding="UTF-8"?>
<svg xmlns="http://www.w3.org/2000/svg" width="360" height="360" version="1.1" viewBox="0 0 360 360">
  <!-- Generator: Adobe Illustrator 29.7.1, SVG Export Plug-In . SVG Version: 2.1.1 Build 8)  -->
  <g id="Background">
    <rect width="360" height="360" fill="none"/>
  </g>
  <g id="Graphic_Elements">
    <g>
      <path d="M180.0002,268.3934c-29.1138,0-56.3599-2.543-76.7197-7.1606-10.3027-2.3369-41.6558-9.4478-41.6553-30.4917v-101.4824c0-21.0439,31.3525-28.1548,41.6553-30.4917,20.3599-4.6177,47.606-7.1606,76.7197-7.1606s56.3599,2.543,76.7197,7.1606c10.3027,2.3369,41.6553,9.4478,41.6553,30.4917v101.4824c0,21.0439-31.3525,28.1548-41.6553,30.4917-20.3599,4.6177-47.6064,7.1606-76.7197,7.1606Z" fill="#e6c597"/>
      <path d="M179.9999,101.6066c54.1875,0,108.375,9.2174,108.375,27.6522v101.4822c0,18.4351-54.1875,27.6525-108.375,27.6525s-108.375-9.2174-108.375-27.6525v-101.4822c0-18.4348,54.1875-27.6522,108.375-27.6522M179.9999,81.6066c-29.8357,0-57.8674,2.631-78.9316,7.4084-12.738,2.8889-22.6184,6.4445-30.2056,10.8694-16.7385,9.7621-19.2378,22.5942-19.2378,29.3744v101.4822c0,6.7802,2.4993,19.6124,19.2375,29.3745,7.5874,4.4249,17.4678,7.9805,30.2058,10.8695,21.0642,4.7773,49.0959,7.4084,78.9316,7.4084s57.8674-2.6311,78.9316-7.4084c12.738-2.889,22.6184-6.4446,30.2058-10.8695,16.7383-9.7621,19.2375-22.5942,19.2375-29.3745v-101.4822c0-6.7802-2.4993-19.6123-19.2375-29.3744-7.5874-4.4249-17.4678-7.9803-30.2058-10.8694-21.0642-4.7775-49.0959-7.4084-78.9316-7.4084h0Z" fill="#c4b0d3"/>
    </g>
  </g>
</svg>