<?xml version="1.0" encoding="UTF-8"?>
<svg xmlns="http://www.w3.org/2000/svg" width="360" height="360" version="1.1" viewBox="0 0 360 360">
  <!-- Generator: Adobe Illustrator 29.7.1, SVG Export Plug-In . SVG Version: 2.1.1 Build 8)  -->
  <g id="Background">
    <rect width="360" height="360" fill="none"/>
  </g>
  <g id="Graphic_Elements">
    <g>
      <path d="M252.2467,266.8185c-1.897,0-3.7944-.5391-5.4517-1.6167l-30.6763-19.9497-30.6719,19.9492c-1.6572,1.0781-3.5547,1.6172-5.4521,1.6172s-3.7944-.5391-5.4521-1.6172l-30.6724-19.9487-30.6709,19.9487c-1.6572,1.0781-3.5552,1.6172-5.4521,1.6172s-3.7949-.5391-5.4526-1.6172l-36.1221-23.4951c-2.8364-1.8447-4.5474-4.999-4.5474-8.3828V103.1818c0-3.6675,2.0078-7.041,5.2314-8.79,1.4907-.8086,3.1313-1.21,4.7681-1.21,1.9028,0,3.8003.542,5.4531,1.6172l30.6694,19.9487,30.6709-19.9487c1.6572-1.0781,3.5547-1.6172,5.4521-1.6172s3.7944.5391,5.4521,1.6172l30.6724,19.9487,30.6714-19.9487c1.6572-1.0781,3.5547-1.6172,5.4521-1.6172s3.7944.5391,5.4517,1.6167l30.6768,19.9497,30.6768-19.9497c1.6523-1.0747,3.5498-1.6167,5.4521-1.6167,1.6367,0,3.2773.4014,4.7681,1.2104,3.2236,1.749,5.2314,5.1221,5.2314,8.7896v130.1416c0,3.3838-1.7114,6.5386-4.5483,8.3833l-36.1284,23.4951c-1.6572,1.0776-3.5547,1.6167-5.4517,1.6167Z" fill="#e6c597"/>
      <path d="M288.375,103.1815v130.1416l-36.1285,23.4954-36.1283-23.4954-36.1235,23.4954-36.1244-23.4954-36.1229,23.4954-36.1223-23.4954V103.1815l36.1223,23.4954,36.1229-23.4954,36.1244,23.4954,36.1235-23.4954,36.1283,23.4954,36.1285-23.4954M288.376,83.1815c-3.8048,0-7.5992,1.084-10.9045,3.2336l-25.225,16.4043-25.2246-16.4043c-3.3147-2.1555-7.1095-3.2334-10.9037-3.2336-3.795-.0002-7.5894,1.0779-10.9047,3.2344l-25.219,16.4028-25.2197-16.4031c-3.3148-2.1558-7.1102-3.2339-10.9045-3.2341-3.7953-.0002-7.5894,1.0779-10.9049,3.2344l-25.2179,16.4026-25.2175-16.4026c-3.3053-2.1499-7.101-3.2344-10.9059-3.2344-3.2736,0-6.554.8027-9.5358,2.4202-6.4478,3.4978-10.4633,10.2446-10.4633,17.5798v130.1416c0,6.7673,3.4221,13.0757,9.0951,16.7656l36.1223,23.4954c3.3152,2.1562,7.11,3.2344,10.9049,3.2344s7.5896-1.0781,10.9048-3.2344l25.2184-16.4028,25.2196,16.4031c3.3147,2.1558,7.1102,3.2341,10.9045,3.2341s7.5891-1.0779,10.9047-3.2344l25.2196-16.4031,25.2239,16.4038c3.3149,2.1558,7.1094,3.2336,10.9038,3.2336s7.5886-1.0779,10.9034-3.2336l36.1285-23.4954c5.6737-3.6897,9.0964-9.9985,9.0964-16.7664V103.1815c0-7.335-4.0153-14.0815-10.4625-17.5796-2.9816-1.6174-6.2629-2.4204-9.5365-2.4204h0Z" fill="#c4b0d3"/>
    </g>
  </g>
</svg>