<?xml version="1.0" encoding="UTF-8"?>
<svg xmlns="http://www.w3.org/2000/svg" width="360" height="360" version="1.1" viewBox="0 0 360 360">
  <!-- Generator: Adobe Illustrator 29.7.1, SVG Export Plug-In . SVG Version: 2.1.1 Build 8)  -->
  <g id="Background">
    <rect width="360" height="360" fill="none"/>
  </g>
  <g id="Graphic_Elements">
    <g>
      <path d="M246.9787,293.0707c-1.5918,0-3.1895-.3794-4.6523-1.1489-19.145-10.0649-40.6968-15.3848-62.3262-15.3848s-43.1812,5.3198-62.3262,15.3848c-1.4629.7695-3.061,1.1489-4.6523,1.1489-2.0737,0-4.1367-.644-5.8789-1.9097-3.0796-2.2378-4.6216-6.0293-3.978-9.7808,7.4531-43.457-6.9463-87.7749-38.5195-118.5508-2.7261-2.6572-3.707-6.6313-2.5308-10.2515s4.3057-6.2583,8.0728-6.8057c43.6328-6.3403,81.332-33.7305,100.8457-73.2686,1.6846-3.4131,5.1611-5.5742,8.9673-5.5742s7.2827,2.1611,8.9673,5.5742c19.5132,39.5381,57.2124,66.9282,100.8457,73.2686,3.7671.5474,6.8965,3.1855,8.0728,6.8057s.1953,7.5942-2.5308,10.2515c-31.5732,30.7759-45.9727,75.0938-38.5195,118.5508.6436,3.7515-.8984,7.543-3.978,9.7808-1.7422,1.2656-3.8057,1.9097-5.8789,1.9097Z" fill="#e6c597"/>
      <path d="M180.0002,76.9293c20.9661,42.4818,61.4935,71.9268,108.3749,78.739-33.9237,33.0675-49.4038,80.7103-41.3955,127.4023-20.9659-11.0225-43.9727-16.5337-66.9794-16.5337s-46.0134,5.5112-66.9794,16.5337h-.0001s0,0,0,0c8.0083-46.692-7.4718-94.3348-41.3955-127.4023,46.8815-6.8123,87.4089-36.2572,108.375-78.739M288.3752,155.6683h-.0001.0001M246.9795,283.0707h0s0,0,0,0M180.0002,56.9293c-7.6128,0-14.5656,4.322-17.9347,11.1487-18.0565,36.5862-52.941,61.9314-93.3163,67.7982-7.5337,1.0947-13.7926,6.3715-16.1451,13.6118-2.3525,7.2402-.3906,15.1881,5.0609,20.502,29.2157,28.4785,42.5405,69.4878,35.6436,109.6997-1.2869,7.5033,1.7976,15.0865,7.9565,19.5613,3.4843,2.5315,7.6107,3.8198,11.7577,3.8198,3.1832,0,6.3785-.759,9.3047-2.2975,17.7155-9.3135,37.6583-14.2363,57.6727-14.2363s39.9573,4.9229,57.6725,14.2363c2.9259,1.5382,6.1221,2.2975,9.3048,2.2975,4.1475,0,8.2731-1.2881,11.7578-3.8198,6.1589-4.4747,9.2434-12.058,7.9564-19.5613-6.897-40.212,6.4277-81.2213,35.6436-109.6997,5.4514-5.3138,7.4133-13.2617,5.0609-20.502-2.3525-7.2402-8.6115-12.5171-16.1451-13.6118-40.3751-5.8669-75.2596-31.212-93.3162-67.7982-3.3691-6.8267-10.3219-11.1487-17.9347-11.1487h0Z" fill="#c4b0d3"/>
    </g>
  </g>
</svg>