<?xml version="1.0" encoding="UTF-8"?>
<svg xmlns="http://www.w3.org/2000/svg" width="360" height="360" version="1.1" viewBox="0 0 360 360">
  <!-- Generator: Adobe Illustrator 29.7.1, SVG Export Plug-In . SVG Version: 2.1.1 Build 8)  -->
  <g id="Background">
    <rect width="360" height="360" fill="none"/>
  </g>
  <g id="Graphic_Elements">
    <g>
      <path d="M71.6251,277.9257c-3.4907,0-6.7285-1.8203-8.543-4.8022s-1.9424-6.6943-.3379-9.7944L171.1188,53.954c1.7183-3.3193,5.1436-5.4033,8.8809-5.4033s7.1626,2.084,8.8809,5.4033l108.3755,209.375c1.6045,3.1001,1.4766,6.8125-.3379,9.7944s-5.0522,4.8022-8.543,4.8022H71.6251Z" fill="#e6c597"/>
      <path d="M179.9999,58.5507l108.375,209.3749H71.6249L179.9999,58.5507M179.9999,38.5507c-7.4749,0-14.3257,4.1682-17.7617,10.8064l-108.375,209.3749c-3.2092,6.2-2.9531,13.6248.6755,19.589s10.1047,9.6046,17.0862,9.6046h216.75c6.9814,0,13.4575-3.6404,17.0862-9.6046s3.8848-13.389.6755-19.589L197.7616,49.3571c-3.436-6.6382-10.2869-10.8064-17.7617-10.8064h0Z" fill="#c4b0d3"/>
    </g>
  </g>
</svg>