<?xml version="1.0" encoding="UTF-8"?>
<svg xmlns="http://www.w3.org/2000/svg" width="360" height="360" version="1.1" viewBox="0 0 360 360">
  <!-- Generator: Adobe Illustrator 29.7.1, SVG Export Plug-In . SVG Version: 2.1.1 Build 8)  -->
  <g id="Background">
    <rect width="360" height="360" fill="none"/>
  </g>
  <g id="Graphic_Elements">
    <g>
      <path d="M282.4206,298.3753c-1.562,0-3.1172-.2339-4.623-.6953-1.6567-.5073-3.2144-1.3086-4.7637-2.4502l-91.1172-67.1216c-.6079-.2427-1.2612-.3691-1.9165-.3691-.6558,0-1.3091.1265-1.9175.3691l-91.1167,67.1221c-1.5518,1.1421-3.1089,1.9429-4.7632,2.4497-1.5059.4609-3.061.6948-4.6226.6953-5.0088,0-9.8037-2.4385-12.8257-6.5239-3.0278-4.0938-3.9155-9.2148-2.4351-14.0503.5083-1.6592,1.311-3.2197,2.4541-4.7695l67.1211-91.1196c.4902-1.2275.4902-2.5967,0-3.8242l-67.125-91.125c-1.1401-1.5469-1.9419-3.1055-2.4497-4.7627-1.481-4.8364-.5933-9.957,2.4346-14.0508,3.022-4.0854,7.8159-6.5244,12.8242-6.5244,1.5625,0,3.1182.2339,4.6245.6953,1.6538.5068,3.2109,1.3071,4.7598,2.4478l91.1196,67.1235c.6084.2427,1.2617.3691,1.9175.3691.6553,0,1.3086-.1265,1.9165-.3691l91.1177-67.1216c1.5488-1.1411,3.1064-1.9424,4.7627-2.4497,1.5059-.4614,3.0615-.6953,4.624-.6953,5.0088,0,9.8032,2.439,12.8247,6.5244,3.0278,4.0938,3.9155,9.2144,2.4351,14.0498-.5073,1.6553-1.3081,3.2124-2.4482,4.7612l-67.1274,91.1274c-.4902,1.2275-.4902,2.5967,0,3.8242l67.1255,91.1255c1.1416,1.5488,1.9429,3.1074,2.4502,4.7646,1.4805,4.834.5928,9.9546-2.4351,14.0479-3.0215,4.0859-7.8164,6.5254-12.8252,6.5254Z" fill="#e6c597"/>
      <path d="M282.4211,71.6251c3.7679,0,6.8855,3.7664,5.6975,7.6462-.1958.6394-.5427,1.2222-.9393,1.7607l-67.684,91.8831c-2.3431,4.4329-2.3431,9.7371,0,14.1697l67.684,91.8832c.3966.5385.7435,1.1213.9393,1.7607,1.1879,3.8795-1.9298,7.6462-5.6974,7.6462-.5551,0-1.1237-.0815-1.6953-.2567-.6393-.1958-1.2222-.5427-1.7605-.9393l-91.8767-67.6813c-2.2174-1.1721-4.6531-1.7583-7.0887-1.7583s-4.8712.5862-7.0887,1.7583l-91.8766,67.6813c-.5383.3966-1.1212.7435-1.7605.9393-.5714.175-1.1405.2567-1.6953.2567-3.7679,0-6.8854-3.7665-5.6974-7.6462.1958-.6394.5427-1.2223.9393-1.7607l67.684-91.8832c2.3431-4.4326,2.3431-9.7368,0-14.1697l-67.684-91.8831c-.3966-.5386-.7435-1.1213-.9393-1.7607-1.1879-3.8796,1.9299-7.6462,5.6975-7.6462.5551,0,1.1235.0815,1.6952.2566.6393.1958,1.2222.5427,1.7605.9395l91.8766,67.6812c2.2175,1.1724,4.6532,1.7583,7.0887,1.7583s4.8713-.5859,7.0887-1.7583l91.8767-67.6812c.5383-.3967,1.1212-.7437,1.7605-.9395.5714-.175,1.1404-.2566,1.6952-.2566M282.4211,51.6251c-2.5554,0-5.0963.3813-7.5521,1.1335-2.7164.8318-5.3307,2.1653-7.7699,3.9631l-87.0991,64.1619L92.8967,56.7186c-2.4362-1.7952-5.0503-3.1287-7.7666-3.9604-2.4552-.7517-4.996-1.1331-7.5511-1.1331-8.1656,0-15.9655,3.9543-20.8646,10.5781-4.8605,6.5715-6.3395,15.1411-3.9564,22.9238.8312,2.7139,2.1624,5.325,3.9569,7.7625l64.1683,87.1106-64.1652,87.1062c-1.7968,2.4398-3.1285,5.0518-3.9596,7.7649-2.3837,7.7845-.9047,16.3542,3.9558,22.9258,4.899,6.6235,12.699,10.578,20.8646,10.578,2.5564,0,5.0981-.3816,7.5546-1.1343,2.7117-.8303,5.3248-2.1628,7.7635-3.9594l87.103-64.1649,87.1035,64.165c2.4373,1.7958,5.0505,3.1284,7.7657,3.9601,2.4542.7518,4.9958,1.1334,7.552,1.1334,8.1655,0,15.9653-3.9545,20.8644-10.5781,4.8606-6.5717,6.3396-15.1412,3.9565-22.924-.8311-2.7142-2.1633-5.3273-3.9596-7.766l-64.1655-87.1068,64.165-87.1062c1.7976-2.4412,3.1294-5.0535,3.9602-7.7671,2.3831-7.7827.9039-16.3523-3.9564-22.9238-4.8992-6.6235-12.699-10.5779-20.8647-10.5779h0Z" fill="#c4b0d3"/>
    </g>
  </g>
</svg>