<?xml version="1.0" encoding="UTF-8"?>
<svg xmlns="http://www.w3.org/2000/svg" width="360" height="360" version="1.1" viewBox="0 0 360 360">
  <!-- Generator: Adobe Illustrator 29.7.1, SVG Export Plug-In . SVG Version: 2.1.1 Build 8)  -->
  <g id="Background">
    <rect width="360" height="360" fill="none"/>
  </g>
  <g id="Graphic_Elements">
    <g>
      <path d="M167.3971,296.7282c-4.0352,0-7.6753-2.4253-9.229-6.1494l-6.5713-15.7505-11.4976-4.1851-15.1587,7.8418c-1.4502.7505-3.0264,1.1182-4.5928,1.1182-2.3047.0005-4.5898-.7954-6.4297-2.3398l-19.3086-16.2021c-3.0913-2.5938-4.3208-6.791-3.1172-10.6426l5.0903-16.29-6.1172-10.5957-16.6528-3.7368c-3.9375-.8833-6.958-4.0469-7.6587-8.021l-4.377-24.8228c-.7007-3.9736,1.0557-7.9795,4.4536-10.1562l14.3706-9.207,2.1245-12.0488-10.3555-13.5669c-2.4482-3.2075-2.7285-7.5728-.7109-11.0674l12.603-21.8291c1.8013-3.1196,5.1191-5.0005,8.6572-5.0005.4253,0,.8535.0273,1.2827.0825l16.9268,2.1846,9.3726-7.8643.7881-17.0488c.1865-4.0308,2.7769-7.5547,6.5688-8.9351l23.6855-8.6211c1.1167-.4062,2.2729-.6035,3.4185-.6035,2.7451,0,5.4287,1.1313,7.3574,3.2256l11.5625,12.5537h12.2354l11.562-12.5532c1.9287-2.0942,4.6128-3.2261,7.3574-3.2261,1.1455,0,2.3018.1973,3.4185.6035l23.6855,8.6211c3.7915,1.3804,6.3823,4.9043,6.5688,8.9351l.7881,17.0483,9.373,7.8647,16.9263-2.1846c.4292-.0552.8574-.0825,1.2827-.0825,3.5386,0,6.856,1.8804,8.6572,5.0005l12.603,21.8291c2.0176,3.4946,1.7373,7.8594-.7109,11.0674l-10.355,13.5664,2.1245,12.0493,14.3706,9.207c3.3979,2.1768,5.1543,6.1826,4.4536,10.1562l-4.377,24.8228c-.7007,3.9741-3.7212,7.1377-7.6587,8.021l-16.6528,3.7368-6.1177,10.5957,5.0903,16.29c1.2036,3.8516-.0259,8.0488-3.1172,10.6426l-19.3086,16.2021c-1.8398,1.5444-4.125,2.3398-6.4297,2.3398-1.5664,0-3.1421-.3677-4.5928-1.1182l-15.1587-7.8418-11.4971,4.1851-6.5718,15.7505c-1.5542,3.7241-5.1938,6.1494-9.229,6.1494h-25.2056Z" fill="#e6c597"/>
      <path d="M205.0353,73.2714l23.6858,8.6208.9905,21.4287,16.0906,13.5015,21.2751-2.7454,12.603,21.8289-13.0154,17.052,3.6475,20.6858,18.0625,11.5723-4.377,24.8228-20.9312,4.6965-10.5024,18.1907,6.3982,20.4753-19.3086,16.2019-19.0532-9.8564-19.738,7.1841-8.2598,19.7976h-25.2058l-8.26-19.7976-19.738-7.1841-19.053,9.8564-19.3088-16.2019,6.3982-20.4753-10.5024-18.1907-20.9312-4.6965-4.377-24.8228,18.0625-11.5723,3.6475-20.6858-13.0151-17.052,12.6028-21.8289,21.2751,2.7454,16.0906-13.5015.9907-21.4287,23.6855-8.6208,14.533,15.7786h21.0049l14.533-15.7786M154.9609,53.2706c-2.2915-.0002-4.6033.394-6.8367,1.2068l-23.6855,8.6208c-7.584,2.7605-12.7656,9.8083-13.1384,17.8701l-.5857,12.6687-2.6545,2.2275-12.5779-1.623c-.8584-.1108-1.7148-.165-2.5652-.165-7.0771-.0002-13.7124,3.7607-17.3149,10.0005l-12.6028,21.8289c-4.0352,6.9893-3.4744,15.719,1.4224,22.1345l7.6943,10.0808-.6018,3.4131-10.6785,6.8413c-6.7954,4.354-10.3083,12.3652-8.9067,20.3132l4.3767,24.823c1.4016,7.948,7.4426,14.2747,15.3174,16.0417l12.3745,2.7764,1.7327,3.0012-3.7825,12.105c-2.4072,7.7031.0515,16.0984,6.2339,21.2861l19.3088,16.2019c3.6799,3.0876,8.251,4.6792,12.8594,4.6792,3.1338,0,6.2842-.7354,9.1858-2.2363l11.2639-5.8271,3.2566,1.1853,4.8831,11.7043c3.1077,7.4482,10.3875,12.2988,18.458,12.2988h25.2058c8.0706,0,15.3503-4.8508,18.458-12.2991l4.8831-11.7041,3.2563-1.1853,11.2642,5.8271c2.9006,1.5005,6.0527,2.2363,9.1858,2.2363,4.6094,0,9.179-1.5908,12.8596-4.6794l19.3083-16.2019c6.1824-5.1877,8.6411-13.5828,6.2339-21.2859l-3.7825-12.105,1.7327-3.0012,12.3745-2.7764c7.8748-1.7671,13.9158-8.0938,15.3174-16.0417l4.3767-24.823c1.4016-7.948-2.1113-15.9592-8.9067-20.3132l-10.6785-6.8413-.6018-3.4128,7.6946-10.0811c4.8967-6.4153,5.4575-15.1453,1.4221-22.1345l-12.6028-21.8289c-3.6025-6.2393-10.2385-10.0002-17.3152-10.0005-.8506-.0002-1.7061.0542-2.5649.165l-12.5779,1.623-2.6545-2.2275-.5854-12.6685c-.3728-8.062-5.5544-15.1099-13.1384-17.8704l-23.6858-8.6208c-2.2329-.8127-4.5457-1.2068-6.8367-1.2068-5.49,0-10.8569,2.2627-14.7146,6.4512l-8.5918,9.3281h-3.4653l-8.5918-9.3281c-3.8574-4.188-9.2251-6.4509-14.7146-6.4512h0Z" fill="#c4b0d3"/>
    </g>
  </g>
</svg>