<?xml version="1.0" encoding="UTF-8"?>
<svg xmlns="http://www.w3.org/2000/svg" width="360" height="360" version="1.1" viewBox="0 0 360 360">
  <!-- Generator: Adobe Illustrator 29.7.1, SVG Export Plug-In . SVG Version: 2.1.1 Build 8)  -->
  <g id="Background">
    <rect width="360" height="360" fill="none"/>
  </g>
  <g id="Graphic_Elements">
    <g>
      <path d="M180.0011,297.8307c-6.0977,0-11.855-2.9561-16.2114-8.3237-2.2012-2.7124-3.9937-5.917-5.3711-9.5615-6.4243,6.4961-13.2393,9.231-19.0337,9.231-7.3325,0-13.8008-4.0703-17.3022-10.8887-2.3032-4.4854-3.25-9.832-2.9033-15.7852-4.1016,1.6328-8.1235,2.4785-11.9834,2.4785-9.8062,0-17.3979-5.4946-19.8125-14.3398-1.5049-5.5112-.8818-12.4717,2.9785-20.1123-16.0586-.6577-23.8057-10.1772-24.3516-19.6143-.415-7.1689,3.0908-14.8252,11.0547-21.3203-.5493-.2725-1.0874-.5547-1.6113-.8457-8.7876-4.8799-13.8276-12.2852-13.8276-20.3174,0-8.9629,6.2715-17.9878,19.9443-21.6655-5.9624-7.3013-7.8047-14.666-6.8857-20.6704,1.5825-10.3384,10.4888-17.0186,22.6899-17.0186,1.8311,0,3.7139.1494,5.6431.4443-1.77-6.4414-1.7144-12.4927.313-17.8398,2.9673-7.8252,10.0732-12.686,18.5454-12.686,5.3472,0,10.7578,1.8018,16.0181,5.2031.7368-4.7017,2.2334-8.8667,4.4976-12.3706,3.9663-6.1377,10.0952-9.6582,16.8145-9.6582,7.9111,0,15.3628,4.7607,20.8403,13.1924,5.8184-8.9321,13.4219-13.1924,20.7485-13.1924,6.7183,0,12.8462,3.52,16.8125,9.6577,2.2646,3.5044,3.7612,7.6699,4.4985,12.3716,5.2603-3.4014,10.6719-5.2036,16.019-5.2036,8.4707,0,15.5762,4.8608,18.543,12.6855,2.0278,5.3477,2.0835,11.3989.314,17.8403,1.9292-.2949,3.814-.4443,5.645-.4443,12.1992,0,21.104,6.6802,22.6865,17.0181.9204,6.0156-.9312,13.3984-6.9189,20.7124,7.998,2.1816,14.0679,6.3242,17.3833,12.0669,3.5332,6.1201,3.479,13.2329-.1484,19.5151-2.6636,4.6133-6.9951,8.3901-12.6875,11.2075,7.9648,6.4951,11.4678,14.1489,11.0532,21.3174-.5459,9.437-8.2944,18.9561-24.3535,19.6147,3.8604,7.6401,4.4834,14.6011,2.979,20.1118-2.4146,8.8457-10.0073,14.3403-19.8154,14.3403-3.8589,0-7.8809-.8457-11.9819-2.478.3472,5.9531-.5991,11.2993-2.9023,15.7842-3.5015,6.8184-9.9707,10.8892-17.3047,10.8892-5.7939,0-12.6089-2.7349-19.0332-9.231-1.3774,3.6445-3.1699,6.8491-5.3711,9.5615-4.3564,5.3677-10.1138,8.3237-16.2109,8.3237Z" fill="#e6c597"/>
      <path d="M200.7953,72.1693c10.5935.002,18.4597,18.408,3.771,51.0049,11.0249-24.4663,24.5212-34.1802,33.5591-34.1792,13.6172.002,17.1101,22.0591-13.2407,48.9409,15.459-13.6921,28.6833-18.8601,37.7422-18.8591,20.5303.0024,19.6526,26.5559-25.1848,40.6091,10.4836-3.2859,19.4062-4.6418,26.7217-4.6409,34.6343.0042,33.1013,30.4158-11.0205,30.4158-4.0039,0-8.3657-.251-13.0759-.7979,50.6809,5.8835,54.0781,35.9021,27.7827,35.9021-8.7651,0-20.8328-3.3379-35.5437-12.0168,37.6394,22.2061,36.594,46.4329,20.499,46.4329-9.0671,0-22.9121-7.6926-37.304-27.7688,22.4922,31.3757,16.8557,51.9641,5.115,51.9641-9.1069,0-21.8872-12.3923-28.0581-41.7493,7.0632,33.6023-2.7471,50.4036-12.5574,50.4036s-19.6208-16.8013-12.5574-50.4036c-6.1719,29.3611-18.9512,41.7493-28.0583,41.7493-11.7383,0-17.3748-20.5918,5.115-51.9641-14.3943,20.0793-28.2368,27.7688-37.304,27.7688-16.0906,0-17.1367-24.229,20.499-46.4329-14.7146,8.6812-26.7781,12.0168-35.5437,12.0168-26.2886,0-22.894-30.019,27.783-35.9021-4.7144.5474-9.0691.7979-13.0762.7979-44.1152,0-45.6604-30.4165-11.0203-30.4158,7.314.0002,16.2419,1.3562,26.7217,4.6409-44.8416-14.0544-45.7209-40.6113-25.1851-40.6091,9.0586.001,22.2864,5.1699,37.7422,18.8591-30.354-26.8845-26.8613-48.9436-13.2407-48.9409,9.0376.002,22.5356,9.7166,33.5588,34.1792-14.6904-32.6006-6.8242-51.0073,3.771-51.0049,9.3374.0022,20.7947,14.3015,20.7947,45.7832,0-31.4858,11.4568-45.7847,20.7947-45.7832M159.2038,52.1693c-10.1772-.0005-19.3645,5.1846-25.2087,14.2263-.8281,1.281-1.5803,2.6296-2.2561,4.0413-3.2788-.9551-6.5774-1.4412-9.8586-1.4419h-.0068c-12.7283-.0007-23.4146,7.3315-27.8921,19.1365-1.1194,2.9512-2.0542,6.7434-2.1816,11.3201-14.3591,1.9717-24.9243,11.5737-26.9995,25.1284-.9004,5.8806-.0842,11.8523,2.3298,17.6257-4.9094,3.0232-8.8423,6.948-11.5662,11.6655-5.2886,9.1599-5.2336,20.1931.1475,29.5132,1.665,2.884,3.7749,5.5146,6.2893,7.875-4.2786,6.248-6.3813,13.1855-5.9736,20.2324.6167,10.6599,7.5161,21.9392,21.2158,26.7166-.96,5.1965-.811,10.2864.4939,15.0662,3.5999,13.1863,15.1633,21.7065,29.4595,21.7065,1.0085,0,2.0208-.041,3.0361-.1226.6807,2.812,1.6638,5.4836,2.9548,7.9976,5.248,10.2192,15.0417,16.3203,26.198,16.3203,5.073,0,10.5254-1.321,15.9221-4.2798.2358.3088.4746.6123.7183.9124,6.292,7.7522,14.8066,12.0217,23.9753,12.0217s17.6831-4.2695,23.9753-12.0217c.2437-.3.4824-.6035.718-.9124,5.3967,2.9587,10.8491,4.2798,15.9221,4.2798,11.1577,0,20.9521-6.1013,26.2002-16.3208,1.2908-2.5137,2.2739-5.1851,2.9546-7.9968,1.0142.0813,2.0269.1223,3.0342.1223,14.2979,0,25.8625-8.5205,29.4626-21.707,1.3047-4.7793,1.4534-9.8701.4934-15.0662,13.7014-4.7773,20.6006-16.0564,21.2173-26.7163.4075-7.0425-1.6936-13.9773-5.9673-20.2222,6.6785-6.2778,10.363-14.2412,10.3635-22.8333.0007-9.6394-4.9709-19.7205-15.4978-26.2502,2.4067-5.7659,3.2197-11.7285,2.3213-17.6008-2.0737-13.5559-12.6394-23.1604-26.999-25.1333-.1277-4.5745-1.0615-8.3638-2.1802-11.314-4.4756-11.8062-15.1631-19.1411-27.8914-19.1428-3.2844-.0002-6.5862.4856-9.8682,1.4414-.6746-1.4087-1.4253-2.7549-2.2515-4.0334-5.8433-9.0439-15.0317-14.2319-25.2092-14.2336h-.0054c-7.5569-.0002-14.6965,2.8101-20.7947,8.0012-6.0964-5.1895-13.2344-7.9995-20.7883-8.0012h-.0068Z" fill="#c4b0d3"/>
    </g>
  </g>
</svg>