<?xml version="1.0" encoding="UTF-8"?>
<svg xmlns="http://www.w3.org/2000/svg" width="360" height="360" version="1.1" viewBox="0 0 360 360">
  <!-- Generator: Adobe Illustrator 29.7.1, SVG Export Plug-In . SVG Version: 2.1.1 Build 8)  -->
  <g id="Background">
    <rect width="360" height="360" fill="none"/>
  </g>
  <g id="Graphic_Elements">
    <g>
      <path d="M116.9816,279.6827c-19.9883,0-37.8882-10.3345-47.8818-27.6445-9.9941-17.3101-9.9941-37.9785,0-55.2886l64.3354-111.4321c1.7861-3.0938,5.0874-5,8.6602-5h100.9233c19.9878,0,37.8877,10.3345,47.8813,27.644,9.9941,17.3101,9.9941,37.979,0,55.2891l-64.3354,111.4321c-1.7861,3.0938-5.0874,5-8.6602,5h-100.9229Z" fill="#e6c597"/>
      <path d="M243.0187,90.3172c34.8633,0,56.6528,37.7407,39.2212,67.9333l-64.3354,111.4323h-100.9231c-34.8633,0-56.6528-37.7407-39.2212-67.9332l64.3354-111.4324h100.9231M243.0187,70.3172h-100.9231c-7.1453,0-13.7478,3.812-17.3206,10l-64.3354,111.4324c-11.8015,20.4409-11.8015,44.8479,0,65.2888s32.9387,32.6444,56.5417,32.6444h100.9231c7.1453,0,13.7478-3.812,17.3206-10l64.3354-111.4323c11.8015-20.4409,11.8015-44.8481,0-65.2891-11.8018-20.4407-32.9387-32.6443-56.5417-32.6443h0Z" fill="#c4b0d3"/>
    </g>
  </g>
</svg>