<?xml version="1.0" encoding="UTF-8"?>
<svg xmlns="http://www.w3.org/2000/svg" width="360" height="360" version="1.1" viewBox="0 0 360 360">
  <!-- Generator: Adobe Illustrator 29.7.1, SVG Export Plug-In . SVG Version: 2.1.1 Build 8)  -->
  <g id="Background">
    <rect width="360" height="360" fill="none"/>
  </g>
  <g id="Graphic_Elements">
    <g>
      <path d="M180.0002,283.8002c-1.5552,0-3.1104-.3623-4.5352-1.0874-99.0503-50.4038-113.8398-105.1187-113.8398-133.2476,0-18.9087,6.1812-36.6855,17.4048-50.0562,11.9697-14.2588,28.584-22.1113,46.7822-22.1113,20.2563,0,37.7964,9.584,50.7236,27.7153,1.2563,1.7622,2.4087,3.5239,3.4644,5.2559,1.0552-1.7314,2.2085-3.4941,3.4639-5.2554,12.9272-18.1318,30.4668-27.7158,50.7231-27.7158,18.1987,0,34.813,7.8525,46.7827,22.1113,11.2241,13.3706,17.4053,31.1475,17.4053,50.0562,0,28.1289-14.7896,82.8438-113.8398,133.2476-1.4248.7251-2.98,1.0874-4.5352,1.0874Z" fill="#e6c597"/>
      <path d="M234.1873,87.2979c32.079,0,54.1877,28.7202,54.1877,62.1675,0,38.7147-30.1368,84.5221-108.375,124.335-78.2382-39.8129-108.375-85.6202-108.375-124.335,0-33.4473,22.1084-62.1675,54.1873-62.1675,41.2986,0,54.1877,47.0413,54.1877,47.0413,0,0,12.8889-47.0413,54.1873-47.0413M234.1873,67.2979c-21.2386,0-39.8341,8.9169-54.1874,25.8835-14.3534-16.9666-32.949-25.8835-54.1876-25.8835-21.2047,0-40.5391,9.1207-54.4415,25.6821-12.7332,15.1686-19.7457,35.2288-19.7457,56.4854,0,25.0853,10.1449,50.8064,29.338,74.3824,20.2861,24.9187,50.5553,47.7223,89.9666,67.7773,2.8496,1.4502,5.96,2.1752,9.0704,2.1752s6.2208-.725,9.0704-2.1752c39.4113-20.0551,69.6804-42.8586,89.9666-67.7773,19.1931-23.576,29.338-49.2971,29.338-74.3824,0-21.2566-7.0126-41.3168-19.7461-56.4855-13.9025-16.5613-33.2369-25.682-54.4417-25.682h0Z" fill="#c4b0d3"/>
    </g>
  </g>
</svg>