<?xml version="1.0" encoding="UTF-8"?>
<svg xmlns="http://www.w3.org/2000/svg" width="360" height="360" version="1.1" viewBox="0 0 360 360">
  <!-- Generator: Adobe Illustrator 29.7.1, SVG Export Plug-In . SVG Version: 2.1.1 Build 8)  -->
  <g id="Background">
    <rect width="360" height="360" fill="none"/>
  </g>
  <g id="Graphic_Elements">
    <g>
      <path d="M101.8844,298.3749c-5.5229,0-10-4.4771-10-10v-60.5186c0-91.6602,74.5708-166.2314,166.231-166.2314,5.5229,0,10,4.4771,10,10l.0005,60.519c0,91.6602-74.5713,166.231-166.2314,166.231Z" fill="#e6c597"/>
      <path d="M258.1156,71.625v60.5187c0,86.2842-69.947,156.2313-156.2312,156.2313h-.0002v-60.5187c0-86.2842,69.9473-156.2313,156.2314-156.2313M258.1156,51.625c-23.7822,0-46.8638,4.6624-68.6033,13.8573-20.988,8.8772-39.8328,21.5813-56.0112,37.7596-16.1782,16.1783-28.8826,35.0232-37.7595,56.0111-9.1951,21.7395-13.8574,44.821-13.8574,68.6033v60.5187c0,11.0457,8.9543,20,20,20,23.7822,0,46.8638-4.6624,68.6035-13.8573,20.9878-8.8772,39.8328-21.5813,56.011-37.7596s28.8826-35.0232,37.7595-56.0111c9.1951-21.7395,13.8574-44.821,13.8574-68.6033v-60.5187c0-11.0457-8.9543-20-20-20h0Z" fill="#c4b0d3"/>
    </g>
  </g>
</svg>