<svg width="100" height="100" viewBox="0 0 100 100" fill="none" xmlns="http://www.w3.org/2000/svg">
<g id="Frame" clip-path="url(#clip0_1_2)">
<g id="Group">
<g id="a">
<path id="b" d="M2.2 59.86C-3.29 33.02 14.1 7.49 40.14 2.2C59.16 -1.66 79.09 5.96 90.48 22.74C107.67 48.16 97.29 83.04 68.92 94.94C40.45 107.04 8.11 89.65 2.11 59.75L2.21 59.85L2.2 59.86Z" fill="#808080"/>
<path id="c" d="M50 0C22.4 0 0 22.4 0 50C0 77.6 22.4 100 50 100C77.6 100 100 77.6 100 50C100 22.4 77.6 0 50 0ZM76.8 89.8C69.9 94.5 62.3 97 54.7 97.8C54.6 97.81 54.5 97.81 54.39 97.82C53.53 96.42 52.5 95.47 51.12 94.55C50.88 93.97 50.38 93.25 50.2 92.44C49.9 90.74 51.6 90.34 52.7 87.54C52.7 87.24 53 86.64 53.1 86.44L53.5 85.94C53.5 85.74 53.7 85.74 53.8 85.74C54 85.74 54.3 85.24 54.6 84.74C54.9 84.24 55.1 83.64 55.1 83.14C55.3 81.44 55.1 80.74 55.3 79.24C55.7 76.54 57.9 73.94 60.3 72.74H60.9C61.7 73.04 62.6 73.34 63.4 73.64C64.5 74.04 65.6 74.34 66.8 74.34C69.5 74.34 72.5 71.94 72.9 68.44V66.94C72.9 66.04 72.3 65.34 73.1 64.54C73.9 63.74 73.9 64.54 74.3 64.14C74.7 63.74 74.6 63.14 74.6 62.54V62.14C74.6 61.94 74.4 61.64 74.2 61.44C77.4 59.94 74.7 57.84 74.7 57.34C74.7 57.34 75 56.84 75 56.34C76.5 56.34 78.3 55.54 79.1 54.34C79.3 54.04 79.5 53.74 79.5 53.44C79.8 51.84 79.1 51.14 76.8 48.94C76.8 48.94 74.4 46.74 73.2 44.64C72.7 43.74 72.5 43.04 72.5 42.04V41.04C72.8 40.14 73.5 39.54 73.5 38.64C73.5 37.74 72.3 32.84 72.3 32.04C72.1 31.14 71.9 30.34 71.8 29.94C71.6 29.34 71.2 28.54 70.7 27.84C71.5 28.04 72.7 28.34 73.3 28.84C74.1 29.44 74.6 30.24 74.9 31.14C75.3 32.24 75.4 33.44 75.4 34.34C75.4 35.24 75.4 34.54 75.6 34.54C75.8 34.54 75.9 34.54 75.9 34.34C75.9 34.34 76.3 32.94 76.1 30.94C76.1 28.84 75.3 27.24 74.5 26.14C76.3 25.84 77.9 24.84 79 23.54C80.1 22.14 80.5 19.54 80.3 18.74C80 17.84 79.3 16.84 78.4 16.44C77.9 13.14 75.2 9.84 71.1 8.74C63 6.74 59.1 12.04 53.1 10.54C47.1 9.04 30.8 9.14 24.9 17.54C24 18.84 23.3 20.54 23.9 21.94C22.7 22.74 21.7 23.84 21 25.04C15.9 33.24 17.6 43.94 21.9 52.54C23.4 55.44 24.8 56.84 24.4 60.44C24.2 62.64 23.2 65.04 26 66.04C26.6 66.24 27.5 66.54 27.7 66.54H28.9C28.9 69.14 29.7 72.94 27.3 77.14C25.9 79.44 23.7 81.64 23.1 83.24H22.8C21.1 83.52 19.22 84.43 17.58 85.46C17.52 85.4 17.46 85.35 17.4 85.3C12.5 80.8 8.5 75.2 5.7 68.7C-6.1 40.6 10.9 9 40.3 3C43.5 2.4 46.7 2 50 2C63.1 2 75.2 7.3 83.9 16.1C105.3 37.5 101.8 72.9 76.8 89.8Z" fill="#53272D"/>
<path id="d" d="M45.7 58.6C58.4578 58.6 68.8 48.2578 68.8 35.5C68.8 22.7422 58.4578 12.4 45.7 12.4C32.9422 12.4 22.6 22.7422 22.6 35.5C22.6 48.2578 32.9422 58.6 45.7 58.6Z" fill="#AF8080"/>
<path id="q" style="mix-blend-mode:multiply" d="M45.7 58.6C58.4578 58.6 68.8 48.2578 68.8 35.5C68.8 22.7422 58.4578 12.4 45.7 12.4C32.9422 12.4 22.6 22.7422 22.6 35.5C22.6 48.2578 32.9422 58.6 45.7 58.6Z" fill="url(#paint0_radial_1_2)"/>
</g>
</g>
</g>
<defs>
<radialGradient id="paint0_radial_1_2" cx="0" cy="0" r="1" gradientUnits="userSpaceOnUse" gradientTransform="translate(45.7 35.5) scale(23.1 23.1)">
<stop offset="0.7" stop-color="#CCCCCC" stop-opacity="0"/>
<stop offset="1" stop-color="#53272D"/>
</radialGradient>
<clipPath id="clip0_1_2">
<rect width="100" height="100" fill="white"/>
</clipPath>
</defs>
</svg>
