<?xml version="1.0" encoding="UTF-8"?>
<svg xmlns="http://www.w3.org/2000/svg" version="1.1" xmlns:xlink="http://www.w3.org/1999/xlink" viewBox="0 0 100 100">
  <defs>
    <style>
      .cls-1 {
        fill: #6b1515;
      }

      .cls-2 {
        fill: none;
      }

      .cls-3 {
        clip-path: url(#clippath-1);
      }

      .cls-4, .cls-5 {
        isolation: isolate;
      }

      .cls-5 {
        fill: url(#radial-gradient);
        mix-blend-mode: multiply;
      }

      .cls-6 {
        clip-path: url(#clippath-3);
      }

      .cls-7 {
        fill: #46086d;
      }

      .cls-8 {
        fill: #1d0229;
      }

      .cls-9 {
        fill: #97e1ff;
      }

      .cls-10 {
        fill: #d8b2f9;
      }

      .cls-11 {
        clip-path: url(#clippath-2);
      }

      .cls-12 {
        fill: gray;
      }

      .cls-13 {
        fill: #8be78f;
      }

      .cls-14 {
        clip-path: url(#clippath);
      }
    </style>
    <clipPath id="clippath">
      <path class="cls-2" d="M45.7,58.6c12.8,0,23.1-10.3,23.1-23.1s-10.3-23.1-23.1-23.1-23.1,10.3-23.1,23.1,10.3,23.1,23.1,23.1Z"/>
    </clipPath>
    <clipPath id="clippath-1">
      <path class="cls-2" d="M45.7,58.6c12.8,0,23.1-10.3,23.1-23.1s-10.3-23.1-23.1-23.1-23.1,10.3-23.1,23.1,10.3,23.1,23.1,23.1Z"/>
    </clipPath>
    <clipPath id="clippath-2">
      <path class="cls-2" d="M45.7,58.6c12.8,0,23.1-10.3,23.1-23.1s-10.3-23.1-23.1-23.1-23.1,10.3-23.1,23.1,10.3,23.1,23.1,23.1Z"/>
    </clipPath>
    <clipPath id="clippath-3">
      <path class="cls-2" d="M45.7,58.6c12.8,0,23.1-10.3,23.1-23.1s-10.3-23.1-23.1-23.1-23.1,10.3-23.1,23.1,10.3,23.1,23.1,23.1Z"/>
    </clipPath>
    <radialGradient id="radial-gradient" cx="-46" cy="2" fx="-46" fy="2" r="1" gradientTransform="translate(1106.5 -12.5) scale(23.1)" gradientUnits="userSpaceOnUse">
      <stop offset=".7" stop-color="#ccc" stop-opacity="0"/>
      <stop offset="1" stop-color="#1d0229"/>
    </radialGradient>
  </defs>
  <!-- Generator: Adobe Illustrator 28.7.1, SVG Export Plug-In . SVG Version: 1.2.0 Build 142)  -->
  <g class="cls-4">
    <g id="Layer_1">
      <path id="b" class="cls-12" d="M2.2,59.9C-3.3,33,14.1,7.5,40.1,2.2c19-3.9,38.9,3.8,50.3,20.5,17.2,25.4,6.8,60.3-21.6,72.2C40.3,107,8,89.6,2,59.7h0c0,0,.1.2.1.2Z"/>
      <path id="c" class="cls-8" d="M50,0C22.4,0,0,22.4,0,50s22.4,50,50,50,50-22.4,50-50S77.6,0,50,0ZM76.8,89.8c-6.9,4.7-14.5,7.2-22.1,8h-.3c-.9-1.4-1.9-2.3-3.3-3.3-.2-.6-.7-1.3-.9-2.1-.3-1.7,1.4-2.1,2.5-4.9,0-.3.3-.9.4-1.1l.4-.5c0-.2.2-.2.3-.2.2,0,.5-.5.8-1s.5-1.1.5-1.6c.2-1.7,0-2.4.2-3.9.4-2.7,2.6-5.3,5-6.5h.6c.8.3,1.7.6,2.5.9,1.1.4,2.2.7,3.4.7,2.7,0,5.7-2.4,6.1-5.9v-1.5c0-.9-.6-1.6.2-2.4.8-.8.8,0,1.2-.4.4-.4.3-1,.3-1.6v-.4c0-.2-.2-.5-.4-.7,3.2-1.5.5-3.6.5-4.1,0,0,.3-.5.3-1,1.5,0,3.3-.8,4.1-2,.2-.3.4-.6.4-.9.3-1.6-.4-2.3-2.7-4.5,0,0-2.4-2.2-3.6-4.3-.5-.9-.7-1.6-.7-2.6v-1c.3-.9,1-1.5,1-2.4s-1.2-5.8-1.2-6.6c-.2-.9-.4-1.7-.5-2.1-.2-.6-.6-1.4-1.1-2.1.8.2,2,.5,2.6,1,.8.6,1.3,1.4,1.6,2.3.4,1.1.5,2.3.5,3.2s0,.2.2.2.3,0,.3-.2c0,0,.4-1.4.2-3.4,0-2.1-.8-3.7-1.6-4.8,1.8-.3,3.4-1.3,4.5-2.6,1.1-1.4,1.5-4,1.3-4.8-.3-.9-1-1.9-1.9-2.3-.5-3.3-3.2-6.6-7.3-7.7-8.1-2-12,3.3-18,1.8s-22.3-1.4-28.2,7c-.9,1.3-1.6,3-1,4.4-1.2.8-2.2,1.9-2.9,3.1-5.1,8.2-3.4,18.9.9,27.5,1.5,2.9,2.9,4.3,2.5,7.9-.2,2.2-1.2,4.6,1.6,5.6.6.2,1.5.5,1.7.5h1.2c0,2.6.8,6.4-1.6,10.6-1.4,2.3-3.6,4.5-4.2,6.1h-.3c-1.7.3-3.6,1.2-5.2,2.2l-.2-.2c-4.9-4.5-8.9-10.1-11.7-16.6C-6.1,40.6,10.9,9,40.3,3c3.2-.6,6.4-1,9.7-1,13.1,0,25.2,5.3,33.9,14.1,21.4,21.4,17.9,56.8-7.1,73.7Z"/>
      <path id="d" class="cls-7" d="M45.7,58.6c12.8,0,23.1-10.3,23.1-23.1s-10.3-23.1-23.1-23.1-23.1,10.3-23.1,23.1,10.3,23.1,23.1,23.1Z"/>
    </g>
    <g id="Layer_3">
      <g class="cls-14">
        <rect id="ground" class="cls-13" x="23.4" y="46.7" width="7.4" height="14.9"/>
      </g>
    </g>
    <g id="Layer_4">
      <g class="cls-3">
        <rect id="good-guy" class="cls-10" x="42.6" y="40.4" width="6.3" height="6.3"/>
      </g>
    </g>
    <g id="Layer_5">
      <g class="cls-11">
        <rect id="bad-guy" class="cls-1" x="70" y="40.4" width="6.3" height="6.3"/>
      </g>
    </g>
    <g id="Layer_6">
      <g class="cls-6">
        <path id="cloud" class="cls-9" d="M60.5,17.5c1.3,0,2.4.7,2.9,1.8.5-.2.9-.3,1.4-.3,2.2,0,3.9,1.8,3.9,3.9s-1.8,3.9-3.9,3.9h-8.3c-2,0-3.6-1.6-3.6-3.6s1.6-3.6,3.6-3.6.5,0,.8,0c.3-1.4,1.6-2.5,3.1-2.5v.4Z"/>
      </g>
    </g>
    <g id="Layer_2">
      <path id="q-2" class="cls-5" d="M45.7,58.6c12.8,0,23.1-10.3,23.1-23.1s-10.3-23.1-23.1-23.1-23.1,10.3-23.1,23.1,10.3,23.1,23.1,23.1Z"/>
    </g>
  </g>
</svg>