<?xml version="1.0" encoding="UTF-8"?>
<svg xmlns="http://www.w3.org/2000/svg" version="1.1" viewBox="0 0 1080 1080">
  <defs>
    <style>
      .cls-1 {
        display: none;
      }

      .head-bg {
        fill: gray;
      }

      .head-fill {
        fill: #53272d;
      }
    </style>
  </defs>
  <!-- Generator: Adobe Illustrator 28.7.0, SVG Export Plug-In . SVG Version: 1.2.0 Build 136)  -->
  <g>
    <g id="Layer_6">
      <path class="head-bg" d="M540,0C241.8,0,0,241.8,0,540s280.7,573.4,602.4,536.4c268.8-30.9,477.6-259.3,477.6-536.4S838.2,0,540,0Z"/>
    </g>
    <g id="Layer_3" class="cls-1">
      <path class="head-fill" d="M2068.6-978.7c-1.3,21.8-5.7,42.9-12.4,62.9-6.6,20-15.4,38.9-25.8,56.7s-22.1,34.4-35.1,49.9c-26,31-56.7,57.4-90.3,78.9-16.8,10.7-34.5,20.1-52.7,28.2-18.3,8-37.1,14.7-56.4,19.6-8.4,2.2-16.9,4-25.5,5.6,5.1,6.7,9.9,13.5,14.4,20.6,10.7,16.5,19.8,33.9,27.7,51.7,15.8,35.6,26.3,73,32.9,110.7,3.3,18.9,5.6,37.8,7,56.8,1.4,19,2.1,38,1.8,57-.2,19-1.2,37.9-3.1,56.8-1.9,18.9-4.6,37.7-8.7,56.3v.3c-1.4,6.1-7.4,10-13.5,8.7-5.5-1.2-9.2-6.2-8.9-11.6v-2.3c.1,0,.2-2.4.2-2.4v-4.9c.1-3.3.1-6.6,0-10-.1-6.7-.4-13.3-.8-20-.9-13.4-2.2-26.7-4.2-40-2-13.3-4.6-26.4-7.9-39.5-3.2-13-7.2-25.9-11.8-38.4-9.3-25.1-21.7-49.2-37.7-70.7-4-5.4-8.2-10.6-12.6-15.6-4.4-5-9.1-9.8-14-14.4-4.9-4.6-9.9-8.9-15.2-13.1-5.2-4-10.7-7.7-16.4-11.1-11.5-6.7-23.8-12.2-36.4-17.1-12.6-4.9-25.5-9.1-38.5-12.8-12.3-3.5-24.7-6.5-37.1-9.2,10.2,14.3,19.5,29.4,27.8,45.1,6.9,13.1,13,26.7,18.2,40.6,2.6,7,5,14.1,7.2,21.2l1.6,5.4,1.4,5.1,2.7,10.2c7.1,27.1,13,54.5,18.1,81.8,10.2,54.7,16.8,109.7,24,163.9,3.6,27.1,7.3,54,12.1,80.3,2.4,13.2,5.1,26.1,8.3,38.7,3.2,12.5,7,24.7,12,35.2,2.5,5.2,5.3,10,8.2,13.6,1.4,1.8,2.9,3.4,4.3,4.5.7.6,1.3,1.1,2,1.5.3.2.6.4.9.5,0,0,1.6,1.1,2.5,1.6,4.1,2.8,8.1,6,11.6,9.5,3.5,3.5,6.7,7.3,9.5,11.2,2.8,3.9,5.2,8,7.3,12.2,2.1,4.2,3.9,8.4,5.3,12.6,5.9,17,7.5,34,6.8,50.4-.8,16.4-4,32.3-9.4,47.5-5.4,15.2-13,29.9-23.6,43-5.3,6.6-11.4,12.8-18.5,18.3-7,5.5-14.9,10.4-23.8,13.8-4.4,1.7-9.1,3.1-13.8,4-1,.2-2.8.5-3.2.6-.3,0-.6,0-.8,0-.5,0-.8,0-1-.2-.4-.1-.4-.7-.8-.7-.3,0-1,.6-1.6,2.1-.3.7-.5,1.6-.7,2.6-.2,1-.2,2.1-.3,3.3,0,2.4,0,5.1.5,7.8.8,5.5,2.4,11.4,4.4,17.3,2.1,5.9,4.6,11.7,7.4,17.6,2.8,5.8,5.8,11.7,8.9,17.4,6.3,11.5,13.4,22.8,20.7,33.9,14.8,22.2,31.1,43.7,48.3,64.4,17.2,20.8,35.2,40.8,53.9,60.3,9.3,9.7,18.8,19.3,28.4,28.8,4.8,4.7,9.6,9.4,14.5,14.1l14.8,14.2c19.7,19,39.5,38,58.9,57.9,9.7,10,19.4,20.2,28.9,31,9.5,10.9,18.8,22.3,27.5,35.5,4.3,6.6,8.4,13.7,11.9,21.6,3.6,7.8,6.5,16.3,8.4,25.1,1.9,8.8,2.8,17.9,2.7,26.5,0,8.6-.9,16.9-2.2,24.6-.1,1-.3,1.9-.5,2.9-.1.9-.3,2-.6,3.2-.4,2.4-1,4.6-1.6,6.9-1.3,4.5-2.8,8.8-4.5,13-3.5,8.3-7.8,15.8-12.5,22.8-9.6,13.8-20.8,25.2-32.7,35.1-23.9,19.7-50.5,33.7-78.1,44-27.6,10.1-56.4,16.5-85.6,18.5-2.6.2-5.1.3-7.7.4,0,4.7-.4,9.4-1.1,14-1.3,8.6-3.8,17-7.3,25-.9,2-1.8,4-2.8,5.9-.5,1-1,1.9-1.5,2.9-.4.8-.2.6-.3.9,0,.7,0,1.1.2,1.7.1.6.4,1.6.9,3,.5,1.4,1.2,3.2,2.2,5.2,2,4.1,5.1,8.9,8.4,14,6.9,10.2,15.3,21.3,23.3,34.5,4,6.6,7.9,13.8,11.2,22.1,3.3,8.3,6,17.9,6.5,28.9.2,5.4-.1,11.2-1.2,16.9-1.1,5.7-2.9,11.2-5.3,16.3-2.4,5.1-5.3,9.7-8.5,13.8-.8,1.1-1.6,2-2.3,2.9-.8.9-1.5,1.8-2.3,2.6l-2.3,2.5-2.3,2.4c-3.1,3.1-6.3,5.9-9.5,8.5-3.2,2.6-6.4,5.1-9.7,7.4-6.5,4.6-13.1,8.6-19.8,12.3-5.4,2.9-10.8,5.7-16.2,8.2,1.4,1.6,2.9,3.3,4.3,5.1,2.8,3.6,5.5,7.3,7.8,11.5,2.3,4.1,4.4,8.6,6.1,13.2.8,2.3,1.6,4.7,2.2,7.2.3,1.2.6,2.4.8,3.7.2,1.2.5,2.6.6,3.6l.6,5.5.5,5.5c.3,3.7.7,7.4.9,11.1.2,3.7.3,7.5.5,11.3,0,3.8.1,7.7,0,11.7-.3,8-.8,16.4-3.8,25.8-.4,1.2-.8,2.4-1.3,3.6-.4,1.2-1,2.4-1.6,3.6-1.2,2.4-2.6,4.8-4.3,7.1-1.7,2.3-3.7,4.5-5.9,6.4-2.2,1.9-4.5,3.6-6.8,5-4.7,2.8-9.4,4.4-13.7,5.6-4.3,1.2-8.2,1.9-11.8,2.5-7.2,1.2-13.5,2-18.4,3.5-2.5.7-4.6,1.5-6.3,2.4-1.8.9-3.1,1.9-4.3,3.1-.3.3-.6.5-1.1,1.2l-1.5,1.6c-1,1.1-1.9,2.2-2.8,3.3-1.8,2.2-3.5,4.5-5,6.8-3,4.6-5.5,9.4-7.2,14.4-1.8,5-2.8,10.3-3.4,15.7-.5,5.4-.5,11.1,0,16.9,1.1,11.5,4,23.5,8,35.5,1,3,2.1,6,3.2,8.9.5,1.5,1.1,3,1.7,4.5l1.9,4.8c2.7,6.9,5,13.9,7.2,20.9,4.3,14,7.8,28.2,10.4,42.7,5.3,28.9,7,58.8,3.8,89-.8,7.5-1.9,15-3.4,22.5-1.4,7.5-3.2,14.9-5.4,22.3-4.3,14.8-10.1,29.2-17.2,43-7.2,13.7-15.7,26.9-25.5,38.9-4.8,6.1-10,11.8-15.4,17.3-1.3,1.4-2.7,2.7-4.1,4.1-1.4,1.3-2.7,2.7-4.2,4-2.8,2.6-5.6,5.2-8.6,7.6-23.2,19.9-49.4,35.3-76.4,47.1-13.5,5.9-27.2,10.9-41.1,15.3-6.9,2.2-13.9,4.1-20.8,6l-10.5,2.6-2.7.6-2.8.6c-1.9.4-3.7.8-5.6,1.2-14.9,2.9-29.8,4.4-44.5,5-7.4.3-14.7.2-21.9.1-7.3-.2-14.5-.6-21.7-1.2-28.7-2.3-56.7-7.3-84.1-13.6-27.4-6.4-54.2-14.4-80.6-23.1-10.4-3.5-20.5-4.8-30.4-9.7-12.8-6.2-25.7-12.1-39.8-14.9-40.8-8.2-82,9.8-118.9,29.1-30.2,15.8-58,33.1-83.8,55.2-10.1,8.6-20.1,16.5-29.6,24.6-9.6,8.1-18.8,16.4-27.5,25.2-17.4,17.5-32.5,37.1-44.4,58.7-12,21.5-21,44.8-27.2,68.9-3.1,12.1-5.4,24.3-7.2,36.7-1.7,12.4-2.9,24.9-3.5,37.4-.6,12.5-.7,25.1-.5,37.6,0,3.1.1,6.3.2,9.4l.3,9.7c.2,6.6.2,13.1.2,19.7-.2,26.3-2.1,52.8-6.5,79.2-2.2,13.2-5.1,26.4-8.9,39.6-3.8,13.2-8.6,26.2-14.9,39.1-6.4,12.8-14.3,25.4-25.6,36.6-4.4,4.4-9.6,9.4-15.1,12.5-5.5,3.2-11.7,4.2-16.7,8.6-2.3,2-4.4,4.4-6.4,6.8-2.4,2.8-4.8,5.7-7.2,8.5-2.6,3.1-5.3,6.3-7.3,9.9-1.3,2.3-2.3,4.8-3.3,7.3-6.5,16.2-10.9,33.1-17.4,49.4-9.8,25-22.1,49.1-36.6,71.7-7.2,11.3-14.9,22.2-22.9,32.7-8,10.5-16.2,20.7-24.2,30.6-16,19.9-31.6,39.1-39,59.4-3.7,10.1-5.4,20.6-4.9,31.6.2,5.5.9,11,1.9,16.6,1.1,5.6,2.6,11.2,4.3,16.9,3.6,11.2,8.3,22.5,13.6,33.5,5.4,11.1,11.4,21.9,17.8,32.8,6,10.2,11.6,20.7,16.2,32.2,7.1,4.7,14.1,9.6,21.1,14.6,21.5,15.5,42.5,32.2,62.2,50.6,9.9,9.2,19.5,18.9,28.6,29.1,1.2,1.3,2.3,2.6,3.4,3.8l3.3,3.8c2.2,2.6,4.4,5.1,6.5,7.7l6.4,7.8c2.1,2.6,4.1,5.3,6.2,8,13.4,17.4,25.8,35.7,36.9,54.6-95.7,11-193,16.7-291.7,16.7-622,0-1191.4-224.9-1631.4-597.8,3.8-3,7.7-6,11.5-8.9,60.9-46.4,127.5-85.7,198.1-115.4,40.9-17.2,82-31.5,125.3-38.4l-4.5-1.8c4.7-1.2,9.5-2.3,14.2-3.4,1.4-4.1,3-8.1,4.7-12,4.2-9.7,8.9-18.9,14-27.6,2.6-4.3,5.2-8.6,7.9-12.8,1.3-2.1,2.6-4,3.9-6,1.3-2,2.6-4,4-5.9,2.7-4,5.3-7.9,8-11.8,2.7-3.9,5.4-7.7,8.2-11.6,10.9-15.4,22.2-30.3,33.6-44.9,22.7-29.3,45.6-57.4,66.8-86.1,21.3-28.7,41.2-57.8,58.8-88.3,17.7-30.4,33.2-62.3,45.9-95.6,12.7-33.2,22.5-67.8,29.5-103.1,6.9-35.3,11.2-71.3,13.2-107.5,1-18.1,1.5-36.3,1.4-54.4v-13.6c-.1,0-.4-13.6-.4-13.6-.3-9.1-.6-18.2-1.1-27.3-.4-9.1-1-18.2-1.7-27.3-.3-4.6-.7-9.1-1-13.6l-1.1-13.7c-1.6-18.8-2.7-37.6-3.5-56.5,0-1.3,0-2.6-.1-3.8-10.4,0-20.9-.8-31.2-2-9.6-1.1-19.1-2.8-28.4-4.9-2.4-.5-4.7-1.1-7-1.7-2.3-.6-4.7-1.2-7-1.8-4.7-1.2-9.2-2.5-13.7-3.8-18.3-5.1-36.7-10.5-55.5-17.3-4.7-1.7-9.3-3.7-14-5.8-4.7-2-9.4-4.3-14.1-6.8-9.3-5-18.6-11.1-27.3-18.6-8.8-7.4-16.6-16.8-22.9-27.1-3.2-5.2-6.1-10.6-8.3-16.1-2.3-5.6-4.3-11.2-5.7-16.9-3-11.3-4.4-22.5-5-33.2-.5-10.7-.1-21,.5-30.9,1.4-19.8,4.1-38.3,6.7-56.4l3.9-26.8c1.4-8.9,2.4-17.7,3.6-26.5.5-4.4,1.1-8.8,1.5-13.2.5-4.4.9-8.8,1.3-13.2.8-8.8,1.4-17.6,1.7-26.4.3-8.8.4-17.6.3-26.5,0-4.4-.2-8.8-.4-13.3-.2-4.4-.5-8.8-.9-13.3-2.9-35.4-11-70.6-23.8-104.2-3.2-8.4-6.7-16.7-10.3-24.9-3.6-8.2-7.5-16.4-11.5-24.5-4-8.1-8.2-16.1-12.5-24-2.1-4-4.4-7.9-6.6-11.9l-6.9-11.9c-18.8-32.4-36.6-65.3-53.3-98.7-33.5-66.9-63.3-135.6-89.3-205.8-26-70.2-48.4-141.9-66.3-215-8.9-36.5-16.8-73.3-23.4-110.5-3.3-18.6-6.3-37.2-9-55.9-2.7-18.7-5-37.4-7-56.2-8-75.2-10.3-151.3-5.8-227.3,2.3-38,6.2-76,12.1-113.8,5.9-37.8,13.6-75.3,23.4-112.4,9.7-37.1,21.5-73.7,35.2-109.6,13.7-35.9,29.5-71,47.3-105.1,8.9-17,18.3-33.8,28.2-50.3,2.5-4.1,5-8.2,7.5-12.3,2.5-4.1,5.1-8.1,7.7-12.2,1.3-2,2.6-4,4-6.1,1.4-2.1,2.7-4.2,4.1-6.2,1.4-2.1,2.8-4.1,4.2-6.2,1.4-2,2.9-4.1,4.3-6.1,23.2-32.4,50.4-62,80.3-87.9,13.2-11.5,27-22.3,41.3-32.3-.3-.8-.6-1.5-.9-2.3-2.2-5.7-4.2-11.5-5.6-17.4-.8-2.9-1.4-5.9-2-8.9-.3-1.5-.5-3-.8-4.5-.2-1.5-.5-3-.7-4.5-1.5-12-1.7-23.9-.6-35.4,1-11.5,3.1-22.7,5.8-33.4,2.8-10.7,6.2-21,10.2-30.8,7.9-19.7,17.5-38,28-55.3,5.3-8.6,10.7-17,16.4-25.2,5.7-8.1,11.5-16.2,17.5-24,3-4,6.1-7.7,9.1-11.6,3.1-3.8,6.1-7.6,9.3-11.4,3.2-3.8,6.4-7.5,9.6-11.2,3.2-3.7,6.5-7.4,9.9-11,13.3-14.5,27.3-28.5,41.7-41.8,28.9-26.6,59.8-50.8,92.1-72.6,64.6-43.7,134.1-78.2,205.6-106,71.5-27.7,145.1-48.6,219.3-64.3,74.3-15.7,149.3-26.1,224.5-32.5,75.2-6.3,150.5-8.5,225.8-6.8,37.6.8,75.2,2.6,112.8,5.5,37.6,2.9,75.1,6.8,112.6,12.1,37.5,5.4,74.9,12.1,112.2,21.4l3.5.9,3.2.8,6.3,1.5c4.2,1.1,8.5,1.9,12.7,2.8,4.2.9,8.5,1.6,12.8,2.4,4.3.8,8.6,1.4,12.9,2,17.2,2.4,34.6,3.8,52,4.2,17.4.4,34.9-.2,52.5-1.7,17.5-1.5,35-4,52.5-7.1,35-6.3,69.9-15.6,104.8-26.1,69.9-21,140.2-46.9,214.7-65.5,37.2-9.3,75.4-16.7,114.3-21.1,19.4-2.2,39.1-3.7,58.8-4.3,19.7-.7,39.4-.5,59.2.6,19.7,1,39.4,3,59,5.7,4.9.7,9.8,1.4,14.7,2.2l14.6,2.5c4.9.9,9.7,1.9,14.5,2.8,4.8.9,9.7,2,14.5,3.1,9.7,2.1,19.2,4.6,28.7,7,9.7,2.6,19.5,5.5,29.1,8.6,9.6,3.2,19.2,6.6,28.7,10.2,9.5,3.7,18.8,7.7,28.1,11.9,37,17,72.3,38.3,104.4,63.7,32.2,25.4,61.3,54.7,86.2,87.4,24.9,32.7,45.6,68.6,61,107,12.4,31,21.3,63.7,25.7,97.3,5.7,2.5,11.2,5.3,16.6,8.6,5.1,3.1,10,6.5,14.7,10.2,2.3,1.9,4.6,3.8,6.8,5.8,1.1,1,2.2,2,3.2,3,1.1,1,2.2,2.1,3,3,3.8,3.8,7.4,7.9,11,12,3.5,4.2,6.9,8.5,10.1,13,6.4,9,12.1,18.6,16.9,28.7,4.8,10.1,8.8,20.6,11.7,31.4,6,21.6,8,44,6.7,65.8Z"/>
    </g>
    <g id="Layer_2">
      <path class="head-fill" d="M540,0C241.8,0,0,241.8,0,540s245,540.1,539.4,540.1,41.8-1.2,62.9-3.6c268.8-30.9,477.6-259.3,477.6-536.4S838.2,0,540,0ZM925.9,886.1c-84.8,94.5-200.6,154.4-326,168.9-2.7.3-5.5.6-8.3.9-10.2-16.9-22.4-28.1-37.2-38-2.1-5.2-4.3-7.7-7.3-14-9.9-20.3-1.3-25.3,10.4-40.7,13.7-18.2,14.4-29.7,17.3-34.8.5-1,1.4-1.9,3.1-4,2.4-2.9,2.7-2,5-3.3,2.2-1.3,6-5,8.8-10.6,9.5-19.2,5-42.8,7.2-58.7,4.2-29.5,27.7-58.2,53.6-70.7,2.7-1.3,3.7-1.3,6.5,0,9,3.7,18.3,6.4,27.3,9.9,17.5,6.7,31.5,10.5,49.3,5.6,27.7-7.6,49.2-31.3,52.8-61.5,2.9-24.3-7.6-32.4,2.7-43,4.1-4,17.3,2.1,16.9-17.4-.3-7.2-.3-11.3-5.2-16.8,35.2-16.2,5.3-38,5.7-43.9,1.3-2.7,2.8-5.8,2.8-10.5,18.3-.7,42.8-11.3,47.8-28.9,1.7-6.6,1.5-13.1-1.4-19.3-11.2-24.7-75.1-61.5-73.8-106.6.1-3.6.4-7.1,1.3-10.6,2.5-8.9,9.4-16.3,10.4-25.5.8-7.6-2.7-15.1-4.2-22.4-1.7-8.3-3.1-16.6-4.7-24.9-1.5-8-3.8-16.1-3.8-24.2-3.4-18.4-6.7-31.3-16.6-45.2,19.8,4.3,35.9,11,44.9,35.4,4,10.9,5.8,24.3,5.3,34-.2,3,4.2,3.6,4.8.6,0,.3,3.8-15.1,2.2-36.8-1.4-18.4-6.7-37.3-17.7-51.8,19.4-3.6,36.7-14.5,48.6-28.6,11.9-14.2,16.9-41.7,14.4-50.8-2.9-10.4-10.5-20.7-20.3-25-7.5-57.4-71.7-105.2-160.2-83.1-40.5,10.1-71.8,28.7-112.6,18.9-91.4-22.3-237.1-6.5-298.5,68.4-12.3,15.7-24.4,36.3-16.5,54.7-62.1,43.7-97.9,178.3-21.4,330.7,16.1,32,31.2,46,26.2,87.6-3.1,24-9.3,45.6,14.8,56,5.2,2.3,15.4,5.2,19.5,6.2,4.8,1.2,9.6,1.8,14.4,1.9,1.2,31.1,8.1,70.6-17.5,114.5-14.8,25.5-39.3,48.8-45.3,66.3-1,.2-2.1.5-3.1.7l1,.4c-19.2,3.1-41.5,13.9-59.6,25.9-5.1-4.7-10.1-9.5-15.1-14.4-47.9-47.6-85.5-103-111.8-164.7-27.3-64.1-41.1-132.4-41.1-202.9s13.7-137.9,40.7-201.8c26.1-61.7,63.5-117.2,111.1-164.8,47.6-47.6,103.1-85,164.8-111.1,63.9-27,131.8-40.7,201.8-40.7s137.9,13.7,201.8,40.7c61.7,26.1,117.2,63.5,164.8,111.1,47.6,47.6,85,103.1,111.1,164.8,27,63.9,40.7,131.8,40.7,201.8s-11.9,128.5-35.3,188.5c-22.7,58-55.3,111-97.1,157.6Z"/>
    </g>
  </g>
</svg>