<?xml version="1.0" encoding="UTF-8"?>
<svg xmlns="http://www.w3.org/2000/svg" version="1.1" xmlns:xlink="http://www.w3.org/1999/xlink" viewBox="0 0 5000 5000">
  <defs>
    <style>
      .cls-1 {
        fill: url(#radial-gradient);
        mix-blend-mode: multiply;
      }

      .cls-2 {
        fill: none;
      }

      .cls-3 {
        isolation: isolate;
      }

      .cls-4 {
        display: none;
      }

      .cls-5 {
        fill: gray;
      }

      .cls-6 {
        clip-path: url(#clippath);
      }

      .cls-7 {
        fill: #53272d;
      }

      .cls-8 {
        fill: #ed1e79;
        stroke: #000;
        stroke-miterlimit: 10;
      }
    </style>
    <clipPath id="clippath">
      <circle class="cls-2" cx="2283.5" cy="1776.9" r="1155"/>
    </clipPath>
    <radialGradient id="radial-gradient" cx="2283.5" cy="1776.9" fx="2283.5" fy="1776.9" r="1155" gradientUnits="userSpaceOnUse">
      <stop offset=".7" stop-color="#ccc" stop-opacity="0"/>
      <stop offset="1" stop-color="#53272d"/>
    </radialGradient>
  </defs>
  <!-- Generator: Adobe Illustrator 28.7.0, SVG Export Plug-In . SVG Version: 1.2.0 Build 136)  -->
  <g class="cls-3">
    <g id="Layer_6">
      <g>
        <path class="cls-5" d="M2500,4950c-166.3,0-332.4-16.7-493.8-49.8-157.3-32.2-312-80.2-459.8-142.7-145.2-61.4-285.2-137.4-416.1-225.9-129.7-87.7-251.7-188.3-362.6-299.2-110.9-110.9-211.5-232.9-299.2-362.6-88.5-131-164.5-271-225.9-416.1-62.5-147.8-110.6-302.5-142.7-459.8-33-161.4-49.8-327.5-49.8-493.8s16.7-332.4,49.8-493.8c32.2-157.3,80.2-312,142.7-459.8,61.4-145.2,137.4-285.2,225.9-416.1,87.7-129.7,188.3-251.7,299.2-362.6,110.9-110.9,232.9-211.5,362.6-299.2,131-88.5,271-164.5,416.1-225.9,147.8-62.5,302.5-110.6,459.8-142.7,161.4-33,327.6-49.8,493.8-49.8s332.4,16.7,493.8,49.8c157.3,32.2,312,80.2,459.8,142.7,145.2,61.4,285.2,137.4,416.1,225.9,129.7,87.7,251.7,188.3,362.6,299.2,110.9,110.9,211.5,232.9,299.2,362.6,88.5,131,164.5,271,225.9,416.1,62.5,147.8,110.6,302.5,142.7,459.8,33,161.4,49.8,327.6,49.8,493.8s-16.7,332.4-49.8,493.8c-32.2,157.3-80.2,312-142.7,459.8-61.4,145.2-137.4,285.2-225.9,416.1-87.7,129.7-188.3,251.7-299.2,362.6-110.9,110.9-232.9,211.5-362.6,299.2-131,88.5-271,164.5-416.1,225.9-147.8,62.5-302.5,110.6-459.8,142.7-161.4,33-327.6,49.8-493.8,49.8Z"/>
        <path class="cls-7" d="M2500,100c162.9,0,325.7,16.4,483.8,48.8,154,31.5,305.6,78.6,450.4,139.8,142.2,60.1,279.3,134.6,407.6,221.3,127.1,85.9,246.6,184.5,355.3,293.1,108.6,108.6,207.2,228.2,293.1,355.3,86.7,128.3,161.1,265.4,221.3,407.6,61.2,144.8,108.3,296.3,139.8,450.4,32.4,158.1,48.8,320.9,48.8,483.8s-16.4,325.7-48.8,483.8c-31.5,154-78.6,305.6-139.8,450.4-60.1,142.2-134.6,279.3-221.3,407.6-85.9,127.1-184.5,246.6-293.1,355.3-108.6,108.6-228.2,207.2-355.3,293.1-128.3,86.7-265.4,161.1-407.6,221.3-144.8,61.2-296.3,108.3-450.4,139.8-158.1,32.4-320.9,48.8-483.8,48.8s-325.7-16.4-483.8-48.8c-154-31.5-305.6-78.6-450.4-139.8-142.2-60.1-279.3-134.6-407.6-221.3-127.1-85.9-246.6-184.5-355.3-293.1-108.6-108.6-207.3-228.2-293.1-355.3-86.7-128.3-161.1-265.4-221.3-407.6-61.2-144.8-108.3-296.3-139.8-450.4-32.4-158.1-48.8-320.9-48.8-483.8s16.4-325.7,48.8-483.8c31.5-154,78.6-305.6,139.8-450.4,60.1-142.2,134.6-279.3,221.3-407.6,85.9-127.1,184.5-246.6,293.1-355.3,108.6-108.6,228.2-207.2,355.3-293.1,128.3-86.7,265.4-161.1,407.6-221.3,144.8-61.2,296.3-108.3,450.4-139.8,158.1-32.4,320.9-48.8,483.8-48.8M2500,0C1119.3,0,0,1119.3,0,2500s1119.3,2500,2500,2500,2500-1119.3,2500-2500S3880.7,0,2500,0h0Z"/>
      </g>
    </g>
    <g id="Layer_3" class="cls-4">
      <path class="cls-7" d="M4028.6,981.3c-1.3,21.8-5.7,42.9-12.4,62.9-6.6,20-15.4,38.9-25.8,56.7s-22.1,34.4-35.1,49.9c-26,31-56.7,57.4-90.3,78.9-16.8,10.7-34.5,20.1-52.7,28.2-18.3,8-37.1,14.7-56.4,19.6-8.4,2.2-16.9,4-25.5,5.6,5.1,6.7,9.9,13.5,14.4,20.6,10.7,16.5,19.8,33.9,27.7,51.7,15.8,35.6,26.3,73,32.9,110.7,3.3,18.9,5.6,37.8,7,56.8,1.4,19,2.1,38,1.8,57-.2,19-1.2,37.9-3.1,56.8-1.9,18.9-4.6,37.7-8.7,56.3v.3c-1.4,6.1-7.4,10-13.5,8.7-5.5-1.2-9.2-6.2-8.9-11.6v-2.3c.1,0,.2-2.4.2-2.4v-4.9c.1-3.3.1-6.6,0-10-.1-6.7-.4-13.3-.8-20-.9-13.4-2.2-26.7-4.2-40-2-13.3-4.6-26.4-7.9-39.5-3.2-13-7.2-25.9-11.8-38.4-9.3-25.1-21.7-49.2-37.7-70.7-4-5.4-8.2-10.6-12.6-15.6-4.4-5-9.1-9.8-14-14.4-4.9-4.6-9.9-8.9-15.2-13.1-5.2-4-10.7-7.7-16.4-11.1-11.5-6.7-23.8-12.2-36.4-17.1-12.6-4.9-25.5-9.1-38.5-12.8-12.3-3.5-24.7-6.5-37.1-9.2,10.2,14.3,19.5,29.4,27.8,45.1,6.9,13.1,13,26.7,18.2,40.6,2.6,7,5,14.1,7.2,21.2l1.6,5.4,1.4,5.1,2.7,10.2c7.1,27.1,13,54.5,18.1,81.8,10.2,54.7,16.8,109.7,24,163.9,3.6,27.1,7.3,54,12.1,80.3,2.4,13.2,5.1,26.1,8.3,38.7,3.2,12.5,7,24.7,12,35.2,2.5,5.2,5.3,10,8.2,13.6,1.4,1.8,2.9,3.4,4.3,4.5.7.6,1.3,1.1,2,1.5.3.2.6.4.9.5,0,0,1.6,1.1,2.5,1.6,4.1,2.8,8.1,6,11.6,9.5,3.5,3.5,6.7,7.3,9.5,11.2,2.8,3.9,5.2,8,7.3,12.2,2.1,4.2,3.9,8.4,5.3,12.6,5.9,17,7.5,34,6.8,50.4-.8,16.4-4,32.3-9.4,47.5-5.4,15.2-13,29.9-23.6,43-5.3,6.6-11.4,12.8-18.5,18.3-7,5.5-14.9,10.4-23.8,13.8-4.4,1.7-9.1,3.1-13.8,4-1,.2-2.8.5-3.2.6-.3,0-.6,0-.8,0-.5,0-.8,0-1-.2-.4-.1-.4-.7-.8-.7-.3,0-1,.6-1.6,2.1-.3.7-.5,1.6-.7,2.6-.2,1-.2,2.1-.3,3.3,0,2.4,0,5.1.5,7.8.8,5.5,2.4,11.4,4.4,17.3,2.1,5.9,4.6,11.7,7.4,17.6,2.8,5.8,5.8,11.7,8.9,17.4,6.3,11.5,13.4,22.8,20.7,33.9,14.8,22.2,31.1,43.7,48.3,64.4,17.2,20.8,35.2,40.8,53.9,60.3,9.3,9.7,18.8,19.3,28.4,28.8,4.8,4.7,9.6,9.4,14.5,14.1l14.8,14.2c19.7,19,39.5,38,58.9,57.9,9.7,10,19.4,20.2,28.9,31,9.5,10.9,18.8,22.3,27.5,35.5,4.3,6.6,8.4,13.7,11.9,21.6,3.6,7.8,6.5,16.3,8.4,25.1,1.9,8.8,2.8,17.9,2.7,26.5,0,8.6-.9,16.9-2.2,24.6-.1,1-.3,1.9-.5,2.9-.1.9-.3,2-.6,3.2-.4,2.4-1,4.6-1.6,6.9-1.3,4.5-2.8,8.8-4.5,13-3.5,8.3-7.8,15.8-12.5,22.8-9.6,13.8-20.8,25.2-32.7,35.1-23.9,19.7-50.5,33.7-78.1,44-27.6,10.1-56.4,16.5-85.6,18.5-2.6.2-5.1.3-7.7.4,0,4.7-.4,9.4-1.1,14-1.3,8.6-3.8,17-7.3,25-.9,2-1.8,4-2.8,5.9-.5,1-1,1.9-1.5,2.9-.4.8-.2.6-.3.9,0,.7,0,1.1.2,1.7.1.6.4,1.6.9,3,.5,1.4,1.2,3.2,2.2,5.2,2,4.1,5.1,8.9,8.4,14,6.9,10.2,15.3,21.3,23.3,34.5,4,6.6,7.9,13.8,11.2,22.1,3.3,8.3,6,17.9,6.5,28.9.2,5.4-.1,11.2-1.2,16.9-1.1,5.7-2.9,11.2-5.3,16.3-2.4,5.1-5.3,9.7-8.5,13.8-.8,1.1-1.6,2-2.3,2.9-.8.9-1.5,1.8-2.3,2.6l-2.3,2.5-2.3,2.4c-3.1,3.1-6.3,5.9-9.5,8.5-3.2,2.6-6.4,5.1-9.7,7.4-6.5,4.6-13.1,8.6-19.8,12.3-5.4,2.9-10.8,5.7-16.2,8.2,1.4,1.6,2.9,3.3,4.3,5.1,2.8,3.6,5.5,7.3,7.8,11.5,2.3,4.1,4.4,8.6,6.1,13.2.8,2.3,1.6,4.7,2.2,7.2.3,1.2.6,2.4.8,3.7.2,1.2.5,2.6.6,3.6l.6,5.5.5,5.5c.3,3.7.7,7.4.9,11.1.2,3.7.3,7.5.5,11.3,0,3.8.1,7.7,0,11.7-.3,8-.8,16.4-3.8,25.8-.4,1.2-.8,2.4-1.3,3.6-.4,1.2-1,2.4-1.6,3.6-1.2,2.4-2.6,4.8-4.3,7.1-1.7,2.3-3.7,4.5-5.9,6.4-2.2,1.9-4.5,3.6-6.8,5-4.7,2.8-9.4,4.4-13.7,5.6-4.3,1.2-8.2,1.9-11.8,2.5-7.2,1.2-13.5,2-18.4,3.5-2.5.7-4.6,1.5-6.3,2.4-1.8.9-3.1,1.9-4.3,3.1-.3.3-.6.5-1.1,1.2l-1.5,1.6c-1,1.1-1.9,2.2-2.8,3.3-1.8,2.2-3.5,4.5-5,6.8-3,4.6-5.5,9.4-7.2,14.4-1.8,5-2.8,10.3-3.4,15.7-.5,5.4-.5,11.1,0,16.9,1.1,11.5,4,23.5,8,35.5,1,3,2.1,6,3.2,8.9.5,1.5,1.1,3,1.7,4.5l1.9,4.8c2.7,6.9,5,13.9,7.2,20.9,4.3,14,7.8,28.2,10.4,42.7,5.3,28.9,7,58.8,3.8,89-.8,7.5-1.9,15-3.4,22.5-1.4,7.5-3.2,14.9-5.4,22.3-4.3,14.8-10.1,29.2-17.2,43-7.2,13.7-15.7,26.9-25.5,38.9-4.8,6.1-10,11.8-15.4,17.3-1.3,1.4-2.7,2.7-4.1,4.1-1.4,1.3-2.7,2.7-4.2,4-2.8,2.6-5.6,5.2-8.6,7.6-23.2,19.9-49.4,35.3-76.4,47.1-13.5,5.9-27.2,10.9-41.1,15.3-6.9,2.2-13.9,4.1-20.8,6l-10.5,2.6-2.7.6-2.8.6c-1.9.4-3.7.8-5.6,1.2-14.9,2.9-29.8,4.4-44.5,5-7.4.3-14.7.2-21.9.1-7.3-.2-14.5-.6-21.7-1.2-28.7-2.3-56.7-7.3-84.1-13.6-27.4-6.4-54.2-14.4-80.6-23.1-10.4-3.5-20.5-4.8-30.4-9.7-12.8-6.2-25.7-12.1-39.8-14.9-40.8-8.2-82,9.8-118.9,29.1-30.2,15.8-58,33.1-83.8,55.2-10.1,8.6-20.1,16.5-29.6,24.6-9.6,8.1-18.8,16.4-27.5,25.2-17.4,17.5-32.5,37.1-44.4,58.7-12,21.5-21,44.8-27.2,68.9-3.1,12.1-5.4,24.3-7.2,36.7-1.7,12.4-2.9,24.9-3.5,37.4-.6,12.5-.7,25.1-.5,37.6,0,3.1.1,6.3.2,9.4l.3,9.7c.2,6.6.2,13.1.2,19.7-.2,26.3-2.1,52.8-6.5,79.2-2.2,13.2-5.1,26.4-8.9,39.6-3.8,13.2-8.6,26.2-14.9,39.1-6.4,12.8-14.3,25.4-25.6,36.6-4.4,4.4-9.6,9.4-15.1,12.5-5.5,3.2-11.7,4.2-16.7,8.6-2.3,2-4.4,4.4-6.4,6.8-2.4,2.8-4.8,5.7-7.2,8.5-2.6,3.1-5.3,6.3-7.3,9.9-1.3,2.3-2.3,4.8-3.3,7.3-6.5,16.2-10.9,33.1-17.4,49.4-9.8,25-22.1,49.1-36.6,71.7-7.2,11.3-14.9,22.2-22.9,32.7-8,10.5-16.2,20.7-24.2,30.6-16,19.9-31.6,39.1-39,59.4-3.7,10.1-5.4,20.6-4.9,31.6.2,5.5.9,11,1.9,16.6,1.1,5.6,2.6,11.2,4.3,16.9,3.6,11.2,8.3,22.5,13.6,33.5,5.4,11.1,11.4,21.9,17.8,32.8,6,10.2,11.6,20.7,16.2,32.2,7.1,4.7,14.1,9.6,21.1,14.6,21.5,15.5,42.5,32.2,62.2,50.6,9.9,9.2,19.5,18.9,28.6,29.1,1.2,1.3,2.3,2.6,3.4,3.8l3.3,3.8c2.2,2.6,4.4,5.1,6.5,7.7l6.4,7.8c2.1,2.6,4.1,5.3,6.2,8,13.4,17.4,25.8,35.7,36.9,54.6-95.7,11-193,16.7-291.7,16.7-622,0-1191.4-224.9-1631.4-597.8,3.8-3,7.7-6,11.5-8.9,60.9-46.4,127.5-85.7,198.1-115.4,40.9-17.2,82-31.5,125.3-38.4l-4.5-1.8c4.7-1.2,9.5-2.3,14.2-3.4,1.4-4.1,3-8.1,4.7-12,4.2-9.7,8.9-18.9,14-27.6,2.6-4.3,5.2-8.6,7.9-12.8,1.3-2.1,2.6-4,3.9-6,1.3-2,2.6-4,4-5.9,2.7-4,5.3-7.9,8-11.8,2.7-3.9,5.4-7.7,8.2-11.6,10.9-15.4,22.2-30.3,33.6-44.9,22.7-29.3,45.6-57.4,66.8-86.1,21.3-28.7,41.2-57.8,58.8-88.3,17.7-30.4,33.2-62.3,45.9-95.6,12.7-33.2,22.5-67.8,29.5-103.1,6.9-35.3,11.2-71.3,13.2-107.5,1-18.1,1.5-36.3,1.4-54.4v-13.6c-.1,0-.4-13.6-.4-13.6-.3-9.1-.6-18.2-1.1-27.3-.4-9.1-1-18.2-1.7-27.3-.3-4.6-.7-9.1-1-13.6l-1.1-13.7c-1.6-18.8-2.7-37.6-3.5-56.5,0-1.3,0-2.6-.1-3.8-10.4,0-20.9-.8-31.2-2-9.6-1.1-19.1-2.8-28.4-4.9-2.4-.5-4.7-1.1-7-1.7-2.3-.6-4.7-1.2-7-1.8-4.7-1.2-9.2-2.5-13.7-3.8-18.3-5.1-36.7-10.5-55.5-17.3-4.7-1.7-9.3-3.7-14-5.8-4.7-2-9.4-4.3-14.1-6.8-9.3-5-18.6-11.1-27.3-18.6-8.8-7.4-16.6-16.8-22.9-27.1-3.2-5.2-6.1-10.6-8.3-16.1-2.3-5.6-4.3-11.2-5.7-16.9-3-11.3-4.4-22.5-5-33.2-.5-10.7-.1-21,.5-30.9,1.4-19.8,4.1-38.3,6.7-56.4l3.9-26.8c1.4-8.9,2.4-17.7,3.6-26.5.5-4.4,1.1-8.8,1.5-13.2.5-4.4.9-8.8,1.3-13.2.8-8.8,1.4-17.6,1.7-26.4.3-8.8.4-17.6.3-26.5,0-4.4-.2-8.8-.4-13.3-.2-4.4-.5-8.8-.9-13.3-2.9-35.4-11-70.6-23.8-104.2-3.2-8.4-6.7-16.7-10.3-24.9-3.6-8.2-7.5-16.4-11.5-24.5-4-8.1-8.2-16.1-12.5-24-2.1-4-4.4-7.9-6.6-11.9l-6.9-11.9c-18.8-32.4-36.6-65.3-53.3-98.7-33.5-66.9-63.3-135.6-89.3-205.8-26-70.2-48.4-141.9-66.3-215-8.9-36.5-16.8-73.3-23.4-110.5-3.3-18.6-6.3-37.2-9-55.9-2.7-18.7-5-37.4-7-56.2-8-75.2-10.3-151.3-5.8-227.3,2.3-38,6.2-76,12.1-113.8,5.9-37.8,13.6-75.3,23.4-112.4,9.7-37.1,21.5-73.7,35.2-109.6,13.7-35.9,29.5-71,47.3-105.1,8.9-17,18.3-33.8,28.2-50.3,2.5-4.1,5-8.2,7.5-12.3,2.5-4.1,5.1-8.1,7.7-12.2,1.3-2,2.6-4,4-6.1,1.4-2.1,2.7-4.2,4.1-6.2,1.4-2.1,2.8-4.1,4.2-6.2,1.4-2,2.9-4.1,4.3-6.1,23.2-32.4,50.4-62,80.3-87.9,13.2-11.5,27-22.3,41.3-32.3-.3-.8-.6-1.5-.9-2.3-2.2-5.7-4.2-11.5-5.6-17.4-.8-2.9-1.4-5.9-2-8.9-.3-1.5-.5-3-.8-4.5-.2-1.5-.5-3-.7-4.5-1.5-12-1.7-23.9-.6-35.4,1-11.5,3.1-22.7,5.8-33.4,2.8-10.7,6.2-21,10.2-30.8,7.9-19.7,17.5-38,28-55.3,5.3-8.6,10.7-17,16.4-25.2,5.7-8.1,11.5-16.2,17.5-24,3-4,6.1-7.7,9.1-11.6,3.1-3.8,6.1-7.6,9.3-11.4,3.2-3.8,6.4-7.5,9.6-11.2,3.2-3.7,6.5-7.4,9.9-11,13.3-14.5,27.3-28.5,41.7-41.8,28.9-26.6,59.8-50.8,92.1-72.6,64.6-43.7,134.1-78.2,205.6-106,71.5-27.7,145.1-48.6,219.3-64.3,74.3-15.7,149.3-26.1,224.5-32.5,75.2-6.3,150.5-8.5,225.8-6.8,37.6.8,75.2,2.6,112.8,5.5,37.6,2.9,75.1,6.8,112.6,12.1,37.5,5.4,74.9,12.1,112.2,21.4l3.5.9,3.2.8,6.3,1.5c4.2,1.1,8.5,1.9,12.7,2.8,4.2.9,8.5,1.6,12.8,2.4,4.3.8,8.6,1.4,12.9,2,17.2,2.4,34.6,3.8,52,4.2,17.4.4,34.9-.2,52.5-1.7,17.5-1.5,35-4,52.5-7.1,35-6.3,69.9-15.6,104.8-26.1,69.9-21,140.2-46.9,214.7-65.5,37.2-9.3,75.4-16.7,114.3-21.1,19.4-2.2,39.1-3.7,58.8-4.3,19.7-.7,39.4-.5,59.2.6,19.7,1,39.4,3,59,5.7,4.9.7,9.8,1.4,14.7,2.2l14.6,2.5c4.9.9,9.7,1.9,14.5,2.8,4.8.9,9.7,2,14.5,3.1,9.7,2.1,19.2,4.6,28.7,7,9.7,2.6,19.5,5.5,29.1,8.6,9.6,3.2,19.2,6.6,28.7,10.2,9.5,3.7,18.8,7.7,28.1,11.9,37,17,72.3,38.3,104.4,63.7,32.2,25.4,61.3,54.7,86.2,87.4,24.9,32.7,45.6,68.6,61,107,12.4,31,21.3,63.7,25.7,97.3,5.7,2.5,11.2,5.3,16.6,8.6,5.1,3.1,10,6.5,14.7,10.2,2.3,1.9,4.6,3.8,6.8,5.8,1.1,1,2.2,2,3.2,3,1.1,1,2.2,2.1,3,3,3.8,3.8,7.4,7.9,11,12,3.5,4.2,6.9,8.5,10.1,13,6.4,9,12.1,18.6,16.9,28.7,4.8,10.1,8.8,20.6,11.7,31.4,6,21.6,8,44,6.7,65.8Z"/>
    </g>
    <g id="Layer_2">
      <path class="cls-7" d="M3955.3,1150.8c-55.5,66-135.9,115.9-224.9,132.3,40.9,53.9,74.1,133.9,82,239.7,7.6,100.4-10.3,171.9-10,170.4-1.3,6.1-7.4,10-13.5,8.7-5.5-1.2-9.2-6.2-8.9-11.6,2.3-44.4-5.6-106.7-24.5-157.6-16.8-45.1-41.9-83.7-79.5-113.8-32.5-25.5-88-41.3-128.5-50.1,25.4,35.8,42.9,72.5,53.2,107,6.3,21.1,16,60.2,23.8,102.5,0,37.7,62.7,295.9,59,331.2-4.4,42.5-36.7,76.9-48.1,118.1-4.4,15.9-5.6,32.5-6.1,48.9-1.5,51.4,9,87.1,33.7,131.9,58.6,106.5,186.8,221.6,180.6,215.6,112.7,108.6,148.7,147.1,135.7,225.1-2.8,16.7-9.8,32-19.2,45.8-41.4,59.7-129.2,95.1-204.1,98,0,17.1-4.6,32.6-12.7,47.7-.4.8-.2.6-.3.9-1.8,26.3,136.2,128.2-26.6,203.2,9.6,10.9,16.9,22.9,20.3,37,1.9,7.7,2.4,18.4,2.4,18.2,2.8,29.5,4.1,63.7-15.4,80.7-19.9,17.7-49.5,10.5-61.4,22.1-37.6,39-14.9,75.3-12,121.9,1.6,26.1,2.8,51.4-.4,77.4-21.3,177.1-170.6,287.6-303.4,294.8-58.6,3.2-115.2-15.4-169.2-36-41.7-15.9-84.7-28.8-126.2-45.8-13.2-5.4-17.8-5.6-30.2.4-120.1,58-228.9,190.8-248.3,327.3-10.3,74.3,4.1,109.9-9.7,193-4.6,27-11.7,54.2-23.8,78.7-13,25.9-30.3,43.2-40.7,49.1-5.5,3.2-11.7,4.2-16.7,8.6-3.4,2.9-17.8,19.7-20.8,25.3-5.6,10.1-14,39.8-20.6,56.7-54.3,137.9-141.4,159-125.6,242.6,8.9,46.2,38.7,82.5,51.9,115.4,72.7,48.7,128.5,101.8,174.7,180-695.5,80-1388.1-127.8-1923-581.2,93.4-73.4,226.8-145.3,334.9-162.7l-4.5-1.8c4.7-1.2,9.5-2.3,14.2-3.4,28.2-81.1,141.3-188.5,210-307,121.2-208.1,86.1-402.5,81.1-530.1-20.2-.2-40.2-2.5-59.7-6.9-10.7-2.3-55.4-14.5-83.2-24.6-138.3-51.1-92.1-168.1-81.1-278.2,19.7-180.2-50.9-249.2-122.9-392.6-215.7-430-300.5-965.3-47-1374.2,37.3-61.2,84.2-113.5,146-157.1-30.6-71.8,5.2-153.6,49.8-217.6,294.4-419.8,1050.6-439.7,1408.7-352.4,301.7,72.8,494.6-190.8,899.5-89,206,55.2,341.2,217.9,363.2,386.1,46.1,20.2,80.9,68.4,94.1,115.8,11.7,42.5-11.3,169.4-66.6,235.3Z"/>
    </g>
    <g id="Layer_5">
      <g class="cls-6">
        <path class="cls-8" d="M2599,2182.6c1.7-1.7,1.8-4.4.4-6.2l-16.6-22c-16.4-21.9-31.7-70.4-39.9-104.5-2.2-9,2-18.4,10.3-22.7l87.8-46c8.2-4.3,18.3-2.5,24.5,4.5,23.3,26.1,54.5,66.3,63.2,92.3l8.7,26.2c.7,2.3,3,3.6,5.4,3.2l133.3-22.7c2.3-.4,4-2.4,4-4.8l-.5-27.6c-.4-27.4,15.7-75.6,29.1-108,3.5-8.6,12.4-13.7,21.6-12.3l98.1,14.4c9.2,1.3,16.3,8.8,17.2,18,3.5,34.8,5.1,85.7-3.1,111.8l-8.4,26.3c-.7,2.3.3,4.7,2.4,5.8l121.2,60c2.1,1.1,4.7.4,6.1-1.5l15.8-22.6c15.7-22.4,57.2-51.9,87-70.3,7.9-4.9,18.1-3.7,24.7,2.8l70.9,69.3c6.6,6.5,8,16.6,3.3,24.7-17.6,30.3-46.2,72.4-68.2,88.6l-22.2,16.4c-1.9,1.4-2.5,4-1.4,6.1l62.8,119.8c1.1,2.1,3.6,3.1,5.8,2.3l26.1-9c25.9-8.9,76.8-8.4,111.7-5.7,9.3.7,16.8,7.6,18.4,16.8l16.7,97.8c1.6,9.2-3.3,18.2-11.8,21.9-32.1,14.1-79.9,31.4-107.3,31.6l-27.6.2c-2.4,0-4.4,1.8-4.7,4.1l-19.6,133.8c-.3,2.3,1.1,4.6,3.3,5.3l26.4,8.1c26.2,8.1,67.1,38.3,93.7,61,7.1,6,9.2,16.1,5,24.4l-44,88.9c-4.1,8.3-13.4,12.8-22.4,10.8-34.2-7.4-83.1-21.6-105.4-37.5l-22.4-16.1c-1.9-1.4-4.6-1.2-6.2.5l-94.5,96.7c-1.7,1.7-1.8,4.4-.4,6.2l16.6,22c16.4,21.9,31.7,70.4,39.9,104.5,2.2,9-2,18.4-10.3,22.7l-87.8,46c-8.2,4.3-18.3,2.5-24.5-4.5-23.3-26.1-54.5-66.3-63.2-92.3l-8.7-26.2c-.7-2.3-3-3.6-5.4-3.2l-133.3,22.7c-2.3.4-4,2.4-4,4.8l.5,27.6c.4,27.4-15.7,75.6-29.1,108-3.5,8.6-12.4,13.7-21.6,12.3l-98.1-14.4c-9.2-1.3-16.3-8.8-17.2-18-3.5-34.8-5.1-85.7,3.1-111.8l8.4-26.3c.7-2.3-.3-4.7-2.4-5.8l-121.2-60c-2.1-1.1-4.7-.4-6.1,1.5l-15.8,22.6c-15.7,22.4-57.2,51.9-87,70.3-7.9,4.9-18.1,3.7-24.7-2.8l-70.9-69.3c-6.6-6.5-8-16.6-3.3-24.7,17.6-30.3,46.2-72.4,68.2-88.6l22.2-16.4c1.9-1.4,2.5-4,1.4-6.1l-62.8-119.8c-1.1-2.1-3.6-3.1-5.8-2.3l-26.1,9c-25.9,8.9-76.8,8.4-111.7,5.7-9.3-.7-16.8-7.6-18.4-16.8l-16.7-97.8c-1.6-9.2,3.3-18.2,11.8-21.9,32.1-14.1,79.9-31.4,107.3-31.6l27.6-.2c2.4,0,4.4-1.8,4.7-4.1l19.6-133.8c.3-2.3-1.1-4.6-3.3-5.3l-26.4-8.1c-26.2-8.1-67.1-38.3-93.7-61-7.1-6-9.2-16.1-5-24.4l44-88.9c4.1-8.3,13.4-12.8,22.4-10.8,34.2,7.4,83.1,21.6,105.4,37.5l22.4,16.1c1.9,1.4,4.6,1.2,6.2-.5l94.5-96.7ZM2610.5,2705.4c80.4,153.4,270,212.6,423.5,132.2,153.4-80.4,212.6-270,132.2-423.5-80.4-153.4-270-212.6-423.5-132.2-153.4,80.4-212.6,270-132.2,423.5Z"/>
        <path class="cls-8" d="M801.2,651.6c1.3-1.9,1-4.5-.8-5.9l-21.1-17.5c-21.3-17.7-47.9-62-64-93.5-4.3-8.4-2.7-18.5,3.8-25.2l68.9-70.5c6.6-6.7,16.6-8.5,25.1-4.4,31.9,15.4,76.8,40.9,95,61.8l18,20.7c1.5,1.7,4.1,2,6,.6l126.9-94.4c1.9-1.4,2.3-3.9,1.1-5.9l-14.6-23.1c-14.8-23.5-26.4-73.8-31.9-108.7-1.5-9.3,3.1-18.4,11.4-22.8l87.3-45.8c8.3-4.4,18.5-2.9,25.2,3.6,25.6,24.5,60.4,62.6,71.3,88.1l10.7,25.2c.9,2.1,3.3,3.2,5.5,2.5l149.8-50.6c2.2-.7,3.4-3,2.9-5.3l-6.8-26.5c-6.8-26.9-2.3-78.3,3.2-113.3,1.5-9.3,8.7-16.6,17.9-18.1l97.2-16.5c9.2-1.6,18.5,2.9,22.9,11.2,16.8,31.2,38.1,78.2,40.5,105.8l2.4,27.3c.2,2.3,2.1,4.1,4.4,4l158.1-1.8c2.3,0,4.2-1.8,4.4-4.1l1.7-27.3c1.8-27.7,22-75.2,38.1-106.7,4.3-8.4,13.3-13.1,22.6-11.7l97.5,14.3c9.3,1.4,16.6,8.5,18.3,17.7,6.3,34.8,12.1,86.1,5.9,113.2l-6.2,26.7c-.5,2.2.8,4.5,3,5.2l151,47.1c2.2.7,4.6-.4,5.4-2.6l10.1-25.4c10.3-25.8,44.2-64.7,69.2-89.7,6.6-6.6,16.7-8.3,25.1-4.1l88.3,43.7c8.4,4.2,13.2,13.2,11.9,22.5-4.8,35.1-15.1,85.7-29.4,109.4l-14.1,23.5c-1.2,2-.7,4.5,1.2,5.9l129,91.5c1.9,1.3,4.5,1,5.9-.8l17.5-21.1c17.7-21.3,62-47.9,93.5-64,8.4-4.3,18.5-2.7,25.2,3.8l70.5,68.9c6.7,6.6,8.5,16.6,4.4,25.1-15.4,31.9-40.9,76.8-61.8,95l-20.7,18c-1.7,1.5-2,4.1-.6,6l94.4,126.9c1.4,1.9,3.9,2.3,5.9,1.1l23.1-14.6c23.5-14.8,73.8-26.4,108.7-31.9,9.3-1.5,18.4,3.1,22.8,11.4l45.8,87.3c4.4,8.3,2.9,18.5-3.6,25.2-24.5,25.6-62.6,60.4-88.1,71.3l-25.2,10.7c-2.1.9-3.2,3.3-2.5,5.5l50.6,149.8c.7,2.2,3,3.4,5.3,2.9l26.5-6.8c26.9-6.8,78.3-2.3,113.3,3.2,9.3,1.5,16.6,8.7,18.1,17.9l16.5,97.2c1.6,9.2-2.9,18.5-11.2,22.9-31.2,16.8-78.2,38.1-105.8,40.5l-27.3,2.4c-2.3.2-4.1,2.1-4,4.4l1.8,158.1c0,2.3,1.8,4.2,4.1,4.4l27.3,1.7c27.7,1.8,75.2,22,106.7,38.1,8.4,4.3,13.1,13.3,11.7,22.6l-14.3,97.5c-1.4,9.3-8.5,16.6-17.7,18.3-34.8,6.3-86.1,12.1-113.2,5.9l-26.7-6.2c-2.2-.5-4.5.8-5.2,3l-47.1,151c-.7,2.2.4,4.6,2.6,5.4l25.4,10.1c25.8,10.3,64.7,44.2,89.7,69.2,6.6,6.6,8.3,16.7,4.1,25.1l-43.7,88.3c-4.2,8.4-13.2,13.2-22.5,11.9-35.1-4.8-85.7-15.1-109.4-29.4l-23.5-14.1c-2-1.2-4.5-.7-5.9,1.2l-91.5,129c-1.3,1.9-1,4.5.8,5.9l21.1,17.5c21.3,17.7,47.9,62,64,93.5,4.3,8.4,2.7,18.5-3.8,25.2l-68.9,70.5c-6.6,6.7-16.6,8.5-25.1,4.4-31.9-15.4-76.8-40.9-95-61.8l-18-20.7c-1.5-1.7-4.1-2-6-.6l-126.9,94.4c-1.9,1.4-2.3,3.9-1.1,5.9l14.6,23.1c14.8,23.5,26.4,73.8,31.9,108.7,1.5,9.3-3.1,18.4-11.4,22.8l-87.3,45.8c-8.3,4.4-18.5,2.9-25.2-3.6-25.6-24.5-60.4-62.6-71.3-88.1l-10.7-25.2c-.9-2.1-3.3-3.2-5.5-2.5l-149.8,50.6c-2.2.7-3.4,3-2.9,5.3l6.8,26.5c6.8,26.9,2.3,78.3-3.2,113.3-1.5,9.3-8.7,16.6-17.9,18.1l-97.2,16.5c-9.2,1.6-18.5-2.9-22.9-11.2-16.8-31.2-38.1-78.2-40.5-105.8l-2.4-27.3c-.2-2.3-2.1-4.1-4.4-4l-158.1,1.8c-2.3,0-4.2,1.8-4.4,4.1l-1.7,27.3c-1.8,27.7-22,75.2-38.1,106.7-4.3,8.4-13.3,13.1-22.6,11.7l-97.5-14.3c-9.3-1.4-16.6-8.5-18.3-17.7-6.3-34.8-12.1-86.1-5.9-113.2l6.2-26.7c.5-2.2-.8-4.5-3-5.2l-151-47.1c-2.2-.7-4.6.4-5.4,2.6l-10.1,25.4c-10.3,25.8-44.2,64.7-69.2,89.7-6.6,6.6-16.7,8.3-25.1,4.1l-88.3-43.7c-8.4-4.2-13.2-13.2-11.9-22.5,4.8-35.1,15.1-85.7,29.4-109.4l14.1-23.5c1.2-2,.7-4.5-1.2-5.9l-129-91.5c-1.9-1.3-4.5-1-5.9.8l-17.5,21.1c-17.7,21.3-62,47.9-93.5,64-8.4,4.3-18.5,2.7-25.2-3.8l-70.5-68.9c-6.7-6.6-8.5-16.6-4.4-25.1,15.4-31.9,40.9-76.8,61.8-95l20.7-18c1.7-1.5,2-4.1.6-6l-94.4-126.9c-1.4-1.9-3.9-2.3-5.9-1.1l-23.1,14.6c-23.5,14.8-73.8,26.4-108.7,31.9-9.3,1.5-18.4-3.1-22.8-11.4l-45.8-87.3c-4.4-8.3-2.9-18.5,3.6-25.2,24.5-25.6,62.6-60.4,88.1-71.3l25.2-10.7c2.1-.9,3.2-3.3,2.5-5.5l-50.6-149.8c-.7-2.2-3-3.4-5.3-2.9l-26.5,6.8c-26.9,6.8-78.3,2.3-113.3-3.2-9.3-1.5-16.6-8.7-18.1-17.9l-16.5-97.2c-1.6-9.2,2.9-18.5,11.2-22.9,31.2-16.8,78.2-38.1,105.8-40.5l27.3-2.4c2.3-.2,4.1-2.1,4-4.4l-1.8-158.1c0-2.3-1.8-4.2-4.1-4.4l-27.3-1.7c-27.7-1.8-75.2-22-106.7-38.1-8.4-4.3-13.1-13.3-11.7-22.6l14.3-97.5c1.4-9.3,8.5-16.6,17.7-18.3,34.8-6.3,86.1-12.1,113.2-5.9l26.7,6.2c2.2.5,4.5-.8,5.2-3l47.1-151c.7-2.2-.4-4.6-2.6-5.4l-25.4-10.1c-25.8-10.3-64.7-44.2-89.7-69.2-6.6-6.6-8.3-16.7-4.1-25.1l43.7-88.3c4.2-8.4,13.2-13.2,22.5-11.9,35.1,4.8,85.7,15.1,109.4,29.4l23.5,14.1c2,1.2,4.5.7,5.9-1.2l91.5-129ZM1212.8,1799.9c247.8,242.1,645.1,237.5,887.2-10.3,242.1-247.8,237.5-645.1-10.3-887.2-247.8-242.1-645.1-237.5-887.2,10.3-242.1,247.8-237.5,645.1,10.3,887.2Z"/>
      </g>
    </g>
    <g id="Layer_7">
      <circle class="cls-1" cx="2283.5" cy="1776.9" r="1155"/>
    </g>
  </g>
</svg>