<?xml version="1.0" encoding="UTF-8"?>
<svg id="Layer_1" xmlns="http://www.w3.org/2000/svg" width="150" height="150" version="1.1" viewBox="0 0 150 150">
  <!-- Generator: Adobe Illustrator 29.7.1, SVG Export Plug-In . SVG Version: 2.1.1 Build 8)  -->
  <path d="M115.4207,48.6387c-1.8507-4.5616-5.258-8.3231-8.9545-11.5739-3.2043-2.8179-6.6695-5.3205-9.885-8.1247-3.0954-2.6997-4.669-6.7075-6.9174-10.0808-3.2035-4.8064-10.6875-3.0803-11.3212,2.6609-.6716,6.0854-.0073,12.6245-.0073,18.7372v53.3434c-10.7523-5.4242-24.9477-3.3935-34.6033,3.4391-8.4177,5.9567-14.0582,17.0704-7.8842,26.6728,12.5943,19.5868,54.0726,9.075,53.2908-15.0403.0404-.1834.064-.3721.064-.5655v-33.8931c0-5.7726,6.7842-9.0952,11.1834-5.3576.0387.0328.0773.066.1158.0997,2.9039,2.542,4.098,6.4179,4.4558,10.1394.2441,2.5404-.7745,7.4228,2.5327,8.5678.9317.3226,1.9653.0435,2.8605-.3711,1.1455-.5313,2.0674-1.933,2.7468-3.4767.6635-1.5071,1.0959-3.1495,1.2799-4.2494.7815-4.6744-.6745-9.4849-3.2544-13.4611.4824-.0822.9603-.2534,1.404-.4589,1.1455-.5313,2.0674-1.9329,2.747-3.4765.6634-1.5073,1.0958-3.1497,1.2797-4.2496.5202-3.1108.0477-6.3708-1.1331-9.2812ZM104.1447,58.9057c-1.762-1.3108-3.6348-2.4831-5.5394-3.5778-1.9219-1.1048-3.8966-2.146-5.6235-3.5363-.0099-.008-.0198-.0159-.0297-.024-1.7837-1.4476-1.5687-4.3124.3953-5.5042,2.7134-1.6466,6.2952-1.6102,9.3306,1.0466,2.9041,2.5421,4.0981,6.418,4.4559,10.1394.1036,1.0775-.018,2.576.0576,4.0322-.9697-.9111-1.9775-1.7803-3.0468-2.5759Z" fill="#6abd45"/>
</svg>