<?xml version="1.0" encoding="UTF-8"?>
<svg xmlns="http://www.w3.org/2000/svg" version="1.1" xmlns:xlink="http://www.w3.org/1999/xlink" viewBox="0 0 100 100">
  <defs>
    <style>
      .cls-1 {
        fill: none;
      }

      .cls-2, .cls-3 {
        isolation: isolate;
      }

      .cls-3 {
        fill: url(#radial-gradient);
        mix-blend-mode: multiply;
      }

      .cls-4 {
        fill: #af8080;
      }

      .cls-5 {
        fill: #53272d;
      }

      .cls-6 {
        fill: #58595b;
      }

      .cls-7 {
        fill: gray;
      }

      .cls-8 {
        clip-path: url(#clippath);
      }
    </style>
    <radialGradient id="radial-gradient" cx="-23" cy="125" fx="-23" fy="125" r="1" gradientTransform="translate(576.1 2922.1) scale(23.1 -23.1)" gradientUnits="userSpaceOnUse">
      <stop offset=".7" stop-color="#ccc" stop-opacity="0"/>
      <stop offset="1" stop-color="#53272d"/>
    </radialGradient>
    <clipPath id="clippath">
      <path id="q-2" data-name="q" class="cls-1" d="M45.7,58.6c12.8,0,23.1-10.3,23.1-23.1s-10.3-23.1-23.1-23.1-23.1,10.3-23.1,23.1,10.3,23.1,23.1,23.1Z"/>
    </clipPath>
  </defs>
  <!-- Generator: Adobe Illustrator 28.7.1, SVG Export Plug-In . SVG Version: 1.2.0 Build 142)  -->
  <g class="cls-2">
    <g id="Layer_1">
      <path id="b" class="cls-7" d="M2.2,59.9C-3.3,33,14.1,7.5,40.1,2.2c19-3.9,38.9,3.8,50.3,20.5,17.2,25.4,6.8,60.3-21.6,72.2-28.5,12.1-60.8-5.3-66.8-35.2h.1c0,0,0,.1,0,.1Z"/>
      <path id="c" class="cls-5" d="M50,0C22.4,0,0,22.4,0,50s22.4,50,50,50,50-22.4,50-50S77.6,0,50,0ZM76.8,89.8c-6.9,4.7-14.5,7.2-22.1,8-.1,0-.2,0-.3,0-.9-1.4-1.9-2.3-3.3-3.3-.2-.6-.7-1.3-.9-2.1-.3-1.7,1.4-2.1,2.5-4.9,0-.3.3-.9.4-1.1l.4-.5c0-.2.2-.2.3-.2.2,0,.5-.5.8-1,.3-.5.5-1.1.5-1.6.2-1.7,0-2.4.2-3.9.4-2.7,2.6-5.3,5-6.5h.6c.8.3,1.7.6,2.5.9,1.1.4,2.2.7,3.4.7,2.7,0,5.7-2.4,6.1-5.9v-1.5c0-.9-.6-1.6.2-2.4.8-.8.8,0,1.2-.4.4-.4.3-1,.3-1.6v-.4c0-.2-.2-.5-.4-.7,3.2-1.5.5-3.6.5-4.1,0,0,.3-.5.3-1,1.5,0,3.3-.8,4.1-2,.2-.3.4-.6.4-.9.3-1.6-.4-2.3-2.7-4.5,0,0-2.4-2.2-3.6-4.3-.5-.9-.7-1.6-.7-2.6v-1c.3-.9,1-1.5,1-2.4s-1.2-5.8-1.2-6.6c-.2-.9-.4-1.7-.5-2.1-.2-.6-.6-1.4-1.1-2.1.8.2,2,.5,2.6,1,.8.6,1.3,1.4,1.6,2.3.4,1.1.5,2.3.5,3.2s0,.2.2.2.3,0,.3-.2c0,0,.4-1.4.2-3.4,0-2.1-.8-3.7-1.6-4.8,1.8-.3,3.4-1.3,4.5-2.6,1.1-1.4,1.5-4,1.3-4.8-.3-.9-1-1.9-1.9-2.3-.5-3.3-3.2-6.6-7.3-7.7-8.1-2-12,3.3-18,1.8s-22.3-1.4-28.2,7c-.9,1.3-1.6,3-1,4.4-1.2.8-2.2,1.9-2.9,3.1-5.1,8.2-3.4,18.9.9,27.5,1.5,2.9,2.9,4.3,2.5,7.9-.2,2.2-1.2,4.6,1.6,5.6.6.2,1.5.5,1.7.5h1.2c0,2.6.8,6.4-1.6,10.6-1.4,2.3-3.6,4.5-4.2,6.1h-.3c-1.7.3-3.6,1.2-5.2,2.2,0,0-.1-.1-.2-.2-4.9-4.5-8.9-10.1-11.7-16.6C-6.1,40.6,10.9,9,40.3,3c3.2-.6,6.4-1,9.7-1,13.1,0,25.2,5.3,33.9,14.1,21.4,21.4,17.9,56.8-7.1,73.7Z"/>
      <path id="d" class="cls-4" d="M45.7,58.6c12.8,0,23.1-10.3,23.1-23.1s-10.3-23.1-23.1-23.1-23.1,10.3-23.1,23.1,10.3,23.1,23.1,23.1Z"/>
      <path id="q" class="cls-3" d="M45.7,58.6c12.8,0,23.1-10.3,23.1-23.1s-10.3-23.1-23.1-23.1-23.1,10.3-23.1,23.1,10.3,23.1,23.1,23.1Z"/>
    </g>
    <g id="Layer_2">
      <rect class="cls-1" width="100" height="100"/>
      <g class="cls-8">
        <path class="cls-6" d="M53.6,74.2s0,0,0-.1c0,.2,0,0,0-.1,0-.2,0-.4,0-.6v-8.3c0-1,0-2.3-1.4-2.2-2.5.2-5,.6-7.4.9-.7,0-1.9,0-2.4.7-.3.5-.2,1.1-.2,1.6v7.9c-1.5-.5-3.5,0-4.2,1.5-.8,1.6.8,2.8,2.3,2.8,1.6,0,3.5-1,3.4-2.8,0-.2,0,0,0-.2,0-.2,0-.4,0-.6v-4.7c2.8-.3,5.7-.7,8.5-1v3.7c-1.2-.4-2.5-.2-3.5.6-.9.7-1.3,1.9-.5,2.9,1.5,1.9,5.7.6,5.4-1.9ZM44.1,67.6c.2,0,.5,0,.8,0,1-.1,2-.2,3-.4,1-.1,2-.2,3-.4.2,0,.5,0,.8,0,.4,0,.6.2.6.5-2.8.3-5.7.7-8.5,1,0-.3,0-.5.4-.7Z"/>
        <path class="cls-6" d="M51,70.7s0,0,0,0c1.1-1.8.2-4-1.5-5.1-.5-.3-1-.7-1.5-1.2-.3-.4-.5-.8-.7-1.2-.5-.7-1.4-.5-1.5.4,0,.8,0,1.7,0,2.5v7.1c-1.4-.7-3.3-.5-4.6.5-1.1.8-1.9,2.3-1.1,3.6,1.7,2.6,7.2,1.2,7.1-2,0,0,0,0,0,0v-5.2c0-.2,0-.5,0-.7,0-.9,1.1-1.4,1.8-.8.4.3.5.9.6,1.4,0,.3,0,.6,0,.9.2.5.8.5,1.2.2,0,0,0,0,0,0,0,0,0,0,0,0Z"/>
        <path class="cls-6" d="M48.7,63.8c-.1-1-1.4-.9-1.4,0-.1,1.7,0,3.4,0,5v4.7c-1.1-.4-2.5-.2-3.5.5-.9.6-1.5,1.8-.8,2.9,1.3,2.2,5.5,1.1,5.8-1.4,0,0,0,0,0,0v-10.4c0-.4,0-.8,0-1.2Z"/>
        <path class="cls-6" d="M42.7,77.4c.1,1,1.4.9,1.4,0,.1-1.7,0-3.4,0-5v-4.7c1.1.4,2.5.2,3.5-.5.9-.6,1.5-1.8.8-2.9-1.3-2.2-5.5-1.1-5.8,1.4,0,0,0,0,0,0v10.4c0,.4,0,.8,0,1.2Z"/>
        <path class="cls-6" d="M48.3,62.7s0,0,0,0c0,0,0,0,0,0h0s0,0,0,0c0,0,0,0,0,0,0,0,0,0,0,0,0,0,0,0,0,0,0,0,0,0,0,0,0,0,0,0,0,0,0,0,0,0,0,0-.8.3-.6,1.2-.6,1.8v9.2c-1.2-.5-2.6-.2-3.7.5-.9.7-1.6,1.9-.9,3,1.4,2.3,5.8,1.1,6.1-1.4,0,0,0,0,0-.1v-11.1c0-.7.2-1.8-.6-2ZM46.4,76.8c-.4.1-1.7.5-1.9-.1-.2-.5.7-1,1.1-1.1.4-.1,1.6-.5,1.8.1.2.5-.7,1-1.1,1.1Z"/>
        <path class="cls-6" d="M53.8,74.3s0,0,0-.1c0,.2,0,0,0-.1,0-.2,0-.4,0-.6v-8.6c0-1,0-2.4-1.4-2.2-2.6.2-5.1.6-7.7.9-.7,0-2,0-2.4.7-.3.5-.2,1.2-.2,1.7v8.1c-1.6-.6-3.9,0-4.5,1.8-.6,2,1.7,2.9,3.2,2.6.9-.2,1.8-.6,2.3-1.4.2-.3.4-.7.4-1.1,0-.1,0-.3,0-.4,0,0,0,0,0,0,0-1.1,0-2.1,0-3.2v-3.9c0-.4,0-.8.4-1,.2-.1.7,0,1-.1,1.4-.2,2.7-.3,4.1-.5.9-.1,1.9-.3,2.8-.3.7,0,.6.6.6,1.1v5.1c-1.2-.4-2.6-.2-3.6.6-.9.7-1.3,2-.5,3,1.6,1.9,5.9.6,5.6-2Z"/>
        <g>
          <path class="cls-6" d="M43.5,62.7c-2.3.2-4.2,2.1-4.6,4.3-.2,1,0,2.1.8,2.8.8.6,1.9.6,2.6,0,1.4-1.2.7-3.3-.9-3.7.5-1.1,1.6-1.8,2.9-1.5,1.5.4,2.1,1.9,2.2,3.3.2,2.7-1,5.3-2.8,7.3-.3.4-.7.7-1.1,1.1-.3.3-1,.7-1.1,1.1-.2.7.4,1.2,1.1,1.1,1.1-.2,2.2-1,3.1-1.7.9-.7,1.7-1.5,2.3-2.4,1.4-2.2,1.7-5.1,1-7.6-.8-2.4-2.8-4.2-5.4-4Z"/>
          <path class="cls-6" d="M51.1,69.3c.8,0,1.4-.6,1.5-1.4,0-.8-.6-1.4-1.3-1.5,0,0,0,0-.1,0,0,0,0,0-.1,0-.7.1-1.3.7-1.3,1.5s.7,1.5,1.5,1.5Z"/>
          <path class="cls-6" d="M51.2,69.8s0,0-.1,0c0,0,0,0-.1,0-.7,0-1.3.7-1.3,1.5s.7,1.5,1.5,1.5c.8,0,1.4-.6,1.5-1.4,0-.8-.6-1.4-1.3-1.5Z"/>
        </g>
        <path class="cls-6" d="M49,73.5c-.2-2.5-2.8-3-4.8-2.3,0-.2,0-.4,0-.6v-6.5c0-.3,0-.7-.1-1-.4-.7-1.3-.6-1.6,0-.2.6,0,1.5,0,2v9.1c0,1,0,2.1,0,3.1,0,1.2,1,1.3,2,1.1,2.2-.6,4.8-2.2,4.6-4.9ZM45.4,76.3s-1.1.7-1.2.9c0,0,0-.2,0-.2,0-.2,0-.6,0-.9v-2.5c0-.2,0-.6,0-.9,0-.3.8-.4,1.2-.3,1.8.4.8,2.9,0,3.7Z"/>
        <path class="cls-6" d="M50,72s0,0,0,0c0,0,0,0,0,0-.2-1.7-1.6-3-3.3-2.9,0-.3,0-.7,0-1,0-.5-.1-.7.2-1.1.5-.6,1-1.2,1.4-1.9.6-1,1.4-2.8.5-3.8-.9-1-2.3-.4-2.8.6-.7,1.3-.6,3.2-.6,4.6-1.9,1.2-4.2,3-3.9,5.5.2,1.3,1.2,2.4,2.4,2.9.5.2.9.3,1.4.4.2,0,.5,0,.7.1.1,1.1.3,3.5-.5,4.1,0,0,0-.1,0-.2.2-.5,0-1.2-.5-1.5-1.2-.8-2.3.7-1.8,1.8.5,1.2,2.2,1.4,3.1.6,1.2-1.2.8-3.4.7-4.9,1.6-.2,2.9-1.5,2.8-3.2ZM46.8,70.8c.8.1,1.4.8,1.4,1.7,0,.8-.5,1.4-1.2,1.6,0-1.1-.2-2.2-.2-3.3ZM43.6,70.3c.4-.7,1-1.3,1.6-1.9,0,0,.2-.1.2-.2,0,.3,0,.6,0,1-.6.3-1.2.7-1.5,1.4-.2.4-.4,1.6,0,1.9.2.1.3.1.5,0,.1-.1.2-.4.3-.6.2-.4.5-.7.9-.9,0,1,.2,2,.3,3.1-.1,0-.2,0-.3,0-1.7-.4-2.9-2-2-3.7ZM47.7,63.6c-.3.6-.7,1.3-1.2,1.8,0,0,0,0,0,0,0-.3,0-.7,0-1,0-.8,0-1.6.5-2.2.4-.5,1-.4,1,.3,0,.4-.2.8-.4,1.1Z"/>
        <path class="cls-6" d="M51.1,67.1c-.2-.6-.7-1.1-1.2-1.5-.4-.4-.9-.7-1.3-1.1-.4-.4-.6-.9-.9-1.3-.4-.6-1.4-.4-1.5.4,0,.8,0,1.7,0,2.5v7.1c-1.4-.7-3.3-.5-4.6.5-1.1.8-1.9,2.3-1.1,3.6,1.7,2.6,7.2,1.2,7.1-2,0,0,0,0,0,0v-4.5c0-.8.9-1.2,1.5-.7,0,0,0,0,0,0,.4.3.5.9.6,1.4,0,.3-.1,1,.3,1.1.1,0,.3,0,.4,0,.2,0,.3-.3.4-.5,0-.2.1-.4.2-.6.1-.6,0-1.3-.4-1.8,0,0,.1,0,.2,0,.2,0,.3-.3.4-.5,0-.2.1-.4.2-.6,0-.4,0-.9-.2-1.2ZM49.6,68.4c-.2-.2-.5-.3-.7-.5-.3-.1-.5-.3-.8-.5,0,0,0,0,0,0-.2-.2-.2-.6,0-.7.4-.2.8-.2,1.2.1.4.3.5.9.6,1.4,0,.1,0,.3,0,.5-.1-.1-.3-.2-.4-.3Z"/>
        <path class="cls-6" d="M47.7,72.5c-.8-.6-1.7-2.4-.5-3.7s1.6-2.6.8-3.3c-.5-.5-1.9-1.2-2.8-1.7-.3-.1-.6.1-.4.4.3.7.3,1.4.4,2.1,0,1-2.3,2.1-1.8,3.5.1.4,1,1.3,1.6,1.9.2.2,0,.5-.2.5-1.7,0-2.3,1.1-2.1,2.3.1,1.1,1.7,2.2,2.6,2.7.2.1.5,0,.5-.3-.1-.6-.3-1.4-.5-2.1-.3-1.2,2.2-.5,3.3-.7,1.1-.3.1-1-.7-1.7Z"/>
        <path class="cls-6" d="M50.8,67.9c.7,0,1.2-.5,1.2-1.2h0c0-.7-.5-1.2-1.2-1.2h-.5c0,0,0-2.4,0-2.4,0-.3-.3-.6-.6-.6h-1.1c-.3,0-.6.3-.6.6v2.9l-4.5.8v-1.9c0-.3-.3-.6-.6-.6h-1.1c-.3,0-.6.3-.6.6v2.3h-.5c-.7,0-1.2.6-1.2,1.3h0c0,.7.5,1.2,1.2,1.2h.5c0,0,0,3.5,0,3.5h-.5c-.7,0-1.2.6-1.2,1.3h0c0,.7.5,1.2,1.2,1.2h.5c0,0,0,2.4,0,2.4,0,.3.3.6.6.6h1.1c.3,0,.6-.3.6-.6v-2.9l4.5-.8v1.9c0,.3.3.6.6.6h1.1c.3,0,.6-.3.6-.6v-2.3h.5c.7,0,1.2-.6,1.2-1.3h0c0-.7-.5-1.2-1.2-1.2h-.5c0,0,0-3.5,0-3.5h.5ZM47.9,71.9l-4.5.8v-3.5l4.5-.8v3.5Z"/>
      </g>
    </g>
  </g>
</svg>