<?xml version="1.0" encoding="UTF-8"?>
<svg id="Layer_1" xmlns="http://www.w3.org/2000/svg" width="150" height="150" version="1.1" viewBox="0 0 150 150">
  <!-- Generator: Adobe Illustrator 29.7.1, SVG Export Plug-In . SVG Version: 2.1.1 Build 8)  -->
  <path d="M134.1753,102.032c.0195-.3-.0031-.6184-.1061-.9633.3746,1.2549.0606-.29.0763-.8295.0422-1.4501,0-2.9082,0-4.3588v-62.5606c0-7.5654.2021-17.2498-10.3145-16.2796-18.6369,1.7196-37.2368,4.5889-55.8124,6.878-5.3508.6594-14.2923.2002-17.6368,5.2303-2.2488,3.382-1.4494,8.3999-1.4494,12.2597v58.9351c-11.2871-3.9271-26.4191.1006-31.7211,11.3258-5.6821,12.0303,6.018,20.9897,17.1213,21.3451,11.9234.3814,26.1121-7.6225,25.2879-20.8921-.1158-1.8639-.1092.2129-.1207-1.7332-.0083-1.4126,0-2.8254,0-4.2378v-35.3928c21.3594-2.6139,42.7187-5.2277,64.0781-7.8416v27.5584c-8.6679-3.0986-18.9897-1.3003-26.1669,4.5283-6.4902,5.2709-9.7222,14.5041-3.9001,21.5538,11.5221,13.9518,42.7211,4.6769,40.6644-14.5252ZM62.6525,52.3319c1.7184-.5836,3.9869-.4913,5.7798-.7123,7.4609-.9194,14.9217-1.8388,22.3826-2.7583,7.4609-.9194,14.9218-1.8388,22.3827-2.7582,1.8503-.2281,3.7817-.6461,5.6481-.696,3.1575-.0846,4.2533,1.6343,4.5932,4.0235-21.3239,2.6095-42.648,5.2189-63.972,7.8285.0682-2.1156.5868-4.0445,3.1856-4.9271Z" fill="#6abd45"/>
</svg>