<?xml version="1.0" encoding="UTF-8"?>
<svg id="Layer_1" xmlns="http://www.w3.org/2000/svg" width="150" height="150" version="1.1" viewBox="0 0 150 150">
  <!-- Generator: Adobe Illustrator 29.7.1, SVG Export Plug-In . SVG Version: 2.1.1 Build 8)  -->
  <path d="M114.808,75.5624c.1736-.2022.3116-.41.4107-.6234,7.9547-13.7357,1.8579-30.2158-11.1593-38.2325-4.12-2.5374-7.8067-5.3358-10.9175-9.0753-2.2615-2.7186-3.5998-5.798-5.5308-8.679-3.4671-5.1729-10.6178-3.4008-11.2903,2.7841-.6596,6.0666,0,12.5805,0,18.6711v53.3434c-10.7524-5.4242-24.9478-3.3935-34.6033,3.4391-8.4179,5.9567-14.0583,17.0704-7.8842,26.6727,12.5941,19.5868,54.0725,9.075,53.2907-15.0403.0405-.1833.064-.3721.064-.5655v-39.2647c0-1.6908-.1624-3.476,0-5.162.6584-6.8283,7.975-10.5972,13.4754-5.783,2.9039,2.5421,4.0981,6.418,4.4558,10.1394.1959,2.0377-.336,4.4609.5114,6.3867,1.7058,3.8762,6.3162,3.839,9.0075,1.193.0011-.0012.0019-.0025.0029-.0037.0586-.0605.1118-.1315.1668-.2001Z" fill="#6abd45"/>
</svg>