<?xml version="1.0" encoding="UTF-8"?>
<svg id="Layer_1" xmlns="http://www.w3.org/2000/svg" width="150" height="150" version="1.1" viewBox="0 0 150 150">
  <!-- Generator: Adobe Illustrator 29.7.1, SVG Export Plug-In . SVG Version: 2.1.1 Build 8)  -->
  <path d="M106.9755,85.5438c.0188-.1831.0187-.3792-.0042-.589-.0067-.2089-.0335-.4048-.0777-.5878-1.6617-12.7772-11.8779-22.1595-24.6998-21.978-.217-2.5207-.4362-5.0411-.6308-7.5636-.2863-3.7119-1.0118-5.5225,1.4771-8.2192,4.0123-4.3471,7.7895-9.0053,10.8529-14.0777,4.4859-7.4277,10.473-20.6972,3.7782-28.5172-6.623-7.7361-17.2187-3.2373-21.2159,4.6504-5.1261,10.1153-4.5727,23.6287-4.1499,34.8316-14.4568,8.7302-31.8132,22.4453-28.9899,41.2714,1.5069,10.0489,8.983,17.9527,18.1915,21.7082,3.4896,1.4232,7.0626,2.2925,10.7873,2.7372,1.4584.1741,3.3795.63,5.1826.7614.8252,8.345,2.2629,26.3541-3.4397,30.9436.2634-.4229.507-.874.7166-1.3709,1.7377-4.1208.2247-8.9987-3.5036-11.452-9.1698-6.0339-17.0123,5.4162-13.68,13.7957,3.4982,8.7969,16.4296,10.7442,22.9777,4.3381,8.9337-8.7399,6.3362-25.1144,5.1333-36.7306,12.1007-1.7497,21.4083-11.3297,21.2942-23.9515ZM83.3199,76.464c6.3028.9637,10.7226,6.0114,10.785,12.8515-.5002,5.7-3.7275,10.2817-8.9996,11.6466-.5462-8.1699-1.1532-16.3345-1.7854-24.4981ZM59.5945,73.1123c3.0106-5.4162,7.3804-10.0927,11.7092-14.4765.5458-.5526,1.1604-1.0889,1.7916-1.6294.179,2.4.3674,4.7996.5642,7.1983-4.8609,2.0836-9.2579,5.5245-11.376,10.4866-1.3522,3.1676-2.9152,11.7377.3291,14.2542,1.1418.8857,2.5415,1.0574,3.6766,0,1.0748-1.0014,1.3195-2.9487,1.9337-4.2263,1.5008-3.1221,3.7845-5.0737,6.6179-6.5242.6502,7.6318,1.3043,15.2632,1.9344,22.8965-.772-.1029-1.5407-.2341-2.3052-.4036-12.5752-3.1928-21.8232-15.0764-14.8754-27.5757ZM89.7219,23.0093c-2.4548,4.5604-5.3788,9.4106-8.8217,13.2705-.0662.0741-.138.1442-.2055.2172-.0271-2.5201-.0125-5.0401.0674-7.5648.2413-5.6429.3848-11.7747,3.9996-16.447,2.9881-3.8622,7.7583-2.7301,7.835,2.3375.0422,2.7774-1.5907,5.8008-2.8748,8.1865Z" fill="#6abd45"/>
</svg>