<?xml version="1.0" encoding="UTF-8"?>
<svg id="Layer_1" xmlns="http://www.w3.org/2000/svg" width="150" height="150" version="1.1" viewBox="0 0 150 150">
  <!-- Generator: Adobe Illustrator 29.7.1, SVG Export Plug-In . SVG Version: 2.1.1 Build 8)  -->
  <path d="M94.3101,15.6134c-.1132-.052-.233-.0905-.3557-.126-.0011-.0003-.002-.0008-.0031-.0011l-.0023-.0003c-.1763-.0505-.3615-.081-.5564-.093-.0716-.0065-.1411-.0089-.2107-.01-.0729.0011-.1457.0037-.2208.0107-.1904.012-.3716.0419-.5443.0909-.0038.001-.0069.0007-.0106.0017-.0062.0017-.011.0042-.0172.0059-.1087.0321-.2165.0645-.3177.1098-6.028,1.8984-4.6679,8.7084-4.6679,13.8075v69.284c-9.0299-3.3818-19.8477-1.7169-27.6524,3.9329-7.1063,5.1441-11.8783,14.5896-6.7339,22.821,10.6859,17.0986,43.2668,8.4356,45.7895-10.7864.0939-.2869.1473-.604.1473-.953V30.7829c0-5.2908,1.6172-13.1564-4.6438-15.1695ZM80.3757,122.014c-3.0652,1.0915-12.5134,3.8034-13.9455-.9498-1.2055-4.0011,5.4331-7.4317,8.2132-8.552,2.7462-1.1068,12.3221-3.6772,13.7283.9894,1.1803,3.9171-4.9776,7.127-7.996,8.5124Z" fill="#6abd45"/>
</svg>