<?xml version="1.0" encoding="UTF-8"?>
<svg id="Layer_1" xmlns="http://www.w3.org/2000/svg" width="150" height="150" version="1.1" viewBox="0 0 150 150">
  <!-- Generator: Adobe Illustrator 29.7.1, SVG Export Plug-In . SVG Version: 2.1.1 Build 8)  -->
  <path d="M58.5377,16.2866c-17.3018,1.2943-31.2328,15.4293-34.4359,32.1881-1.4275,7.468-.3211,15.8184,5.9804,20.7983,5.7122,4.5144,14.0178,4.4445,19.6688-.1119,10.8385-8.7392,5.4657-24.9809-6.5766-27.8032,3.625-8.3711,11.9535-13.6614,21.6678-11.0873,11.0408,2.9256,15.6108,14.1325,16.3052,24.5739,1.3327,20.0411-7.7099,39.8233-20.9976,54.398-2.5653,2.8139-5.2962,5.4422-8.1181,7.9965-2.5996,2.3534-7.153,4.9102-8.2854,8.4411-1.6385,5.1098,3.2363,9.0305,7.952,7.9667,8.1156-1.8308,16.7961-7.5882,23.3383-12.4894,6.6991-5.0188,12.6341-11.0074,17.1507-18.083,10.6905-16.7465,12.8619-37.8593,7.1606-56.7191-6.1073-17.7675-21.0429-31.5473-40.8102-30.0688Z" fill="#6abd45"/>
  <path d="M115.3983,65.0644c5.8866.0316,10.7946-4.8301,11.0434-10.6525.2589-6.0482-4.3356-10.5994-10.0061-11.3759-.317-.0755-.6547-.1235-1.0373-.1029-.3784-.0203-.7125.0265-1.0266.1004-5.5343.7496-10.0392,5.0731-10.0392,10.9655,0,6.0319,5.0606,11.0336,11.0658,11.0655Z" fill="#6abd45"/>
  <path d="M116.4356,69.3946c-.317-.0755-.6547-.1235-1.0373-.1029-.3782-.0204-.7123.0264-1.0261.1004-5.5348.7495-10.0397,5.0729-10.0397,10.9655,0,6.0321,5.0606,11.0336,11.0658,11.0657,5.8866.0314,10.7946-4.8303,11.0434-10.6528.2589-6.0482-4.3356-10.5993-10.0061-11.3758Z" fill="#6abd45"/>
</svg>