<?xml version="1.0" encoding="UTF-8"?>
<svg id="Layer_1" xmlns="http://www.w3.org/2000/svg" width="150" height="150" version="1.1" viewBox="0 0 150 150">
  <!-- Generator: Adobe Illustrator 29.7.1, SVG Export Plug-In . SVG Version: 2.1.1 Build 8)  -->
  <path d="M89.9636,89.3655c-6.219-4.6643-12.9565-17.6207-3.6279-27.4676,9.3286-9.8469,11.9199-19.1754,5.7009-24.8763-3.7904-3.4746-13.9339-8.8742-21.2781-12.5617-1.9873-.9979-4.1815,1.079-3.2204,3.0842,2.5865,5.397,2.4899,10.5486,2.7318,15.8693.3455,7.6011-16.9299,15.7205-13.8203,26.6039.9552,3.3433,7.3132,9.6466,11.9575,13.9126,1.5325,1.4078.5967,3.9961-1.483,4.0683-13.0486.4537-16.9386,8.5695-16.0026,17.2607.8609,7.993,12.9258,16.1611,19.808,20.205,1.7904,1.0519,3.9684-.535,3.4881-2.5551-.9921-4.1727-2.4111-10.2169-3.6022-15.5769-2.073-9.3286,16.2386-3.4551,24.8109-5.5283,8.5725-2.073.7563-7.7738-5.4627-12.4381Z" fill="#6abd45"/>
</svg>