<?xml version="1.0" encoding="UTF-8"?>
<svg id="Layer_1" xmlns="http://www.w3.org/2000/svg" width="150" height="150" version="1.1" viewBox="0 0 150 150">
  <!-- Generator: Adobe Illustrator 29.7.1, SVG Export Plug-In . SVG Version: 2.1.1 Build 8)  -->
  <path d="M135.8863,102.8568c.0203-.3088-.003-.6369-.1091-.992.3851,1.2895.0622-.2986.0784-.8534.0434-1.4912,0-2.9907,0-4.4824V32.1939c0-7.7799.2078-17.7393-10.6071-16.7415-19.1657,1.7684-38.2931,4.7191-57.3958,7.0732-5.5026.6781-14.6977.2059-18.1371,5.3785-2.3126,3.4781-1.4906,8.6384-1.4906,12.6076v60.6221c-12.1568-4.1676-29.1051.5345-33.3787,13.4835-4.8253,14.6196,12.4038,21.6582,24.0818,19.669,6.8015-1.1585,13.662-4.6638,17.5957-10.4993,1.5866-2.3539,2.6609-5.1117,2.8028-7.9638.055-1.1087-.1412-2.1026-.2515-3.1506.0176-.0361.0228-.3979.0171-.5653-.2616-7.9353,0-15.9239,0-23.8628v-28.9534c0-2.9721-.5645-5.7244,2.7768-7.4885,1.7323-.9148,5.216-.6428,7.1362-.8794,10.2809-1.267,20.5617-2.534,30.8426-3.801,6.771-.8343,14.0404-2.5829,20.8749-2.5724,5.1082.008,4.2656,4.7699,4.2656,8.2158v38.205c-8.9138-3.1865-19.5283-1.337-26.9091,4.6568-6.6743,5.4203-9.9982,14.9156-4.0108,22.1654,11.8489,14.3472,43.9315,4.8099,41.8181-14.936Z" fill="#6abd45"/>
</svg>