<?xml version="1.0" encoding="UTF-8"?>
<svg id="Layer_1" xmlns="http://www.w3.org/2000/svg" width="150" height="150" version="1.1" viewBox="0 0 150 150">
  <!-- Generator: Adobe Illustrator 29.7.1, SVG Export Plug-In . SVG Version: 2.1.1 Build 8)  -->
  <path d="M113.1698,54.8679c4.9339,0,8.9336-3.9997,8.9336-8.9336v-.0002c0-4.9339-3.9997-8.9336-8.9336-8.9336l-3.5402.6381v-18.8179c0-2.5863-2.0967-4.683-4.6828-4.683h-8.5017c-2.5861,0-4.6828,2.0967-4.6828,4.683v22.0383l-33.5244,6.0422v-14.3216c0-2.5863-2.0967-4.683-4.683-4.683h-8.5014c-2.5865,0-4.6832,2.0967-4.6832,4.683v17.5418l-3.54.6381c-4.9341,0-8.9338,3.9999-8.9338,8.9336v.0002c0,4.9339,3.9997,8.9338,8.9338,8.9338l3.54-.6381v26.5051l-3.54.6381c-4.9341,0-8.9338,3.9997-8.9338,8.9336v.0002c0,4.9339,3.9997,8.9338,8.9338,8.9338l3.54-.6381v18.8178c0,2.5865,2.0967,4.683,4.6832,4.683h8.5014c2.5863,0,4.683-2.0965,4.683-4.683v-22.0381l33.5244-6.0422v14.3214c0,2.5863,2.0967,4.683,4.6828,4.683h8.5017c2.5861,0,4.6828-2.0967,4.6828-4.683v-17.5418l3.5402-.6381c4.9339,0,8.9336-3.9999,8.9336-8.9336v-.0002c0-4.9339-3.9997-8.9336-8.9336-8.9336l-3.5402.6381v-26.5053l3.5402-.6381ZM91.7623,85.2314l-33.5244,6.0422v-26.5051l33.5244-6.0422v26.5051Z" fill="#6abd45"/>
</svg>