<?xml version="1.0" encoding="UTF-8"?>
<svg id="Layer_1" xmlns="http://www.w3.org/2000/svg" width="150" height="150" version="1.1" viewBox="0 0 150 150">
  <!-- Generator: Adobe Illustrator 29.7.1, SVG Export Plug-In . SVG Version: 2.1.1 Build 8)  -->
  <path d="M99.8773,97.0068c-1.4188-18.7088-20.8824-22.6221-35.7118-17.553.137-1.47-.033-3.0772-.033-4.5332V26.2975c0-2.4589.3356-5.3706-.8945-7.6181-2.688-4.9109-10.0049-4.4329-12.197.5825-1.8435,4.2176-.58,10.9457-.58,15.3335v67.8736c0,7.811-.1573,15.6404,0,23.4502.1816,9.0114,7.4219,10.0107,14.947,7.9242,16.773-4.6508,35.9839-16.8624,34.4694-36.8366ZM72.8997,118.0709c-.3645.2964-8.3219,5.4102-8.8164,6.778-.0043-.4199.0747-1.1512.049-1.2481-.4948-1.8677,0-4.5037,0-6.4154v-18.4941c0-1.7849-.578-4.7097,0-6.4092.7021-2.0637,6.2621-2.6617,8.8534-2.0897,13.7881,3.0439,6.2212,21.7739-.0861,27.8785Z" fill="#6abd45"/>
</svg>