<?xml version="1.0" encoding="UTF-8"?>
<svg xmlns="http://www.w3.org/2000/svg" version="1.1" viewBox="0 0 150 150">
  <defs>
    <style>
      .cls-1 {
        fill: #58595b;
      }
    </style>
  </defs>
  <!-- Generator: Adobe Illustrator 28.7.1, SVG Export Plug-In . SVG Version: 1.2.0 Build 142)  -->
  <g>
    <g id="Layer_1">
      <path class="cls-1" d="M99.9,97c-1.4-18.7-20.9-22.6-35.7-17.6.1-1.5,0-3.1,0-4.5V26.3c0-2.5.3-5.4-.9-7.6-2.7-4.9-10-4.4-12.2.6-1.8,4.2-.6,10.9-.6,15.3v67.9c0,7.8-.2,15.6,0,23.5.2,9,7.4,10,14.9,7.9,16.8-4.7,36-16.9,34.5-36.8ZM72.9,118.1c-.4.3-8.3,5.4-8.8,6.8,0-.4,0-1.2,0-1.2-.5-1.9,0-4.5,0-6.4v-18.5c0-1.8-.6-4.7,0-6.4.7-2.1,6.3-2.7,8.9-2.1,13.8,3,6.2,21.8,0,27.9Z"/>
    </g>
  </g>
</svg>