<?xml version="1.0" encoding="UTF-8"?>
<svg xmlns="http://www.w3.org/2000/svg" version="1.1" viewBox="0 0 150 150">
  <defs>
    <style>
      .cls-1 {
        fill: #58595b;
      }
    </style>
  </defs>
  <!-- Generator: Adobe Illustrator 28.7.1, SVG Export Plug-In . SVG Version: 1.2.0 Build 142)  -->
  <g>
    <g id="Layer_1">
      <path class="cls-1" d="M114.8,75.6c.2-.2.3-.4.4-.6,8-13.7,1.9-30.2-11.2-38.2-4.1-2.5-7.8-5.3-10.9-9.1-2.3-2.7-3.6-5.8-5.5-8.7-3.5-5.2-10.6-3.4-11.3,2.8-.7,6.1,0,12.6,0,18.7v53.3c-10.8-5.4-24.9-3.4-34.6,3.4-8.4,6-14.1,17.1-7.9,26.7,12.6,19.6,54.1,9.1,53.3-15,0-.2,0-.4,0-.6v-39.3c0-1.7-.2-3.5,0-5.2.7-6.8,8-10.6,13.5-5.8,2.9,2.5,4.1,6.4,4.5,10.1.2,2-.3,4.5.5,6.4,1.7,3.9,6.3,3.8,9,1.2,0,0,0,0,0,0,0,0,.1-.1.2-.2Z"/>
    </g>
  </g>
</svg>