<?xml version="1.0" encoding="UTF-8"?>
<svg xmlns="http://www.w3.org/2000/svg" version="1.1" viewBox="0 0 150 150">
  <defs>
    <style>
      .cls-1 {
        fill: #58595b;
      }
    </style>
  </defs>
  <!-- Generator: Adobe Illustrator 28.7.1, SVG Export Plug-In . SVG Version: 1.2.0 Build 142)  -->
  <g>
    <g id="Layer_1">
      <path class="cls-1" d="M107,85.5c0-.2,0-.4,0-.6,0-.2,0-.4,0-.6-1.7-12.8-11.9-22.2-24.7-22-.2-2.5-.4-5-.6-7.6-.3-3.7-1-5.5,1.5-8.2,4-4.3,7.8-9,10.9-14.1,4.5-7.4,10.5-20.7,3.8-28.5-6.6-7.7-17.2-3.2-21.2,4.7-5.1,10.1-4.6,23.6-4.1,34.8-14.5,8.7-31.8,22.4-29,41.3,1.5,10,9,18,18.2,21.7,3.5,1.4,7.1,2.3,10.8,2.7,1.5.2,3.4.6,5.2.8.8,8.3,2.3,26.4-3.4,30.9.3-.4.5-.9.7-1.4,1.7-4.1.2-9-3.5-11.5-9.2-6-17,5.4-13.7,13.8,3.5,8.8,16.4,10.7,23,4.3,8.9-8.7,6.3-25.1,5.1-36.7,12.1-1.7,21.4-11.3,21.3-24ZM83.3,76.5c6.3,1,10.7,6,10.8,12.9-.5,5.7-3.7,10.3-9,11.6-.5-8.2-1.2-16.3-1.8-24.5ZM59.6,73.1c3-5.4,7.4-10.1,11.7-14.5.5-.6,1.2-1.1,1.8-1.6.2,2.4.4,4.8.6,7.2-4.9,2.1-9.3,5.5-11.4,10.5-1.4,3.2-2.9,11.7.3,14.3,1.1.9,2.5,1.1,3.7,0,1.1-1,1.3-2.9,1.9-4.2,1.5-3.1,3.8-5.1,6.6-6.5.7,7.6,1.3,15.3,1.9,22.9-.8-.1-1.5-.2-2.3-.4-12.6-3.2-21.8-15.1-14.9-27.6ZM89.7,23c-2.5,4.6-5.4,9.4-8.8,13.3,0,0-.1.1-.2.2,0-2.5,0-5,0-7.6.2-5.6.4-11.8,4-16.4,3-3.9,7.8-2.7,7.8,2.3,0,2.8-1.6,5.8-2.9,8.2Z"/>
    </g>
  </g>
</svg>