<?xml version="1.0" encoding="UTF-8"?>
<svg xmlns="http://www.w3.org/2000/svg" version="1.1" viewBox="0 0 150 150">
  <defs>
    <style>
      .cls-1 {
        fill: #58595b;
      }
    </style>
  </defs>
  <!-- Generator: Adobe Illustrator 28.7.1, SVG Export Plug-In . SVG Version: 1.2.0 Build 142)  -->
  <g>
    <g id="Layer_1">
      <path class="cls-1" d="M94.3,15.6c-.1,0-.2,0-.4-.1,0,0,0,0,0,0h0c-.2,0-.4,0-.6,0,0,0-.1,0-.2,0,0,0-.1,0-.2,0-.2,0-.4,0-.5,0,0,0,0,0,0,0,0,0,0,0,0,0-.1,0-.2,0-.3.1-6,1.9-4.7,8.7-4.7,13.8v69.3c-9-3.4-19.8-1.7-27.7,3.9-7.1,5.1-11.9,14.6-6.7,22.8,10.7,17.1,43.3,8.4,45.8-10.8,0-.3.1-.6.1-1V30.8c0-5.3,1.6-13.2-4.6-15.2ZM80.4,122c-3.1,1.1-12.5,3.8-13.9-.9-1.2-4,5.4-7.4,8.2-8.6,2.7-1.1,12.3-3.7,13.7,1,1.2,3.9-5,7.1-8,8.5Z"/>
    </g>
  </g>
</svg>