<?xml version="1.0" encoding="UTF-8"?>
<svg xmlns="http://www.w3.org/2000/svg" version="1.1" viewBox="0 0 150 150">
  <defs>
    <style>
      .cls-1 {
        fill: #58595b;
      }
    </style>
  </defs>
  <!-- Generator: Adobe Illustrator 28.7.1, SVG Export Plug-In . SVG Version: 1.2.0 Build 142)  -->
  <g>
    <g id="Layer_1">
      <path class="cls-1" d="M134.2,102c0-.3,0-.6-.1-1,.4,1.3,0-.3,0-.8,0-1.5,0-2.9,0-4.4v-62.6c0-7.6.2-17.2-10.3-16.3-18.6,1.7-37.2,4.6-55.8,6.9-5.4.7-14.3.2-17.6,5.2-2.2,3.4-1.4,8.4-1.4,12.3v58.9c-11.3-3.9-26.4.1-31.7,11.3-5.7,12,6,21,17.1,21.3,11.9.4,26.1-7.6,25.3-20.9-.1-1.9-.1.2-.1-1.7,0-1.4,0-2.8,0-4.2v-35.4c21.4-2.6,42.7-5.2,64.1-7.8v27.6c-8.7-3.1-19-1.3-26.2,4.5-6.5,5.3-9.7,14.5-3.9,21.6,11.5,14,42.7,4.7,40.7-14.5ZM62.7,52.3c1.7-.6,4-.5,5.8-.7,7.5-.9,14.9-1.8,22.4-2.8,7.5-.9,14.9-1.8,22.4-2.8,1.9-.2,3.8-.6,5.6-.7,3.2,0,4.3,1.6,4.6,4-21.3,2.6-42.6,5.2-64,7.8,0-2.1.6-4,3.2-4.9Z"/>
    </g>
  </g>
</svg>