<?xml version="1.0" encoding="UTF-8"?>
<svg xmlns="http://www.w3.org/2000/svg" version="1.1" viewBox="0 0 150 150">
  <defs>
    <style>
      .cls-1 {
        fill: #58595b;
      }
    </style>
  </defs>
  <!-- Generator: Adobe Illustrator 28.7.1, SVG Export Plug-In . SVG Version: 1.2.0 Build 142)  -->
  <g>
    <g id="Layer_1">
      <path class="cls-1" d="M113.2,54.9c4.9,0,8.9-4,8.9-8.9h0c0-4.9-4-8.9-8.9-8.9l-3.5.6v-18.8c0-2.6-2.1-4.7-4.7-4.7h-8.5c-2.6,0-4.7,2.1-4.7,4.7v22l-33.5,6v-14.3c0-2.6-2.1-4.7-4.7-4.7h-8.5c-2.6,0-4.7,2.1-4.7,4.7v17.5l-3.5.6c-4.9,0-8.9,4-8.9,8.9h0c0,4.9,4,8.9,8.9,8.9l3.5-.6v26.5l-3.5.6c-4.9,0-8.9,4-8.9,8.9h0c0,4.9,4,8.9,8.9,8.9l3.5-.6v18.8c0,2.6,2.1,4.7,4.7,4.7h8.5c2.6,0,4.7-2.1,4.7-4.7v-22l33.5-6v14.3c0,2.6,2.1,4.7,4.7,4.7h8.5c2.6,0,4.7-2.1,4.7-4.7v-17.5l3.5-.6c4.9,0,8.9-4,8.9-8.9h0c0-4.9-4-8.9-8.9-8.9l-3.5.6v-26.5l3.5-.6ZM91.8,85.2l-33.5,6v-26.5l33.5-6v26.5Z"/>
    </g>
  </g>
</svg>