<?xml version="1.0" encoding="UTF-8"?>
<svg xmlns="http://www.w3.org/2000/svg" version="1.1" viewBox="0 0 150 150">
  <defs>
    <style>
      .cls-1 {
        fill: #58595b;
      }
    </style>
  </defs>
  <!-- Generator: Adobe Illustrator 28.7.1, SVG Export Plug-In . SVG Version: 1.2.0 Build 142)  -->
  <g>
    <g id="Layer_1">
      <path class="cls-1" d="M90,89.4c-6.2-4.7-13-17.6-3.6-27.5,9.3-9.8,11.9-19.2,5.7-24.9-3.8-3.5-13.9-8.9-21.3-12.6-2-1-4.2,1.1-3.2,3.1,2.6,5.4,2.5,10.5,2.7,15.9.3,7.6-16.9,15.7-13.8,26.6,1,3.3,7.3,9.6,12,13.9,1.5,1.4.6,4-1.5,4.1-13,.5-16.9,8.6-16,17.3.9,8,12.9,16.2,19.8,20.2,1.8,1.1,4-.5,3.5-2.6-1-4.2-2.4-10.2-3.6-15.6-2.1-9.3,16.2-3.5,24.8-5.5,8.6-2.1.8-7.8-5.5-12.4Z"/>
    </g>
  </g>
</svg>