<?xml version="1.0" encoding="UTF-8"?>
<svg xmlns="http://www.w3.org/2000/svg" version="1.1" viewBox="0 0 150 150">
  <defs>
    <style>
      .cls-1 {
        fill: #58595b;
      }
    </style>
  </defs>
  <!-- Generator: Adobe Illustrator 28.7.1, SVG Export Plug-In . SVG Version: 1.2.0 Build 142)  -->
  <g>
    <g id="Layer_1">
      <path class="cls-1" d="M135.9,102.9c0-.3,0-.6-.1-1,.4,1.3,0-.3,0-.9,0-1.5,0-3,0-4.5V32.2c0-7.8.2-17.7-10.6-16.7-19.2,1.8-38.3,4.7-57.4,7.1-5.5.7-14.7.2-18.1,5.4-2.3,3.5-1.5,8.6-1.5,12.6v60.6c-12.2-4.2-29.1.5-33.4,13.5-4.8,14.6,12.4,21.7,24.1,19.7,6.8-1.2,13.7-4.7,17.6-10.5,1.6-2.4,2.7-5.1,2.8-8,0-1.1-.1-2.1-.3-3.2,0,0,0-.4,0-.6-.3-7.9,0-15.9,0-23.9v-29c0-3-.6-5.7,2.8-7.5,1.7-.9,5.2-.6,7.1-.9,10.3-1.3,20.6-2.5,30.8-3.8,6.8-.8,14-2.6,20.9-2.6,5.1,0,4.3,4.8,4.3,8.2v38.2c-8.9-3.2-19.5-1.3-26.9,4.7-6.7,5.4-10,14.9-4,22.2,11.8,14.3,43.9,4.8,41.8-14.9Z"/>
    </g>
  </g>
</svg>