<?xml version="1.0" encoding="UTF-8"?>
<svg xmlns="http://www.w3.org/2000/svg" version="1.1" viewBox="0 0 150 150">
  <defs>
    <style>
      .cls-1 {
        fill: #58595b;
      }
    </style>
  </defs>
  <!-- Generator: Adobe Illustrator 28.7.1, SVG Export Plug-In . SVG Version: 1.2.0 Build 142)  -->
  <g>
    <g id="Layer_1">
      <path class="cls-1" d="M115.4,48.6c-1.9-4.6-5.3-8.3-9-11.6-3.2-2.8-6.7-5.3-9.9-8.1-3.1-2.7-4.7-6.7-6.9-10.1-3.2-4.8-10.7-3.1-11.3,2.7-.7,6.1,0,12.6,0,18.7v53.3c-10.8-5.4-24.9-3.4-34.6,3.4-8.4,6-14.1,17.1-7.9,26.7,12.6,19.6,54.1,9.1,53.3-15,0-.2,0-.4,0-.6v-33.9c0-5.8,6.8-9.1,11.2-5.4,0,0,0,0,.1,0,2.9,2.5,4.1,6.4,4.5,10.1.2,2.5-.8,7.4,2.5,8.6.9.3,2,0,2.9-.4,1.1-.5,2.1-1.9,2.7-3.5.7-1.5,1.1-3.1,1.3-4.2.8-4.7-.7-9.5-3.3-13.5.5,0,1-.3,1.4-.5,1.1-.5,2.1-1.9,2.7-3.5.7-1.5,1.1-3.1,1.3-4.2.5-3.1,0-6.4-1.1-9.3ZM104.1,58.9c-1.8-1.3-3.6-2.5-5.5-3.6-1.9-1.1-3.9-2.1-5.6-3.5,0,0,0,0,0,0-1.8-1.4-1.6-4.3.4-5.5,2.7-1.6,6.3-1.6,9.3,1,2.9,2.5,4.1,6.4,4.5,10.1.1,1.1,0,2.6,0,4-1-.9-2-1.8-3-2.6Z"/>
    </g>
  </g>
</svg>