<?xml version="1.0" encoding="UTF-8"?>
<svg xmlns="http://www.w3.org/2000/svg" version="1.1" viewBox="0 0 150 150">
  <defs>
    <style>
      .cls-1 {
        fill: #58595b;
      }
    </style>
  </defs>
  <!-- Generator: Adobe Illustrator 28.7.1, SVG Export Plug-In . SVG Version: 1.2.0 Build 142)  -->
  <g>
    <g id="Layer_1">
      <g>
        <path class="cls-1" d="M58.5,16.3c-17.3,1.3-31.2,15.4-34.4,32.2-1.4,7.5-.3,15.8,6,20.8,5.7,4.5,14,4.4,19.7-.1,10.8-8.7,5.5-25-6.6-27.8,3.6-8.4,12-13.7,21.7-11.1,11,2.9,15.6,14.1,16.3,24.6,1.3,20-7.7,39.8-21,54.4-2.6,2.8-5.3,5.4-8.1,8-2.6,2.4-7.2,4.9-8.3,8.4-1.6,5.1,3.2,9,8,8,8.1-1.8,16.8-7.6,23.3-12.5,6.7-5,12.6-11,17.2-18.1,10.7-16.7,12.9-37.9,7.2-56.7-6.1-17.8-21-31.5-40.8-30.1Z"/>
        <path class="cls-1" d="M115.4,65.1c5.9,0,10.8-4.8,11-10.7.3-6-4.3-10.6-10-11.4-.3,0-.7-.1-1-.1-.4,0-.7,0-1,.1-5.5.7-10,5.1-10,11s5.1,11,11.1,11.1Z"/>
        <path class="cls-1" d="M116.4,69.4c-.3,0-.7-.1-1-.1-.4,0-.7,0-1,.1-5.5.7-10,5.1-10,11s5.1,11,11.1,11.1c5.9,0,10.8-4.8,11-10.7.3-6-4.3-10.6-10-11.4Z"/>
      </g>
    </g>
  </g>
</svg>