<?xml version="1.0" encoding="UTF-8"?>
<svg id="Group_ICONS" xmlns="http://www.w3.org/2000/svg" xmlns:xlink="http://www.w3.org/1999/xlink" viewBox="0 0 1543.62 377.24">
  <defs>
    <clipPath id="clippath">
      <path d="M250.16,179.86c0,19.21.49,48.1,1.46,86.67s1.46,67.47,1.46,86.67c0,3.26-.73,5.29-2.2,6.1-.33.16-2.44.49-6.35.98-10.58,1.3-24.74,1.95-42.48,1.95-23.77,0-38.9-.65-45.41-1.95-4.72-.98-7.08-3.5-7.08-7.57,0,2.61.73-11.72,2.2-42.97,2.93-65.92,4.39-109.21,4.39-129.88,0-17.41-.57-43.54-1.71-78.37-1.14-34.83-1.71-60.95-1.71-78.37,0-3.58,1.87-5.37,5.62-5.37,5.04,0,12.65.24,22.83.73,10.17.49,17.78.73,22.83.73s12.49-.24,22.34-.73c9.85-.49,17.29-.73,22.34-.73,4.72,0,7.08,1.79,7.08,5.37,0,17.42-.94,43.54-2.81,78.37-1.87,34.83-2.81,60.96-2.81,78.37ZM585.12,305.11c0,2.61-1.71,6.02-5.13,10.25-29.95,35.64-69.74,53.47-119.38,53.47s-91.96-17.33-123.54-52c-30.76-33.53-46.14-75.84-46.14-126.95s15.05-91.47,45.17-125.98c31.41-36.13,71.37-54.2,119.87-54.2,52.73,0,94.07,16.2,124.02,48.58,3.25,3.58,4.88,6.76,4.88,9.52,0,3.09-5.66,14.57-16.97,34.42-11.31,19.86-18.43,31.01-21.36,33.45-1.3,1.3-2.93,1.95-4.88,1.95-.82,0-4.88-3.25-12.21-9.77-8.79-7.81-17.42-13.92-25.88-18.31-12.86-6.51-26.21-9.77-40.04-9.77-23.93,0-43.05,8.95-57.37,26.86-13.18,16.6-19.78,37.11-19.78,61.52s6.59,45.49,19.78,62.26c14.32,18.23,33.45,27.34,57.37,27.34,14.16,0,27.59-3.09,40.28-9.28,8.3-4.07,16.76-9.77,25.39-17.09,7.16-6.18,11.15-9.28,11.96-9.28,1.62,0,3.25.9,4.88,2.69,2.6,2.93,9.68,13.1,21.24,30.52,11.88,18.07,17.82,28,17.82,29.79ZM950.6,189.38c0,50.78-16.2,93.35-48.58,127.69-33.04,34.83-74.87,52.25-125.49,52.25s-92.04-17.58-125.24-52.73c-32.55-34.34-48.83-76.74-48.83-127.2s16.27-93.18,48.83-127.69c33.2-35.32,74.95-52.98,125.24-52.98s91.63,17.66,125,52.98c32.71,34.83,49.07,77.39,49.07,127.69ZM858.07,188.9c0-24.41-7.41-45.17-22.22-62.26-15.46-17.9-35.24-26.86-59.33-26.86s-42.4,9.28-58.35,27.83c-15.46,17.91-23.19,38.49-23.19,61.77,0,24.9,7.24,45.65,21.73,62.26,15.3,17.42,35.24,26.12,59.81,26.12,22.95,0,42.48-9.19,58.59-27.59,15.3-17.58,22.95-38,22.95-61.28ZM1313.64,25.32c0,18.55-.77,46.43-2.32,83.62-1.55,37.19-2.32,65.15-2.32,83.86v160.89c0,4.39-2.36,6.59-7.08,6.59-3.91,0-9.81.16-17.7.49-7.9.32-13.79.49-17.7.49-4.23,0-10.58-.33-19.04-.98-8.46-.65-14.81-.98-19.04-.98-2.93,0-6.43-2.69-10.5-8.06-11.72-15.79-38.09-50.78-79.1-104.98-11.23-15.14-28.32-37.43-51.27-66.89-.65-.98-1.87-1.95-3.66-2.93-1.3,1.14-1.95,2.93-1.95,5.37,0,18.88.53,47.2,1.59,84.96,1.06,37.76,1.59,66.08,1.59,84.96,0,5.7-2.2,8.54-6.59,8.54h-84.47c-4.72,0-7.08-2.52-7.08-7.57,0-17.58.85-44.11,2.56-79.59,1.71-35.48,2.56-62.09,2.56-79.83,0-18.71-.77-46.71-2.32-83.98-1.55-37.27-2.32-65.19-2.32-83.74,0-3.58,3.17-5.37,9.52-5.37,9.44,0,21.08-.65,34.91-1.95,3.25-.32,9.68-1.38,19.29-3.17,8.14-1.46,14.56-2.2,19.29-2.2,1.95,0,4.96,2.77,9.03,8.3l91.06,124.76c8.14,11.23,20.42,27.67,36.87,49.32,4.07,5.05,7.57,7.57,10.5,7.57,2.11,0,3.17-6.35,3.17-19.04,0-17.09-.94-42.8-2.81-77.15-1.87-34.34-2.81-60.14-2.81-77.39,0-6.02,1.71-9.03,5.13-9.03,9.77,0,24.49-.4,44.19-1.22,19.69-.81,34.42-1.22,44.19-1.22,3.09,0,4.64,2.53,4.64,7.57ZM1525.55,247.98c0,33.04-13.92,61.36-41.75,84.96-24.41,20.84-54.12,34.1-89.11,39.79-1.3.16-2.36.24-3.17.24-3.75,0-12.05-11.44-24.9-34.3-12.86-22.87-19.29-36.82-19.29-41.87,0-1.79,1.22-2.93,3.66-3.42,23.6-5.37,39.22-9.93,46.88-13.67,16.93-8.46,25.39-21,25.39-37.6,0-10.58-5.54-22.38-16.6-35.4-19.21-22.13-29.62-34.42-31.25-36.87-11.23-16.93-16.85-35.64-16.85-56.15,0-29.79,13.75-54.52,41.26-74.22,22.46-16.27,50.05-26.86,82.76-31.74,1.79-.16,3.17-.24,4.15-.24,2.44,0,4.39,1.95,5.86,5.86,4.23,11.88,14.08,33.37,29.54,64.45.49.98.73,1.79.73,2.44,0,2.77-1.46,4.15-4.39,4.15-1.3,0-3.5-.24-6.59-.73-3.09-.49-5.46-.73-7.08-.73-11.72,0-21.97,2.69-30.76,8.06-10.58,6.19-15.87,14.81-15.87,25.88,0,9.93,5.86,22.14,17.58,36.62,20.67,26.04,31.49,39.71,32.47,41.02,11.55,17.91,17.33,35.73,17.33,53.47Z" fill="none"/>
    </clipPath>
    <linearGradient id="linear-gradient" x1="897.71" y1="390.67" x2="897.71" y2="5.83" gradientUnits="userSpaceOnUse">
      <stop offset="0" stop-color="#00a2ff"/>
      <stop offset=".29" stop-color="#00a0fc"/>
      <stop offset=".43" stop-color="#009bf5"/>
      <stop offset=".53" stop-color="#0093e8"/>
      <stop offset=".62" stop-color="#0087d5"/>
      <stop offset=".7" stop-color="#0078bd"/>
      <stop offset=".77" stop-color="#0065a0"/>
      <stop offset=".84" stop-color="#004f7d"/>
      <stop offset=".9" stop-color="#003554"/>
      <stop offset=".96" stop-color="#001927"/>
      <stop offset="1" stop-color="#000"/>
    </linearGradient>
  </defs>
  <g clip-path="url(#clippath)">
    <g id="Slider_ICONS">
      <rect x="72.09" y="5.83" width="1651.25" height="384.84" fill="url(#linear-gradient)"/>
    </g>
  </g>
</svg>