<?xml version="1.0" encoding="UTF-8"?>
<svg xmlns="http://www.w3.org/2000/svg" width="512" height="512" version="1.1" viewBox="0 0 512 512">
  <!-- Generator: Adobe Illustrator 29.8.4, SVG Export Plug-In . SVG Version: 2.1.1 Build 6)  -->
  <g id="Layer_2">
    <circle cx="-888" cy="255.28" r="256" fill="#c1272d"/>
    <circle cx="-316" cy="256" r="256" fill="#006837"/>
    <circle cx="256" cy="256" r="256" fill="#6183bc"/>
    <g>
      <path d="M109.27,348.12l-6.38-3.37c-5.5-3.96-7.74-6.41-11.65-12.11-7.84-11.43.48-28.52-3.73-37.18-4.26-8.77-4.69-13.64-2.49-24.85,1.12-5.69,7.64-9.56,9.63-15.62,2.38-7.25.2-16.78,3.8-24.63,7.16-15.6,22.63-29.73,32.69-41.92,8.19-9.92,9.69-18.25,19.41-25.02,13.99-9.74,21.42-10.17,29.45-15.7,11.28-7.76,22.51-20.78,38.86-14.04,24.66,10.16,13.91,26.24,15.82,37.54,3.76,22.18-3.46,18.62,0,29.13,3.45,10.48,3.9,15.94-7.17,33.85-7.2,11.65-8.26,23.31-12.94,31.82-7.17,13.04-13.89,14.31-16.47,18.08-7.66,11.18-6.36,19.7-15.91,32.27-7.21,9.49-17.12,14.68-25.38,19.65-9.34,5.63-14.26,8.39-23.63,9.99-8.65,1.47-11.21,8.23-23.93,2.11Z" fill="#fea303"/>
      <path d="M198.19,188.2h-.14c-1.96.16-4.28,1.75-6.94,4.79-7.86,12.86-12.96,19.99-15.3,21.41l-18.38,8.68c-1.62,1.15-4.3,4.39-8.03,9.72-.61.75-1.75,1.66-3.42,2.72-1.05.74-5.43,1.03-13.14.88-2.27.57-4.29,1.92-6.06,4.06-.59.68-1.14,1.43-1.64,2.23l-5.44,10.36c-6.07,7.43-9.63,12.61-10.7,15.54l-11.09,32.91c-.34,2.31-.18,3.47.47,3.5.06,0,.13,0,.21-.03l8.88-5.63c.4-.08.75-.11,1.08-.1,1.02.03,1.65.52,1.9,1.47.5,1.13.54,2.93.11,5.41-2.59,9.65-3.98,15.44-4.15,17.37-.42,3.17.12,5.35,1.62,6.52.1.07.24.1.41.11,1.52.05,5.8-2.24,12.84-6.88.88-.33,1.72-.48,2.49-.46.37.01.72.06,1.07.16.76.08,1.52.78,2.25,2.1.97,7.14,2.03,11.19,3.2,12.18,7.65-1.27,13.32-1.84,17.01-1.71,1.72.06,3.02.27,3.87.64.78.21,1.85.67,3.19,1.38.79-.47,1.62-.97,2.48-1.49,8.25-4.97,18.17-10.16,25.38-19.65,9.55-12.57,8.25-21.09,15.91-32.27,2.58-3.76,9.3-5.04,16.47-18.08,4.68-8.51,5.74-20.17,12.94-31.82,8.07-13.05,10.02-19.49,9.14-26.09-.67.59-1.39,1.16-2.15,1.73-.6.48-2.92.65-6.96.51-2.04-.07-4.51-.22-7.43-.45-10.07,2.96-15.83,4.41-17.27,4.36-.14,0-.24-.02-.29-.06-.23,0-.44,0-.66,0-3.63-.12-5.73-1.37-6.3-3.74-.21-.84-.11-2.22.3-4.14,2.78-8.49,4.18-13.3,4.21-14.42.13-2.23-.51-3.46-1.94-3.69Z" fill="#e88a00"/>
      <path d="M246.31,189.28l-.21,1.01-.21,1.02c.03-.15.07-.29.1-.44l.05-.22c.03-.15.06-.3.09-.45.06-.3.12-.6.18-.91Z" fill="#e47800"/>
      <path d="M203.67,140.52c7.88.71,10.6,4.62,8.16,11.72-.35,1.32-1.51,3.06-3.45,5.23-9.89,9.2-14.69,14.11-14.41,14.74l-6.24,17.41c-1.47,3.18-3.76,6.71-6.86,10.58-2.48,2.88-4.91,4.8-7.3,5.76-10.58,1.09-16.1,2.29-16.55,3.6-1.51.34-4.74,5.11-9.69,14.31-1.13,1.54-2.54,2.79-4.25,3.74-.9,1.42-4.82.9-11.78-1.58-1.78.09-3.7.96-5.78,2.6-2.34,1.95-4.58,4.53-6.73,7.74-8.96,16.22-14.17,24.98-15.61,26.26-3.18,4.38-5.16,5.41-5.92,3.11-.44-1.61.16-5.56,1.81-11.87,5.71-21.68,9.11-32.57,10.2-32.68,1.13-2.08,2.8-4.16,5.01-6.22,9.95-7.37,15.98-12.56,18.09-15.55,1.47-1.8,2.63-3.43,3.48-4.87,4.68-9.74,7.72-15.17,9.12-16.31,1.58-1.82,3.31-3.03,5.19-3.63,13.35-2.41,20.01-4.03,19.97-4.89,1.6-.21,5.35-4.37,11.26-12.49,1.71-1.47,3.28-2.02,4.72-1.64,1.81.35,1.9,2.5.24,6.45-9.72,12.67-14.65,20.1-14.81,22.3-1.59,4.32-.74,5.7,2.54,4.14,2.81-1.97,5.91-6.05,9.31-12.24,2.12-3.68,5.39-11.66,9.83-23.95.73-1.72,1.65-3.44,2.75-5.18,2.08-3.56,4.77-5.3,8.08-5.22l-.39-1.38Z" fill="#ffb200"/>
      <path d="M221.88,149.54c-.26,1.32-.81,2.7-1.67,4.13l-8.02,12.17c-1.23,2.03-2.1,3.81-2.61,5.35-.39,1.04-.57,2.18-.54,3.42-.06.61.16,2.12.64,4.53.06.47.04.95-.03,1.44-.11.82-.3,1.69-.56,2.61-1.97,6.22-2.97,9.63-3.01,10.21-.46,2.25-.59,4.06-.4,5.43.15,2.25,1.45,3.63,3.91,4.14.31.47,3.55-.16,9.72-1.88.84-.29,2.91.34,6.22,1.89.78.14,1.62-.29,2.51-1.3,1.56-1.84,2.16-4.35,1.79-7.51.01-1.48-1.48-4.96-4.49-10.44-.38-1-.52-2.07-.41-3.22.07-1.19.43-2.7,1.06-4.5l5.17-13.23c.6-2.07.79-4.06.59-5.96-1.37-7.07-4.26-9.96-8.66-8.69l-1.22,1.42Z" fill="#ffb200"/>
      <path d="M204.12,137.61c-2.94.37-5.37,1.63-7.31,3.78-.97.96-2.21,4.03-3.71,9.19-.45.94-1.1,1.77-1.97,2.49-.75.64-1.35.71-1.81.23-.25-.09-.29-1.14-.13-3.14-.03-.26-.16-.45-.38-.58-.55-.26-1.37-.1-2.47.49-.96.51-2.06,1.41-3.31,2.69l-7,8.2c-2.17,1.9-4.19,3.21-6.06,3.92-.7.26-1.38.43-2.04.52-3.76-.06-6.18.12-7.25.55-.61-.03-3.12,1.32-7.52,4.07-1.31.63-2.33.92-3.06.86-1.7-1.5-.18-4.11,4.55-7.8.78-.62,2.26-1.45,4.43-2.48,8.9-3.29,14.9-5.86,17.99-7.72,1.04-.41,3.5-2.53,7.39-6.37l4.58-2.81c5.69-5.02,8.87-7.52,9.55-7.51,4.56-1.97,8.25-2.19,11.06-.68l-5.53,2.11Z" fill="#fbd599"/>
      <path d="M137.82,186.44c-3.61,7.51-7.01,13.53-10.21,18.04-1.33,2.17-5.46,6.41-12.4,12.73-1.86,2.11-3.22,4.05-4.07,5.82-1.08,1.97-2.16,4.79-3.24,8.48-3.51,14.85-5.67,23.2-6.47,25.05-1.6,4.52-3.36,7.87-5.29,10.05-3.12,2.81-4.67,3.22-4.66,1.25,4.76-9.59,7.32-15.2,7.69-16.82.89-2.83,1.43-4.87,1.64-6.12.98-7.84,1.86-12.99,2.65-15.46,1.23-4.44,2.79-8.32,4.68-11.63.84-2.35,5.46-6.74,13.85-13.19,6.32-8.13,9.99-12.65,11-13.55,1.65-1.69,2.83-2.53,3.53-2.5l1.31-2.13Z" fill="#fbd599"/>
      <path d="M212.57,145.97c-1.36,4.54-3.31,8.4-5.85,11.56-1.14,1.82-4.85,5.18-11.14,10.08-.88.85-1.72,1.85-2.5,3l-9.45,20.92c-1.78,3.26-3.7,5.82-5.77,7.7-1.63,1.53-3.3,2.55-5,3.06-8.25.56-13.09,1.57-14.52,3.02-1.34.9-2.49,2.04-3.45,3.41-4.05,6.79-6.48,10.41-7.27,10.84-2.93,2.95-5.33,4.32-7.2,4.1-2.12-.67-2.72-2.3-1.78-4.9-.08-1.02,2.73-6.41,8.43-16.18,1-2.15,1.62-3.98,1.87-5.5.38-3.6-.76-4.89-3.45-3.87-1.26.67-2.37,2.03-3.35,4.1-2.56,8.76-4.36,13.66-5.4,14.7-6.05,4.65-11.95,11.08-17.7,19.31-2.78,4.11-4.34,7.35-4.68,9.72-.52,2.83.19,3.85,2.14,3.08,5.49-5.4,9.08-8.48,10.77-9.24.49-.67,4.48-1.91,11.97-3.72,1.41-.53,2.86-1.33,4.35-2.39,2.95-1.78,7.85-7.08,14.73-15.9,9.53-3.7,16.51-7.74,20.93-12.12,2.84-2.6,5.08-5.41,6.69-8.44,5.37-12.79,8.47-19.32,9.29-19.6.23-1.12,4.9-5.5,14-13.12,1.69-1.69,3.01-3.29,3.94-4.8,2.45-4.27,3.12-8.53,2-12.75l-2.62,3.91Z" fill="#fbd599"/>
      <path d="M225.68,150.34c2.64,1.77,3.64,5.21,3.02,10.32-.22,1.31-.74,2.79-1.55,4.43-3.42,5.87-5.16,9-5.22,9.4-.79,1.72-1.21,3.09-1.27,4.12-.07.75.13,1.66.62,2.71l4.67,6.03c.81,1.29,1.32,2.71,1.54,4.26.12,1.29-.04,2.38-.47,3.24-.05.33-.97,1.87-2.77,4.62-.44.81-.72,1.43-.84,1.85-.42,1.36-.37,2.21.13,2.53,2.42.76,4.59-1.88,6.5-7.95.39-1.64.51-3.26.34-4.86-.08-1.42-.69-4.23-1.82-8.43-.17-.92-.21-1.79-.1-2.62.06-.68.24-1.45.54-2.32,1.57-3.51,2.85-6.87,3.81-10.09.65-2.54.95-4.9.93-7.07,0-4.2-.9-7.32-2.72-9.37-2.47-2.62-4.89-3.28-7.28-1.99l1.94,1.22Z" fill="#fbd599"/>
      <path d="M188.06,156.57c-.57,2.97-1.31,5.33-2.23,7.07-.46.79-.89,1.42-1.28,1.88-3.85,3.92-6.12,6.54-6.81,7.86-.77.78-2.21,3.96-4.33,9.53-.58,1.16-1.16,2.1-1.74,2.8-.91,1.12-1.77,2-2.58,2.67-.15.3-1.7,1.2-4.63,2.69l-6.56,5.78c-1.32.95-2.25,1.38-2.79,1.29-1.05-.21-1.52-1.14-1.4-2.81.22-2.06.85-3.73,1.88-5,.51-.66,1.13-1.24,1.85-1.76,4.77-2.72,7.71-4.68,8.8-5.89.47-.51.92-1.11,1.35-1.8,1.49-2.9,2.71-4.99,3.63-6.27.45-.62.92-1.17,1.4-1.66,2.22-1.9,3.6-3.25,4.12-4.05l4.93-6.54c1.94-3.59,2.97-5.36,3.08-5.3.95-1.21,1.91-1.38,2.87-.53l.43.03Z" fill="#fbd599"/>
      <path d="M88.85,285.81c-1.01,7.4-.05,12.92,2.86,16.55,2.64,2.31,5.72,1.01,9.25-3.91,1.13-1.79,2.08-4.32,2.87-7.59.07.39,1.04-4.61,2.92-15,.52-2.4,1.08-4.33,1.67-5.79.52-1.33,1.13-2.42,1.82-3.28,4.67-5.01,7.28-8.16,7.81-9.43,1.71-3.18,2.23-5.41,1.57-6.67-.55-.97-1.95-.44-4.2,1.59-2.55,2.25-4.68,4.9-6.4,7.93-1.11,1.86-2.42,4.97-3.94,9.34l-4.85,15.96c-1.09,2.85-2.41,5.18-3.95,6.98-1.59,1.6-3.03,1.77-4.34.51-.27-.49-.42-1.13-.45-1.93.15-3.4.17-5.31.05-5.71-.16-1.13-.46-1.95-.9-2.48l-1.79,2.95Z" fill="#fbd599"/>
      <path d="M197.99,139.36c-.72.19-1.69,1.04-2.9,2.53-.21.07-1.08,1.67-2.59,4.8-.39.64-.78,1.13-1.17,1.46-.38.31-.69.39-.93.25-.1.09-.37-.31-.8-1.19-.11-.13-.27-.22-.47-.25-.49-.05-1.04.11-1.65.5-1.55.94-4.6,3.76-9.15,8.45-1.73,1.48-3.15,2.51-4.28,3.09-1.67.92-3.35,1.36-5.04,1.3-1-.23-.79-.95.64-2.16.41-.31.96-.67,1.63-1.07,4.06-2.13,6.19-3.32,6.39-3.59,2.15-1.34,4.94-3.65,8.38-6.92,3.53-1.97,5.42-3.09,5.66-3.38.59-.28,2.04-1.85,4.34-4.7.43-.45,1-.91,1.71-1.38,2.38-1.43,4.47-1.78,6.26-1.05l-6.03,3.31Z" fill="#fff3df"/>
      <path d="M184.54,160.2c.5-.07.73.22.69.86-.08.68-.4,1.43-.98,2.24-.8,1.05-1.39,1.76-1.76,2.15-2.13,1.91-3.83,3.71-5.11,5.41l-1.67,2.22c-1.37,2.61-2.21,4.04-2.53,4.3-.73.85-1.25,1.22-1.55,1.1-.72-.42-.61-1.39.33-2.91l5.19-6.12c.09,0,1.38-1.89,3.88-5.65,1.92-2.44,2.92-3.67,2.98-3.68l.52.08Z" fill="#fff3df"/>
      <path d="M163.97,186.68c-3.3,1.6-5.61,3.23-6.91,4.88-.87,1.41.51,1.06,4.13-1.02,1.73-.96,3.05-1.93,3.97-2.9,1.08-1.14,1.44-1.9,1.07-2.27l-2.27,1.31Z" fill="#fff3df"/>
      <path d="M144.78,195.37c-.93,1.16-1.84,3.06-2.74,5.69-.72,2.33-.82,3.5-.3,3.54.85-.2,1.95-1.67,3.29-4.43.76-1.61,1.21-2.66,1.32-3.16.15-.69.11-1.25-.14-1.67l-1.43.02Z" fill="#fff3df"/>
      <path d="M136.02,216.31c-2.45,1.92-3.67,4.19-3.66,6.83.13.66.43,1.13.89,1.39.07.19,1.37.53,3.89,1.04.37.14.48.34.32.6-.23.27-.7.55-1.41.82-4.58,1.24-7.25,2.18-8.02,2.85-.7.44-1.31.91-1.83,1.42-2.44,2.68-3.84,4.13-4.2,4.36-1.21,1.04-2.14,1.66-2.8,1.87-1.09.26-1.47-.15-1.13-1.24.5-1.37,1.63-3.29,3.37-5.76l7.95-10.1c1.39-1.47,2.86-2.58,4.43-3.31l2.2-.76Z" fill="#fff3df"/>
      <path d="M213.21,147.23c-.79,2.2-1.79,4.35-3,6.44-.21.48-1.22,1.76-3.05,3.84-.29.38-.48.7-.56.95,0,.4.25.46.74.2.78-.4,1.54-.96,2.28-1.68,1.33-1.26,2.44-2.74,3.33-4.43,1.09-2.05,1.63-3.54,1.61-4.47.09-1.85-.23-2.52-.97-2.01l-.4,1.15Z" fill="#fff3df"/>
      <path d="M118.54,209.21c-4.06,2.18-7.1,4.9-9.14,8.16-1.01,1.62-1.89,3.65-2.64,6.11-.51,1.62-.9,3.15-1.15,4.58-.32,1.64-.36,2.29-.11,1.96l3.33-7.37c.81-1.52,1.9-3.27,3.26-5.25.79-1.04,1.62-1.95,2.51-2.72,4.91-3.79,7.45-5.9,7.62-6.34,1.43-1.53,2.67-3.61,3.71-6.24l-7.38,7.1Z" fill="#fff3df"/>
      <path d="M109.31,262.85c1.48-3.3,3.29-5.91,5.45-7.84,1.06-.86,1.76-1.14,2.1-.83.4.49.26,1.34-.42,2.53-.45.78-1.12,1.65-2.03,2.6-.17.28-2.08,2.07-5.72,5.38-.79.78-1.34,1.49-1.67,2.13l2.29-3.97Z" fill="#fff3df"/>
      <path d="M191.2,163.75c.25-.35.57-.93.98-1.72,1.74-4.14,3.27-7.34,4.58-9.6,1.23-2.13,2.4-3.55,3.52-4.28,1.85-1.29,3.38-1.41,4.59-.35.95,1.2,1.03,3,.25,5.41-.55,1.69-1.6,3.44-3.15,5.23-.48.74-2.76,2.75-6.83,6.06-.77.73-1.45,1.51-2.05,2.33-.74.99-1.32,1.93-1.75,2.83-1.79,4.28-2.81,6.57-3.06,6.86-.61,1.04-1.27,1.73-1.98,2.06l4.9-14.83Z" fill="#fea303"/>
      <path d="M143.08,187.93c1.99-4.31,5.76-7.95,11.29-10.92,3.38-1.48,5.86-2.17,7.46-2.05,1.8.37,2.33,1.36,1.6,2.97-.29.58-.72,1.14-1.3,1.69-2.73,2.15-4.36,3.58-4.9,4.29-.43.36-1.43,2.04-3.02,5.03-.64.88-1.19,1.47-1.66,1.75-.51.33-.95.39-1.31.17l-1.48-1.93c-.37-.32-.77-.48-1.2-.5-1.31.02-2.61.57-3.88,1.64-.67.55-1.47,1.52-2.41,2.89-3.28,5.54-5.02,8.35-5.21,8.43-.92,1.23-1.54,1.78-1.88,1.63l7.91-15.07Z" fill="#fea303"/>
      <path d="M109.43,234.19c2.23-5.74,5.77-11.69,10.64-17.84,1.64-1.95,3.07-3.14,4.28-3.55,1.38-.42,2.05.08,2,1.48-.1,1.12-.73,2.61-1.9,4.47-3.67,5.3-6.74,9.54-9.2,12.73-.69.98-1.44,2.21-2.27,3.67-.82,1.15-2.48,5.13-5,11.93l1.46-12.89Z" fill="#fea303"/>
      <path d="M219.3,164.34c-2.02,1.68-3.84,4.45-5.46,8.29-.41,1.22-.68,2.48-.79,3.77-.09.55.02,1.93.32,4.15.03.43.01.83-.06,1.2-.07.38-.23.92-.49,1.65-1.05,2.44-1.64,3.93-1.78,4.46-.28.82-.48,1.72-.6,2.71-.24,1.89.16,3.3,1.2,4.23,1.19.98,2.45,1.12,3.79.44,1.18-.82,1.8-2.13,1.84-3.93.04-.53,0-1.34-.12-2.43-.72-4.36-1.05-6.56-.99-6.59-.08-.86-.05-1.76.09-2.73.14-.77.34-1.41.58-1.92l3.13-5.21c.41-.76.79-1.71,1.13-2.88.6-1.94.56-4.03-.12-6.28l-1.68,1.08Z" fill="#fea303"/>
      <path d="M113.85,281.6l1.36-9.66c2.47-8.9,4.52-12.95,9.83-20.69,10.54-15.38,33.79-12.8,41.98-21.84,8.19-9.05,13.37-11.64,26.13-13.6,6.33-.97,12.39,5.25,19.14,5.13,7.91-.14,16.59-6.44,25.07-5.34,16.26,2.11,32.37,13.64,44.84,19.64,9.76,4.7,16.68,3.1,23.76,10.31,9.81,10,11.38,16.93,16.73,22.39,7.3,7.45,17.94,12.62,15.67,29.59-3.38,25.17-16.03,22.67-23.73,29.1-15.53,12.98-14.18,5.07-21.43,12.82-7.35,7.84-11.48,10.78-28.03,9.37-11.26-.96-21.46,3.82-30.06,3.7-13.63-.19-16.64-6.07-20.87-6.66-12.9-1.8-20.84,4.02-36.59,1.04-12.39-2.34-21.53-10.08-30.1-16.36-10-7.33-15.17-11.4-20.88-21.35-5.41-9.41-14.75-8.81-12.81-27.58Z" fill="#fea303"/>
      <path d="M239.12,220.28h0c5.7,2.68,10.57,8.24,10.51,12.43-.12,8-9.5,15.69-4.27,21.65,13.26,15.16,14.46,18.37,14.46,18.37.12,3.97-7.43,6.09-5.33,10.73.96,2.14-.35,5.06-4.21,8.49-1.8,1.6-4.8,2.26-8.76,2.26l-24.94-6.44c-.57-.06-1.13-.11-1.68-.13-3.98-.21-7.26.34-9.7,1.87-6.01,3.79-8.36,6.63-7.2,8.32l17.64,4.96c2.65,1,4,2.85,3.94,5.56-.04,2.11-2.35,4.6-7.12,6.92-2.94,1.43-6.96,2-11.79,2.28l-40.04-4.33c-2.77-1.01-8.05-5.79-16.34-13.81-1.43-1.39-3.07-1.96-4.45-2.26l-16.63,2.09-6.72-1.69h0c2.82,4.21,7.12,6.33,10.17,11.63,5.72,9.96,10.89,14.02,20.88,21.35,8.56,6.28,17.7,14.02,30.1,16.36,2.33.44,4.49.69,6.52.8,10.54.56,17.6-2.64,26.94-2.14,1.01.05,2.05.15,3.13.3,4.04.57,6.97,5.95,19.11,6.6.57.03,1.15.05,1.76.06,8.31.12,18.13-4.35,28.95-3.77.37.02.73.04,1.1.08,1.17.1,2.28.18,3.34.23,13.81.74,17.87-2.32,24.69-9.61,7.25-7.74,5.89.16,21.43-12.82,7.7-6.43,20.36-3.93,23.73-29.1,2.27-16.97-8.37-22.14-15.67-29.59-5.35-5.46-6.92-12.39-16.73-22.39-7.07-7.21-14-5.61-23.76-10.31-12.47-6-28.1-17.19-44.36-19.3-1.62-.21-3.14-.15-5.33-.16l6.61,4.51Z" fill="#ffb200"/>
      <path d="M263,227.06c-5.87-4.06-25.1-10.08-17.45-4.71,14.4,10.12,2.86,20.84,3.33,26.95.47,6.11,11.83,18.02,13.52,20.06,2.54,3.06,2.2,5.74,1.95,8.71-.42,5.01.23,9.72,13.81,20.58,10.93,8.74,13.66,15.17,12.83,19.45-1.59,8.23-12.2,11.71-10.2,17.52,2,5.81,10.32-5.69,17.55-6.91,3.61-.61,8.63,2.42,13.66-1.83,4.05-3.43,1.42-5.79,1.68-10.03.35-5.72-.47-11.39-3.6-17.14l-47.09-72.65Z" fill="#f49100"/>
      <path d="M259.04,342.5c-3.48.38-5.73-.1-6.78-1.43-.48-.68-.57-1.45-.3-2.31.11-.56.93-1.89,2.44-4,.22-.39.3-.74.26-1.05-.4-1.13-1.62-1.82-3.64-2.06-1.63-.14-3.29-.11-4.98.11-.87.03-4.53.83-10.97,2.41-2.12.39-4.24.6-6.37.62-1.65.04-3.99-.14-7.02-.52l-12.17-2.28c-1.51-.19-2.9-.24-4.16-.15-4.26.81-5.39,1.93-3.4,3.34.56.33,1.43.65,2.61.98,8.31,1.81,13.58,3.18,15.82,4.1.79.3,1.2.62,1.22.97-.74,1.45-.99,2.17-.73,2.19.21.47.66.9,1.37,1.28,3.59,1.94,7.76,3.33,12.52,4.16,2.55.73,8.4.58,17.56-.42,3.47-.22,7.19-1.38,11.16-3.48l-4.44-2.47Z" fill="#f49100"/>
      <path d="M195.67,331.16c-4.26-1.8-7.32-3.4-9.17-4.82-1.03-.53-1.97-2.34-2.82-5.44-.27-.4-.81-.76-1.61-1.08-.52-.25-1.81-.6-3.9-1.05l-14.42-2.89-9.06-2.45c-1.67-.26-2.19.16-1.57,1.26.37.83,2.39,2.17,6.08,4.02,2.13,1.08,5.62,2.38,10.44,3.88,1.23.49,2.22.94,2.96,1.33.77.29,3.7,2.31,8.79,6.06,1.13.73,2.27,1.34,3.41,1.82,3.72,1.74,7.88,2.38,12.48,1.92l-1.61-2.57Z" fill="#f49100"/>
      <path d="M156.1,330.88c-4.99-6.01-7.98-9.31-8.95-9.89-6.73-4.63-10.58-7.09-11.55-7.37-.76-.39-1.02-.09-.78.91.19.66.88,1.72,2.08,3.19,2.05,2.23,5.22,5.26,9.51,9.09,1.36,1.32,3.21,2.79,5.56,4.38,6.49,4.13,10.5,6.43,12.06,6.9l-7.91-7.22Z" fill="#f49100"/>
      <path d="M271.3,299.31c.36,2.62-1.23,4.7-4.77,6.26-1.8.66-3.64,1.08-5.51,1.27-.38.17-3.17.05-8.35-.35-1.19.03-2.12.24-2.77.62-.39.27-.67.57-.86.89-.73,2.13-1.36,3.35-1.9,3.64-.27.41-1.84,1.29-4.7,2.66-.57.34-.95.66-1.15.98-.47.97.2,1.56,2.02,1.79,1.89.08,3.52-.15,4.88-.7,1.07-.33,3.49-1.6,7.24-3.81.61-.31,1.17-.54,1.68-.69.05-.19,1.97-.41,5.74-.67.83-.14,1.73-.4,2.71-.77.78-.1,3.18-1.63,7.18-4.57.62-.36,1.14-.59,1.56-.69.66-.19,1.38-.22,2.18-.1l4.88,1.36c.93.2,1.53.23,1.78.08.39-.33.31-.73-.23-1.19-2.56-1.87-4.99-3.8-7.3-5.78l-4.29-.23Z" fill="#ef9a03"/>
      <path d="M223.86,300.23c.16,1.44.63,2.6,1.42,3.49-.1.19,1.8,1.76,5.71,4.73.61.54.97.97,1.09,1.29.18.47.09.96-.27,1.44.02.11-.96.98-2.94,2.59-.31.28-.37.59-.19.92.16.22.44.39.87.52,3.71.88,5.84,1.5,6.38,1.85.88.41,1.12.92.72,1.51-.71,1.15-3.35,1.78-7.93,1.9-8.55.29-13.32.36-14.32.22-2.19-.04-3.37-.39-3.53-1.06-.17-.43.28-1.08,1.37-1.96,1.23-.92,3.47-2.39,6.72-4.39.78-.54,1.45-1.09,2.02-1.64,1.24-1.18,1.84-2.33,1.83-3.44,0-1.24-.47-2.28-1.41-3.13l-6.27-4.52c-1.08-.83-1.95-1.67-2.63-2.52-1.14-1.53-1.41-2.97-.81-4.32,1-1.92,2.62-2.87,4.87-2.88,2.72.26,4.48,1.34,5.28,3.26l2.03,6.12Z" fill="#f49100"/>
      <path d="M247.22,278.25c-5.36,3.1-9.26,4.73-11.7,4.88-1.47.19-3.07.1-4.8-.25-1.98-.33-5.28-1.29-9.92-2.89-1.62-.4-3.15-.61-4.58-.62-2.13-.02-3.99.38-5.56,1.2-1.37.83-1.73,1.66-1.07,2.5.55.63,1.64,1.14,3.25,1.52.88.22,1.76.4,2.65.53,1.79.25,4.23.52,7.32.83.6.07,1.24.19,1.92.34.53.02,3.21.9,8.03,2.66.66.22,1.57.46,2.72.71,2.27.51,4.66.7,7.14.56,3.93-.26,6.43-1.45,7.5-3.58,1.4-1.83.93-4.02-1.42-6.56l-1.5-1.83Z" fill="#f49100"/>
      <path d="M238.45,252.27c-1.13.49-2.68.87-4.67,1.14-8.28.47-12.76.96-13.46,1.49-1.05.32-1.87.73-2.46,1.24-3.86,4.37-6.69,6.76-8.49,7.17-4.68,1.23-9.19,2.65-13.51,4.27-.47.26-2.87.28-7.2.06-.63.01-1.22.16-1.77.44-.63.36-.92.89-.86,1.59,1.16,3.54,1.62,5.4,1.38,5.56,0,.85-.36,1.77-1.09,2.75-1.4,1.81-3.84,3.5-7.33,5.07-1.57.85-4.62,1.48-9.15,1.88-.89.2-1.61.5-2.18.9-1.6.93-1,2.65,1.8,5.18,2.63,2.42,6.83,3.92,12.61,4.5,5.31.07,9.71-.76,13.19-2.51,3.19-1.49,5.03-3.76,5.53-6.81.09-1.19-.13-2.14-.66-2.86-3.38-3.72-4.94-5.71-4.71-5.98-.35-1.41.25-2.8,1.8-4.16,4.27-2.67,8.99-4.48,14.15-5.4,1.89-.35,3.34-.49,4.34-.44,6.68.61,10.73.85,12.14.72,2.06-.09,4.1-.54,6.1-1.33,6.93-3.56,9.49-7.51,7.67-11.86l-3.19-2.6Z" fill="#f49100"/>
      <path d="M229.43,235.03c2.95,2.92,3.29,5.21,1.03,6.86-.56.32-1.47.55-2.73.68-.15.11-3.56.15-10.23.13-2.66.23-4.47.52-5.44.89-1.09-.09-4.45,2.12-10.08,6.64-1.8,1.02-3.4,1.67-4.77,1.97-.96.22-1.9.31-2.81.28.02.08-1.82-.16-5.53-.73-1.03-.07-1.9-.02-2.61.13-.67.12-1.53.39-2.56.81-4.53,2.11-7.04,3.21-7.54,3.3-1.94.63-3.59.95-4.96.96-.83,0-1.74-.08-2.71-.23l-11.07-1.8c-3.12-.81-4.9-1.6-5.33-2.39l-1.46-4.67c.1-.11-.76-1.06-2.58-2.85-.19-.5-.15-1.02.13-1.56,1.62-2.64,6.18-5.2,13.7-7.68.98-.25,1.57-.16,1.77.27-.08,4.21.82,7.17,2.69,8.87,3.07,2.18,5.97,3.32,8.72,3.42.68,0,1.44-.1,2.26-.3,6.12-1.39,9.37-2.21,9.74-2.46.4.08,3.58-1.49,9.57-4.69,2.45-.98,4.62-1.7,6.5-2.16.08-.14,2.69-.49,7.83-1.05,6.55-1.76,10.42-2.64,11.61-2.64,3.23-.31,5.66-.13,7.27.54l-.41-.52Z" fill="#f49100"/>
      <path d="M213.82,223.58c-1.8-.05-3.76-.33-5.89-.84-1.09-.14-4.3-1.16-9.61-3.05-.99-.29-2.16-.52-3.48-.7-3.47-.46-7.3-.17-11.51.87-3.15.86-5.85,2.48-8.11,4.87-1.84,2.16-1.66,3.48.55,3.98.58.03,1.42-.17,2.52-.62,3.95-1.99,6.86-3.3,8.7-3.94,1.57-.59,3-1,4.31-1.22,1.63-.26,3.33-.28,5.1-.08.57.07,1.27.2,2.1.39,4.4,1.27,7.21,1.97,8.45,2.12,2.09.39,4.06.53,5.93.41,4.48-.34,8.02-1.97,10.64-4.88l-9.7,2.68Z" fill="#f49100"/>
      <path d="M174.86,236.75c1.97-.54,3.65-1.08,5.02-1.62,1.4-.53,3.17-1.29,5.31-2.29.48-.2.88-.36,1.18-.46,1.16-.4,2.2-.62,3.13-.67.91.01,1.41.24,1.5.69.14.41-.15.97-.88,1.68-1.19,1.11-3.3,2.16-6.36,3.15-3.22.96-6.06,1.4-8.51,1.34-2.61-.25-3.4-.85-2.36-1.8l1.97-.02Z" fill="#f49100"/>
      <path d="M128.47,258.13c-2.8,4.82-2.62,8.4.54,10.72,1.46.87,3.18,1.37,5.16,1.48l14.07-.29c2.9.03,5.01.23,6.35.62,4.68,1.42,6.3,3.33,4.84,5.71-2.59,3.19-6.17,4.81-10.76,4.85-1.44-.06-2.86-.38-4.25-.95-6.08-3.2-9.69-4.92-10.83-5.15-2.09-.67-3.75-.86-4.97-.57-1.07.22-1.87.75-2.41,1.61-.11-.17-1.03,1.72-2.77,5.67-.44.8-.99,1.53-1.66,2.19-1.54,1.44-2.79,1.74-3.74.9-1.07-1.14-1.37-4.82-.9-11.05.19-3.24,1.08-6.71,2.68-10.41,4.27-8.98,8.83-13.59,13.69-13.82l-5.04,8.5Z" fill="#f49100"/>
      <path d="M261.62,285.24c1.88,6.81.73,11-3.44,12.58-1.33.55-4.27.62-8.84.19-2.1-.15-7.05-.94-14.83-2.39-2.12-.31-3.56-.48-4.31-.51-1.9-.14-3.2.11-3.9.76-.81.76-.56,1.8.75,3.13-.42-.03,2.22,1.68,7.9,5.13,1.35.95,2.2,1.71,2.54,2.28.25.57.19,1.02-.19,1.36-2.46,1.38-3.62,2.13-3.49,2.25-.33.38-.32.83.03,1.35,1.04.94,2.74,1.41,5.09,1.42,2.36-.16,3.96-.72,4.82-1.66.66-.65.95-1.46.87-2.42.15-.37-.63-2.1-2.37-5.19-.15-.77.07-1.22.65-1.34.57-.17,1.37-.22,2.41-.14,7.33,1.1,11.95,1.55,13.86,1.37,3.12-.01,5.45-.54,6.99-1.56,2.93-2.75,2.41-6.93-1.58-12.55l-2.97-4.07Z" fill="#ffc973"/>
      <path d="M287.9,312.07c-3.67-2.57-8.41-3.43-14.2-2.44-1.08.18-2.42.55-3.78,1.43-4.45,2.85-7.86,4.88-10.46,5.8-1.21.43-2.23.87-3.13.93-4.63.33-7,.48-7.08.7l-9.41,4.93c-1.94.81-3.83,1.32-5.69,1.53-1.46.17-2.74.27-3.82.07-5.61-1.04-8.56-1.55-8.88-1.34-.21-.2-3.63.32-10.3,1.22-1.95.26-3.77.14-5.42-.03-1.81-.19-3.26-.51-4.38-.76-.64-.14-3.26-1.08-7.9-2.78-1.21-.44-2.26-.61-3.09-.57-3,.13-3.74,1.17-2.21,2.99-1.37.33,4.04,2.55,16.49,5.6,8.38,2.05,13.67,2.42,15.63,2.37,1.4-.03,2.78.07,4.1-.12,4.76-.71,10.91-1.49,18.49-2.12-.04.25,3.87-1.02,11.84-3.43,1.93-.58,3.74-.61,5.29-.26,3.31.74,4.5,2.16,3.62,4.06-.03.88-2.73,2.36-7.95,4.74-.74.34-1.06.87-1.15,1.3-.23,1.16,1.36,1.96,4.76,1.79,7.07-.35,10.85-1.42,11.38-2.6.61-.55,1.23-1.24,1.41-2.2.9-4.72,1.64-7.45,2.33-8.39,1.46-1.99,3.06-3.92,5.5-4.52,6.65-1.63,12.31-4.29,8.51-7.58l-.51-.32Z" fill="#ffc973"/>
      <path d="M196.63,338.13l-9.84-.76c-1.31-.22-2.57-.66-3.77-1.3-5.59-4.37-8.68-6.6-9.26-6.68-1.06-.75-4.08-1.89-9.07-3.43-.82-.34-1.48-.68-1.99-1.03l-6.56-5.99c-.11-.33-2.98-1.88-8.62-4.66-.63-.21-2.53-1.98-5.68-5.33-.97-.74-1.85-1.16-2.64-1.26-3.26.25-3.39,2.07-.36,5.44.47.91,4.92,4.26,13.33,10.06.31-.11,3.04,2.95,8.21,9.18,2.51,2.26,4.87,3.87,7.07,4.85,1.88.81,3.1.93,3.68.35.57-.05.28-1.16-.89-3.32,0-.37.16-.49.5-.37l8.86,5.29c1.21.69,2.53,1.37,3.98,2.03,3.07,1.44,5.94,2.22,8.63,2.34,2.1.1,4.11,0,6.01-.33.75-.02,3.9-.92,9.46-2.7,1.27-.32,2.38-.46,3.33-.4l-14.35-1.99Z" fill="#ffc973"/>
      <path d="M249.26,231.47c-.34-.31-1-.65-1.99-1.02l-9.28-2.94c-5.56-1.74-9.05-2.67-10.45-2.78-2.3-.35-4.37-.33-6.21.07-.85.2-1.51.44-1.98.7-1.64,1.39-2.73,2.13-3.27,2.2-1,.4-2.31.56-3.92.5-1.49-.05-3-.32-4.52-.81-5.95-2.43-9.05-3.6-9.29-3.52-1.52-.4-2.96-.52-4.32-.35-1.13.16-2.21.45-3.26.87l-5.53,3.12-6.22,2.36c-1.69.87-2.42,1.55-2.18,2.06,1.12.94,2.68,1.28,4.66,1.03,1.91-.3,5.37-1.54,10.39-3.71,1.55-.43,3.02-.6,4.4-.53,3.75.32,4.69,1.74,2.81,4.27-6.8,2.19-12.28,4.27-16.44,6.22-.68.22-1.5.4-2.46.56-5.47.69-8.39,1.11-8.76,1.28-1.26.27-1.98.65-2.14,1.13.64,1.82,5.16,1.88,13.56.18,1.78-.3,3.62-.72,5.5-1.27,12.11-3.89,19.04-5.96,20.81-6.23,1.41-.32,2.74-.54,4-.66,6.4-.31,9.59-.54,9.56-.7,1.5-.21,4.4-.98,8.72-2.33.69-.17,1.28-.29,1.77-.34.55-.09,1.43,0,2.64.25,4.23,1.36,6.78,2.05,7.64,2.05,1.16.21,2.91.15,5.27-.18l.5-1.47Z" fill="#fbd599"/>
      <path d="M139.87,246.39c-9.43,9.09-12.1,15.35-8,18.78,1.13,1.41,2.65,2.07,4.57,1.98.21.3,3.73-.59,10.57-2.69,1.47-.31,2.7-.38,3.72-.21.82.13,1.67.47,2.56,1.01,3.88,3.24,6.08,4.78,6.61,4.64.63.39,3.04.58,7.23.57,1.11.12,1.95.32,2.52.6.65.31.86.88.63,1.7-2.45,4.53-3.44,7.29-2.96,8.29.49,2.1,1.65,3.15,3.47,3.14,7.35-2.47,11.29-4.72,11.83-6.74.52-1.28.5-2.2-.06-2.75.03-.29-1.46-.93-4.48-1.9-.73-.51-1.19-1.1-1.37-1.8-.43-2,.38-3.77,2.43-5.3,1.28-.83,2.98-1.31,5.11-1.45.64-.31,4.84.06,12.59,1.1,1.95,0,3.65-.32,5.11-1,2.88-1.29,5.24-2.76,7.06-4.41.76-.43,1.36-1.89,1.78-4.38.23-.39.6-.71,1.12-.95.68-.36,1.68-.66,3.02-.89,6.91-.93,10.9-1.54,11.99-1.85,1.66-.38,3.05-.93,4.17-1.66,2.22-1.62,1.42-3.25-2.42-4.89-3.42-1.13-6.68-1.24-9.76-.31-1.14.36-2.3.94-3.47,1.74-6.98,6.2-11.52,9.55-13.63,10.03-1.36.52-2.67.77-3.94.74-.16.15-2.58-.22-7.26-1.11-1.24-.11-2.57,0-3.99.3-1.62.11-5.17,1.98-10.65,5.61-1.14.51-2.3.79-3.5.83-.98.06-2.02-.13-3.11-.56-4.33-2.74-7.01-4.04-8.06-3.9-.92-.15-1.98-.18-3.19-.07-5.31.94-8.27,1.36-8.88,1.24-1.88-.02-3.38-.37-4.49-1.03-1.36-.81-1.89-1.79-1.6-2.94l3.4-7.2-6.66-2.3Z" fill="#fbd599"/>
      <path d="M252.2,268.01c-4.63-2.7-6.47-2.01-11.25-1.31-1.11.16-2.9.71-5.43,1.5-.55.17-3.21,1.3-8.02,3.43-1.07.47-2.03.68-2.83.8-.82.12-1.6.19-2.32.09-4.55-.66-7.92-1.01-10.13-.99-2.67.02-5.01.23-6.97.82-2.64.79-4.48,1.66-5.39,2.65-1.16,1.25-.93,2.34.54,3.08.88.44,2.15.56,3.8.57.66,0,4.94-.2,12.87-.65,1.57-.09,2.99,0,4.28.1,1.35.11,2.76.4,4.22.91l3.79,1.89c.82.22,1.87.3,3.14.23,1.81-.1,3.48-.65,5.13-1.36.84-.36,3.17-2.1,7.15-5.14.96-.73,2.21-.96,3.44-1.31,4.5-1.28,12.17-.3,5.54-4.49l-1.56-.81Z" fill="#fbd599"/>
      <path d="M211,312.66c-.33-.23-5.32.11-14.99,1.03-1.66.08-3.07.08-4.22,0-1.43.05-5-.77-10.71-2.48l-10.96-.38c-1.99-.21-3.64-.59-4.94-1.15-3.86-1.77-6.19-3.07-7.01-3.9-.3.17-1.55-2.07-3.75-6.73-1.02-1.24-1.98-2.01-2.88-2.3-1.01-.46-2.36-.76-4.05-.89-8.16-.05-12.76-.24-13.81-.57-2.43-.36-4.45-1.15-6.06-2.37-4.54-5.63-5.02-10.22-1.42-13.79,1.26-.95,2.28-1.3,3.07-1.06.89,3.27,1.94,5.08,3.12,5.43-.62.18,3.25,1.24,11.62,3.17,1.22.18,2.34.14,3.34-.12,4.69-1.81,7.59-2.72,8.7-2.72,2.06-.34,3.7-.3,4.93.13.43.31.52.66.3,1.05-2.22,1.88-3.41,3.16-3.57,3.84-.37.78-.37,1.54-.01,2.3-.44.13,1.36,1.7,5.41,4.71l4.14,5.07c.83.81,1.66,1.35,2.51,1.64,1.14.44,2.23.47,3.26.11,5.07-2.65,8.19-4.01,9.36-4.08,2.66-.55,4.84-.68,6.53-.41,1.18.28,1.6.78,1.27,1.51-3.66,2.58-5.19,4.22-4.59,4.94.08,1.18,1.37,2.41,3.89,3.69,1.47.83,3.51,1.33,6.1,1.5.74.06,1.6.07,2.58.03,4.23-.47,7.58-.68,10.06-.63,3.24.06,5.19.36,5.85.89l-3.09,2.54Z" fill="#ffc973"/>
      <path d="M122.03,261.21c6.48-9,12.38-15.02,17.62-18.2,1.61-.98,3.18-2.04,4.96-2.3,8.22-1.23,14.55-2.59,18.88-4.84,2.41-.48,8.57-5.21,18.95-13.61,2.01-1.63,4.4-2.56,6.7-3.42,3.62-1.36,6.62-1.87,8.99-1.53-.29-.46,3.36.88,11.08,3.59,1.81.64,3.6.72,5.23.67.16.43,5.14-.64,15.01-2.98,1.63-.39,4.44-.4,8.41-.27-1.23-.92-3.71-1.43-7.41-1.72-1.44-.11-6.33.14-14.7.81-1.15.09-2.5.18-3.99-.11-10.21-2.02-15.83-2.92-17.06-2.87-3.98.16-8.06.78-12.22,2.6-1.66.73-3.45,1.64-5.2,2.97-9.57,7.33-15.05,11.44-16.65,12.07l-21.26,8.32c-4.38,1.98-7.56,4.08-9.89,5.86-6.63,5.07-11.95,12.33-14.02,27.41l6.58-12.44Z" fill="#ffc973"/>
      <path d="M199.3,216.91c-2.51-.73-6.59.02-12.22,2.27-1.85.75-4.02,1.93-6.52,3.55-8.17,6.38-13.61,10.13-16.32,11.23-5.51,2.69-10.93,4.18-16.29,4.47-.42-.04-.08-.3,1.03-.79,4.71-1.72,8.02-3.04,9.92-3.97,1.94-.94,3.73-1.89,5.35-2.85,2.05-.95,7.24-4.88,15.56-11.79,2.45-1.59,4.51-2.65,6.18-3.2,4.62-1.47,10.38-1.57,17.29-.29l-3.99,1.39Z" fill="#fff3df"/>
      <path d="M180.92,231.37c1.5-.28,2.71-.64,3.63-1.06,1.58-.64,4.23-1.93,7.96-3.86,1.11-.42,2.09-.65,2.94-.71.7-.08,1.54.04,2.52.38.18,0,1.57.64,4.16,1.96.6.27,1.27.51,2,.72,1.6.42,3.11.62,4.54.61-1.9-.97-3.99-2.18-6.27-3.64-.57-.32-1.15-.61-1.75-.87-2.61-1-5.02-1.22-7.24-.65-.94.26-1.94.67-3.01,1.25-1.05.55-2.94,1.67-5.68,3.36-.53.31-1.12.62-1.76.93-1.02.53-2.11.89-3.27,1.07l1.23.51Z" fill="#fff3df"/>
      <path d="M217.13,228.45c.98-.56,3.03-1.47,6.13-2.73,1.19-.44,2.33-.64,3.4-.59.5.03.98.1,1.47.21l3.14.82c2.27.45,3.47.69,3.6.74.61.14,1.29.33,2.05.57,2.9,1.04,4.08,1.75,3.54,2.13-.24.02-.58-.01-1-.12-2.96-.87-5.38-1.51-7.24-1.92-1.04-.24-2.54-.43-4.51-.57-.7-.03-1.52.06-2.49.27-.34.03-1.85.46-4.53,1.3-.83.23-1.54.38-2.11.46-.86.15-1.84.05-2.93-.3l1.49-.28Z" fill="#fff3df"/>
      <path d="M216.31,248.08c.8-.52,1.76-.93,2.91-1.22,1.37-.35,2.71-.51,4.02-.48,2.99.05,4.2.62,3.63,1.71-1.11,1.28-3.92,2.15-8.41,2.62-1.4.12-2.34,0-2.82-.37-.57-.28-.51-.74.16-1.39l.51-.87Z" fill="#fff3df"/>
      <path d="M199.65,258.53c-1.19.58-2.5.87-3.94.85-.47-.01-1.08-.11-1.83-.28-.04.02-1.22-.34-3.55-1.06-.64-.17-1.21-.29-1.7-.36-1.19-.16-2.3-.1-3.35.2-1.04.26-2.22.88-3.53,1.83-1.69,1.24-2.78,2.27-3.27,3.08,2.03-1.17,3.39-1.87,4.1-2.11,1-.39,2.08-.67,3.23-.84.47-.06,1.14-.02,2,.11.02-.02,1.3.23,3.85.76.56.1,1.12.17,1.68.22,1.18.06,2.35-.02,3.5-.27,2.19-.46,4.17-1.45,5.96-2.99l-3.14.88Z" fill="#fff3df"/>
      <path d="M165.94,264.04c-1.52-2.3-3.31-3.66-5.39-4.08-.77-.16-1.57-.23-2.4-.19l-5.27.53c-.99.07-1.82.09-2.5.06-1.95-.09-3.66-.43-5.12-1.02-1.46-.56-2.47-1.19-3.03-1.91-.25-.29-.45-.62-.59-.99-.13-.25-.28-.96-.45-2.13-.07-.16-.17-.25-.29-.27-.97.94-1.11,2.04-.42,3.32.82,1.28,2.21,2.29,4.17,3.01,3.47,1.07,5.32,1.58,5.55,1.52,1.52.23,4,.37,7.45.41.64.04,1.19.12,1.66.24.48.11.97.29,1.47.55l2.92,1.73c.47.22.88.35,1.2.38,1.37.19,2.67-.16,3.9-1.05l-2.85-.12Z" fill="#fff3df"/>
      <path d="M250.44,269.17c-.65-.56-2.08-1.05-4.27-1.47-2.37-.35-4.2-.42-5.47-.19-1.34.2-2.76.55-4.27,1.06-1.45.53-3.78,1.54-6.98,3.04-.8.33-1.56.56-2.29.71-.74.14-1.38.21-1.92.22-3.73-.11-6.37-.11-7.92,0-1.36.06-2.43.19-3.2.39-1.78.62-1.93,1.13-.44,1.53.39.11,1.08.22,2.08.33l9.2.91c1.72.12,3.16.1,4.32-.08.9-.08,1.89-.36,2.97-.84l6.04-3.23c.79-.38,1.77-.73,2.94-1.06.82-.23,1.67-.34,2.56-.33-.09-.07,1.18.07,3.83.41.6.05,1.17.05,1.71.01.82-.01,1.83-.31,3.01-.9l-1.91-.51Z" fill="#fff3df"/>
      <path d="M118.62,264.65c.79-2.14,2.76-5.28,5.9-9.39.7-.92,1.73-2.12,3.1-3.6.9-.96,2.66-2.65,5.28-5.06.43-.42.66-.7.71-.83.13-.39-.48-.3-1.84.29-1.13.58-2.19,1.28-3.19,2.12-1.66,1.26-3.56,3.43-5.69,6.49-2.53,3.62-4.41,7.61-5.65,11.98l1.4-2Z" fill="#fff3df"/>
      <path d="M186.55,300.45c-2.72.38-4.04,1.41-3.98,3.07.04.53.49,1.28,1.34,2.24.63.72,2.17,1.99,4.62,3.82.3.23.22.35-.25.38-2.33-.66-3.97-1.03-4.94-1.1-.4-.1-2.97-.25-7.72-.46-.8-.05-1.83-.16-3.1-.33-1.33-.17-2.66-.52-3.99-1.04-3.29-1.1-5.97-3.69-8.05-7.77,0-.1.19-.04.57.17,1.29.97,2.52,1.78,3.7,2.42.85.49,1.77.93,2.76,1.32,1.54.63,3.25.95,5.12.95,1.41-.01,2.75-.35,4.03-1.02.62-.15,2.16-1.26,4.65-3.33.58-.37,1.17-.65,1.75-.85,1.31-.46,2.58-.39,3.81.18l-.32,1.35Z" fill="#ffe3b7"/>
      <path d="M157.13,286.26c-1.47.56-2.44,1.37-2.9,2.42-.44.85-.19,2.23.75,4.13.03.27-.12.38-.44.33-.16,0-.41-.06-.73-.16-1.85-.65-2.98-1.02-3.37-1.1-.85-.23-1.7-.41-2.54-.53-.53-.09-1.32-.14-2.34-.16-4.25.04-6.37.02-6.37-.04-1.17-.08-2.33-.32-3.47-.73-1.87-.72-3.39-1.71-4.55-2.96-1.46-1.83-1.97-3.03-1.52-3.61.24-.23.64-.25,1.21-.06,3.84,2.29,6.65,3.56,8.44,3.81,1.06.32,3.17.43,6.33.32,2.64.36,4.03.52,4.17.49.8.04,1.46-.07,1.98-.33,2.1-1.55,3.46-2.4,4.08-2.55,1.05-.4,1.88-.56,2.46-.48l-1.18,1.2Z" fill="#ffe3b7"/>
      <path d="M262.31,290.87c1.25,1.4,1.43,2.88.54,4.44-.97,1.43-2.7,2.4-5.2,2.92-1.94.4-4.26.55-6.97.46-1.12-.04-2.46-.14-4-.28-5.18-.72-9-1.16-11.46-1.33-1.41-.1-2.35-.13-2.8-.1-.34.1-.4.25-.19.45,2.31.87,5.43,1.58,9.35,2.11l10.01,1.28c2.36.18,4.22.19,5.59,0,3.11-.54,5.37-1.39,6.76-2.55,1.89-1.77,2.47-3.44,1.74-5.01l-3.37-2.42Z" fill="#ffe3b7"/>
      <path d="M282.6,313.65c-2.89-1.49-6.32-1.85-10.31-1.1-1.31.27-2.57.71-3.79,1.31.03-.14-1.85,1.06-5.64,3.61-.95.56-1.75.94-2.42,1.15-.85.28-1.74.47-2.67.57-3.71.04-5.85.15-6.43.34-1.97.45-3.24.95-3.81,1.48-.76.77-.42,1.14,1.02,1.11.36,0,1.39-.16,3.07-.48,4.26-1.03,6.9-1.58,7.93-1.65,2.76-.28,4.63-.23,5.6.14,1.29.42,2.03.95,2.22,1.6.1.27.13.61.07,1.04-.52,1.86-.75,3.03-.7,3.51.05.61.34.91.89.91,1.13-.12,2.02-.72,2.68-1.8.36-.14.74-2.08,1.16-5.83.31-.93.89-1.68,1.72-2.25.6-.42,1.45-.71,2.54-.86.23-.09,2.17-.16,5.83-.21,1.17-.09,2.02-.21,2.55-.35,1.72-.43,3.13-1.16,4.23-2.19l-5.74-.06Z" fill="#ffe3b7"/>
      <path d="M420.04,340.02l-8.43,6.04c-8.66,4.63-13.16,7.14-23.13,7.62-11.72.56-29.17-1.7-42.69-6.9-25.15-9.67-47.94-27.19-67.12-53.37-10.3-14.06-13.25-34.91-17.78-48.91-3.54-10.96-9.85-15.11-9.49-25.84.5-14.88,4.68-21.18,4.96-29.3.38-11.08-3.45-23.06,11.27-33.76,21.84-15.87,29.2-4.29,39.8-3.09,21.38,2.43,14.3,7.19,25.58,7.09,11.42-.1,16.72.92,27.77,14.69,7.52,9.37,18.68,13.72,24.89,20.41,9.85,10.63,7.54,17.25,10.18,20.94,8.07,11.25,18.38,13.09,27.64,27.39,7.29,11.25,8.03,23.96,9.49,35.16,1.69,13.07,2.35,20.03-1.11,31.73-3.27,11.06,4.04,17.81-11.83,30.09Z" fill="#f4b32e"/>
      <path d="M345.61,161.14c-3.69-1.41-7.55-1.58-12.61-1.54-2.86.03-4.54-.26-5.8-.74-2.19-.84-3.13-2.26-6.8-3.66-2.55-.97-6.43-1.94-12.98-2.68-2.07-.24-4.02-.87-5.98-1.62-1.29-.49-2.59-1.03-3.93-1.54-7-2.67-15.14-4.46-29.89,6.25-1.77,1.29-3.28,2.6-4.55,3.92-2.09,8.19-2.88,15.39-1.43,19.06,5.4,13.73-10.04,32.05,18.04,54.76,16.92,13.68,2.64,28.55,19.26,44.18,11.78,11.08,16.44,13.46,19.04,14.45.58.22,1.05.37,1.48.53,2.86,1.09,3.66,2.71,18.85,28.61,3.42,5.84,6.69,8.8,9.83,10,9.24,3.52,17.29-8.32,24.63-7.18,9.43,1.47,29.01,9.07,37.86,6.18l8.33-3.99c5.6-3.69,9.45-7.79,12.15-12.52h0s0,0,0,0h0c.15-1.18.38-2.4.76-3.68,3.46-11.7,2.8-18.66,1.11-31.73-1.45-11.2-2.2-23.91-9.49-35.16-9.26-14.3-19.57-16.14-27.64-27.39-2.65-3.69-.34-10.32-10.18-20.94-6.21-6.7-17.37-11.05-24.89-20.41-6.16-7.67-10.53-11.38-15.17-13.15Z" fill="#fea303"/>
      <path d="M420.13,289.03c-.36-13.1-4.65-24.43-12.87-33.97-1.54-1.44-3.09-2.63-4.63-3.59-7.54-3.77-11.71-6.17-12.5-7.19-2.54-1.82-7.44-6.62-14.69-14.39-2.08-1.91-3.88-3.28-5.39-4.11-5.79-2.22-9.68-1.02-11.65,3.58-.37,1.57.76,4.18,3.4,7.83-.35.16,4.25,5.2,13.78,15.11,2.44,2.91,3.81,5.08,4.1,6.52.11,1.3-.57,2.03-2.04,2.21l-12.33-2.12c-2.47-.18-4.02.11-4.66.85-2.53,2.81-1.8,7.14,2.19,12.99,2.03,2.51,4.33,4.81,6.89,6.9,11.93,8.82,18.19,13.62,18.78,14.4,1.58,1.21,4.84,4.62,9.78,10.25,1.79,1.74,3.59,3.18,5.41,4.31,5.21,3.45,9.67,2.79,13.39-1.97l3.04-17.61Z" fill="#f49100"/>
      <path d="M353.58,243.75c-3.22-5.09-5.2-9.52-6.34-13.17-.56-1.8-1.3-7.13-2.23-16.1-.17-1.66-.76-3.36-1.39-5.15-1.17-3.35-2.76-6.03-4.76-8.02-1.22-1.21-2.64-2.4-4.47-3.17-8.73-3.69-13.54-5.86-14.25-6.93-1.71-.86-7.11-6.06-16.37-15.42-1.2-1.22-2.59-2.19-4.13-2.76-4.38-1.61-8.02.42-9.77,6.07-.84,2.71.8,6.61,3.87,11.45.17.79,6.77,9.22,19.47,25.55,2.19,2.82,3.62,5.42,4.59,7.55.7,1.53.93,2.86.72,3.99-2.88,5.06-3.89,9.61-3.2,13.69.83,4.94,3,9.89,6.95,14.59,6.94,8.26,12.76,12.18,17.18,11.71,1.91-.21,2.51-1.88,2.46-4.78-.02-1.17-1.22-6.52-4-16.18-.51-1.79-.49-3.07-.06-3.66.33-.45,1.05-.34,1.9.4,5.39,4.7,7.96,6.87,11.64,9.46,1.63.91,10.59,4.68,2.92-7.99l-.72-1.11Z" fill="#f49100"/>
      <path d="M391.51,233.81c-2.24-3.67-6.04-7.33-11.39-10.95-1.7-1.17-3.78-2.31-6.22-3.42-8.46-3.02-12.73-4.71-12.83-5.09-3.06-1.75-5.8-4-8.21-6.75-.95-.98-5.25-6.62-12.89-16.9-1.51-2.16-2.43-3.91-2.75-5.26-.77-3.26,2.08-4.89,8.55-4.89,5.17.22,10.54,3.13,16.12,8.72,1.45,1.56,2.93,3.41,4.42,5.55l8.77,13.34c.76,1.22,4.8,4.89,12.12,10.99,1.68,1.61,3.27,3.37,4.76,5.27,3.17,3.99,4.65,7.27,4.45,9.81l-4.88-.44Z" fill="#f49100"/>
      <path d="M383.7,315.39c-8.96-11.45-14.19-17.92-15.68-19.41-2.81-3.23-5.54-5.68-8.19-7.34-1.53-.94-2.81-1.08-3.83-.43-.44.26-.82.69-1.16,1.27-1.22,3.57-2.11,5.44-2.66,5.61-1.02.83-2.47.98-4.35.43-3.6-1.11-7.44-3.23-11.52-6.36-1.55-.82-6.12-5.28-13.71-13.38-2.11-1.88-3.97-3.28-5.61-4.18-5.94-2.79-8.19-1.59-6.73,3.61.95,1.87,2.48,3.83,4.59,5.88,10.24,8.65,15.81,13.64,16.73,14.97,1.73,1.58,5.57,6.89,11.52,15.94,1.29,1.65,2.64,2.94,4.06,3.85,1.39.91,2.77,1.25,4.14,1,.03.31,2.93-.65,8.71-2.87,1.31-.33,2.62-.4,3.91-.2,1.47.26,3.14.88,4.98,1.86.16-.06,2.91,1.62,8.26,5.03.95.56,1.78.96,2.5,1.22,1.98.76,4.4.81,7.27.16l-3.22-6.66Z" fill="#f49100"/>
      <path d="M322.85,321.3c2.7-.34-1.64-8.8-4.2-12.79-3.87-6.02-4.55-8.47-12.54-13.15-7.13-4.19-8.71-8.98-14.5-11.39-3.51-1.46-6.2,2.34-5.29,4.79,2.1,5.68,8.75,8.38,13.7,14.3,6.99,8.35,8.56,12.52,14.63,16.26,3.12,1.92,5.79,2.1,7.83,2.03l.37-.05Z" fill="#f49c00"/>
      <path d="M404.46,336.77c-1.65.64-3.93.61-6.84-.11-1.66-.46-3.11-.95-4.35-1.47-5.96-2.83-9.02-4.21-9.17-4.12-1.62-.59-2.97-.81-4.05-.66-.97.08-1.87.39-2.67.93-.21,0-1.81,1.39-4.8,4.16-.88.61-1.77,1.02-2.66,1.22-1.22.28-2.49.37-3.81.27-.34.12-3.21-.39-8.6-1.5-1.2-.13-2.06-.09-2.6.13-1.4.72-1.14,2.34.77,4.83,2.2,2.65,5.56,4.68,10.06,6.08,11.64,2.66,18.74,3.79,21.3,3.39,7.27-.13,13.91-3.51,19.94-10.14l-2.51-3Z" fill="#f49100"/>
      <path d="M282.98,261.34c.81-7.88-.14-14.5-2.87-19.85-.9-1.6-2.01-2.86-3.3-3.77-2.26-1.1-5.45-3.35-9.58-6.75-1.09-.66-1.97-.88-2.65-.64-1.4.72-1.58,3.12-.55,7.2.29,1.21.87,2.75,1.75,4.62.24.61,1.82,3.47,4.73,8.6.38.7.72,1.47,1.02,2.31.39.7.89,3.79,1.51,9.25.19,1.04.46,1.97.79,2.8.99,2.48,2.52,4.27,4.57,5.38,2.42,1.25,4.18,1.27,5.28.06.21-.39.22-.86.02-1.41-2.35-3.73-3.86-7.12-4.51-10.16-.72-3.5-.42-5.11.89-4.84l2.91,7.21Z" fill="#f49c00"/>
      <path d="M271.76,173.26c-1.63-5.21-4.54-7.2-4.35-4,.55,8.95,2.21,19.48,4.01,25.17,1.27,4,.21,6.17.43,15.9.07,3.31,3.42,11.16,4.53,12.3,6.34,6.5,12.97,13.45,13.84,19.43,1.77,12.05,3.66,19.07,4.62,21.54,2.26,5.79,4.96,10.85,9.02,14.96,4.05,4.09,6.57,5.43,7.43,3.73.26-.5.09-1.42-.45-2.51-3.15-6.38-4.79-10.48-5.01-12.39-.36-3.16-.77-5.09,1.17-5.97,1.34-.61,3.08-1.28,4.8.41,2.35,2.29,5.15,7.29,8.7,9.25,1.95,1.08,3.08.58,3.01-1.19-.11-2.71-1.74-6.09-5.08-8.52-2.27-1.65-5.52-3.41-6.8-3.92-4.42-1.72-7.15-2.1-8.12-2.77-2.96-2.03-6.38-5-7.82-7.69-1.06-1.98-.52-3.8-.9-7.04-.21-1.81.5-4.88.59-9.41.06-3.12-1.6-5.62-2.73-6.36-6.97-4.54-9.28-5.05-11.47-10.28-2.16-6.43.21-9.75-1.47-14.58-1.68-4.82-3.99-11.17-7.54-24.99l-.43-1.07Z" fill="#fbd599"/>
      <path d="M287.81,189.56c.4,4.2,1.7,8.07,3.92,11.61.53,1.54,3.48,4.86,8.86,9.97,1.14,1.39,1.91,2.6,2.33,3.61.65.72,1.43,5.42,2.34,14.1.56,2.11,1.33,3.83,2.31,5.16,1.89,1.83,3.04,1.32,3.43-1.52-.29-8.86-1.18-14.34-2.67-16.43-.36-1.51-4.13-6.82-11.31-15.94-.61-.73-1.66-3.27-3.15-7.62-.38-.87-.82-1.64-1.3-2.32.07-.38-2.09-2.48-6.46-6.3-1.21-1.29-2.14-2.54-2.81-3.74l4.49,9.43Z" fill="#fbd599"/>
      <path d="M288.51,172.34c1.28-6.31,4.88-8.98,10.45-6.96,1.9.69,3.26,2.48,4.64,4.31,1.13,1.5,3.59,5.63,7.55,12.29.91,1.53,1.92,2.56,2.75,3.28.7.61,1.6,1.31,2.84,1.8,5.55,2.19,9.31,3.8,11.28,4.94,5.07,2.93,8.43,5.37,10.21,7.3,2.43,2.63,4.83,5.76,5.72,9.9,3.05,14.13,5.01,23.04,6.75,26.67,1.42,2.96,3.44,7.32,6.52,8.89,2.05,1.04,1.16-2.85,1.02-3.33-3.24-10.91-4.48-16.81-3.54-18.27.77-1.19-.27-4.34,9.32-1.56,2.3.67,2.72-.86,2.46-1.59-.62-1.73-1.81-2.82-4.19-4.4-2.38-1.58-3.4-1.93-8.17-3.42-1.03-.32-2.1-1.15-4.18-3.26-3.06-3.11-5.96-9.27-5.96-9.27-2.04-2.48-5.64-5.88-10.56-10.44-1.12-1.04-1.89-2.14-2.4-3.14-1.87-3.6-2.33-6.74-1.44-9.29.39-1.12,1.17-1.89,2.23-2.34l6.46-1.44c.85-1.1.38-2.41-1.45-3.83-2.26-1.74-4.88-2.06-7.78-1.05-1.35.05-3.64,2.85-6.86,8.42-1.09.99-2.35,1.32-3.76.85-1.19-.39-2.34-1.18-3.01-2.52-3.85-7.58-6.03-11.57-7.02-11.74-4.34-2.13-8.56-4.82-13.01-7.55-1.82-1.12-3.61-1.41-5.05-1.33-1.96.11-2.85.79-2.69,1.95,3.88,2.64,5.59,4.82,5.12,6.53-.13.48-.38.94-.86,1.18-3.13,1.57-4.8,2.64-5.24,3.19-1.34,1.69-1.71,2.69-.79,3.27l2.66,1.95Z" fill="#fbd599"/>
      <path d="M345.52,250.36c2.49,4.29,3.25,8.65,2.28,13.09-.51,1.63-1.54,2.86-3.08,3.69-.73.48-3,.91-6.82,1.29-.71.17-1.17.4-1.38.67-.91,1.29-.71,2.82.59,4.57.51.53,1.22.84,2.13.92,4.65-.99,7.73-1.01,9.25-.06.98.09,3.51,2.16,7.59,6.22,4.78,2.17,7.44,3.65,7.97,4.44,1.53,1.41,3.02,3.25,4.49,5.51l13.99,22.55c.86,1.24,1.72,2.13,2.58,2.66-.17.26,2.17,1.04,7.01,2.34l6.95,2.93c1.04.38,2.07.66,3.08.85,2.56.56,4.68-.1,6.37-2.01.8-.71.18-1.73-1.84-3.06-.59-.33-1.29-.61-2.12-.84-4.94-.78-8.23-1.6-9.87-2.46-3.37-1.51-6-3.37-7.89-5.56-1.25-1.11-3.83-5.02-7.72-11.74-2.22-3.21-3.69-5.22-4.42-6.01-.52-1.09-6.13-6.64-16.82-16.64-1.21-1.2-2.64-2.97-4.31-5.32-1.18-1.63-1.85-2.88-2.01-3.74-.24.04-.23-2.25.03-6.86-.13-1.01-.55-1.89-1.26-2.64l-4.77-4.82Z" fill="#fbd599"/>
      <path d="M331.14,278.97c.81.52,1.48,1.1,2.03,1.74,3.07,4.17,4.77,6.35,5.08,6.54.71.8,1.5,1.5,2.37,2.1.6.41,1.22.74,1.87.99,4.76,1.68,7.14,2.56,7.15,2.63.38.13,1.55.71,3.52,1.74.66.3,1.13.31,1.39.03.52-1.48-.12-3.21-1.94-5.18-.43-.36-1.02-.67-1.78-.93-.38-.14-1.44-.39-3.18-.75-.45-.11-.9-.26-1.35-.43-.98-.38-1.84-.81-2.58-1.29-.95-.61-1.72-1.25-2.32-1.92-.38-.35-1.28-1.56-2.69-3.64-.38-.48-.83-.94-1.34-1.39-1.04-.9-2.49-1.64-4.36-2.23l-1.87,1.98Z" fill="#fbd599"/>
      <path d="M363.7,246.02c.47.35.89.76,1.24,1.24,3.18,4.73,5.36,7.69,6.55,8.89,1.46,1.35,2.85,2.1,4.16,2.25,1.84.12,1.83-1.34-.03-4.38-2.83-3.89-5.41-6.43-7.74-7.62l-4.18-.39Z" fill="#fbd599"/>
      <path d="M375.8,227.46c4.25,3.37,7.29,8.08,13.26,12.76,1.83,1.44,5.67,2.07,8.83,3.97,3.22,1.94,3.29,4.01,7.54,7.65,1.79,1.53,3.31,2.24,5.74,4.91.69.76,1.47,1.73,2.25,2.98,3.88,6.19,5.88,11.06,6.51,14.49,1.7,9.3,2.65,13.82,2.37,13.65-.98,9.33-1.27,14.37-.89,15.12.34,2.87,1.03,3.8,2.08,2.78.31-.53.56-1.62.73-3.28l1.45-15.68c-.1-4.13-.98-9.85-2.81-17.12-1.25-4.99-2.84-8.89-4.64-11.71-3.69-5.77-8.97-14.41-13.01-18.63-2.9-3.03.36-4.3-.68-8.91-1.04-4.6-4.29-6.02-9.73-12.52-5.97-7.13-8.72-11.73-9.66-12.72-2.69-2.81-4.67-4.47-6.14-4.57-1.31-.09-1.62,1.31-.06,3.38,8.74,11.64,13.88,18.23,15.03,20.17,2.56,4.34,4.04,7.59,3.89,9.98-.18,2.82-1.46,3.86-3.65,2.99-3.18-1.27-16.66-13.8-20.42-13.73-2.1.04-.07,2,1.29,3.39l.72.63Z" fill="#fbd599"/>
      <path d="M346.52,171.85c3.22.49,5.52,1.35,6.9,2.57.94.7,1.82,1.59,2.64,2.68.64.77,2.18,3.16,4.63,7.16.74,1.06,1.48,1.92,2.25,2.58.87.78,1.87,1.47,3,2.07,4.78,2.18,7.22,3.37,7.33,3.59.55.35,1.12.76,1.71,1.23.66.52,1.64,1.37,2.93,2.56.32.27.58.44.78.51,1.02-1.22.14-3.59-2.66-7.1-2.32-2.74-3.74-4.28-4.27-4.64-.57-.56-2.08-1.52-4.55-2.87-.53-.36-1.01-.76-1.46-1.19-.83-.68-2.59-2.75-5.28-6.22-.4-.46-.89-.91-1.46-1.35-.35-.28-.84-.58-1.45-.91-2.03-.83-4.71-2.21-8.05-4.14-.81-.42-1.82-.88-3.03-1.37-4.19-1.74-7.63-2.73-10.32-2.95l10.36,7.79Z" fill="#fbd599"/>
      <path d="M259.14,186.45c-1.87,15.26-5.35,25.97-5.31,28.55.11,5.83.73,11.24,2.96,16.11.79,1.73,1.69,2.33,2.16,1.74.83-1.02.52-4.2.29-6.65-.08-.84-.37-3.19.9-3.97,1.26-.77,2.62,1.35,3.25,2.03,2.05,2.21,3.94,4.3,6.1,5.76,2,1.36,2.65,1.76,4.44,2.96.56.38,2.24,1.34,2.6.79.58-.87-.51-2.59-1.26-3.36-5.55-5.75-8.58-9-8.42-9.12-3.98-5.08-7.11-11.32-6.29-16.91.93-6.37-.05-9.31-.15-13.19-.04-1.8-.54-5.4-1.11-7.87l-.18,3.11Z" fill="#ffc973"/>
      <path d="M310.33,285.26c5,2.7,10.78,4.81,16.25,13.61,4.79,7.7,4.57,14.38,9.68,21.07,3.9,5.1,10.19,11.53,14.87,15.42,8.31,6.89,12.77,10.49,11.64,11.42-3.5,2.88-24.21-3.32-34.58-9.62-3.07-1.86-25.57-16.61-28.11-23.16-1.21-3.11,25.37,14.94,32.05,18.29,8.82,4.43-.64-9.13-3.68-13.97-7.1-11.32-7.21-20.09-20.78-28.1-15.38-9.07-12.86-13.64,1.41-5.66l1.26.7Z" fill="#ffc973"/>
      <path d="M383.96,329.13c4.93,2.66,8.36,4.28,10.3,4.87,1.62.59,5.1,1.12,10.45,1.58,1.05.18,1.87.5,2.48.95,1.51,1.21,1.89,2.59,1.17,4.14-.16.35-.58.83-1.23,1.44-4.26,3.25-6.15,4.85-5.66,4.8.04.34.65.37,1.82.11.93-.21,1.88-.6,2.86-1.17l17.15-11.86c2.27-2.09,3.35-4.55,3.24-7.37-.15-.26-.73.1-1.74,1.08-2.19,3.45-3.86,5.49-5,6.13-1.85,1.42-4.09,2.41-6.72,2.96-.83.06-1.47-.06-1.93-.36-.97-1.8-1.94-2.77-2.93-2.91.07-.07-1.33-.24-4.19-.51-3.11-.88-5.6-1.42-7.46-1.64-.01.07-1.37-.4-4.05-1.42l-5.76-1.14c-5.59-1.84-8.68-2.7-9.28-2.55-3.18-.19-5.7.35-7.55,1.62-1.25.84-2.53,2.03-3.83,3.59-.25.6.27,1.09,1.57,1.47.61.13,1.21.07,1.79-.17,3.69-2,5.96-3.02,6.82-3.06,2.59-.39,4.57-.25,5.95.42l1.72-.98Z" fill="#ffc973"/>
      <path d="M280.8,156.18c1.66.03,3.04.46,4.15,1.27,1.4,1.05,2.08,2.04,2.03,2.98-.03.61-.25,1.16-.65,1.66l-2.94,3.06c-.3.31-.51.66-.63,1.04-.12.42-.18.85-.17,1.29.27,2.03.38,3.63.32,4.8-.03,1.16-.16,2.42-.39,3.76-.41,2.47-1.17,3.84-2.28,4.11-1.26.19-2.21-.6-2.85-2.37-.26-.71-.45-1.55-.57-2.52-.31-4.31-.51-6.48-.6-6.51-.27-1.4-.64-2.43-1.1-3.08-.4-.59-.88-.97-1.44-1.14-3.31-.14-5.3-.52-5.97-1.16-1.05-.76-1.42-1.82-1.13-3.18.88-2.3,3.02-4.31,6.42-6.03,5.07-1.82,7.89-1.98,8.48-.48l-.7,2.49Z" fill="#f49100"/>
      <path d="M333.09,166.24c-1.22-.68-2.86-.86-4.92-.53-.63.16-1.32.49-2.06,1-.28.15-1.24.98-2.88,2.5-.27.22-.56.4-.86.54-.98.43-1.87.43-2.67-.02-.71-.36-1.31-.87-1.8-1.53-1.82-2.99-3.02-4.73-3.6-5.23-.15-.25-1.4-1.4-3.76-3.45-.38-.37-.68-.73-.89-1.07-.69-1.5-.14-2.45,1.63-2.84,3.62-.48,8.49.44,14.61,2.77,3.38,1.31,6.2,3.85,8.46,7.6l-1.25.26Z" fill="#f49100"/>
      <path d="M287.87,187.06c.91,1.16,1.56,2.33,1.95,3.49.14.39.25.81.34,1.26.64,3.58,1.01,5.5,1.12,5.75.23,1,.59,1.91,1.05,2.74.28.51.65,1.01,1.1,1.5l3.68,3.43,3.05,3.58c-.02-.47-.4-1.32-1.14-2.57-.07-.23-1.28-1.93-3.63-5.11-.53-.79-.95-1.49-1.24-2.08-.22-.43-.44-.98-.67-1.65-.82-2.92-1.31-4.53-1.45-4.84-.33-.88-.69-1.67-1.07-2.37-.5-.99-1.46-2.13-2.87-3.44l-.22.31Z" fill="#fff3df"/>
      <path d="M269.71,172.11c-.45.44-.81,1.65-1.07,3.61-.17,1.55-.18,3.12,0,4.71.12,1.12.35,2.26.7,3.41.02.27.93,2.64,2.74,7.1.43,1.23.74,2.45.95,3.66.22,1.19.31,2.27.27,3.26.03.33-.12,1.84-.47,4.53-.05.6-.07,1.19-.05,1.76.05,1.29.32,2.49.81,3.59.93,1.59,1.8,1.85,2.6.76.7-1.18.96-3.1.77-5.75-.05-.54-.2-1.36-.45-2.44l-1.2-4.27c-.63-2.97-1.12-5.16-1.47-6.57l-1.95-5.37c-.24-.68-.42-1.29-.55-1.82-.6-3.37-.95-6.04-1.07-8.03-.08-.56-.24-1.22-.49-2l-.07-.14Z" fill="#fff3df"/>
      <path d="M280.9,221.16c-.1.61.52,1.94,1.86,3.99,1.22,1.72,2.48,3.03,3.79,3.92,1.09.76,1.96.9,2.62.41.59-.55.58-1.47-.02-2.75-.82-1.7-2.36-3.44-4.62-5.22-1.6-1.45-3.09-2.15-4.46-2.09l.84,1.73Z" fill="#fff3df"/>
      <path d="M294.92,163.27c2.6-.8,5.28.1,8.03,2.69,1.27,1.34,2.44,2.89,3.5,4.63,2.86,5.79,4.47,8.82,4.81,9.07,1.07,1.56,2.36,2.94,3.87,4.17.95.83,2.06,1.41,3.33,1.75,2.07.36,3.24.31,3.52-.17-2.72-2.21-4.55-4-5.48-5.38-.27.07-2.12-3.39-5.54-10.4-1.17-1.83-2.27-3.16-3.3-4-1.91-1.66-4.67-3.21-8.28-4.64-.13.07-1.49-1.21-4.1-3.86-.92-.74-1.6-1.16-2.03-1.25-.76-.16-1.14.14-1.15.9-.13.3.96,1.68,3.27,4.12.26.61,0,1.08-.76,1.42l.32.95Z" fill="#fff3df"/>
      <path d="M326.92,177.45c-.08-.5.05-1.16.4-1.99.22-.57.58-1.12,1.08-1.65.35-.35.68-.59.99-.72,2.09-.62,3.22-1.04,3.41-1.25.74-.49,1.15-1.01,1.24-1.54.05-.79-.59-1.27-1.91-1.45-1.29-.11-2.38.19-3.27.9-.97.79-1.66,1.8-2.07,3.04-.29,1.1-.14,2.04.45,2.82l-.31,1.85Z" fill="#fff3df"/>
      <path d="M344.68,168.24c1.61.12,4.23.93,7.86,2.44,1.87.84,3.75,1.98,5.63,3.42.77.57,1.48,1.27,2.14,2.1.84,1.22,2.77,3.7,5.77,7.47.61.97.23,1.11-1.14.41-.96-.51-1.98-1.29-3.08-2.32-1.62-1.59-3.56-3.69-5.84-6.28-.78-.81-1.48-1.45-2.1-1.92-.61-.47-1.61-1.03-3-1.66-.19-.15-1.49-.54-3.89-1.16-.85-.31-1.59-.66-2.23-1.02-1.49-.86-2.81-2.04-3.96-3.52l3.86,2.05Z" fill="#fff3df"/>
      <path d="M259.2,197.19c-.53,4.4-.71,7.02-.69,7.87.05,2.39.18,3.31.49,5.29.17,1.11.47,3.22.85,4.14,1.18,2.8,2.41,3.92,4.51,6.85,1.05,1.46,2.6,3.23,1.67,3.62-.6.25-3.5-2.36-6.24-4.95-.49-.46-1.13-.63-1.55-.34-1.2.82.22,4.77-.15,5.81-.19.53-.75.92-1.24.81-1.05-.24-1.69-1.64-2.11-5.49-.31-2.85.61-9.45,1.52-13.95.91-4.5,2.79-12.77,3.18-14.96l-.25,5.3Z" fill="#fff3df"/>
      <path d="M275.95,154.41c-4.81,1.92-8.83,5.18-12.07,9.79-1.41,2.19-2.32,4.15-2.74,5.88-.4,1.11-.75,3.8-1.06,8.07-.06.43-.16.71-.31.84-.47.11-.89-.76-1.25-2.6-.21-1.73-.19-3.49.08-5.26.42-2.84,1.64-5.73,3.66-8.67,2.46-3.31,4.58-5.47,6.36-6.49,3.05-1.83,6.46-3.17,10.22-4.01l-2.89,2.43Z" fill="#fff3df"/>
      <path d="M353.94,235.01c-.92-1.59-1.62-3.92-2.08-6.99-.46-2.9-.56-5.2-.3-6.9.12-.99.57-1.74,1.35-2.24.01-.22,1.32-.54,3.91-.95.51-.15.85-.32,1.03-.5.5-.59.4-1.28-.28-2.06-.32-.34-.71-.63-1.18-.88-1.68-.65-2.73-1.12-3.14-1.41l-4.79-3.28c-.76-.41-1.2-.38-1.31.11-.07.29,0,.81.2,1.55,1.19,3.25,1.82,5.27,1.89,6.06.1.51.17,1.08.23,1.7.08,2.6.15,3.95.19,4.06.1.97.29,2.06.56,3.27.47,2.01,1.38,4.47,2.73,7.37l.98,1.06Z" fill="#fff3df"/>
      <path d="M304.46,273.31c-1.99-3.42-2.75-6.72-2.27-9.92.21-.88.68-1.61,1.41-2.19.41-.43,1.81-1.06,4.21-1.9.28-.14.39-.28.3-.43,0-.1-.17-.22-.51-.35-1.83-.48-3.31-.98-4.45-1.48-.81-.34-1.6-.78-2.36-1.32-1.15-.69-3.35-3.01-6.59-6.94-.54-.36-.57.85-.08,3.62.59,3.09,1.38,5.96,2.38,8.64,1.12,3.37,3.42,7.25,6.9,11.66l1.05.62Z" fill="#fff3df"/>
      <path d="M343.12,269.54c1.38-.1,2.47-.51,3.26-1.26.51-.48.88-.93,1.13-1.34.3-.45.66-1.24,1.09-2.37.09-.16.15-.22.19-.17.61,1.86,1.39,3.48,2.34,4.84.36.7,2.05,2.63,5.06,5.79.28.31.36.51.22.6-.3.02-.81-.13-1.53-.46l-4.12-2.14c-1.07-.5-1.88-.83-2.44-.99-.76-.22-1.47-.36-2.12-.44-2.37-.12-3.79-.24-4.27-.36-1.06-.2-1.85-.44-2.38-.73l3.56-.97Z" fill="#fff3df"/>
      <path d="M393.17,238c.51.54,1.51.9,3,1.08.79.04,1.54-.24,2.26-.82.58-.45,1-1.05,1.26-1.81.25-.58.55-2.07.9-4.48.05-.3.11-.42.17-.35.07.05.14.15.19.32.46,2.52.9,4.33,1.33,5.41.03.41,1.32,3.09,3.87,8.05.47,1.04.51,1.53.12,1.49-.35-.01-.97-.28-1.86-.8-3.41-2.33-5.43-3.63-6.06-3.89-.23-.21-1.69-.73-4.37-1.56-.74-.32-1.39-.68-1.95-1.08-3.4-2.76-6.21-5.63-8.41-8.6l9.54,7.05Z" fill="#fff3df"/>
      <path d="M387.38,244.98c1.63,2.2,3.31,3.96,5.03,5.27,7.71,4.89,11.3,7.34,10.78,7.36,2.01,1.73,3.87,4.08,5.56,7.07,3.23,5.82,5.18,10.78,5.88,14.9.6,3.21.81,6.2.64,8.97-.19,2.49-.68,3.31-1.47,2.46-7.23-12.28-12-19.57-14.31-21.88-1.32-1.5-2.79-2.96-4.4-4.4l-15.73-13.34c-2.33-2.22-4.16-4.35-5.48-6.4-3.32-5.26-5.25-10.18-5.79-14.77.19-1.42,2.34-.48,6.44,2.79l12.84,11.97Z" fill="#fea303"/>
      <path d="M305.5,180.4c1.72,3.61,4.73,7.21,9.05,10.81.76,1.15,5.72,4.02,14.88,8.61,1.87,1.25,3.7,3.04,5.49,5.37,3.4,4.39,6.61,11.68,9.61,21.87,1.55,5.12.43,6.12-3.38,3-1.35-1.24-2.6-2.74-3.75-4.5-5.91-10.98-9.45-16.71-10.61-17.19-1.26-1.34-2.73-2.55-4.4-3.63-7.18-3.98-10.97-6.27-11.36-6.87-2.36-1.83-4.6-4.16-6.73-6.99-2.82-4.22-4.74-8.58-5.76-13.05-.84-3.48-.12-4.74,2.16-3.8l4.8,6.38Z" fill="#fea303"/>
      <path d="M345.76,184.56c3.62-.99,7.99,1.12,13.1,6.32,3.61,3.83,6.15,7.37,7.63,10.62.94,2.46.17,3.11-2.32,1.94-2.85-1.22-7.96-5.16-15.35-11.83-3.28-3.11-4.91-5.75-4.89-7.92l1.84.87Z" fill="#fea303"/>
      <path d="M251.52,216.22c-.31,2.28-.31,5.56.54,8.7,1.61,5.9,4.82,10.11,6.3,13.77,5.7,14.12,5.93,17.65,8.87,27.54.46,1.53,1.4,4.08,2.73,8.71,2.31,8.06,4.29,11.14,6.04,14.02,5.6,9.23,9.73,14.3,22.82,27.64-4.19-6.08-11.58-14.74-20.23-30.91-1.37-2.57,2.74-9.98,8.28-10.86,4.45-.71,7.95,4.21,8.78,2.46.83-1.75-2.52-2.79-5.9-7.59-2.63-3.74.19-11.12-2.89-10.18-1.58.48-.63,4.18-1.82,4.88-1,.6-1.89-2.76-2.64-.96-.52,1.26,4.28,5.91,1.88,8.35-2.4,2.44-6.71,1.69-9.29-1.17-5.92-6.54-4.56-11.25-6.24-15.56-1.27-3.26-3.95-9.35-7.24-15.38-2.38-4.34-5.24-8.64-7.01-11.97-1.54-2.9-1.47-3.69-2.01-4.94-1.13-2.59-.74-5.62-.65-8l-.31,1.44Z" fill="#fbd599"/>
    </g>
  </g>
  <g id="Layer_1">
    <polygon points="-685.56 390.53 -768.61 339.74 -714.28 339.74 -787.33 288.96 -743 288.96 -805.35 238.18 -771.72 238.18 -822.59 187.4 -800.44 187.4 -878.16 84.99 -955.87 187.4 -933.72 187.4 -984.59 238.18 -950.96 238.18 -1013.31 288.96 -968.98 288.96 -1042.03 339.74 -987.7 339.74 -1070.75 390.53 -894.4 390.53 -894.4 512 -861.92 512 -861.92 390.53 -685.56 390.53" fill="#231f20"/>
    <g>
      <rect x="-903.96" y="370.14" width="31.92" height="141.86" fill="#754c24"/>
      <g>
        <polygon points="-888 262.51 -1077.29 385.32 -698.71 385.32 -888 262.51" fill="#006837"/>
        <polygon points="-888 213.56 -1049.06 332.37 -726.94 332.37 -888 213.56" fill="#238039"/>
        <polygon points="-888 164.61 -1020.84 279.41 -755.16 279.41 -888 164.61" fill="#46973b"/>
        <polygon points="-888 115.66 -992.61 226.45 -783.39 226.45 -888 115.66" fill="#69af3d"/>
        <polygon points="-888 66.71 -964.38 173.5 -811.62 173.5 -888 66.71" fill="#8cc63f"/>
      </g>
    </g>
    <ellipse cx="-316.2" cy="250.72" rx="153.06" ry="140.9" fill="#f4aacb"/>
    <g>
      <path d="M-390.24,208.89c.76-1.01,9.59-12.29,25.51-12.29,15.92,0,24.75,11.28,25.51,12.29" fill="none" stroke="#333" stroke-linecap="round" stroke-linejoin="round" stroke-width="4"/>
      <path d="M-292.78,208.89c.76-1.01,9.59-12.29,25.51-12.29,15.92,0,24.75,11.28,25.51,12.29" fill="none" stroke="#333" stroke-linecap="round" stroke-linejoin="round" stroke-width="4"/>
    </g>
    <g>
      <g>
        <path d="M-421.8,209.79c-5.6-1.98-8.41-7.76-6.26-12.92s8.43-7.74,14.03-5.76,13.37,15.42,13.37,15.42c0,0-15.53,5.24-21.14,3.26Z" fill="#29abe2"/>
        <path d="M-490.74,264.75c-9.12,5.33-20.93,3.25-26.39-4.65-5.46-7.9-2.49-18.63,6.63-23.97,9.12-5.33,37.94-2.11,37.94-2.11,0,0-9.07,25.39-18.19,30.73Z" fill="#0071bc"/>
        <path d="M-461.06,227.03c-6.99,1.54-13.93-2.13-15.5-8.18s2.82-12.21,9.8-13.75c6.99-1.54,24.35,6.24,24.35,6.24,0,0-11.67,14.16-18.66,15.7Z" fill="#6183bc"/>
      </g>
      <g>
        <path d="M-210.2,209.79c5.6-1.98,8.41-7.76,6.26-12.92-2.15-5.16-8.43-7.74-14.03-5.76-5.6,1.98-13.37,15.42-13.37,15.42,0,0,15.53,5.24,21.14,3.26Z" fill="#29abe2"/>
        <path d="M-141.26,264.75c9.12,5.33,20.93,3.25,26.39-4.65,5.46-7.9,2.49-18.63-6.63-23.97-9.12-5.33-37.94-2.11-37.94-2.11,0,0,9.07,25.39,18.19,30.73Z" fill="#0071bc"/>
        <path d="M-170.94,227.03c6.99,1.54,13.93-2.13,15.5-8.18,1.57-6.06-2.82-12.21-9.8-13.75s-24.35,6.24-24.35,6.24c0,0,11.67,14.16,18.66,15.7Z" fill="#6183bc"/>
      </g>
    </g>
    <g>
      <ellipse cx="-316" cy="312.99" rx="40.26" ry="35.21" fill="#333"/>
      <path d="M-280.24,329.16c-6.55-6.74-19.57-11.34-34.57-11.34-16.14,0-30,5.32-35.96,12.91,6.98,10.45,19.94,17.47,34.77,17.47,15.57,0,29.06-7.73,35.76-19.04Z" fill="#c1272d"/>
    </g>
    <path d="M-366.38,117.58c4.63,1.18,8.82,2.49,12.5,3.81,1.12.48,10.56,4.73,12.08,13.1,1.63,8.97-6.41,19.51-19.98,22.2,1.93,1.62,12.72,10.38,28.26,9.24,13.73-1.01,25.92-9.37,31.72-21.59.66,2.58,1.42,7.12.13,12.52-1.96,8.22-7.44,13.24-9.62,15.05,34.35-5.6,38.48-24.48,41.13-40.91.89-5.53-.12-10.66-2.22-15.31-13.89-3.81-28.59-5.87-43.83-5.87-17.58,0-34.46,2.74-50.18,7.76Z" fill="#754c24"/>
  </g>
</svg>