<?xml version="1.0" encoding="UTF-8"?>
<svg id="Layer_1" data-name="Layer 1" xmlns="http://www.w3.org/2000/svg" viewBox="0 0 256 256">
  <path d="M256,79.73c0-3.04,0-6.08-.02-9.12-.02-2.56-.04-5.12-.11-7.68-.15-5.58-.48-11.2-1.47-16.72-1.01-5.59-2.65-10.8-5.24-15.89-2.55-5-5.87-9.57-9.84-13.53-3.97-3.96-8.54-7.29-13.54-9.83-5.09-2.59-10.3-4.23-15.9-5.24-5.52-.99-11.14-1.32-16.72-1.47-2.56-.07-5.12-.1-7.68-.11-3.04-.02-6.08-.02-9.12-.02l-35.31-.12h-26.41l-34.68.13c-3.05,0-6.09,0-9.14.02-2.57.02-5.13.05-7.7.11-5.59.15-11.23.48-16.76,1.47-5.61,1.01-10.83,2.65-15.93,5.23-5.01,2.54-9.59,5.87-13.57,9.83-3.97,3.96-7.3,8.53-9.85,13.53-2.6,5.09-4.24,10.3-5.25,15.89-.99,5.51-1.32,11.14-1.47,16.71-.07,2.56-.1,5.12-.11,7.68C.16,73.65,0,77.43,0,80.47v60.89l.16,34.93c0,3.04,0,6.09.02,9.13.02,2.56.05,5.13.11,7.69.15,5.58.48,11.22,1.47,16.74,1.01,5.6,2.65,10.82,5.25,15.91,2.55,5,5.88,9.58,9.86,13.55,3.97,3.97,8.56,7.3,13.56,9.84,5.1,2.59,10.32,4.24,15.93,5.24,5.53.99,11.16,1.32,16.75,1.47,2.57.07,5.13.1,7.7.11,3.05.02,6.09.02,9.14.02h96.4c3.04,0,6.08,0,9.12-.02,2.56-.02,5.12-.05,7.68-.11,5.58-.15,11.21-.48,16.73-1.47,5.6-1.01,10.81-2.65,15.89-5.24,5-2.55,9.57-5.87,13.54-9.84,3.97-3.97,7.29-8.55,9.84-13.55,2.59-5.09,4.23-10.31,5.24-15.92.99-5.52,1.32-11.15,1.47-16.73.07-2.56.1-5.13.11-7.69.02-3.04.02-6.09.02-9.13v-96.56h.01Z" fill="#e4ff97" fill-rule="evenodd"/>
  <g>
    <path d="M53.86,119.5l7.31-38.88h9.75l7.22,38.88h-7.88l-1.29-8.21h-5.69l-1.34,8.21h-8.08ZM64.04,106.15h4.11l-2.05-15.17-2.06,15.17Z"/>
    <path d="M94.96,119.98c-1.02,0-2.03-.23-3.03-.7-1-.46-1.97-1.1-2.89-1.9v2.11h-7.79v-38.88h7.79v13.15c.96-.83,1.95-1.46,2.99-1.87,1.03-.42,2.05-.62,3.03-.62,1.05,0,1.95.21,2.7.62.75.42,1.36,1,1.84,1.75.48.75.83,1.62,1.05,2.62.22.99.33,2.05.33,3.17v11.95c0,1.73-.23,3.23-.69,4.51-.46,1.28-1.14,2.28-2.03,3-.89.72-1.99,1.08-3.3,1.08ZM91.18,114.94c.51,0,.91-.14,1.19-.43.29-.29.49-.66.62-1.13.13-.46.19-.98.19-1.56v-12.96c0-.54-.06-1.03-.19-1.46-.13-.43-.33-.78-.6-1.03-.27-.26-.65-.38-1.12-.38-.41,0-.81.09-1.17.26-.37.18-.73.39-1.08.65v17.28c.35.22.71.41,1.08.55.37.14.72.22,1.08.22Z"/>
    <path d="M105.76,119.5v-38.88h7.74v38.88h-7.74Z"/>
    <path d="M127.55,119.98c-2.01,0-3.73-.36-5.16-1.08-1.43-.72-2.53-1.78-3.3-3.17s-1.15-3.06-1.15-5.02v-10.18c0-1.98.38-3.66,1.15-5.04.76-1.38,1.87-2.42,3.32-3.14,1.45-.72,3.16-1.08,5.14-1.08s3.74.35,5.09,1.06c1.35.7,2.37,1.74,3.06,3.12.69,1.38,1.03,3.07,1.03,5.09v5.57h-11.09v5.33c0,.7.08,1.28.24,1.73.16.45.38.77.67.96s.62.29,1,.29.72-.09,1.03-.26c.3-.18.54-.46.72-.84.17-.38.26-.91.26-1.58v-2.93h7.17v2.69c0,2.82-.81,4.94-2.44,6.36s-3.87,2.14-6.74,2.14ZM125.64,102.46h3.92v-2.78c0-.74-.09-1.31-.26-1.73-.17-.42-.41-.7-.72-.86-.3-.16-.66-.24-1.08-.24-.38,0-.71.1-.98.29-.27.19-.49.52-.65.98-.16.46-.24,1.13-.24,1.99v2.35Z"/>
    <path d="M149.53,119.79c-2.07,0-3.67-.3-4.8-.91-1.13-.61-1.9-1.5-2.32-2.66-.42-1.17-.62-2.58-.62-4.25v-15.07h-2.68v-5.14h2.68v-8.45h7.88v8.45h3.92v5.14h-3.92v14.3c0,.8.23,1.38.69,1.73.46.35,1.04.53,1.74.53.41,0,.8-.02,1.15-.07.35-.05.67-.09.96-.12v6.14c-.41.06-1.07.14-1.96.24-.89.1-1.8.14-2.72.14Z"/>
    <path d="M166.97,119.98c-1.98,0-3.69-.34-5.14-1.01-1.45-.67-2.57-1.68-3.35-3.02-.78-1.34-1.17-3.02-1.17-5.04v-10.56c0-2.02.39-3.7,1.17-5.04.78-1.34,1.9-2.35,3.35-3.02,1.45-.67,3.16-1.01,5.14-1.01s3.69.34,5.14,1.01c1.45.67,2.57,1.68,3.37,3.02.8,1.34,1.2,3.02,1.2,5.04v10.56c0,2.02-.4,3.7-1.2,5.04-.8,1.34-1.92,2.35-3.37,3.02-1.45.67-3.16,1.01-5.14,1.01ZM167.02,114.79c.51,0,.91-.14,1.19-.41.29-.27.49-.66.6-1.15.11-.5.17-1.1.17-1.8v-11.62c0-.7-.06-1.3-.17-1.8-.11-.5-.31-.88-.6-1.15-.29-.27-.68-.41-1.19-.41s-.91.14-1.19.41c-.29.27-.49.66-.62,1.15-.13.5-.19,1.1-.19,1.8v11.62c0,.7.06,1.3.19,1.8.13.5.33.88.62,1.15.29.27.68.41,1.19.41Z"/>
    <path d="M180.97,119.5v-27.74h7.79v2.78c1.02-1.02,2.08-1.82,3.18-2.4,1.1-.58,2.25-.86,3.46-.86,1.15,0,2.09.28,2.84.84.75.56,1.31,1.33,1.7,2.3.38.98.57,2.09.57,3.34v21.74h-7.74v-20.64c0-.67-.11-1.18-.33-1.54-.22-.35-.64-.53-1.24-.53-.32,0-.69.09-1.12.26-.43.18-.87.42-1.31.74v21.7h-7.79Z"/>
    <path d="M92.66,177.1v-38.88h8.55v33.07h8.89v5.81h-17.44Z"/>
    <path d="M113.02,144.65v-5.42h7.84v5.42h-7.84ZM113.07,177.1v-27.74h7.79v27.74h-7.79Z"/>
    <path d="M129.27,177.1l-5.54-27.74h7.45l2.29,17.71,2.1-17.71h7.46l-5.69,27.74h-8.08Z"/>
    <path d="M154.83,177.58c-2.01,0-3.73-.36-5.16-1.08-1.43-.72-2.53-1.78-3.3-3.17-.76-1.39-1.15-3.06-1.15-5.02v-10.18c0-1.98.38-3.66,1.15-5.04s1.87-2.42,3.32-3.14c1.45-.72,3.16-1.08,5.14-1.08s3.74.35,5.09,1.06c1.35.7,2.37,1.74,3.06,3.12.69,1.38,1.03,3.07,1.03,5.09v5.57h-11.09v5.33c0,.71.08,1.28.24,1.73.16.45.38.77.67.96.29.19.62.29,1,.29s.72-.09,1.03-.26.54-.46.72-.84c.17-.38.26-.91.26-1.58v-2.93h7.17v2.69c0,2.82-.81,4.94-2.44,6.36-1.62,1.42-3.87,2.14-6.74,2.14ZM152.92,160.06h3.92v-2.78c0-.74-.09-1.31-.26-1.73s-.41-.7-.72-.86-.66-.24-1.08-.24c-.38,0-.71.1-.98.29-.27.19-.49.52-.64.98-.16.46-.24,1.13-.24,1.99v2.35Z"/>
  </g>
</svg>