<?xml version="1.0" encoding="UTF-8"?>
<svg id="Layer_1" xmlns="http://www.w3.org/2000/svg" width="256" height="256" version="1.1" viewBox="0 0 256 256">
  <!-- Generator: Adobe Illustrator 29.8.4, SVG Export Plug-In . SVG Version: 2.1.1 Build 6)  -->
  <path d="M256,79.73c0-3.04,0-6.08-.02-9.12-.02-2.56-.04-5.12-.11-7.68-.15-5.58-.48-11.2-1.47-16.72-1.01-5.59-2.65-10.8-5.24-15.89-2.55-5-5.87-9.57-9.84-13.53-3.97-3.96-8.54-7.29-13.54-9.83-5.09-2.59-10.3-4.23-15.9-5.24-5.52-.99-11.14-1.32-16.72-1.47-2.56-.07-5.12-.1-7.68-.11-3.04-.02-6.08-.02-9.12-.02l-35.31-.12h-26.41l-34.68.13c-3.05,0-6.09,0-9.14.02-2.57.02-5.13.05-7.7.11-5.59.15-11.23.48-16.76,1.47-5.61,1.01-10.83,2.65-15.93,5.23-5.01,2.54-9.59,5.87-13.57,9.83-3.97,3.96-7.3,8.53-9.85,13.53-2.6,5.09-4.24,10.3-5.25,15.89-.99,5.51-1.32,11.14-1.47,16.71-.07,2.56-.1,5.12-.11,7.68C.16,73.65,0,77.43,0,80.47v60.89l.16,34.93c0,3.04,0,6.09.02,9.13.02,2.56.05,5.13.11,7.69.15,5.58.48,11.22,1.47,16.74,1.01,5.6,2.65,10.82,5.25,15.91,2.55,5,5.88,9.58,9.86,13.55,3.97,3.97,8.56,7.3,13.56,9.84,5.1,2.59,10.32,4.24,15.93,5.24,5.53.99,11.16,1.32,16.75,1.47,2.57.07,5.13.1,7.7.11,3.05.02,6.09.02,9.14.02h96.4c3.04,0,6.08,0,9.12-.02,2.56-.02,5.12-.05,7.68-.11,5.58-.15,11.21-.48,16.73-1.47,5.6-1.01,10.81-2.65,15.89-5.24,5-2.55,9.57-5.87,13.54-9.84,3.97-3.97,7.29-8.55,9.84-13.55,2.59-5.09,4.23-10.31,5.24-15.92.99-5.52,1.32-11.15,1.47-16.73.07-2.56.1-5.13.11-7.69.02-3.04.02-6.09.02-9.13v-96.56h.01Z" fill="#00005b" fill-rule="evenodd"/>
  <g>
    <rect x="22.29" y="23.33" width="211.05" height="211.05" fill="none"/>
    <path d="M68.77,90.7l7.31-38.88h9.75l7.22,38.88h-7.88l-1.29-8.21h-5.69l-1.34,8.21h-8.08ZM78.95,77.35h4.11l-2.05-15.17-2.06,15.17Z" fill="#99f"/>
    <path d="M102.51,91.18c-2.04,0-3.62-.72-4.73-2.16-1.12-1.44-1.67-3.57-1.67-6.38v-11.47c0-1.73.24-3.24.72-4.54.48-1.3,1.19-2.31,2.15-3.05.96-.74,2.13-1.1,3.54-1.1,1.02,0,1.99.2,2.92.6.92.4,1.77.94,2.53,1.61v-12.86h7.79v38.88h-7.79v-2.16c-.86.83-1.75,1.48-2.68,1.94-.92.46-1.85.7-2.77.7ZM105.9,86.19c.25,0,.57-.06.93-.19.37-.13.74-.3,1.12-.53v-17.52c-.32-.16-.65-.3-1-.43-.35-.13-.69-.19-1-.19-.7,0-1.21.3-1.53.89-.32.59-.48,1.3-.48,2.14v12.77c0,.58.06,1.1.19,1.56.13.46.33.83.62,1.1.29.27.67.41,1.15.41Z" fill="#99f"/>
    <path d="M129.65,91.18c-1.98,0-3.69-.34-5.14-1.01-1.45-.67-2.56-1.68-3.34-3.02-.78-1.34-1.17-3.02-1.17-5.04v-10.56c0-2.02.39-3.7,1.17-5.04.78-1.34,1.9-2.35,3.34-3.02,1.45-.67,3.16-1.01,5.14-1.01s3.69.34,5.14,1.01c1.45.67,2.57,1.68,3.37,3.02.8,1.34,1.2,3.02,1.2,5.04v10.56c0,2.02-.4,3.7-1.2,5.04-.8,1.34-1.92,2.35-3.37,3.02-1.45.67-3.16,1.01-5.14,1.01ZM129.7,85.99c.51,0,.91-.14,1.19-.41.29-.27.49-.66.6-1.15.11-.5.17-1.1.17-1.8v-11.62c0-.7-.06-1.3-.17-1.8-.11-.5-.31-.88-.6-1.15-.29-.27-.68-.41-1.19-.41s-.91.14-1.19.41c-.29.27-.49.66-.62,1.15-.13.5-.19,1.1-.19,1.8v11.62c0,.7.06,1.3.19,1.8.13.5.33.88.62,1.15.29.27.69.41,1.19.41Z" fill="#99f"/>
    <path d="M157.37,91.18c-1.02,0-2.03-.23-3.04-.7-1-.46-1.97-1.1-2.89-1.9v2.11h-7.79v-38.88h7.79v13.15c.96-.83,1.95-1.46,2.99-1.87,1.04-.42,2.05-.62,3.04-.62,1.05,0,1.95.21,2.7.62.75.42,1.36,1,1.84,1.75.48.75.83,1.62,1.05,2.62.22.99.33,2.05.33,3.17v11.95c0,1.73-.23,3.23-.69,4.51-.46,1.28-1.14,2.28-2.03,3-.89.72-1.99,1.08-3.3,1.08ZM153.59,86.14c.51,0,.91-.14,1.19-.43.29-.29.49-.66.62-1.13.13-.46.19-.98.19-1.56v-12.96c0-.54-.06-1.03-.19-1.46s-.33-.78-.6-1.03c-.27-.26-.65-.38-1.12-.38-.42,0-.8.09-1.17.26-.37.18-.72.39-1.08.65v17.28c.35.22.71.41,1.08.55s.72.22,1.08.22Z" fill="#99f"/>
    <path d="M176.86,91.18c-2.01,0-3.73-.36-5.16-1.08-1.43-.72-2.53-1.78-3.3-3.17s-1.15-3.06-1.15-5.02v-10.18c0-1.98.38-3.66,1.15-5.04.76-1.38,1.87-2.42,3.32-3.14,1.45-.72,3.16-1.08,5.14-1.08s3.74.35,5.09,1.06c1.35.7,2.37,1.74,3.06,3.12.69,1.38,1.03,3.07,1.03,5.09v5.57h-11.09v5.33c0,.7.08,1.28.24,1.73.16.45.38.77.67.96.29.19.62.29,1,.29s.72-.09,1.03-.26c.3-.18.54-.46.72-.84.17-.38.26-.91.26-1.58v-2.93h7.17v2.69c0,2.82-.81,4.94-2.44,6.36s-3.87,2.14-6.74,2.14ZM174.95,73.66h3.92v-2.78c0-.74-.09-1.31-.26-1.73-.17-.42-.41-.7-.72-.86-.3-.16-.66-.24-1.08-.24-.38,0-.71.1-.98.29-.27.19-.49.52-.64.98-.16.46-.24,1.13-.24,1.99v2.35Z" fill="#99f"/>
    <path d="M44.3,148.87c-2.93,0-5.25-.54-6.95-1.61-1.7-1.07-2.91-2.58-3.61-4.51-.7-1.94-1.05-4.22-1.05-6.84v-14.02c0-2.69.35-5,1.05-6.94.7-1.94,1.9-3.43,3.61-4.49,1.7-1.06,4.02-1.58,6.95-1.58s5.1.47,6.71,1.42c1.61.94,2.75,2.26,3.42,3.96.67,1.7,1,3.65,1,5.86v3.36h-8.36v-3.89c0-.77-.04-1.5-.12-2.21-.08-.7-.31-1.29-.69-1.75-.38-.46-1.04-.7-1.96-.7s-1.55.24-1.98.72-.7,1.08-.81,1.8c-.11.72-.17,1.48-.17,2.28v18.29c0,.86.07,1.66.21,2.38.14.72.43,1.3.86,1.73s1.06.65,1.89.65c.89,0,1.53-.23,1.91-.7s.62-1.06.72-1.8c.1-.74.14-1.49.14-2.26v-4.08h8.36v3.36c0,2.21-.33,4.18-.98,5.93-.65,1.75-1.78,3.12-3.39,4.13-1.61,1.01-3.86,1.51-6.76,1.51Z" fill="#99f"/>
    <path d="M59.74,148.3v-38.88h7.74v13.58c1.02-1.02,2.09-1.77,3.2-2.23,1.11-.46,2.31-.7,3.58-.7,1.11,0,2.05.28,2.8.84.75.56,1.31,1.33,1.7,2.3.38.98.57,2.09.57,3.34v21.74h-7.74v-20.64c0-.67-.11-1.18-.33-1.54-.22-.35-.64-.53-1.24-.53-.32,0-.7.09-1.15.26-.45.18-.91.42-1.39.74v21.7h-7.74Z" fill="#99f"/>
    <path d="M89.7,148.78c-1.4,0-2.58-.34-3.54-1.01-.96-.67-1.67-1.53-2.15-2.57-.48-1.04-.72-2.1-.72-3.19,0-1.73.34-3.18,1.03-4.37.69-1.18,1.58-2.18,2.7-2.98,1.11-.8,2.34-1.48,3.68-2.04,1.34-.56,2.66-1.06,3.97-1.51v-2.78c0-.48-.05-.9-.14-1.27-.1-.37-.26-.66-.48-.86-.22-.21-.56-.31-1-.31s-.79.1-1.03.29c-.24.19-.41.46-.5.79-.1.34-.16.71-.19,1.13l-.19,2.02-7.26-.29c.16-3.33,1.04-5.78,2.65-7.37,1.61-1.58,4.02-2.38,7.24-2.38,2.8,0,4.9.78,6.28,2.33,1.39,1.55,2.08,3.56,2.08,6.02v12.96c0,1.15.02,2.16.07,3.02.05.86.11,1.62.19,2.26.08.64.15,1.18.21,1.63h-6.98c-.1-.74-.21-1.54-.33-2.4-.13-.86-.22-1.38-.29-1.54-.32,1.15-.92,2.18-1.79,3.07-.88.9-2.05,1.34-3.51,1.34ZM92.47,143.5c.32,0,.61-.06.88-.19.27-.13.52-.3.74-.53.22-.22.41-.45.57-.67v-7.58c-.64.38-1.23.78-1.77,1.18-.54.4-1,.84-1.39,1.32-.38.48-.68,1-.88,1.56-.21.56-.31,1.19-.31,1.9,0,.93.19,1.66.57,2.21.38.54.91.82,1.58.82Z" fill="#99f"/>
    <path d="M106.85,148.3v-27.74h7.79v4.61c.89-1.6,1.78-2.82,2.68-3.67.89-.85,1.98-1.27,3.25-1.27.25,0,.48,0,.67.02.19.02.37.06.53.12v7.78c-.35-.16-.74-.3-1.17-.41-.43-.11-.88-.17-1.36-.17-.89,0-1.72.24-2.48.72s-1.47,1.14-2.1,1.97v18.05h-7.79Z" fill="#99f"/>
    <path d="M130.61,148.78c-1.4,0-2.58-.34-3.54-1.01-.96-.67-1.67-1.53-2.15-2.57-.48-1.04-.72-2.1-.72-3.19,0-1.73.34-3.18,1.03-4.37.69-1.18,1.58-2.18,2.7-2.98,1.11-.8,2.34-1.48,3.68-2.04,1.34-.56,2.66-1.06,3.97-1.51v-2.78c0-.48-.05-.9-.14-1.27-.1-.37-.25-.66-.48-.86-.22-.21-.56-.31-1-.31s-.79.1-1.03.29-.41.46-.5.79-.16.71-.19,1.13l-.19,2.02-7.26-.29c.16-3.33,1.04-5.78,2.65-7.37,1.61-1.58,4.02-2.38,7.24-2.38,2.8,0,4.9.78,6.28,2.33,1.39,1.55,2.08,3.56,2.08,6.02v12.96c0,1.15.02,2.16.07,3.02.05.86.11,1.62.19,2.26.08.64.15,1.18.21,1.63h-6.98c-.1-.74-.21-1.54-.33-2.4-.13-.86-.22-1.38-.29-1.54-.32,1.15-.92,2.18-1.79,3.07s-2.05,1.34-3.51,1.34ZM133.38,143.5c.32,0,.61-.06.88-.19.27-.13.52-.3.74-.53.22-.22.41-.45.57-.67v-7.58c-.64.38-1.23.78-1.77,1.18s-1,.84-1.39,1.32c-.38.48-.68,1-.88,1.56-.21.56-.31,1.19-.31,1.9,0,.93.19,1.66.57,2.21.38.54.91.82,1.58.82Z" fill="#99f"/>
    <path d="M156.65,148.78c-2.01,0-3.72-.37-5.14-1.1-1.42-.74-2.51-1.79-3.27-3.17s-1.15-3.04-1.15-4.99v-10.18c0-1.98.38-3.66,1.15-5.04.76-1.38,1.86-2.42,3.27-3.14,1.42-.72,3.13-1.08,5.14-1.08s3.66.3,5.04.91c1.39.61,2.44,1.53,3.18,2.76.73,1.23,1.1,2.79,1.1,4.68v2.93h-7.5v-3.17c0-.74-.07-1.3-.21-1.7-.14-.4-.35-.68-.62-.84s-.6-.24-.98-.24-.7.1-.96.31c-.26.21-.45.54-.57,1.01-.13.46-.19,1.11-.19,1.94v11.52c0,1.25.15,2.1.45,2.54.3.45.74.67,1.31.67.41,0,.75-.09,1-.26.25-.18.45-.46.57-.86.13-.4.19-.94.19-1.61v-3.7h7.5v3.36c0,1.86-.37,3.42-1.12,4.68-.75,1.26-1.82,2.21-3.2,2.83s-3.05.94-4.99.94Z" fill="#99f"/>
    <path d="M178.58,148.58c-2.07,0-3.67-.3-4.8-.91-1.13-.61-1.9-1.5-2.32-2.66-.42-1.17-.62-2.58-.62-4.25v-15.07h-2.68v-5.14h2.68v-8.45h7.88v8.45h3.92v5.14h-3.92v14.3c0,.8.23,1.38.69,1.73.46.35,1.04.53,1.74.53.41,0,.8-.02,1.15-.07.35-.05.67-.09.96-.12v6.14c-.41.06-1.07.14-1.96.24-.89.1-1.8.14-2.72.14Z" fill="#99f"/>
    <path d="M195.98,148.78c-2.01,0-3.73-.36-5.16-1.08-1.43-.72-2.53-1.78-3.3-3.17-.76-1.39-1.15-3.06-1.15-5.02v-10.18c0-1.98.38-3.66,1.15-5.04.76-1.38,1.87-2.42,3.32-3.14,1.45-.72,3.16-1.08,5.14-1.08s3.74.35,5.09,1.06c1.35.7,2.37,1.74,3.06,3.12.69,1.38,1.03,3.07,1.03,5.09v5.57h-11.09v5.33c0,.71.08,1.28.24,1.73.16.45.38.77.67.96.29.19.62.29,1,.29s.72-.09,1.03-.26.54-.46.72-.84c.17-.38.26-.91.26-1.58v-2.93h7.17v2.69c0,2.82-.81,4.94-2.44,6.36-1.62,1.42-3.87,2.14-6.74,2.14ZM194.07,131.26h3.92v-2.78c0-.74-.09-1.31-.26-1.73-.17-.42-.41-.7-.72-.86-.3-.16-.66-.24-1.08-.24-.38,0-.71.1-.98.29-.27.19-.49.52-.64.98-.16.46-.24,1.13-.24,1.99v2.35Z" fill="#99f"/>
    <path d="M209.5,148.3v-27.74h7.79v4.61c.89-1.6,1.78-2.82,2.68-3.67.89-.85,1.97-1.27,3.25-1.27.25,0,.48,0,.67.02.19.02.37.06.53.12v7.78c-.35-.16-.74-.3-1.17-.41-.43-.11-.88-.17-1.36-.17-.89,0-1.72.24-2.48.72s-1.47,1.14-2.1,1.97v18.05h-7.79Z" fill="#99f"/>
    <path d="M38.93,205.9l7.31-38.88h9.75l7.22,38.88h-7.88l-1.29-8.21h-5.69l-1.34,8.21h-8.08ZM49.1,192.55h4.11l-2.05-15.17-2.06,15.17Z" fill="#99f"/>
    <path d="M66.31,205.9v-27.74h7.79v2.78c1.02-1.02,2.08-1.82,3.18-2.4,1.1-.58,2.25-.86,3.46-.86,1.15,0,2.09.28,2.84.84.75.56,1.31,1.33,1.7,2.3.38.98.57,2.09.57,3.34v21.74h-7.74v-20.64c0-.67-.11-1.18-.33-1.54-.22-.35-.64-.53-1.24-.53-.32,0-.69.09-1.12.26-.43.18-.87.42-1.31.74v21.7h-7.79Z" fill="#99f"/>
    <path d="M90.54,173.45v-5.42h7.84v5.42h-7.84ZM90.58,205.9v-27.74h7.79v27.74h-7.79Z" fill="#99f"/>
    <path d="M103.2,205.9v-27.74h7.65v2.21c1.02-.99,2.08-1.7,3.18-2.11,1.1-.42,2.22-.62,3.37-.62s2.08.28,2.89.84,1.43,1.38,1.84,2.47c1.08-1.22,2.22-2.07,3.42-2.57,1.19-.5,2.4-.74,3.61-.74,1.08,0,2.02.26,2.82.79.8.53,1.42,1.3,1.86,2.3s.67,2.22.67,3.62v21.55h-7.65v-20.74c0-.77-.14-1.32-.41-1.66-.27-.34-.68-.5-1.22-.5-.32,0-.72.09-1.19.26s-.94.42-1.39.74v21.89h-7.55v-20.74c0-.77-.14-1.32-.43-1.66-.29-.34-.7-.5-1.24-.5-.35,0-.76.09-1.22.26s-.92.42-1.36.74v21.89h-7.65Z" fill="#99f"/>
    <path d="M144.87,206.38c-1.4,0-2.58-.34-3.54-1.01-.96-.67-1.67-1.53-2.15-2.57-.48-1.04-.72-2.1-.72-3.19,0-1.73.34-3.18,1.03-4.37.68-1.18,1.58-2.18,2.7-2.98s2.34-1.48,3.68-2.04c1.34-.56,2.66-1.06,3.97-1.51v-2.78c0-.48-.05-.9-.14-1.27-.1-.37-.25-.66-.48-.86-.22-.21-.56-.31-1-.31s-.79.1-1.03.29-.41.46-.5.79-.16.71-.19,1.13l-.19,2.02-7.26-.29c.16-3.33,1.04-5.78,2.65-7.37,1.61-1.58,4.02-2.38,7.24-2.38,2.8,0,4.9.78,6.28,2.33,1.39,1.55,2.08,3.56,2.08,6.02v12.96c0,1.15.02,2.16.07,3.02.05.86.11,1.62.19,2.26.08.64.15,1.18.21,1.63h-6.98c-.1-.74-.21-1.54-.33-2.4-.13-.86-.22-1.38-.29-1.54-.32,1.15-.92,2.18-1.79,3.07s-2.05,1.34-3.51,1.34ZM147.64,201.1c.32,0,.61-.06.88-.19.27-.13.52-.3.74-.53.22-.22.41-.45.57-.67v-7.58c-.64.38-1.23.78-1.77,1.18s-1,.84-1.39,1.32c-.38.48-.68,1-.88,1.56-.21.56-.31,1.19-.31,1.9,0,.93.19,1.66.57,2.21.38.54.91.82,1.58.82Z" fill="#99f"/>
    <path d="M170.39,206.19c-2.07,0-3.67-.3-4.8-.91-1.13-.61-1.9-1.5-2.32-2.66-.42-1.17-.62-2.58-.62-4.25v-15.07h-2.68v-5.14h2.68v-8.45h7.88v8.45h3.92v5.14h-3.92v14.3c0,.8.23,1.38.69,1.73.46.35,1.04.53,1.74.53.41,0,.8-.02,1.15-.07.35-.05.67-.09.96-.12v6.14c-.41.06-1.07.14-1.96.24-.89.1-1.8.14-2.72.14Z" fill="#99f"/>
    <path d="M187.83,206.38c-1.98,0-3.69-.34-5.14-1.01-1.45-.67-2.57-1.68-3.35-3.02-.78-1.34-1.17-3.02-1.17-5.04v-10.56c0-2.02.39-3.7,1.17-5.04.78-1.34,1.9-2.35,3.35-3.02,1.45-.67,3.16-1.01,5.14-1.01s3.69.34,5.14,1.01c1.45.67,2.57,1.68,3.37,3.02.8,1.34,1.2,3.02,1.2,5.04v10.56c0,2.02-.4,3.7-1.2,5.04-.8,1.34-1.92,2.35-3.37,3.02-1.45.67-3.16,1.01-5.14,1.01ZM187.88,201.19c.51,0,.91-.14,1.19-.41.29-.27.49-.66.6-1.15.11-.5.17-1.1.17-1.8v-11.62c0-.7-.06-1.3-.17-1.8-.11-.5-.31-.88-.6-1.15-.29-.27-.68-.41-1.19-.41s-.91.14-1.19.41c-.29.27-.49.66-.62,1.15-.13.5-.19,1.1-.19,1.8v11.62c0,.71.06,1.3.19,1.8.13.5.33.88.62,1.15.29.27.68.41,1.19.41Z" fill="#99f"/>
    <path d="M201.93,205.9v-27.74h7.79v4.61c.89-1.6,1.78-2.82,2.68-3.67.89-.85,1.97-1.27,3.25-1.27.25,0,.48,0,.67.02.19.02.37.06.53.12v7.78c-.35-.16-.74-.29-1.17-.41-.43-.11-.88-.17-1.36-.17-.89,0-1.72.24-2.48.72-.76.48-1.47,1.14-2.1,1.97v18.05h-7.79Z" fill="#99f"/>
  </g>
</svg>