<?xml version="1.0" encoding="UTF-8"?>
<svg id="Layer_1" xmlns="http://www.w3.org/2000/svg" width="256" height="256" version="1.1" viewBox="0 0 256 256">
  <!-- Generator: Adobe Illustrator 29.8.4, SVG Export Plug-In . SVG Version: 2.1.1 Build 6)  -->
  <path d="M256,79.73c0-3.04,0-6.08-.02-9.12-.02-2.56-.04-5.12-.11-7.68-.15-5.58-.48-11.2-1.47-16.72-1.01-5.59-2.65-10.8-5.24-15.89-2.55-5-5.87-9.57-9.84-13.53-3.97-3.96-8.54-7.29-13.54-9.83-5.09-2.59-10.3-4.23-15.9-5.24-5.52-.99-11.14-1.32-16.72-1.47-2.56-.07-5.12-.1-7.68-.11-3.04-.02-6.08-.02-9.12-.02l-35.31-.12h-26.41l-34.68.13c-3.05,0-6.09,0-9.14.02-2.57.02-5.13.05-7.7.11-5.59.15-11.23.48-16.76,1.47-5.61,1.01-10.83,2.65-15.93,5.23-5.01,2.54-9.59,5.87-13.57,9.83-3.97,3.96-7.3,8.53-9.85,13.53-2.6,5.09-4.24,10.3-5.25,15.89-.99,5.51-1.32,11.14-1.47,16.71-.07,2.56-.1,5.12-.11,7.68C.16,73.65,0,77.43,0,80.47v60.89l.16,34.93c0,3.04,0,6.09.02,9.13.02,2.56.05,5.13.11,7.69.15,5.58.48,11.22,1.47,16.74,1.01,5.6,2.65,10.82,5.25,15.91,2.55,5,5.88,9.58,9.86,13.55,3.97,3.97,8.56,7.3,13.56,9.84,5.1,2.59,10.32,4.24,15.93,5.24,5.53.99,11.16,1.32,16.75,1.47,2.57.07,5.13.1,7.7.11,3.05.02,6.09.02,9.14.02h96.4c3.04,0,6.08,0,9.12-.02,2.56-.02,5.12-.05,7.68-.11,5.58-.15,11.21-.48,16.73-1.47,5.6-1.01,10.81-2.65,15.89-5.24,5-2.55,9.57-5.87,13.54-9.84,3.97-3.97,7.29-8.55,9.84-13.55,2.59-5.09,4.23-10.31,5.24-15.92.99-5.52,1.32-11.15,1.47-16.73.07-2.56.1-5.13.11-7.69.02-3.04.02-6.09.02-9.13v-96.56h.01Z" fill="#49021f" fill-rule="evenodd"/>
  <g>
    <rect x="22.29" y="23.33" width="211.05" height="211.05" fill="none"/>
    <path d="M68.77,119.5l7.31-38.88h9.75l7.22,38.88h-7.88l-1.29-8.21h-5.69l-1.34,8.21h-8.08ZM78.95,106.15h4.11l-2.05-15.17-2.06,15.17Z" fill="#f36"/>
    <path d="M102.51,119.98c-2.04,0-3.62-.72-4.73-2.16-1.12-1.44-1.67-3.57-1.67-6.38v-11.47c0-1.73.24-3.24.72-4.54.48-1.3,1.19-2.31,2.15-3.05.96-.74,2.13-1.1,3.54-1.1,1.02,0,1.99.2,2.92.6.92.4,1.77.94,2.53,1.61v-12.86h7.79v38.88h-7.79v-2.16c-.86.83-1.75,1.48-2.68,1.94-.92.46-1.85.7-2.77.7ZM105.9,114.98c.25,0,.57-.06.93-.19.37-.13.74-.3,1.12-.53v-17.52c-.32-.16-.65-.3-1-.43-.35-.13-.69-.19-1-.19-.7,0-1.21.3-1.53.89-.32.59-.48,1.3-.48,2.14v12.77c0,.58.06,1.1.19,1.56.13.46.33.83.62,1.1.29.27.67.41,1.15.41Z" fill="#f36"/>
    <path d="M129.65,119.98c-1.98,0-3.69-.34-5.14-1.01-1.45-.67-2.56-1.68-3.34-3.02-.78-1.34-1.17-3.02-1.17-5.04v-10.56c0-2.02.39-3.7,1.17-5.04.78-1.34,1.9-2.35,3.34-3.02,1.45-.67,3.16-1.01,5.14-1.01s3.69.34,5.14,1.01c1.45.67,2.57,1.68,3.37,3.02.8,1.34,1.2,3.02,1.2,5.04v10.56c0,2.02-.4,3.7-1.2,5.04-.8,1.34-1.92,2.35-3.37,3.02-1.45.67-3.16,1.01-5.14,1.01ZM129.7,114.79c.51,0,.91-.14,1.19-.41.29-.27.49-.66.6-1.15.11-.5.17-1.1.17-1.8v-11.62c0-.7-.06-1.3-.17-1.8-.11-.5-.31-.88-.6-1.15-.29-.27-.68-.41-1.19-.41s-.91.14-1.19.41c-.29.27-.49.66-.62,1.15-.13.5-.19,1.1-.19,1.8v11.62c0,.7.06,1.3.19,1.8.13.5.33.88.62,1.15.29.27.69.41,1.19.41Z" fill="#f36"/>
    <path d="M157.37,119.98c-1.02,0-2.03-.23-3.04-.7-1-.46-1.97-1.1-2.89-1.9v2.11h-7.79v-38.88h7.79v13.15c.96-.83,1.95-1.46,2.99-1.87,1.04-.42,2.05-.62,3.04-.62,1.05,0,1.95.21,2.7.62.75.42,1.36,1,1.84,1.75.48.75.83,1.62,1.05,2.62.22.99.33,2.05.33,3.17v11.95c0,1.73-.23,3.23-.69,4.51-.46,1.28-1.14,2.28-2.03,3-.89.72-1.99,1.08-3.3,1.08ZM153.59,114.94c.51,0,.91-.14,1.19-.43.29-.29.49-.66.62-1.13.13-.46.19-.98.19-1.56v-12.96c0-.54-.06-1.03-.19-1.46s-.33-.78-.6-1.03c-.27-.26-.65-.38-1.12-.38-.42,0-.8.09-1.17.26-.37.18-.72.39-1.08.65v17.28c.35.22.71.41,1.08.55s.72.22,1.08.22Z" fill="#f36"/>
    <path d="M176.86,119.98c-2.01,0-3.73-.36-5.16-1.08-1.43-.72-2.53-1.78-3.3-3.17s-1.15-3.06-1.15-5.02v-10.18c0-1.98.38-3.66,1.15-5.04.76-1.38,1.87-2.42,3.32-3.14,1.45-.72,3.16-1.08,5.14-1.08s3.74.35,5.09,1.06c1.35.7,2.37,1.74,3.06,3.12.69,1.38,1.03,3.07,1.03,5.09v5.57h-11.09v5.33c0,.7.08,1.28.24,1.73.16.45.38.77.67.96.29.19.62.29,1,.29s.72-.09,1.03-.26c.3-.18.54-.46.72-.84.17-.38.26-.91.26-1.58v-2.93h7.17v2.69c0,2.82-.81,4.94-2.44,6.36s-3.87,2.14-6.74,2.14ZM174.95,102.46h3.92v-2.78c0-.74-.09-1.31-.26-1.73-.17-.42-.41-.7-.72-.86-.3-.16-.66-.24-1.08-.24-.38,0-.71.1-.98.29-.27.19-.49.52-.64.98-.16.46-.24,1.13-.24,1.99v2.35Z" fill="#f36"/>
    <path d="M45.64,177.1v-38.88h8.55v38.88h-8.55Z" fill="#f36"/>
    <path d="M59.55,177.1v-27.74h7.79v2.78c1.02-1.02,2.08-1.82,3.18-2.4,1.1-.58,2.25-.86,3.46-.86,1.15,0,2.09.28,2.84.84.75.56,1.31,1.33,1.7,2.3.38.98.57,2.09.57,3.34v21.74h-7.74v-20.64c0-.67-.11-1.18-.33-1.54-.22-.35-.64-.53-1.24-.53-.32,0-.69.09-1.12.26-.43.18-.87.42-1.31.74v21.7h-7.79Z" fill="#f36"/>
    <path d="M84.2,177.1v-38.88h9.8c3.38,0,6,.42,7.88,1.27,1.88.85,3.2,2.18,3.97,3.98.76,1.81,1.15,4.15,1.15,7.03v14.11c0,2.91-.38,5.29-1.15,7.13-.76,1.84-2.08,3.19-3.94,4.06s-4.47,1.3-7.81,1.3h-9.89ZM92.76,171.14h1.34c1.31,0,2.25-.19,2.82-.58.57-.38.93-.96,1.08-1.73.14-.77.22-1.73.22-2.88v-16.94c0-1.15-.09-2.08-.26-2.78-.18-.7-.55-1.22-1.12-1.54-.57-.32-1.5-.48-2.77-.48h-1.29v26.93Z" fill="#f36"/>
    <path d="M120.81,177.58c-2.01,0-3.73-.36-5.16-1.08-1.43-.72-2.53-1.78-3.3-3.17-.76-1.39-1.15-3.06-1.15-5.02v-10.18c0-1.98.38-3.66,1.15-5.04s1.87-2.42,3.32-3.14c1.45-.72,3.16-1.08,5.14-1.08s3.73.35,5.09,1.06c1.35.7,2.37,1.74,3.06,3.12s1.03,3.07,1.03,5.09v5.57h-11.09v5.33c0,.71.08,1.28.24,1.73.16.45.38.77.67.96s.62.29,1,.29.72-.09,1.03-.26c.3-.18.54-.46.72-.84.17-.38.26-.91.26-1.58v-2.93h7.17v2.69c0,2.82-.81,4.94-2.44,6.36-1.62,1.42-3.87,2.14-6.74,2.14ZM118.9,160.06h3.92v-2.78c0-.74-.09-1.31-.26-1.73-.18-.42-.41-.7-.72-.86-.3-.16-.66-.24-1.08-.24-.38,0-.71.1-.98.29-.27.19-.49.52-.65.98-.16.46-.24,1.13-.24,1.99v2.35Z" fill="#f36"/>
    <path d="M142.74,177.58c-2.42,0-4.44-.54-6.04-1.63-1.61-1.09-2.92-2.86-3.94-5.33l5.3-2.35c.51,1.25,1.11,2.23,1.79,2.95.69.72,1.44,1.08,2.27,1.08.6,0,1.06-.13,1.36-.38s.45-.61.45-1.06c0-.74-.28-1.41-.84-2.02-.56-.61-1.55-1.5-2.99-2.69l-2.01-1.68c-1.47-1.25-2.62-2.46-3.46-3.62-.84-1.17-1.27-2.62-1.27-4.34,0-1.5.39-2.83,1.17-3.98.78-1.15,1.82-2.05,3.13-2.69,1.31-.64,2.71-.96,4.21-.96,2.26,0,4.16.62,5.69,1.87s2.6,3.01,3.2,5.28l-5.02,2.3c-.19-.61-.46-1.22-.81-1.82-.35-.61-.77-1.12-1.27-1.54s-1.03-.62-1.6-.62c-.51,0-.92.14-1.22.43s-.45.67-.45,1.15c0,.61.34,1.26,1.03,1.97.68.7,1.63,1.55,2.84,2.54l1.96,1.73c.8.67,1.58,1.39,2.34,2.16.76.77,1.39,1.62,1.89,2.54.49.93.74,1.98.74,3.17,0,1.6-.4,2.97-1.19,4.1-.8,1.14-1.84,1.99-3.13,2.57s-2.67.86-4.13.86Z" fill="#f36"/>
    <path d="M154.5,144.65v-5.42h7.84v5.42h-7.84ZM154.55,177.1v-27.74h7.79v27.74h-7.79Z" fill="#f36"/>
    <path d="M176.15,186.7c-2.07,0-3.87-.21-5.4-.62s-2.72-1.04-3.56-1.87c-.84-.83-1.27-1.89-1.27-3.17,0-.86.18-1.64.55-2.33.37-.69.88-1.3,1.53-1.82.65-.53,1.39-.98,2.22-1.37-1.21-.35-2.15-.88-2.82-1.58-.67-.7-1-1.65-1-2.83,0-1.12.27-2.09.81-2.9.54-.82,1.29-1.64,2.25-2.47-.89-.8-1.57-1.78-2.03-2.95-.46-1.17-.69-2.58-.69-4.25,0-2.08.38-3.84,1.15-5.28.76-1.44,1.89-2.53,3.37-3.26,1.48-.74,3.27-1.1,5.38-1.1,1.43,0,2.69.18,3.77.53,1.08.35,2.01.9,2.77,1.63.35-.54.81-1.07,1.39-1.58.57-.51,1.23-.94,1.96-1.3l1-.48,1.82,3.74c-.29.1-.69.26-1.19.48-.51.22-1.04.46-1.6.72-.56.26-1.06.51-1.5.77.35.7.62,1.5.81,2.4s.29,1.82.29,2.78c0,1.98-.36,3.7-1.08,5.14-.72,1.44-1.78,2.54-3.18,3.29s-3.15,1.13-5.26,1.13c-.89,0-1.74-.07-2.53-.22-.8-.14-1.53-.33-2.2-.55-.19.26-.36.52-.5.79-.14.27-.21.57-.21.89,0,.38.19.69.57.91.38.22,1.07.4,2.05.53l7.26.82c2.36.26,4.09,1.02,5.21,2.28,1.12,1.26,1.67,2.92,1.67,4.97,0,1.76-.39,3.25-1.17,4.46-.78,1.22-2.04,2.14-3.78,2.76s-4.02.94-6.86.94ZM177.15,181.03c1.75,0,3.1-.14,4.04-.43.94-.29,1.41-.88,1.41-1.78,0-.45-.13-.81-.38-1.08-.26-.27-.68-.5-1.27-.67-.59-.17-1.43-.31-2.51-.41l-5.11-.53c-.32.22-.6.47-.84.74-.24.27-.43.56-.57.86-.14.3-.22.63-.22.98,0,.77.41,1.34,1.24,1.73.83.38,2.23.58,4.21.58ZM176.62,163.46c.45,0,.81-.09,1.1-.26.29-.17.5-.46.65-.84.14-.38.25-.9.31-1.54.06-.64.1-1.41.1-2.3s-.03-1.7-.1-2.33c-.06-.62-.17-1.13-.31-1.54-.14-.4-.36-.69-.65-.86s-.65-.26-1.1-.26-.81.09-1.1.26c-.29.18-.5.46-.64.84-.14.38-.25.9-.31,1.54-.06.64-.09,1.42-.09,2.35s.03,1.66.09,2.28.17,1.14.31,1.54c.14.4.36.69.64.86.29.18.65.26,1.1.26Z" fill="#f36"/>
    <path d="M191.1,177.1v-27.74h7.79v2.78c1.02-1.02,2.08-1.82,3.18-2.4,1.1-.58,2.25-.86,3.46-.86,1.15,0,2.09.28,2.84.84.75.56,1.31,1.33,1.7,2.3.38.98.57,2.09.57,3.34v21.74h-7.74v-20.64c0-.67-.11-1.18-.33-1.54-.22-.35-.64-.53-1.24-.53-.32,0-.69.09-1.12.26-.43.18-.87.42-1.31.74v21.7h-7.79Z" fill="#f36"/>
  </g>
</svg>