<?xml version="1.0" encoding="UTF-8"?>
<svg id="Layer_1" xmlns="http://www.w3.org/2000/svg" width="256" height="256" version="1.1" viewBox="0 0 256 256">
  <!-- Generator: Adobe Illustrator 29.8.4, SVG Export Plug-In . SVG Version: 2.1.1 Build 6)  -->
  <path d="M256,79.73c0-3.04,0-6.08-.02-9.12-.02-2.56-.04-5.12-.11-7.68-.15-5.58-.48-11.2-1.47-16.72-1.01-5.59-2.65-10.8-5.24-15.89-2.55-5-5.87-9.57-9.84-13.53-3.97-3.96-8.54-7.29-13.54-9.83-5.09-2.59-10.3-4.23-15.9-5.24-5.52-.99-11.14-1.32-16.72-1.47-2.56-.07-5.12-.1-7.68-.11-3.04-.02-6.08-.02-9.12-.02l-35.31-.12h-26.41l-34.68.13c-3.05,0-6.09,0-9.14.02-2.57.02-5.13.05-7.7.11-5.59.15-11.23.48-16.76,1.47-5.61,1.01-10.83,2.65-15.93,5.23-5.01,2.54-9.59,5.87-13.57,9.83-3.97,3.96-7.3,8.53-9.85,13.53-2.6,5.09-4.24,10.3-5.25,15.89-.99,5.51-1.32,11.14-1.47,16.71-.07,2.56-.1,5.12-.11,7.68C.16,73.65,0,77.43,0,80.47v60.89l.16,34.93c0,3.04,0,6.09.02,9.13.02,2.56.05,5.13.11,7.69.15,5.58.48,11.22,1.47,16.74,1.01,5.6,2.65,10.82,5.25,15.91,2.55,5,5.88,9.58,9.86,13.55,3.97,3.97,8.56,7.3,13.56,9.84,5.1,2.59,10.32,4.24,15.93,5.24,5.53.99,11.16,1.32,16.75,1.47,2.57.07,5.13.1,7.7.11,3.05.02,6.09.02,9.14.02h96.4c3.04,0,6.08,0,9.12-.02,2.56-.02,5.12-.05,7.68-.11,5.58-.15,11.21-.48,16.73-1.47,5.6-1.01,10.81-2.65,15.89-5.24,5-2.55,9.57-5.87,13.54-9.84,3.97-3.97,7.29-8.55,9.84-13.55,2.59-5.09,4.23-10.31,5.24-15.92.99-5.52,1.32-11.15,1.47-16.73.07-2.56.1-5.13.11-7.69.02-3.04.02-6.09.02-9.13v-96.56h.01Z" fill="#ea7600" fill-rule="evenodd"/>
  <g>
    <rect x="22.29" y="23.33" width="211.05" height="211.05" fill="none"/>
    <path d="M54.34,148.3v-38.88h10.08c1.66,0,3.23.13,4.71.38,1.48.26,2.8.74,3.94,1.46,1.15.72,2.05,1.74,2.7,3.07.65,1.33.98,3.08.98,5.26,0,1.57-.23,2.89-.69,3.96-.46,1.07-1.12,1.93-1.96,2.57-.84.64-1.86,1.07-3.03,1.3,1.5.19,2.76.68,3.78,1.46,1.02.78,1.79,1.83,2.32,3.14.53,1.31.79,2.9.79,4.75,0,2.02-.26,3.75-.79,5.21-.53,1.46-1.28,2.65-2.27,3.58-.99.93-2.21,1.62-3.66,2.06-1.45.45-3.11.67-4.99.67h-11.9ZM62.89,124.97h1.67c1.31,0,2.29-.2,2.96-.6.67-.4,1.12-.98,1.36-1.75s.36-1.7.36-2.78c0-1.02-.18-1.88-.55-2.57-.37-.69-.91-1.21-1.62-1.56-.72-.35-1.62-.53-2.7-.53h-1.48v9.79ZM62.89,142.3h1.82c1.88,0,3.18-.48,3.89-1.44s1.08-2.37,1.08-4.22c0-1.47-.16-2.64-.48-3.5-.32-.86-.84-1.5-1.58-1.9-.73-.4-1.72-.6-2.96-.6h-1.77v11.66Z" fill="#265787"/>
    <path d="M82.34,148.3v-38.88h7.74v38.88h-7.74Z" fill="#265787"/>
    <path d="M104.13,148.78c-2.01,0-3.73-.36-5.16-1.08-1.43-.72-2.53-1.78-3.3-3.17-.76-1.39-1.15-3.06-1.15-5.02v-10.18c0-1.98.38-3.66,1.15-5.04.76-1.38,1.87-2.42,3.32-3.14,1.45-.72,3.16-1.08,5.14-1.08s3.73.35,5.09,1.06c1.35.7,2.37,1.74,3.06,3.12.68,1.38,1.03,3.07,1.03,5.09v5.57h-11.09v5.33c0,.71.08,1.28.24,1.73.16.45.38.77.67.96s.62.29,1,.29.72-.09,1.03-.26c.3-.18.54-.46.72-.84.17-.38.26-.91.26-1.58v-2.93h7.17v2.69c0,2.82-.81,4.94-2.44,6.36-1.62,1.42-3.87,2.14-6.74,2.14ZM102.22,131.26h3.92v-2.78c0-.74-.09-1.31-.26-1.73-.18-.42-.41-.7-.72-.86-.3-.16-.66-.24-1.08-.24-.38,0-.71.1-.98.29-.27.19-.49.52-.65.98-.16.46-.24,1.13-.24,1.99v2.35Z" fill="#265787"/>
    <path d="M117.56,148.3v-27.74h7.79v2.78c1.02-1.02,2.08-1.82,3.18-2.4,1.1-.58,2.25-.86,3.46-.86,1.15,0,2.09.28,2.84.84.75.56,1.31,1.33,1.7,2.3.38.98.57,2.09.57,3.34v21.74h-7.74v-20.64c0-.67-.11-1.18-.33-1.54-.22-.35-.64-.53-1.24-.53-.32,0-.69.09-1.12.26-.43.18-.87.42-1.31.74v21.7h-7.79Z" fill="#265787"/>
    <path d="M147.76,148.78c-2.04,0-3.62-.72-4.73-2.16-1.12-1.44-1.67-3.57-1.67-6.38v-11.47c0-1.73.24-3.24.72-4.54.48-1.3,1.2-2.31,2.15-3.05.96-.74,2.13-1.1,3.54-1.1,1.02,0,1.99.2,2.92.6.92.4,1.77.94,2.53,1.61v-12.86h7.79v38.88h-7.79v-2.16c-.86.83-1.75,1.48-2.68,1.94-.92.46-1.85.7-2.77.7ZM151.15,143.79c.25,0,.57-.06.93-.19.37-.13.74-.3,1.12-.53v-17.52c-.32-.16-.65-.3-1-.43-.35-.13-.69-.19-1-.19-.7,0-1.21.3-1.53.89-.32.59-.48,1.3-.48,2.14v12.77c0,.58.06,1.1.19,1.56.13.46.33.83.62,1.1.29.27.67.41,1.15.41Z" fill="#265787"/>
    <path d="M174.85,148.78c-2.01,0-3.73-.36-5.16-1.08-1.43-.72-2.53-1.78-3.3-3.17-.76-1.39-1.15-3.06-1.15-5.02v-10.18c0-1.98.38-3.66,1.15-5.04.76-1.38,1.87-2.42,3.32-3.14,1.45-.72,3.16-1.08,5.14-1.08s3.74.35,5.09,1.06c1.35.7,2.37,1.74,3.06,3.12.69,1.38,1.03,3.07,1.03,5.09v5.57h-11.09v5.33c0,.71.08,1.28.24,1.73.16.45.38.77.67.96.29.19.62.29,1,.29s.72-.09,1.03-.26.54-.46.72-.84c.17-.38.26-.91.26-1.58v-2.93h7.17v2.69c0,2.82-.81,4.94-2.44,6.36-1.62,1.42-3.87,2.14-6.74,2.14ZM172.94,131.26h3.92v-2.78c0-.74-.09-1.31-.26-1.73-.17-.42-.41-.7-.72-.86-.3-.16-.66-.24-1.08-.24-.38,0-.71.1-.98.29-.27.19-.49.52-.64.98-.16.46-.24,1.13-.24,1.99v2.35Z" fill="#265787"/>
    <path d="M188.38,148.3v-27.74h7.79v4.61c.89-1.6,1.78-2.82,2.68-3.67.89-.85,1.97-1.27,3.25-1.27.25,0,.48,0,.67.02.19.02.37.06.53.12v7.78c-.35-.16-.74-.3-1.17-.41-.43-.11-.88-.17-1.36-.17-.89,0-1.72.24-2.48.72s-1.47,1.14-2.1,1.97v18.05h-7.79Z" fill="#265787"/>
  </g>
</svg>