<?xml version="1.0" encoding="UTF-8"?>
<svg id="Layer_1" xmlns="http://www.w3.org/2000/svg" width="256" height="256" version="1.1" viewBox="0 0 256 256">
  <!-- Generator: Adobe Illustrator 29.8.4, SVG Export Plug-In . SVG Version: 2.1.1 Build 6)  -->
  <path d="M255.25,140.01c-1.51-10.61-5.19-20.59-10.84-29.62-5.15-8.35-11.83-15.62-19.77-21.76h.02l-79.91-61.41c-.07-.05-.13-.11-.21-.16-5.24-4.03-14.09-4.01-19.82.02-5.82,4.08-6.5,10.84-1.31,15.08l-.02.02,33.36,27.13-101.58.11h-.14c-8.4,0-16.48,5.51-18.06,12.51-1.64,7.09,4.06,13,12.82,13v.03l51.45-.1L9.16,165.28c-.12.09-.24.18-.35.26-8.67,6.64-11.47,17.7-6,24.65,5.55,7.09,17.34,7.13,26.09.04l50.11-41.08s-.73,5.55-.67,8.85l.15.19c.06,3.34,1.12,9.84,2.72,14.9,3.36,10.74,9.07,20.68,16.97,29.39,8.13,8.98,18.15,16.21,29.71,21.35,12.14,5.37,25.33,8.13,39.01,8.13,13.68-.02,26.86-2.82,39.01-8.26,11.56-5.19,21.58-12.42,29.71-21.44,7.95-8.8,13.63-18.74,16.97-29.48,1.69-5.42,2.76-10.93,3.19-16.43.42-5.42.24-10.88-.53-16.34Z" fill="#ea7600"/>
</svg>