<?xml version="1.0" encoding="UTF-8"?>
<svg id="Layer_1" xmlns="http://www.w3.org/2000/svg" width="256" height="256" version="1.1" xmlns:xlink="http://www.w3.org/1999/xlink" viewBox="0 0 256 256">
  <!-- Generator: Adobe Illustrator 29.8.4, SVG Export Plug-In . SVG Version: 2.1.1 Build 6)  -->
  <defs>
    <mask id="mask" x="0" y="0" width="256" height="256" maskUnits="userSpaceOnUse">
      <g id="mask1" data-name="mask">
        <g id="mask0_580_4177">
          <path d="M256,79.73c0-3.04,0-6.08-.02-9.12-.02-2.56-.04-5.12-.11-7.68-.15-5.58-.48-11.2-1.47-16.72-1.01-5.59-2.65-10.8-5.24-15.89-2.55-5-5.87-9.57-9.84-13.53-3.97-3.96-8.54-7.29-13.54-9.83-5.09-2.59-10.3-4.23-15.9-5.24-5.52-.99-11.14-1.32-16.72-1.47-2.56-.07-5.12-.1-7.68-.11-3.04-.02-6.08-.02-9.12-.02l-35.31-.12h-26.41l-34.68.13c-3.05,0-6.09,0-9.14.02-2.57.02-5.13.05-7.7.11-5.59.15-11.23.48-16.76,1.47-5.61,1.01-10.83,2.65-15.93,5.23-5.01,2.54-9.59,5.87-13.57,9.83-3.97,3.96-7.3,8.53-9.85,13.53-2.6,5.09-4.24,10.3-5.25,15.89-.99,5.51-1.32,11.14-1.47,16.71-.07,2.56-.1,5.12-.11,7.68-.02,3.05-.18,6.83-.18,9.87v60.89l.16,34.93c0,3.04,0,6.09.02,9.13.02,2.56.05,5.13.11,7.69.15,5.58.48,11.22,1.47,16.74,1.01,5.6,2.65,10.82,5.25,15.91,2.55,5,5.88,9.58,9.86,13.55,3.97,3.97,8.56,7.3,13.56,9.84,5.1,2.59,10.32,4.24,15.93,5.24,5.53.99,11.16,1.32,16.75,1.47,2.57.07,5.13.1,7.7.11,3.05.02,6.09.02,9.14.02h96.4c3.04,0,6.08,0,9.12-.02,2.56-.02,5.12-.05,7.68-.11,5.58-.15,11.21-.48,16.73-1.47,5.6-1.01,10.81-2.65,15.89-5.24,5-2.55,9.57-5.87,13.54-9.84,3.97-3.97,7.29-8.55,9.84-13.55,2.59-5.09,4.23-10.31,5.24-15.92.99-5.52,1.32-11.15,1.47-16.73.07-2.56.1-5.13.11-7.69.02-3.04.02-6.09.02-9.13v-96.56h.01Z" fill="#fff" fill-rule="evenodd"/>
        </g>
      </g>
    </mask>
    <radialGradient id="radial-gradient" cx="3.82" cy="3" fx="3.82" fy="3" r=".31" gradientTransform="translate(881.94 5555.59) rotate(-135) scale(1101.59)" gradientUnits="userSpaceOnUse">
      <stop offset="0" stop-color="#66bf8b"/>
      <stop offset=".46" stop-color="#5fb58b"/>
      <stop offset=".83" stop-color="#215788"/>
    </radialGradient>
    <radialGradient id="radial-gradient1" cx="3.32" cy="3.5" fx="3.32" fy="3.5" r=".31" gradientTransform="translate(5555.59 148.06) rotate(135) scale(1101.59)" gradientUnits="userSpaceOnUse">
      <stop offset=".14" stop-color="#278baa"/>
      <stop offset=".6" stop-color="#215788" stop-opacity="0"/>
    </radialGradient>
    <radialGradient id="radial-gradient2" cx="3.32" cy="2.5" fx="3.32" fy="2.5" r=".31" gradientTransform="translate(-4530.11 848.02) rotate(-44.76) scale(1106.14)" gradientUnits="userSpaceOnUse">
      <stop offset=".14" stop-color="#00548a"/>
      <stop offset=".81" stop-color="#215788" stop-opacity="0"/>
    </radialGradient>
  </defs>
  <path d="M256,79.73c0-3.04,0-6.08-.02-9.12-.02-2.56-.04-5.12-.11-7.68-.15-5.58-.48-11.2-1.47-16.72-1.01-5.59-2.65-10.8-5.24-15.89-2.55-5-5.87-9.57-9.84-13.53-3.97-3.96-8.54-7.29-13.54-9.83-5.09-2.59-10.3-4.23-15.9-5.24-5.52-.99-11.14-1.32-16.72-1.47-2.56-.07-5.12-.1-7.68-.11-3.04-.02-6.08-.02-9.12-.02l-35.31-.12h-26.41l-34.68.13c-3.05,0-6.09,0-9.14.02-2.57.02-5.13.05-7.7.11-5.59.15-11.23.48-16.76,1.47-5.61,1.01-10.83,2.65-15.93,5.23-5.01,2.54-9.59,5.87-13.57,9.83-3.97,3.96-7.3,8.53-9.85,13.53-2.6,5.09-4.24,10.3-5.25,15.89-.99,5.51-1.32,11.14-1.47,16.71-.07,2.56-.1,5.12-.11,7.68-.02,3.05-.18,6.83-.18,9.87v60.89l.16,34.93c0,3.04,0,6.09.02,9.13.02,2.56.05,5.13.11,7.69.15,5.58.48,11.22,1.47,16.74,1.01,5.6,2.65,10.82,5.25,15.91,2.55,5,5.88,9.58,9.86,13.55,3.97,3.97,8.56,7.3,13.56,9.84,5.1,2.59,10.32,4.24,15.93,5.24,5.53.99,11.16,1.32,16.75,1.47,2.57.07,5.13.1,7.7.11,3.05.02,6.09.02,9.14.02h96.4c3.04,0,6.08,0,9.12-.02,2.56-.02,5.12-.05,7.68-.11,5.58-.15,11.21-.48,16.73-1.47,5.6-1.01,10.81-2.65,15.89-5.24,5-2.55,9.57-5.87,13.54-9.84,3.97-3.97,7.29-8.55,9.84-13.55,2.59-5.09,4.23-10.31,5.24-15.92.99-5.52,1.32-11.15,1.47-16.73.07-2.56.1-5.13.11-7.69.02-3.04.02-6.09.02-9.13v-96.56h.01Z" fill="#fff" fill-opacity="0" fill-rule="evenodd"/>
  <g mask="url(#mask)">
    <g>
      <path d="M208,0H48C21.49,0,0,21.49,0,48v160c0,26.51,21.49,48,48,48h160c26.51,0,48-21.49,48-48V48c0-26.51-21.49-48-48-48Z" fill="url(#radial-gradient)"/>
      <path d="M208,0H48C21.49,0,0,21.49,0,48v160c0,26.51,21.49,48,48,48h160c26.51,0,48-21.49,48-48V48c0-26.51-21.49-48-48-48Z" fill="url(#radial-gradient1)"/>
      <path d="M208,0H48C21.49,0,0,21.49,0,48v160c0,26.51,21.49,48,48,48h160c26.51,0,48-21.49,48-48V48c0-26.51-21.49-48-48-48Z" fill="url(#radial-gradient2)"/>
    </g>
  </g>
  <path d="M256,79.73c0-3.04,0-6.08-.02-9.12-.02-2.56-.04-5.12-.11-7.68-.15-5.58-.48-11.2-1.47-16.72-1.01-5.59-2.65-10.8-5.24-15.89-2.55-5-5.87-9.57-9.84-13.53-3.97-3.96-8.54-7.29-13.54-9.83-5.09-2.59-10.3-4.23-15.9-5.24-5.52-.99-11.14-1.32-16.72-1.47-2.56-.07-5.12-.1-7.68-.11-3.04-.02-6.08-.02-9.12-.02l-35.31-.12h-26.41l-34.68.13c-3.05,0-6.09,0-9.14.02-2.57.02-5.13.05-7.7.11-5.59.15-11.23.48-16.76,1.47-5.61,1.01-10.83,2.65-15.93,5.23-5.01,2.54-9.59,5.87-13.57,9.83-3.97,3.96-7.3,8.53-9.85,13.53-2.6,5.09-4.24,10.3-5.25,15.89-.99,5.51-1.32,11.14-1.47,16.71-.07,2.56-.1,5.12-.11,7.68-.02,3.05-.18,6.83-.18,9.87v60.89l.16,34.93c0,3.04,0,6.09.02,9.13.02,2.56.05,5.13.11,7.69.15,5.58.48,11.22,1.47,16.74,1.01,5.6,2.65,10.82,5.25,15.91,2.55,5,5.88,9.58,9.86,13.55,3.97,3.97,8.56,7.3,13.56,9.84,5.1,2.59,10.32,4.24,15.93,5.24,5.53.99,11.16,1.32,16.75,1.47,2.57.07,5.13.1,7.7.11,3.05.02,6.09.02,9.14.02h96.4c3.04,0,6.08,0,9.12-.02,2.56-.02,5.12-.05,7.68-.11,5.58-.15,11.21-.48,16.73-1.47,5.6-1.01,10.81-2.65,15.89-5.24,5-2.55,9.57-5.87,13.54-9.84,3.97-3.97,7.29-8.55,9.84-13.55,2.59-5.09,4.23-10.31,5.24-15.92.99-5.52,1.32-11.15,1.47-16.73.07-2.56.1-5.13.11-7.69.02-3.04.02-6.09.02-9.13v-96.56h.01Z" fill="#fff" fill-opacity="0" fill-rule="evenodd"/>
</svg>