<?xml version="1.0" encoding="UTF-8"?>
<svg id="Layer_1" xmlns="http://www.w3.org/2000/svg" width="256" height="256" version="1.1" xmlns:xlink="http://www.w3.org/1999/xlink" viewBox="0 0 256 256">
  <!-- Generator: Adobe Illustrator 29.8.4, SVG Export Plug-In . SVG Version: 2.1.1 Build 6)  -->
  <defs>
    <mask id="mask" x="0" y="0" width="256" height="256" maskUnits="userSpaceOnUse">
      <g id="mask1" data-name="mask">
        <g id="uuid-5ec9fb8b-373b-4416-baa0-02d1db489076" data-name="mask1">
          <g id="mask0_580_4177">
            <path d="M256,79.73c0-3.04,0-6.08-.02-9.12-.02-2.56-.04-5.12-.11-7.68-.15-5.58-.48-11.2-1.47-16.72-1.01-5.59-2.65-10.8-5.24-15.89-2.55-5-5.87-9.57-9.84-13.53-3.97-3.96-8.54-7.29-13.54-9.83-5.09-2.59-10.3-4.23-15.9-5.24-5.52-.99-11.14-1.32-16.72-1.47-2.56-.07-5.12-.1-7.68-.11-3.04-.02-6.08-.02-9.12-.02L141.05,0h-26.41l-34.68.13c-3.05,0-6.09,0-9.14.02-2.57.02-5.13.05-7.7.11-5.59.15-11.23.48-16.76,1.47-5.61,1.01-10.83,2.65-15.93,5.23-5.01,2.54-9.59,5.87-13.57,9.83-3.97,3.96-7.3,8.53-9.85,13.53-2.6,5.09-4.24,10.3-5.25,15.89-.99,5.51-1.32,11.14-1.47,16.71-.07,2.56-.1,5.12-.11,7.68C.16,73.65,0,77.43,0,80.47v60.89l.16,34.93c0,3.04,0,6.09.02,9.13.02,2.56.05,5.13.11,7.69.15,5.58.48,11.22,1.47,16.74,1.01,5.6,2.65,10.82,5.25,15.91,2.55,5,5.88,9.58,9.86,13.55,3.97,3.97,8.56,7.3,13.56,9.84,5.1,2.59,10.32,4.24,15.93,5.24,5.53.99,11.16,1.32,16.75,1.47,2.57.07,5.13.1,7.7.11,3.05.02,6.09.02,9.14.02h96.4c3.04,0,6.08,0,9.12-.02,2.56-.02,5.12-.05,7.68-.11,5.58-.15,11.21-.48,16.73-1.47,5.6-1.01,10.81-2.65,15.89-5.24,5-2.55,9.57-5.87,13.54-9.84,3.97-3.97,7.29-8.55,9.84-13.55,2.59-5.09,4.23-10.31,5.24-15.92.99-5.52,1.32-11.15,1.47-16.73.07-2.56.1-5.13.11-7.69.02-3.04.02-6.09.02-9.13v-96.56h.01Z" fill="#fff" fill-rule="evenodd"/>
          </g>
        </g>
      </g>
    </mask>
    <radialGradient id="radial-gradient" cx="-123.34" cy="382" fx="-123.34" fy="382" r=".31" gradientTransform="translate(201721.9 -393389.57) rotate(-135) scale(1101.59 -1101.59)" gradientUnits="userSpaceOnUse">
      <stop offset="0" stop-color="#66bf8b"/>
      <stop offset=".46" stop-color="#5fb58b"/>
      <stop offset=".83" stop-color="#215788"/>
    </radialGradient>
    <radialGradient id="radial-gradient1" cx="-123.68" cy="381.66" fx="-123.68" fy="381.66" r=".31" gradientTransform="translate(-393389.57 -200945.9) rotate(135) scale(1101.59 -1101.59)" gradientUnits="userSpaceOnUse">
      <stop offset=".14" stop-color="#278baa"/>
      <stop offset=".6" stop-color="#215788" stop-opacity="0"/>
    </radialGradient>
    <radialGradient id="radial-gradient2" cx="-123.68" cy="382.34" fx="-123.68" fy="382.34" r=".31" gradientTransform="translate(394959.54 204193.76) rotate(-44.76) scale(1106.14 -1106.14)" gradientUnits="userSpaceOnUse">
      <stop offset=".14" stop-color="#00548a"/>
      <stop offset=".81" stop-color="#215788" stop-opacity="0"/>
    </radialGradient>
  </defs>
  <path d="M256,79.73c0-3.04,0-6.08-.02-9.12-.02-2.56-.04-5.12-.11-7.68-.15-5.58-.48-11.2-1.47-16.72-1.01-5.59-2.65-10.8-5.24-15.89-2.55-5-5.87-9.57-9.84-13.53-3.97-3.96-8.54-7.29-13.54-9.83-5.09-2.59-10.3-4.23-15.9-5.24-5.52-.99-11.14-1.32-16.72-1.47-2.56-.07-5.12-.1-7.68-.11-3.04-.02-6.08-.02-9.12-.02L141.05,0h-26.41l-34.68.13c-3.05,0-6.09,0-9.14.02-2.57.02-5.13.05-7.7.11-5.59.15-11.23.48-16.76,1.47-5.61,1.01-10.83,2.65-15.93,5.23-5.01,2.54-9.59,5.87-13.57,9.83-3.97,3.96-7.3,8.53-9.85,13.53-2.6,5.09-4.24,10.3-5.25,15.89-.99,5.51-1.32,11.14-1.47,16.71-.07,2.56-.1,5.12-.11,7.68C.16,73.65,0,77.43,0,80.47v60.89l.16,34.93c0,3.04,0,6.09.02,9.13.02,2.56.05,5.13.11,7.69.15,5.58.48,11.22,1.47,16.74,1.01,5.6,2.65,10.82,5.25,15.91,2.55,5,5.88,9.58,9.86,13.55,3.97,3.97,8.56,7.3,13.56,9.84,5.1,2.59,10.32,4.24,15.93,5.24,5.53.99,11.16,1.32,16.75,1.47,2.57.07,5.13.1,7.7.11,3.05.02,6.09.02,9.14.02h96.4c3.04,0,6.08,0,9.12-.02,2.56-.02,5.12-.05,7.68-.11,5.58-.15,11.21-.48,16.73-1.47,5.6-1.01,10.81-2.65,15.89-5.24,5-2.55,9.57-5.87,13.54-9.84,3.97-3.97,7.29-8.55,9.84-13.55,2.59-5.09,4.23-10.31,5.24-15.92.99-5.52,1.32-11.15,1.47-16.73.07-2.56.1-5.13.11-7.69.02-3.04.02-6.09.02-9.13v-96.56h.01Z" fill="#fff" fill-opacity="0" fill-rule="evenodd"/>
  <g mask="url(#mask)">
    <g>
      <path d="M208,0H48C21.49,0,0,21.49,0,48v160c0,26.51,21.49,48,48,48h160c26.51,0,48-21.49,48-48V48c0-26.51-21.49-48-48-48Z" fill="url(#radial-gradient)"/>
      <path d="M208,0H48C21.49,0,0,21.49,0,48v160c0,26.51,21.49,48,48,48h160c26.51,0,48-21.49,48-48V48c0-26.51-21.49-48-48-48Z" fill="url(#radial-gradient1)"/>
      <path d="M208,0H48C21.49,0,0,21.49,0,48v160c0,26.51,21.49,48,48,48h160c26.51,0,48-21.49,48-48V48c0-26.51-21.49-48-48-48Z" fill="url(#radial-gradient2)"/>
    </g>
  </g>
  <path d="M256,79.73c0-3.04,0-6.08-.02-9.12-.02-2.56-.04-5.12-.11-7.68-.15-5.58-.48-11.2-1.47-16.72-1.01-5.59-2.65-10.8-5.24-15.89-2.55-5-5.87-9.57-9.84-13.53-3.97-3.96-8.54-7.29-13.54-9.83-5.09-2.59-10.3-4.23-15.9-5.24-5.52-.99-11.14-1.32-16.72-1.47-2.56-.07-5.12-.1-7.68-.11-3.04-.02-6.08-.02-9.12-.02l-35.31-.12h-26.41l-34.68.13c-3.05,0-6.09,0-9.14.02-2.57.02-5.13.05-7.7.11-5.59.15-11.23.48-16.76,1.47-5.61,1.01-10.83,2.65-15.93,5.23-5.01,2.54-9.59,5.87-13.57,9.83-3.97,3.96-7.3,8.53-9.85,13.53-2.6,5.09-4.24,10.3-5.25,15.89-.99,5.51-1.32,11.14-1.47,16.71-.07,2.56-.1,5.12-.11,7.68C.16,73.65,0,77.43,0,80.47v60.89l.16,34.93c0,3.04,0,6.09.02,9.13.02,2.56.05,5.13.11,7.69.15,5.58.48,11.22,1.47,16.74,1.01,5.6,2.65,10.82,5.25,15.91,2.55,5,5.88,9.58,9.86,13.55,3.97,3.97,8.56,7.3,13.56,9.84,5.1,2.59,10.32,4.24,15.93,5.24,5.53.99,11.16,1.32,16.75,1.47,2.57.07,5.13.1,7.7.11,3.05.02,6.09.02,9.14.02h96.4c3.04,0,6.08,0,9.12-.02,2.56-.02,5.12-.05,7.68-.11,5.58-.15,11.21-.48,16.73-1.47,5.6-1.01,10.81-2.65,15.89-5.24,5-2.55,9.57-5.87,13.54-9.84,3.97-3.97,7.29-8.55,9.84-13.55,2.59-5.09,4.23-10.31,5.24-15.92.99-5.52,1.32-11.15,1.47-16.73.07-2.56.1-5.13.11-7.69.02-3.04.02-6.09.02-9.13v-96.56h.01Z" fill="#fff" fill-opacity="0" fill-rule="evenodd"/>
  <g>
    <rect x="22.29" y="23.33" width="211.05" height="211.05" fill="none"/>
    <path d="M72.83,148.3v-38.88h16.73v5.81h-8.17v9.79h7.12v6h-7.12v17.28h-8.55Z" fill="#fff"/>
    <path d="M92.9,115.85v-5.42h7.84v5.42h-7.84ZM92.95,148.3v-27.74h7.79v27.74h-7.79Z" fill="#fff"/>
    <path d="M105.57,148.3v-27.74h7.79v2.78c1.02-1.02,2.08-1.82,3.18-2.4,1.1-.58,2.25-.86,3.46-.86,1.15,0,2.09.28,2.84.84.75.56,1.31,1.33,1.7,2.3.38.98.57,2.09.57,3.34v21.74h-7.74v-20.64c0-.67-.11-1.18-.33-1.54-.22-.35-.64-.53-1.24-.53-.32,0-.69.09-1.12.26-.43.18-.87.42-1.31.74v21.7h-7.79Z" fill="#fff"/>
    <path d="M135.48,148.78c-1.4,0-2.58-.34-3.54-1.01s-1.67-1.53-2.15-2.57c-.48-1.04-.72-2.1-.72-3.19,0-1.73.34-3.18,1.03-4.37.69-1.18,1.58-2.18,2.7-2.98s2.34-1.48,3.68-2.04c1.34-.56,2.66-1.06,3.97-1.51v-2.78c0-.48-.05-.9-.14-1.27-.1-.37-.26-.66-.48-.86-.22-.21-.56-.31-1-.31s-.79.1-1.03.29c-.24.19-.41.46-.5.79s-.16.71-.19,1.13l-.19,2.02-7.26-.29c.16-3.33,1.04-5.78,2.65-7.37,1.61-1.58,4.02-2.38,7.24-2.38,2.8,0,4.9.78,6.29,2.33,1.38,1.55,2.08,3.56,2.08,6.02v12.96c0,1.15.02,2.16.07,3.02.05.86.11,1.62.19,2.26.08.64.15,1.18.21,1.63h-6.98c-.1-.74-.21-1.54-.34-2.4-.13-.86-.22-1.38-.29-1.54-.32,1.15-.92,2.18-1.79,3.07-.88.9-2.05,1.34-3.51,1.34ZM138.25,143.5c.32,0,.61-.06.88-.19.27-.13.52-.3.74-.53.22-.22.41-.45.57-.67v-7.58c-.64.38-1.23.78-1.77,1.18-.54.4-1,.84-1.39,1.32-.38.48-.68,1-.88,1.56-.21.56-.31,1.19-.31,1.9,0,.93.19,1.66.57,2.21.38.54.91.82,1.58.82Z" fill="#fff"/>
    <path d="M152.87,148.3v-38.88h7.74v38.88h-7.74Z" fill="#fff"/>
    <path d="M174.66,148.78c-2.01,0-3.73-.36-5.16-1.08-1.43-.72-2.53-1.78-3.3-3.17-.76-1.39-1.15-3.06-1.15-5.02v-10.18c0-1.98.38-3.66,1.15-5.04.76-1.38,1.87-2.42,3.32-3.14,1.45-.72,3.16-1.08,5.14-1.08s3.74.35,5.09,1.06c1.35.7,2.37,1.74,3.06,3.12.69,1.38,1.03,3.07,1.03,5.09v5.57h-11.09v5.33c0,.71.08,1.28.24,1.73.16.45.38.77.67.96.29.19.62.29,1,.29s.72-.09,1.03-.26.54-.46.72-.84c.17-.38.26-.91.26-1.58v-2.93h7.17v2.69c0,2.82-.81,4.94-2.44,6.36-1.62,1.42-3.87,2.14-6.74,2.14ZM172.75,131.26h3.92v-2.78c0-.74-.09-1.31-.26-1.73-.17-.42-.41-.7-.72-.86-.3-.16-.66-.24-1.08-.24-.38,0-.71.1-.98.29-.27.19-.49.52-.64.98-.16.46-.24,1.13-.24,1.99v2.35Z" fill="#fff"/>
  </g>
</svg>