<?xml version="1.0" encoding="UTF-8"?>
<svg id="Layer_1" xmlns="http://www.w3.org/2000/svg" width="256" height="256" version="1.1" xmlns:xlink="http://www.w3.org/1999/xlink" viewBox="0 0 256 256">
  <!-- Generator: Adobe Illustrator 29.8.4, SVG Export Plug-In . SVG Version: 2.1.1 Build 6)  -->
  <defs>
    <radialGradient id="radial-gradient" cx="128" cy="128" fx="128" fy="128" r="128" gradientUnits="userSpaceOnUse">
      <stop offset="0" stop-color="#f8193e"/>
      <stop offset=".94" stop-color="#920616"/>
    </radialGradient>
  </defs>
  <path d="M256,79.73c0-3.04,0-6.08-.02-9.12-.02-2.56-.04-5.12-.11-7.68-.15-5.58-.48-11.2-1.47-16.72-1.01-5.59-2.65-10.8-5.24-15.89-2.55-5-5.87-9.57-9.84-13.53-3.97-3.96-8.54-7.29-13.54-9.83-5.09-2.59-10.3-4.23-15.9-5.24-5.52-.99-11.14-1.32-16.72-1.47-2.56-.07-5.12-.1-7.68-.11-3.04-.02-6.08-.02-9.12-.02l-35.31-.12h-26.41l-34.68.13c-3.05,0-6.09,0-9.14.02-2.57.02-5.13.05-7.7.11-5.59.15-11.23.48-16.76,1.47-5.61,1.01-10.83,2.65-15.93,5.23-5.01,2.54-9.59,5.87-13.57,9.83-3.97,3.96-7.3,8.53-9.85,13.53-2.6,5.09-4.24,10.3-5.25,15.89-.99,5.51-1.32,11.14-1.47,16.71-.07,2.56-.1,5.12-.11,7.68C.16,73.65,0,77.43,0,80.47v60.89l.16,34.93c0,3.04,0,6.09.02,9.13.02,2.56.05,5.13.11,7.69.15,5.58.48,11.22,1.47,16.74,1.01,5.6,2.65,10.82,5.25,15.91,2.55,5,5.88,9.58,9.86,13.55,3.97,3.97,8.56,7.3,13.56,9.84,5.1,2.59,10.32,4.24,15.93,5.24,5.53.99,11.16,1.32,16.75,1.47,2.57.07,5.13.1,7.7.11,3.05.02,6.09.02,9.14.02h96.4c3.04,0,6.08,0,9.12-.02,2.56-.02,5.12-.05,7.68-.11,5.58-.15,11.21-.48,16.73-1.47,5.6-1.01,10.81-2.65,15.89-5.24,5-2.55,9.57-5.87,13.54-9.84,3.97-3.97,7.29-8.55,9.84-13.55,2.59-5.09,4.23-10.31,5.24-15.92.99-5.52,1.32-11.15,1.47-16.73.07-2.56.1-5.13.11-7.69.02-3.04.02-6.09.02-9.13v-96.56h.01Z" fill="url(#radial-gradient)" fill-rule="evenodd"/>
  <g>
    <rect x="6.54" y="23.33" width="242.54" height="211.05" fill="none"/>
    <path d="M38.02,119.5l.67-38.88h9.17l4.25,22.61,4.59-22.61h8.84l.67,38.88h-6.07l-.72-25.87-4.49,25.87h-5.4l-4.78-26.06-.57,26.06h-6.17Z" fill="#fff"/>
    <path d="M70.8,87.05v-5.42h7.84v5.42h-7.84ZM70.85,119.5v-27.74h7.79v27.74h-7.79Z" fill="#fff"/>
    <path d="M92.45,119.98c-2.01,0-3.72-.37-5.14-1.1-1.42-.74-2.51-1.79-3.27-3.17-.76-1.38-1.15-3.04-1.15-4.99v-10.18c0-1.98.38-3.66,1.15-5.04.76-1.38,1.86-2.42,3.27-3.14,1.42-.72,3.13-1.08,5.14-1.08s3.66.3,5.04.91c1.39.61,2.44,1.53,3.18,2.76.73,1.23,1.1,2.79,1.1,4.68v2.93h-7.5v-3.17c0-.74-.07-1.3-.22-1.7-.14-.4-.35-.68-.62-.84-.27-.16-.6-.24-.98-.24s-.7.1-.96.31c-.26.21-.45.54-.57,1.01-.13.46-.19,1.11-.19,1.94v11.52c0,1.25.15,2.1.45,2.54.3.45.74.67,1.31.67.41,0,.75-.09,1-.26.25-.18.45-.46.57-.86.13-.4.19-.94.19-1.61v-3.7h7.5v3.36c0,1.86-.38,3.42-1.12,4.68-.75,1.26-1.82,2.21-3.2,2.83s-3.05.94-4.99.94Z" fill="#fff"/>
    <path d="M105.92,119.5v-27.74h7.79v4.61c.89-1.6,1.78-2.82,2.68-3.67.89-.85,1.98-1.27,3.25-1.27.25,0,.48,0,.67.02.19.02.37.06.53.12v7.78c-.35-.16-.74-.3-1.17-.41-.43-.11-.88-.17-1.36-.17-.89,0-1.72.24-2.48.72s-1.47,1.14-2.1,1.97v18.05h-7.79Z" fill="#fff"/>
    <path d="M133.21,119.98c-1.98,0-3.69-.34-5.14-1.01-1.45-.67-2.56-1.68-3.34-3.02-.78-1.34-1.17-3.02-1.17-5.04v-10.56c0-2.02.39-3.7,1.17-5.04.78-1.34,1.9-2.35,3.34-3.02,1.45-.67,3.16-1.01,5.14-1.01s3.69.34,5.14,1.01c1.45.67,2.57,1.68,3.37,3.02.8,1.34,1.2,3.02,1.2,5.04v10.56c0,2.02-.4,3.7-1.2,5.04-.8,1.34-1.92,2.35-3.37,3.02-1.45.67-3.16,1.01-5.14,1.01ZM133.26,114.79c.51,0,.91-.14,1.19-.41.29-.27.49-.66.6-1.15.11-.5.17-1.1.17-1.8v-11.62c0-.7-.06-1.3-.17-1.8-.11-.5-.31-.88-.6-1.15-.29-.27-.68-.41-1.19-.41s-.91.14-1.19.41c-.29.27-.49.66-.62,1.15-.13.5-.19,1.1-.19,1.8v11.62c0,.7.06,1.3.19,1.8.13.5.33.88.62,1.15.29.27.68.41,1.19.41Z" fill="#fff"/>
    <path d="M155.72,119.98c-2.42,0-4.44-.54-6.04-1.63-1.61-1.09-2.92-2.86-3.94-5.33l5.3-2.35c.51,1.25,1.11,2.23,1.79,2.95.69.72,1.44,1.08,2.27,1.08.6,0,1.06-.13,1.36-.38.3-.26.45-.61.45-1.06,0-.74-.28-1.41-.84-2.02-.56-.61-1.55-1.5-2.99-2.69l-2.01-1.68c-1.47-1.25-2.62-2.46-3.46-3.62-.84-1.17-1.27-2.62-1.27-4.34,0-1.5.39-2.83,1.17-3.98.78-1.15,1.82-2.05,3.13-2.69,1.31-.64,2.71-.96,4.21-.96,2.26,0,4.16.62,5.69,1.87s2.6,3.01,3.2,5.28l-5.02,2.3c-.19-.61-.46-1.22-.81-1.82-.35-.61-.77-1.12-1.27-1.54-.49-.42-1.03-.62-1.6-.62-.51,0-.92.14-1.22.43-.3.29-.45.67-.45,1.15,0,.61.34,1.26,1.03,1.97.68.7,1.63,1.55,2.84,2.54l1.96,1.73c.8.67,1.58,1.39,2.34,2.16s1.39,1.62,1.89,2.54c.49.93.74,1.98.74,3.17,0,1.6-.4,2.97-1.19,4.1-.8,1.14-1.84,1.99-3.13,2.57-1.29.58-2.67.86-4.13.86Z" fill="#fff"/>
    <path d="M176.55,119.98c-1.98,0-3.69-.34-5.14-1.01-1.45-.67-2.57-1.68-3.35-3.02-.78-1.34-1.17-3.02-1.17-5.04v-10.56c0-2.02.39-3.7,1.17-5.04.78-1.34,1.9-2.35,3.35-3.02,1.45-.67,3.16-1.01,5.14-1.01s3.69.34,5.14,1.01c1.45.67,2.57,1.68,3.37,3.02.8,1.34,1.2,3.02,1.2,5.04v10.56c0,2.02-.4,3.7-1.2,5.04-.8,1.34-1.92,2.35-3.37,3.02-1.45.67-3.16,1.01-5.14,1.01ZM176.6,114.79c.51,0,.91-.14,1.19-.41.29-.27.49-.66.6-1.15.11-.5.17-1.1.17-1.8v-11.62c0-.7-.06-1.3-.17-1.8-.11-.5-.31-.88-.6-1.15-.29-.27-.68-.41-1.19-.41s-.91.14-1.19.41c-.29.27-.49.66-.62,1.15-.13.5-.19,1.1-.19,1.8v11.62c0,.7.06,1.3.19,1.8.13.5.33.88.62,1.15.29.27.68.41,1.19.41Z" fill="#fff"/>
    <path d="M191.56,119.5v-22.46h-2.63v-5.28h2.63v-2.06c0-1.63.17-3.06.5-4.27.33-1.22,1.04-2.16,2.1-2.83s2.72-1.01,4.95-1.01c.6,0,1.2.02,1.79.05.59.03,1.23.1,1.94.19v5.81c-.22-.06-.49-.12-.79-.17s-.6-.07-.88-.07c-.57,0-1.02.17-1.34.5-.32.34-.48.89-.48,1.66v2.21h3.49v5.28h-3.49v22.46h-7.79Z" fill="#fff"/>
    <path d="M214.4,119.79c-2.07,0-3.67-.3-4.8-.91-1.13-.61-1.9-1.5-2.32-2.66-.42-1.17-.62-2.58-.62-4.25v-15.07h-2.68v-5.14h2.68v-8.45h7.88v8.45h3.92v5.14h-3.92v14.3c0,.8.23,1.38.69,1.73.46.35,1.04.53,1.74.53.41,0,.8-.02,1.15-.07.35-.05.67-.09.96-.12v6.14c-.41.06-1.07.14-1.96.24-.89.1-1.8.14-2.72.14Z" fill="#fff"/>
    <path d="M20.41,177.1v-38.88h13c2.33,0,4.24.44,5.73,1.32,1.5.88,2.61,2.16,3.34,3.84.73,1.68,1.1,3.72,1.1,6.12,0,3.01-.49,5.3-1.48,6.89-.99,1.58-2.33,2.68-4.01,3.29-1.69.61-3.58.91-5.69.91h-3.44v16.51h-8.55ZM28.96,154.58h2.87c1.05,0,1.85-.19,2.39-.58.54-.38.9-.96,1.08-1.73.17-.77.26-1.74.26-2.93,0-.99-.07-1.86-.21-2.62-.14-.75-.49-1.35-1.03-1.8-.54-.45-1.39-.67-2.53-.67h-2.82v10.32Z" fill="#fff"/>
    <path d="M56.3,177.58c-1.98,0-3.69-.34-5.14-1.01s-2.56-1.68-3.34-3.02c-.78-1.34-1.17-3.02-1.17-5.04v-10.56c0-2.02.39-3.7,1.17-5.04.78-1.34,1.9-2.35,3.34-3.02s3.16-1.01,5.14-1.01,3.69.34,5.14,1.01c1.45.67,2.57,1.68,3.37,3.02.8,1.34,1.19,3.02,1.19,5.04v10.56c0,2.02-.4,3.7-1.19,5.04-.8,1.34-1.92,2.35-3.37,3.02-1.45.67-3.16,1.01-5.14,1.01ZM56.35,172.39c.51,0,.91-.14,1.19-.41.29-.27.49-.66.6-1.15.11-.5.17-1.1.17-1.8v-11.62c0-.7-.06-1.3-.17-1.8-.11-.5-.31-.88-.6-1.15-.29-.27-.69-.41-1.19-.41s-.91.14-1.19.41c-.29.27-.49.66-.62,1.15-.13.5-.19,1.1-.19,1.8v11.62c0,.71.06,1.3.19,1.8.13.5.33.88.62,1.15.29.27.69.41,1.19.41Z" fill="#fff"/>
    <path d="M72.83,177.1l-4.06-27.74h6.5l2.01,15.74,2.15-15.74h5.64l1.86,16.13,2.34-16.13h6.02l-4.11,27.74h-6.69l-2.39-15.6-2.68,15.6h-6.59Z" fill="#fff"/>
    <path d="M107.76,177.58c-2.01,0-3.73-.36-5.16-1.08-1.43-.72-2.53-1.78-3.3-3.17-.76-1.39-1.15-3.06-1.15-5.02v-10.18c0-1.98.38-3.66,1.15-5.04s1.87-2.42,3.32-3.14c1.45-.72,3.16-1.08,5.14-1.08s3.73.35,5.09,1.06c1.35.7,2.37,1.74,3.06,3.12.68,1.38,1.03,3.07,1.03,5.09v5.57h-11.09v5.33c0,.71.08,1.28.24,1.73.16.45.38.77.67.96s.62.29,1,.29.72-.09,1.03-.26c.3-.18.54-.46.72-.84.17-.38.26-.91.26-1.58v-2.93h7.17v2.69c0,2.82-.81,4.94-2.44,6.36-1.62,1.42-3.87,2.14-6.74,2.14ZM105.85,160.06h3.92v-2.78c0-.74-.09-1.31-.26-1.73-.18-.42-.41-.7-.72-.86-.3-.16-.66-.24-1.08-.24-.38,0-.71.1-.98.29-.27.19-.49.52-.65.98-.16.46-.24,1.13-.24,1.99v2.35Z" fill="#fff"/>
    <path d="M121.29,177.1v-27.74h7.79v4.61c.89-1.6,1.78-2.82,2.68-3.67.89-.85,1.97-1.27,3.25-1.27.25,0,.48,0,.67.02.19.02.37.06.53.12v7.78c-.35-.16-.74-.29-1.17-.41-.43-.11-.88-.17-1.36-.17-.89,0-1.72.24-2.48.72-.76.48-1.47,1.14-2.1,1.97v18.05h-7.79Z" fill="#fff"/>
    <path d="M139.49,186.22v-36.86h7.79v2.02c.92-.83,1.91-1.46,2.96-1.87,1.05-.42,2.05-.62,3.01-.62,1.05,0,1.95.21,2.7.62.75.42,1.36,1,1.84,1.75.48.75.83,1.62,1.05,2.62.22.99.33,2.05.33,3.17v11.95c0,1.73-.23,3.23-.69,4.51s-1.14,2.28-2.03,3c-.89.72-1.99,1.08-3.3,1.08-.99,0-1.98-.23-2.99-.7-1-.46-1.97-1.1-2.89-1.9v11.23h-7.79ZM149.34,172.54c.51,0,.91-.14,1.19-.43.29-.29.5-.66.65-1.13.14-.46.21-.98.21-1.56v-12.96c0-.54-.06-1.03-.19-1.46-.13-.43-.33-.78-.62-1.03-.29-.26-.65-.38-1.1-.38-.41,0-.8.09-1.17.26s-.71.41-1.03.7v17.28c.35.22.69.4,1.03.53s.68.19,1.03.19Z" fill="#fff"/>
    <path d="M172.71,177.58c-1.98,0-3.69-.34-5.14-1.01-1.45-.67-2.57-1.68-3.35-3.02-.78-1.34-1.17-3.02-1.17-5.04v-10.56c0-2.02.39-3.7,1.17-5.04.78-1.34,1.9-2.35,3.35-3.02,1.45-.67,3.16-1.01,5.14-1.01s3.69.34,5.14,1.01c1.45.67,2.57,1.68,3.37,3.02.8,1.34,1.2,3.02,1.2,5.04v10.56c0,2.02-.4,3.7-1.2,5.04-.8,1.34-1.92,2.35-3.37,3.02-1.45.67-3.16,1.01-5.14,1.01ZM172.75,172.39c.51,0,.91-.14,1.19-.41.29-.27.49-.66.6-1.15.11-.5.17-1.1.17-1.8v-11.62c0-.7-.06-1.3-.17-1.8-.11-.5-.31-.88-.6-1.15-.29-.27-.68-.41-1.19-.41s-.91.14-1.19.41c-.29.27-.49.66-.62,1.15-.13.5-.19,1.1-.19,1.8v11.62c0,.71.06,1.3.19,1.8.13.5.33.88.62,1.15.29.27.68.41,1.19.41Z" fill="#fff"/>
    <path d="M186.71,144.65v-5.42h7.84v5.42h-7.84ZM186.75,177.1v-27.74h7.79v27.74h-7.79Z" fill="#fff"/>
    <path d="M199.37,177.1v-27.74h7.79v2.78c1.02-1.02,2.08-1.82,3.18-2.4,1.1-.58,2.25-.86,3.46-.86,1.15,0,2.09.28,2.84.84.75.56,1.31,1.33,1.7,2.3.38.98.57,2.09.57,3.34v21.74h-7.74v-20.64c0-.67-.11-1.18-.33-1.54-.22-.35-.64-.53-1.24-.53-.32,0-.69.09-1.12.26-.43.18-.87.42-1.31.74v21.7h-7.79Z" fill="#fff"/>
    <path d="M232.15,177.38c-2.07,0-3.67-.3-4.8-.91-1.13-.61-1.9-1.5-2.32-2.66-.42-1.17-.62-2.58-.62-4.25v-15.07h-2.68v-5.14h2.68v-8.45h7.88v8.45h3.92v5.14h-3.92v14.3c0,.8.23,1.38.69,1.73.46.35,1.04.53,1.74.53.41,0,.8-.02,1.15-.07.35-.05.67-.09.96-.12v6.14c-.41.06-1.07.14-1.96.24-.89.1-1.8.14-2.72.14Z" fill="#fff"/>
  </g>
</svg>