<?xml version="1.0" encoding="UTF-8"?>
<svg id="uuid-70d351c3-9d52-4d9c-bf87-a1f0a8eb5856" xmlns="http://www.w3.org/2000/svg" width="256" height="256" version="1.1" xmlns:xlink="http://www.w3.org/1999/xlink" viewBox="0 0 256 256">
  <!-- Generator: Adobe Illustrator 29.8.4, SVG Export Plug-In . SVG Version: 2.1.1 Build 6)  -->
  <defs>
    <radialGradient id="radial-gradient" cx="128" cy="128" fx="128" fy="128" r="128" gradientUnits="userSpaceOnUse">
      <stop offset="0" stop-color="#3640d4"/>
      <stop offset="0" stop-color="#353fd3"/>
      <stop offset=".38" stop-color="#182bae"/>
      <stop offset=".68" stop-color="#061e97"/>
      <stop offset=".87" stop-color="#001a8f"/>
    </radialGradient>
  </defs>
  <path d="M256,79.73c0-3.04,0-6.08-.02-9.12-.02-2.56-.04-5.12-.11-7.68-.15-5.58-.48-11.2-1.47-16.72-1.01-5.59-2.65-10.8-5.24-15.89-2.55-5-5.87-9.57-9.84-13.53-3.97-3.96-8.54-7.29-13.54-9.83-5.09-2.59-10.3-4.23-15.9-5.24-5.52-.99-11.14-1.32-16.72-1.47-2.56-.07-5.12-.1-7.68-.11-3.04-.02-6.08-.02-9.12-.02l-35.31-.12h-26.41l-34.68.13c-3.05,0-6.09,0-9.14.02-2.57.02-5.13.05-7.7.11-5.59.15-11.23.48-16.76,1.47-5.61,1.01-10.83,2.65-15.93,5.23-5.01,2.54-9.59,5.87-13.57,9.83-3.97,3.96-7.3,8.53-9.85,13.53-2.6,5.09-4.24,10.3-5.25,15.89-.99,5.51-1.32,11.14-1.47,16.71-.07,2.56-.1,5.12-.11,7.68C.16,73.65,0,77.43,0,80.47v60.89l.16,34.93c0,3.04,0,6.09.02,9.13.02,2.56.05,5.13.11,7.69.15,5.58.48,11.22,1.47,16.74,1.01,5.6,2.65,10.82,5.25,15.91,2.55,5,5.88,9.58,9.86,13.55,3.97,3.97,8.56,7.3,13.56,9.84,5.1,2.59,10.32,4.24,15.93,5.24,5.53.99,11.16,1.32,16.75,1.47,2.57.07,5.13.1,7.7.11,3.05.02,6.09.02,9.14.02h96.4c3.04,0,6.08,0,9.12-.02,2.56-.02,5.12-.05,7.68-.11,5.58-.15,11.21-.48,16.73-1.47,5.6-1.01,10.81-2.65,15.89-5.24,5-2.55,9.57-5.87,13.54-9.84,3.97-3.97,7.29-8.55,9.84-13.55,2.59-5.09,4.23-10.31,5.24-15.92.99-5.52,1.32-11.15,1.47-16.73.07-2.56.1-5.13.11-7.69.02-3.04.02-6.09.02-9.13v-96.56h.01Z" fill="url(#radial-gradient)" fill-rule="evenodd"/>
  <g>
    <rect x="22.29" y="23.33" width="211.05" height="211.05" fill="none"/>
    <path d="M38.02,119.5l.67-38.88h9.17l4.25,22.61,4.59-22.61h8.84l.67,38.88h-6.07l-.72-25.87-4.49,25.87h-5.4l-4.78-26.06-.57,26.06h-6.17Z" fill="#fff"/>
    <path d="M70.8,87.05v-5.42h7.84v5.42h-7.84ZM70.85,119.5v-27.74h7.79v27.74h-7.79Z" fill="#fff"/>
    <path d="M92.45,119.98c-2.01,0-3.72-.37-5.14-1.1-1.42-.74-2.51-1.79-3.27-3.17-.76-1.38-1.15-3.04-1.15-4.99v-10.18c0-1.98.38-3.66,1.15-5.04.76-1.38,1.86-2.42,3.27-3.14,1.42-.72,3.13-1.08,5.14-1.08s3.66.3,5.04.91c1.39.61,2.44,1.53,3.18,2.76.73,1.23,1.1,2.79,1.1,4.68v2.93h-7.5v-3.17c0-.74-.07-1.3-.22-1.7-.14-.4-.35-.68-.62-.84-.27-.16-.6-.24-.98-.24s-.7.1-.96.31c-.26.21-.45.54-.57,1.01-.13.46-.19,1.11-.19,1.94v11.52c0,1.25.15,2.1.45,2.54.3.45.74.67,1.31.67.41,0,.75-.09,1-.26.25-.18.45-.46.57-.86.13-.4.19-.94.19-1.61v-3.7h7.5v3.36c0,1.86-.38,3.42-1.12,4.68-.75,1.26-1.82,2.21-3.2,2.83s-3.05.94-4.99.94Z" fill="#fff"/>
    <path d="M105.92,119.5v-27.74h7.79v4.61c.89-1.6,1.78-2.82,2.68-3.67.89-.85,1.98-1.27,3.25-1.27.25,0,.48,0,.67.02.19.02.37.06.53.12v7.78c-.35-.16-.74-.3-1.17-.41-.43-.11-.88-.17-1.36-.17-.89,0-1.72.24-2.48.72s-1.47,1.14-2.1,1.97v18.05h-7.79Z" fill="#fff"/>
    <path d="M133.21,119.98c-1.98,0-3.69-.34-5.14-1.01-1.45-.67-2.56-1.68-3.34-3.02-.78-1.34-1.17-3.02-1.17-5.04v-10.56c0-2.02.39-3.7,1.17-5.04.78-1.34,1.9-2.35,3.34-3.02,1.45-.67,3.16-1.01,5.14-1.01s3.69.34,5.14,1.01c1.45.67,2.57,1.68,3.37,3.02.8,1.34,1.2,3.02,1.2,5.04v10.56c0,2.02-.4,3.7-1.2,5.04-.8,1.34-1.92,2.35-3.37,3.02-1.45.67-3.16,1.01-5.14,1.01ZM133.26,114.79c.51,0,.91-.14,1.19-.41.29-.27.49-.66.6-1.15.11-.5.17-1.1.17-1.8v-11.62c0-.7-.06-1.3-.17-1.8-.11-.5-.31-.88-.6-1.15-.29-.27-.68-.41-1.19-.41s-.91.14-1.19.41c-.29.27-.49.66-.62,1.15-.13.5-.19,1.1-.19,1.8v11.62c0,.7.06,1.3.19,1.8.13.5.33.88.62,1.15.29.27.68.41,1.19.41Z" fill="#fff"/>
    <path d="M155.72,119.98c-2.42,0-4.44-.54-6.04-1.63-1.61-1.09-2.92-2.86-3.94-5.33l5.3-2.35c.51,1.25,1.11,2.23,1.79,2.95.69.72,1.44,1.08,2.27,1.08.6,0,1.06-.13,1.36-.38.3-.26.45-.61.45-1.06,0-.74-.28-1.41-.84-2.02-.56-.61-1.55-1.5-2.99-2.69l-2.01-1.68c-1.47-1.25-2.62-2.46-3.46-3.62-.84-1.17-1.27-2.62-1.27-4.34,0-1.5.39-2.83,1.17-3.98.78-1.15,1.82-2.05,3.13-2.69,1.31-.64,2.71-.96,4.21-.96,2.26,0,4.16.62,5.69,1.87s2.6,3.01,3.2,5.28l-5.02,2.3c-.19-.61-.46-1.22-.81-1.82-.35-.61-.77-1.12-1.27-1.54-.49-.42-1.03-.62-1.6-.62-.51,0-.92.14-1.22.43-.3.29-.45.67-.45,1.15,0,.61.34,1.26,1.03,1.97.68.7,1.63,1.55,2.84,2.54l1.96,1.73c.8.67,1.58,1.39,2.34,2.16s1.39,1.62,1.89,2.54c.49.93.74,1.98.74,3.17,0,1.6-.4,2.97-1.19,4.1-.8,1.14-1.84,1.99-3.13,2.57-1.29.58-2.67.86-4.13.86Z" fill="#fff"/>
    <path d="M176.55,119.98c-1.98,0-3.69-.34-5.14-1.01-1.45-.67-2.57-1.68-3.35-3.02-.78-1.34-1.17-3.02-1.17-5.04v-10.56c0-2.02.39-3.7,1.17-5.04.78-1.34,1.9-2.35,3.35-3.02,1.45-.67,3.16-1.01,5.14-1.01s3.69.34,5.14,1.01c1.45.67,2.57,1.68,3.37,3.02.8,1.34,1.2,3.02,1.2,5.04v10.56c0,2.02-.4,3.7-1.2,5.04-.8,1.34-1.92,2.35-3.37,3.02-1.45.67-3.16,1.01-5.14,1.01ZM176.6,114.79c.51,0,.91-.14,1.19-.41.29-.27.49-.66.6-1.15.11-.5.17-1.1.17-1.8v-11.62c0-.7-.06-1.3-.17-1.8-.11-.5-.31-.88-.6-1.15-.29-.27-.68-.41-1.19-.41s-.91.14-1.19.41c-.29.27-.49.66-.62,1.15-.13.5-.19,1.1-.19,1.8v11.62c0,.7.06,1.3.19,1.8.13.5.33.88.62,1.15.29.27.68.41,1.19.41Z" fill="#fff"/>
    <path d="M191.56,119.5v-22.46h-2.63v-5.28h2.63v-2.06c0-1.63.17-3.06.5-4.27.33-1.22,1.04-2.16,2.1-2.83s2.72-1.01,4.95-1.01c.6,0,1.2.02,1.79.05.59.03,1.23.1,1.94.19v5.81c-.22-.06-.49-.12-.79-.17s-.6-.07-.88-.07c-.57,0-1.02.17-1.34.5-.32.34-.48.89-.48,1.66v2.21h3.49v5.28h-3.49v22.46h-7.79Z" fill="#fff"/>
    <path d="M214.4,119.79c-2.07,0-3.67-.3-4.8-.91-1.13-.61-1.9-1.5-2.32-2.66-.42-1.17-.62-2.58-.62-4.25v-15.07h-2.68v-5.14h2.68v-8.45h7.88v8.45h3.92v5.14h-3.92v14.3c0,.8.23,1.38.69,1.73.46.35,1.04.53,1.74.53.41,0,.8-.02,1.15-.07.35-.05.67-.09.96-.12v6.14c-.41.06-1.07.14-1.96.24-.89.1-1.8.14-2.72.14Z" fill="#fff"/>
    <path d="M84.47,177.1l-4.68-38.88h7.26l2.29,22.66,2.92-22.61h5.69l3.06,22.46,2.34-22.51h7.17l-4.64,38.88h-7.46l-3.3-23.47-3.11,23.47h-7.55Z" fill="#fff"/>
    <path d="M123.22,177.58c-1.98,0-3.69-.34-5.14-1.01s-2.56-1.68-3.34-3.02c-.78-1.34-1.17-3.02-1.17-5.04v-10.56c0-2.02.39-3.7,1.17-5.04.78-1.34,1.9-2.35,3.34-3.02s3.16-1.01,5.14-1.01,3.69.34,5.14,1.01c1.45.67,2.57,1.68,3.37,3.02.8,1.34,1.2,3.02,1.2,5.04v10.56c0,2.02-.4,3.7-1.2,5.04-.8,1.34-1.92,2.35-3.37,3.02-1.45.67-3.16,1.01-5.14,1.01ZM123.27,172.39c.51,0,.91-.14,1.19-.41.29-.27.49-.66.6-1.15.11-.5.17-1.1.17-1.8v-11.62c0-.7-.06-1.3-.17-1.8-.11-.5-.31-.88-.6-1.15-.29-.27-.69-.41-1.19-.41s-.91.14-1.19.41c-.29.27-.49.66-.62,1.15-.13.5-.19,1.1-.19,1.8v11.62c0,.71.06,1.3.19,1.8.13.5.33.88.62,1.15.29.27.69.41,1.19.41Z" fill="#fff"/>
    <path d="M137.32,177.1v-27.74h7.79v4.61c.89-1.6,1.78-2.82,2.68-3.67.89-.85,1.97-1.27,3.25-1.27.25,0,.48,0,.67.02.19.02.37.06.53.12v7.78c-.35-.16-.74-.29-1.17-.41-.43-.11-.88-.17-1.36-.17-.89,0-1.72.24-2.48.72-.76.48-1.47,1.14-2.1,1.97v18.05h-7.79Z" fill="#fff"/>
    <path d="M161.5,177.58c-2.04,0-3.62-.72-4.73-2.16-1.12-1.44-1.67-3.57-1.67-6.38v-11.47c0-1.73.24-3.24.72-4.54.48-1.3,1.2-2.31,2.15-3.05.96-.74,2.13-1.1,3.54-1.1,1.02,0,1.99.2,2.92.6.92.4,1.77.94,2.53,1.61v-12.86h7.79v38.88h-7.79v-2.16c-.86.83-1.75,1.48-2.68,1.94-.92.46-1.85.7-2.77.7ZM164.89,172.58c.25,0,.57-.06.93-.19.37-.13.74-.3,1.12-.53v-17.52c-.32-.16-.65-.3-1-.43s-.69-.19-1-.19c-.7,0-1.21.3-1.53.89-.32.59-.48,1.3-.48,2.14v12.77c0,.58.06,1.1.19,1.56.13.46.33.83.62,1.1.29.27.67.41,1.15.41Z" fill="#fff"/>
  </g>
</svg>