<?xml version="1.0" encoding="UTF-8"?>
<svg id="uuid-70d351c3-9d52-4d9c-bf87-a1f0a8eb5856" xmlns="http://www.w3.org/2000/svg" width="256" height="256" version="1.1" xmlns:xlink="http://www.w3.org/1999/xlink" viewBox="0 0 256 256">
  <!-- Generator: Adobe Illustrator 29.8.4, SVG Export Plug-In . SVG Version: 2.1.1 Build 6)  -->
  <defs>
    <radialGradient id="radial-gradient" cx="-583.69" cy="567.62" fx="-583.69" fy="567.62" r="1" gradientTransform="translate(-52937.44 46676.85) rotate(90) scale(79.64 -93.4)" gradientUnits="userSpaceOnUse">
      <stop offset=".59" stop-color="#2763e5" stop-opacity="0"/>
      <stop offset=".97" stop-color="#58aafe"/>
    </radialGradient>
    <radialGradient id="radial-gradient1" cx="-590.23" cy="517.14" fx="-590.23" fy="517.14" r="1.12" gradientTransform="translate(8550.77 126107.39) rotate(44.19) scale(163.24 -163.17) skewX(1.61)" gradientUnits="userSpaceOnUse">
      <stop offset=".08" stop-color="#367af2"/>
      <stop offset=".87" stop-color="#001a8f"/>
    </radialGradient>
    <radialGradient id="radial-gradient2" cx="-613.54" cy="484.81" fx="-613.54" fy="484.81" r="1" gradientTransform="translate(213739.84 69722.74) scale(347.94 -143.29)" gradientUnits="userSpaceOnUse">
      <stop offset=".18" stop-color="#1657f4"/>
      <stop offset=".57" stop-color="#0036c4"/>
    </radialGradient>
    <linearGradient id="linear-gradient" x1="36.57" y1="-13.11" x2="204.58" y2="-13.11" gradientTransform="translate(0 122) scale(1 -1)" gradientUnits="userSpaceOnUse">
      <stop offset="0" stop-color="#66c0ff"/>
      <stop offset=".26" stop-color="#0094f0"/>
    </linearGradient>
    <radialGradient id="radial-gradient3" cx="-633.73" cy="522.21" fx="-633.73" fy="522.21" r="1" gradientTransform="translate(-293729.55 -89043.38) rotate(134.36) scale(211.63 -521.84) skewX(-3.97)" gradientUnits="userSpaceOnUse">
      <stop offset=".14" stop-color="#d471ff"/>
      <stop offset=".83" stop-color="#509df5" stop-opacity="0"/>
    </radialGradient>
    <radialGradient id="radial-gradient4" cx="-601.74" cy="517.23" fx="-601.74" fy="517.23" r="1" gradientTransform="translate(-384328.92 79821.02) rotate(90) scale(132.41 -743.5)" gradientUnits="userSpaceOnUse">
      <stop offset=".28" stop-color="#4f006f" stop-opacity="0"/>
      <stop offset="1" stop-color="#4f006f"/>
    </radialGradient>
    <linearGradient id="linear-gradient1" x1="36.58" y1="59.61" x2="256" y2="55.95" gradientTransform="translate(0 122) scale(1 -1)" gradientUnits="userSpaceOnUse">
      <stop offset="0" stop-color="#9deaff"/>
      <stop offset=".2" stop-color="#3bd5ff"/>
    </linearGradient>
    <radialGradient id="radial-gradient5" cx="-649.37" cy="519.36" fx="-649.37" fy="519.36" r="1" gradientTransform="translate(-197200.55 -223087.12) rotate(167.2) scale(215.39 -503.04) skewX(-1.67)" gradientUnits="userSpaceOnUse">
      <stop offset=".06" stop-color="#e4a7fe"/>
      <stop offset=".54" stop-color="#e4a7fe" stop-opacity="0"/>
    </radialGradient>
  </defs>
  <rect y="120.89" width="117.03" height="113.78" rx="3.25" ry="3.25" fill="url(#radial-gradient)" fill-opacity=".65"/>
  <rect y="120.89" width="117.03" height="113.78" rx="3.25" ry="3.25" fill="url(#radial-gradient1)"/>
  <path d="M36.57,192.64l102.4-121.53,117.03,79v81c0,13.72-11.48,24.89-25.6,24.89H80.46c-24.21,0-43.89-19.13-43.89-42.67v-20.69Z" fill="url(#radial-gradient2)"/>
  <path d="M36.57,106.95c0-17.71,14.7-32,32.91-32h149.14l37.38-18.06v88.89c0,13.72-11.48,24.89-25.6,24.89H80.46c-24.21,0-43.89,19.13-43.89,42.67v-106.38h0Z" fill="url(#linear-gradient)"/>
  <path d="M36.57,106.95c0-17.71,14.7-32,32.91-32h149.14l37.38-18.06v88.89c0,13.72-11.48,24.89-25.6,24.89H80.46c-24.21,0-43.89,19.13-43.89,42.67v-106.38h0Z" fill="url(#radial-gradient3)" fill-opacity=".6"/>
  <path d="M36.57,106.95c0-17.71,14.7-32,32.91-32h149.14l37.38-18.06v88.89c0,13.72-11.48,24.89-25.6,24.89H80.46c-24.21,0-43.89,19.13-43.89,42.67v-106.38h0Z" fill="url(#radial-gradient4)" fill-opacity=".1"/>
  <path d="M36.57,42.67C36.57,19.13,56.25,0,80.46,0h149.94c14.12,0,25.6,11.16,25.6,24.89v35.56c0,13.72-11.48,24.89-25.6,24.89H80.46c-24.21,0-43.89,19.13-43.89,42.67V42.67Z" fill="url(#linear-gradient1)"/>
  <path d="M36.57,42.67C36.57,19.13,56.25,0,80.46,0h149.94c14.12,0,25.6,11.16,25.6,24.89v35.56c0,13.72-11.48,24.89-25.6,24.89H80.46c-24.21,0-43.89,19.13-43.89,42.67V42.67Z" fill="url(#radial-gradient5)" fill-opacity=".8"/>
</svg>