<?xml version="1.0" encoding="UTF-8"?>
<svg id="Layer_1" xmlns="http://www.w3.org/2000/svg" width="256" height="256" version="1.1" viewBox="0 0 256 256">
  <!-- Generator: Adobe Illustrator 29.8.4, SVG Export Plug-In . SVG Version: 2.1.1 Build 6)  -->
  <path d="M256,79.73c0-3.04,0-6.08-.02-9.12-.02-2.56-.04-5.12-.11-7.68-.15-5.58-.48-11.2-1.47-16.72-1.01-5.59-2.65-10.8-5.24-15.89-2.55-5-5.87-9.57-9.84-13.53-3.97-3.96-8.54-7.29-13.54-9.83-5.09-2.59-10.3-4.23-15.9-5.24-5.52-.99-11.14-1.32-16.72-1.47-2.56-.07-5.12-.1-7.68-.11-3.04-.02-6.08-.02-9.12-.02l-35.31-.12h-26.41l-34.68.13c-3.05,0-6.09,0-9.14.02-2.57.02-5.13.05-7.7.11-5.59.15-11.23.48-16.76,1.47-5.61,1.01-10.83,2.65-15.93,5.23-5.01,2.54-9.59,5.87-13.57,9.83-3.97,3.96-7.3,8.53-9.85,13.53-2.6,5.09-4.24,10.3-5.25,15.89-.99,5.51-1.32,11.14-1.47,16.71-.07,2.56-.1,5.12-.11,7.68C.16,73.65,0,77.43,0,80.47v60.89l.16,34.93c0,3.04,0,6.09.02,9.13.02,2.56.05,5.13.11,7.69.15,5.58.48,11.22,1.47,16.74,1.01,5.6,2.65,10.82,5.25,15.91,2.55,5,5.88,9.58,9.86,13.55,3.97,3.97,8.56,7.3,13.56,9.84,5.1,2.59,10.32,4.24,15.93,5.24,5.53.99,11.16,1.32,16.75,1.47,2.57.07,5.13.1,7.7.11,3.05.02,6.09.02,9.14.02h96.4c3.04,0,6.08,0,9.12-.02,2.56-.02,5.12-.05,7.68-.11,5.58-.15,11.21-.48,16.73-1.47,5.6-1.01,10.81-2.65,15.89-5.24,5-2.55,9.57-5.87,13.54-9.84,3.97-3.97,7.29-8.55,9.84-13.55,2.59-5.09,4.23-10.31,5.24-15.92.99-5.52,1.32-11.15,1.47-16.73.07-2.56.1-5.13.11-7.69.02-3.04.02-6.09.02-9.13v-96.56h.01Z" fill="#8d6e63" fill-rule="evenodd"/>
  <g>
    <rect x="22.29" y="23.33" width="211.05" height="211.05" fill="none"/>
    <path d="M54.31,148.3v-38.88h10.66c2.61,0,4.87.29,6.79.86,1.91.58,3.4,1.61,4.47,3.1,1.07,1.49,1.6,3.59,1.6,6.31,0,1.6-.13,3.02-.38,4.27-.26,1.25-.72,2.33-1.41,3.24-.69.91-1.67,1.67-2.94,2.28l5.3,18.82h-8.84l-4.25-17.42h-2.44v17.42h-8.55ZM62.87,125.93h2.39c1.21,0,2.15-.22,2.82-.65s1.14-1.06,1.41-1.87c.27-.82.41-1.8.41-2.95,0-1.66-.3-2.96-.91-3.89-.61-.93-1.72-1.39-3.35-1.39h-2.77v10.75Z" fill="#aed581"/>
    <path d="M82.79,148.3v-38.88h17.39v5.86h-8.84v9.65h6.74v5.95h-6.74v11.62h8.94v5.81h-17.49Z" fill="#aed581"/>
    <path d="M102.29,148.3l7.31-38.88h9.75l7.22,38.88h-7.88l-1.29-8.21h-5.69l-1.34,8.21h-8.08ZM112.47,134.95h4.11l-2.05-15.17-2.06,15.17Z" fill="#aed581"/>
    <path d="M130.1,148.3v-38.88h13c2.33,0,4.24.44,5.73,1.32,1.5.88,2.61,2.16,3.35,3.84.73,1.68,1.1,3.72,1.1,6.12,0,3.01-.49,5.3-1.48,6.89s-2.33,2.68-4.01,3.29c-1.69.61-3.58.91-5.69.91h-3.44v16.51h-8.55ZM138.66,125.78h2.87c1.05,0,1.85-.19,2.39-.58.54-.38.9-.96,1.08-1.73.17-.77.26-1.74.26-2.93,0-.99-.07-1.86-.21-2.62-.14-.75-.49-1.35-1.03-1.8-.54-.45-1.39-.67-2.53-.67h-2.82v10.32Z" fill="#aed581"/>
    <path d="M157.01,148.3v-38.88h17.39v5.86h-8.84v9.65h6.74v5.95h-6.74v11.62h8.94v5.81h-17.49Z" fill="#aed581"/>
    <path d="M178.37,148.3v-38.88h10.66c2.61,0,4.88.29,6.79.86,1.91.58,3.4,1.61,4.47,3.1,1.07,1.49,1.6,3.59,1.6,6.31,0,1.6-.13,3.02-.38,4.27s-.72,2.33-1.41,3.24c-.69.91-1.67,1.67-2.94,2.28l5.3,18.82h-8.84l-4.25-17.42h-2.44v17.42h-8.55ZM186.92,125.93h2.39c1.21,0,2.15-.22,2.82-.65s1.14-1.06,1.41-1.87c.27-.82.41-1.8.41-2.95,0-1.66-.3-2.96-.91-3.89-.61-.93-1.72-1.39-3.35-1.39h-2.77v10.75Z" fill="#aed581"/>
  </g>
</svg>