<?xml version="1.0" encoding="UTF-8"?>
<svg id="Layer_1" xmlns="http://www.w3.org/2000/svg" width="256" height="256" version="1.1" xmlns:xlink="http://www.w3.org/1999/xlink" viewBox="0 0 256 256">
  <!-- Generator: Adobe Illustrator 29.8.4, SVG Export Plug-In . SVG Version: 2.1.1 Build 6)  -->
  <defs>
    <linearGradient id="linear-gradient" x1="0" y1="128" x2="256" y2="128" gradientUnits="userSpaceOnUse">
      <stop offset="0" stop-color="#369def"/>
      <stop offset="1" stop-color="#2069b5"/>
    </linearGradient>
  </defs>
  <path d="M256,79.73c0-3.04,0-6.08-.02-9.12-.02-2.56-.04-5.12-.11-7.68-.15-5.58-.48-11.2-1.47-16.72-1.01-5.59-2.65-10.8-5.24-15.89-2.55-5-5.87-9.57-9.84-13.53-3.97-3.96-8.54-7.29-13.54-9.83-5.09-2.59-10.3-4.23-15.9-5.24-5.52-.99-11.14-1.32-16.72-1.47-2.56-.07-5.12-.1-7.68-.11-3.04-.02-6.08-.02-9.12-.02l-35.31-.12h-26.41l-34.68.13c-3.05,0-6.09,0-9.14.02-2.57.02-5.13.05-7.7.11-5.59.15-11.23.48-16.76,1.47-5.61,1.01-10.83,2.65-15.93,5.23-5.01,2.54-9.59,5.87-13.57,9.83-3.97,3.96-7.3,8.53-9.85,13.53-2.6,5.09-4.24,10.3-5.25,15.89-.99,5.51-1.32,11.14-1.47,16.71-.07,2.56-.1,5.12-.11,7.68C.16,73.65,0,77.43,0,80.47v60.89l.16,34.93c0,3.04,0,6.09.02,9.13.02,2.56.05,5.13.11,7.69.15,5.58.48,11.22,1.47,16.74,1.01,5.6,2.65,10.82,5.25,15.91,2.55,5,5.88,9.58,9.86,13.55,3.97,3.97,8.56,7.3,13.56,9.84,5.1,2.59,10.32,4.24,15.93,5.24,5.53.99,11.16,1.32,16.75,1.47,2.57.07,5.13.1,7.7.11,3.05.02,6.09.02,9.14.02h96.4c3.04,0,6.08,0,9.12-.02,2.56-.02,5.12-.05,7.68-.11,5.58-.15,11.21-.48,16.73-1.47,5.6-1.01,10.81-2.65,15.89-5.24,5-2.55,9.57-5.87,13.54-9.84,3.97-3.97,7.29-8.55,9.84-13.55,2.59-5.09,4.23-10.31,5.24-15.92.99-5.52,1.32-11.15,1.47-16.73.07-2.56.1-5.13.11-7.69.02-3.04.02-6.09.02-9.13v-96.56h.01Z" fill="url(#linear-gradient)" fill-rule="evenodd"/>
  <g>
    <rect x="22.29" y="23.33" width="211.05" height="211.05" fill="none"/>
    <path d="M76.85,90.7l-6.98-38.88h7.31l4.16,26.4,3.87-26.4h7.74l-7.07,38.88h-9.03Z" fill="#fff"/>
    <path d="M96.39,58.25v-5.42h7.84v5.42h-7.84ZM96.44,90.7v-27.74h7.79v27.74h-7.79Z" fill="#fff"/>
    <path d="M117.56,91.18c-2.42,0-4.44-.54-6.04-1.63-1.61-1.09-2.92-2.86-3.94-5.33l5.3-2.35c.51,1.25,1.11,2.23,1.79,2.95.68.72,1.44,1.08,2.27,1.08.6,0,1.06-.13,1.36-.38.3-.26.45-.61.45-1.06,0-.74-.28-1.41-.84-2.02-.56-.61-1.55-1.5-2.99-2.69l-2.01-1.68c-1.47-1.25-2.62-2.46-3.46-3.62-.84-1.17-1.27-2.62-1.27-4.34,0-1.5.39-2.83,1.17-3.98.78-1.15,1.82-2.05,3.13-2.69,1.31-.64,2.71-.96,4.21-.96,2.26,0,4.16.62,5.69,1.87,1.53,1.25,2.6,3.01,3.2,5.28l-5.02,2.3c-.19-.61-.46-1.22-.81-1.82-.35-.61-.77-1.12-1.27-1.54-.49-.42-1.03-.62-1.6-.62-.51,0-.92.14-1.22.43-.3.29-.45.67-.45,1.15,0,.61.34,1.26,1.03,1.97.69.7,1.63,1.55,2.84,2.54l1.96,1.73c.8.67,1.58,1.39,2.34,2.16s1.39,1.62,1.89,2.54c.49.93.74,1.98.74,3.17,0,1.6-.4,2.97-1.19,4.1-.8,1.14-1.84,1.99-3.13,2.57-1.29.58-2.67.86-4.13.86Z" fill="#fff"/>
    <path d="M134.19,91.18c-1.12,0-2.06-.28-2.84-.84-.78-.56-1.36-1.34-1.74-2.33-.38-.99-.57-2.1-.57-3.31v-21.74h7.79v20.83c0,.67.12,1.19.36,1.56.24.37.66.55,1.27.55.35,0,.72-.09,1.1-.26.38-.18.78-.38,1.2-.6v-22.08h7.74v27.74h-7.74v-2.54c-.99.93-2.03,1.66-3.13,2.21-1.1.54-2.24.82-3.42.82Z" fill="#fff"/>
    <path d="M159.09,91.18c-1.4,0-2.58-.34-3.54-1.01-.96-.67-1.67-1.53-2.15-2.57-.48-1.04-.72-2.1-.72-3.19,0-1.73.34-3.18,1.03-4.37.68-1.18,1.58-2.18,2.7-2.98,1.12-.8,2.34-1.48,3.68-2.04,1.34-.56,2.66-1.06,3.97-1.51v-2.78c0-.48-.05-.9-.14-1.27-.1-.37-.25-.66-.48-.86-.22-.21-.56-.31-1-.31s-.79.1-1.03.29-.41.46-.5.79-.16.71-.19,1.13l-.19,2.02-7.26-.29c.16-3.33,1.04-5.78,2.65-7.37,1.61-1.58,4.02-2.38,7.24-2.38,2.8,0,4.9.78,6.28,2.33,1.39,1.55,2.08,3.56,2.08,6.02v12.96c0,1.15.02,2.16.07,3.02.05.86.11,1.62.19,2.26.08.64.15,1.18.21,1.63h-6.98c-.1-.74-.21-1.54-.33-2.4-.13-.86-.22-1.38-.29-1.54-.32,1.15-.92,2.18-1.79,3.07s-2.05,1.34-3.51,1.34ZM161.86,85.9c.32,0,.61-.06.88-.19.27-.13.52-.3.74-.53.22-.22.41-.45.57-.67v-7.58c-.64.38-1.23.78-1.77,1.18-.54.4-1,.84-1.39,1.32-.38.48-.68,1-.88,1.56-.21.56-.31,1.19-.31,1.9,0,.93.19,1.66.57,2.21.38.54.91.82,1.58.82Z" fill="#fff"/>
    <path d="M176.48,90.7v-38.88h7.74v38.88h-7.74Z" fill="#fff"/>
    <path d="M78.28,148.87c-2.42,0-4.44-.43-6.07-1.3-1.62-.86-2.85-2.2-3.68-4.01-.83-1.81-1.29-4.15-1.39-7.03l7.31-1.1c.03,1.66.18,3.01.45,4.03.27,1.02.65,1.76,1.15,2.21.49.45,1.09.67,1.79.67.89,0,1.47-.3,1.74-.91.27-.61.41-1.25.41-1.92,0-1.6-.38-2.95-1.15-4.06-.76-1.1-1.8-2.22-3.11-3.34l-3.35-2.93c-1.47-1.25-2.7-2.66-3.7-4.25s-1.51-3.54-1.51-5.88c0-3.3.97-5.82,2.92-7.56,1.94-1.74,4.59-2.62,7.93-2.62,2.07,0,3.73.35,4.99,1.06,1.26.7,2.21,1.62,2.87,2.76.65,1.14,1.1,2.34,1.34,3.6.24,1.26.37,2.47.41,3.62l-7.36.91c-.03-1.15-.1-2.15-.21-3-.11-.85-.34-1.5-.69-1.97-.35-.46-.89-.7-1.62-.7-.8,0-1.38.34-1.74,1.01-.37.67-.55,1.34-.55,2.02,0,1.44.34,2.62,1.03,3.53.68.91,1.58,1.86,2.7,2.86l3.2,2.83c1.69,1.44,3.11,3.07,4.28,4.9,1.16,1.82,1.74,4.08,1.74,6.77,0,1.82-.41,3.48-1.24,4.97-.83,1.49-2,2.66-3.51,3.53-1.51.86-3.31,1.3-5.38,1.3Z" fill="#fff"/>
    <path d="M100.69,148.58c-2.07,0-3.67-.3-4.8-.91-1.13-.61-1.9-1.5-2.32-2.66-.41-1.17-.62-2.58-.62-4.25v-15.07h-2.68v-5.14h2.68v-8.45h7.88v8.45h3.92v5.14h-3.92v14.3c0,.8.23,1.38.69,1.73.46.35,1.04.53,1.74.53.41,0,.8-.02,1.15-.07s.67-.09.96-.12v6.14c-.41.06-1.07.14-1.96.24-.89.1-1.8.14-2.72.14Z" fill="#fff"/>
    <path d="M113.93,148.78c-1.12,0-2.06-.28-2.84-.84-.78-.56-1.36-1.33-1.74-2.33-.38-.99-.57-2.09-.57-3.31v-21.74h7.79v20.83c0,.67.12,1.19.36,1.56.24.37.66.55,1.27.55.35,0,.72-.09,1.1-.26.38-.17.78-.38,1.19-.6v-22.08h7.74v27.74h-7.74v-2.54c-.99.93-2.03,1.66-3.13,2.21s-2.24.82-3.42.82Z" fill="#fff"/>
    <path d="M139.11,148.78c-2.04,0-3.62-.72-4.73-2.16-1.12-1.44-1.67-3.57-1.67-6.38v-11.47c0-1.73.24-3.24.72-4.54.48-1.3,1.2-2.31,2.15-3.05.96-.74,2.13-1.1,3.54-1.1,1.02,0,1.99.2,2.92.6.92.4,1.77.94,2.53,1.61v-12.86h7.79v38.88h-7.79v-2.16c-.86.83-1.75,1.48-2.68,1.94-.92.46-1.85.7-2.77.7ZM142.5,143.79c.25,0,.57-.06.93-.19.37-.13.74-.3,1.12-.53v-17.52c-.32-.16-.65-.3-1-.43-.35-.13-.69-.19-1-.19-.7,0-1.21.3-1.53.89-.32.59-.48,1.3-.48,2.14v12.77c0,.58.06,1.1.19,1.56.13.46.33.83.62,1.1.29.27.67.41,1.15.41Z" fill="#fff"/>
    <path d="M157.17,115.85v-5.42h7.84v5.42h-7.84ZM157.22,148.3v-27.74h7.79v27.74h-7.79Z" fill="#fff"/>
    <path d="M178.92,148.78c-1.98,0-3.69-.34-5.14-1.01-1.45-.67-2.57-1.68-3.35-3.02-.78-1.34-1.17-3.02-1.17-5.04v-10.56c0-2.02.39-3.7,1.17-5.04.78-1.34,1.9-2.35,3.35-3.02,1.45-.67,3.16-1.01,5.14-1.01s3.69.34,5.14,1.01c1.45.67,2.57,1.68,3.37,3.02.8,1.34,1.2,3.02,1.2,5.04v10.56c0,2.02-.4,3.7-1.2,5.04-.8,1.34-1.92,2.35-3.37,3.02-1.45.67-3.16,1.01-5.14,1.01ZM178.96,143.59c.51,0,.91-.14,1.19-.41.29-.27.49-.66.6-1.15.11-.5.17-1.1.17-1.8v-11.62c0-.7-.06-1.3-.17-1.8-.11-.5-.31-.88-.6-1.15-.29-.27-.68-.41-1.19-.41s-.91.14-1.19.41c-.29.27-.49.66-.62,1.15-.13.5-.19,1.1-.19,1.8v11.62c0,.71.06,1.3.19,1.8.13.5.33.88.62,1.15.29.27.68.41,1.19.41Z" fill="#fff"/>
    <path d="M93.52,206.47c-2.93,0-5.25-.54-6.95-1.61-1.7-1.07-2.91-2.58-3.61-4.51-.7-1.94-1.05-4.22-1.05-6.84v-14.02c0-2.69.35-5,1.05-6.94.7-1.94,1.9-3.43,3.61-4.49,1.7-1.06,4.02-1.58,6.95-1.58s5.1.47,6.71,1.42c1.61.94,2.75,2.26,3.42,3.96.67,1.7,1,3.65,1,5.86v3.36h-8.36v-3.89c0-.77-.04-1.5-.12-2.21-.08-.7-.31-1.29-.69-1.75s-1.04-.7-1.96-.7-1.55.24-1.98.72c-.43.48-.7,1.08-.81,1.8-.11.72-.17,1.48-.17,2.28v18.29c0,.86.07,1.66.21,2.38.14.72.43,1.3.86,1.73s1.06.65,1.89.65c.89,0,1.53-.23,1.91-.7s.62-1.06.72-1.8c.1-.74.14-1.49.14-2.26v-4.08h8.36v3.36c0,2.21-.33,4.18-.98,5.93-.65,1.75-1.78,3.12-3.39,4.13-1.61,1.01-3.86,1.51-6.76,1.51Z" fill="#fff"/>
    <path d="M117.99,206.38c-1.98,0-3.69-.34-5.14-1.01s-2.56-1.68-3.34-3.02c-.78-1.34-1.17-3.02-1.17-5.04v-10.56c0-2.02.39-3.7,1.17-5.04.78-1.34,1.9-2.35,3.34-3.02s3.16-1.01,5.14-1.01,3.69.34,5.14,1.01c1.45.67,2.57,1.68,3.37,3.02.8,1.34,1.19,3.02,1.19,5.04v10.56c0,2.02-.4,3.7-1.19,5.04-.8,1.34-1.92,2.35-3.37,3.02-1.45.67-3.16,1.01-5.14,1.01ZM118.04,201.19c.51,0,.91-.14,1.19-.41.29-.27.49-.66.6-1.15.11-.5.17-1.1.17-1.8v-11.62c0-.7-.06-1.3-.17-1.8-.11-.5-.31-.88-.6-1.15-.29-.27-.69-.41-1.19-.41s-.91.14-1.19.41c-.29.27-.49.66-.62,1.15-.13.5-.19,1.1-.19,1.8v11.62c0,.71.06,1.3.19,1.8.13.5.33.88.62,1.15.29.27.69.41,1.19.41Z" fill="#fff"/>
    <path d="M137.96,206.38c-2.04,0-3.62-.72-4.73-2.16-1.12-1.44-1.67-3.57-1.67-6.38v-11.47c0-1.73.24-3.24.72-4.54.48-1.3,1.2-2.31,2.15-3.05.96-.74,2.13-1.1,3.54-1.1,1.02,0,1.99.2,2.92.6.92.4,1.77.94,2.53,1.61v-12.86h7.79v38.88h-7.79v-2.16c-.86.83-1.75,1.48-2.68,1.94-.92.46-1.85.7-2.77.7ZM141.36,201.39c.25,0,.57-.06.93-.19.37-.13.74-.3,1.12-.53v-17.52c-.32-.16-.65-.3-1-.43s-.69-.19-1-.19c-.7,0-1.21.3-1.53.89-.32.59-.48,1.3-.48,2.14v12.77c0,.58.06,1.1.19,1.56.13.46.33.83.62,1.1.29.27.67.41,1.15.41Z" fill="#fff"/>
    <path d="M165.06,206.38c-2.01,0-3.73-.36-5.16-1.08-1.43-.72-2.53-1.78-3.3-3.17-.76-1.39-1.15-3.06-1.15-5.02v-10.18c0-1.98.38-3.66,1.15-5.04s1.87-2.42,3.32-3.14c1.45-.72,3.16-1.08,5.14-1.08s3.74.35,5.09,1.06c1.35.7,2.37,1.74,3.06,3.12.69,1.38,1.03,3.07,1.03,5.09v5.57h-11.09v5.33c0,.71.08,1.28.24,1.73.16.45.38.77.67.96.29.19.62.29,1,.29s.72-.09,1.03-.26.54-.46.72-.84c.17-.38.26-.91.26-1.58v-2.93h7.17v2.69c0,2.82-.81,4.94-2.44,6.36-1.62,1.42-3.87,2.14-6.74,2.14ZM163.15,188.86h3.92v-2.78c0-.74-.09-1.31-.26-1.73s-.41-.7-.72-.86-.66-.24-1.08-.24c-.38,0-.71.1-.98.29-.27.19-.49.52-.64.98-.16.46-.24,1.13-.24,1.99v2.35Z" fill="#fff"/>
  </g>
</svg>