<?xml version="1.0" encoding="UTF-8"?>
<svg id="Layer_1" xmlns="http://www.w3.org/2000/svg" width="256" height="256" version="1.1" xmlns:xlink="http://www.w3.org/1999/xlink" viewBox="0 0 256 256">
  <!-- Generator: Adobe Illustrator 29.8.4, SVG Export Plug-In . SVG Version: 2.1.1 Build 6)  -->
  <defs>
    <linearGradient id="linear-gradient" x1="0" y1="128" x2="256.01" y2="128" gradientUnits="userSpaceOnUse">
      <stop offset="0" stop-color="#369def"/>
      <stop offset="1" stop-color="#2069b5"/>
    </linearGradient>
  </defs>
  <path d="M256.01,213.78c0,.1,0,.19-.01.28V41.57c0-6.18-3.52-11.81-9.06-14.49L194.23,1.59c-1.67-.81-3.43-1.29-5.2-1.49-.1-.01-.19-.02-.29-.03-.23-.02-.46-.04-.69-.05-.3-.02-.6-.02-.9-.02-.04,0-.08,0-.11,0-3.26.04-6.48,1.07-9.19,3.05-.67.49-1.31,1.04-1.9,1.64l-100.82,92.52L31.2,63.69c-1.54-1.17-3.3-1.87-5.11-2.09-3.01-.39-6.14.53-8.52,2.7l-14.09,12.89c-4.65,4.25-4.65,11.6-.01,15.86l38.09,34.95L3.48,162.95c-4.64,4.26-4.64,11.61.01,15.86l14.09,12.89c2.14,1.95,4.88,2.89,7.6,2.78,2.12-.08,4.22-.8,6.02-2.17l43.92-33.52,100.83,92.52c1.6,1.61,3.47,2.81,5.48,3.6h-.01c1.69.66,3.48,1.01,5.29,1.07.23,0,.46.01.68.01.19,0,.38,0,.56-.01,2.13-.09,4.26-.6,6.27-1.57l52.71-25.49c4.16-2,7.17-5.68,8.42-10,.42-1.45.65-2.97.65-4.52v-.62ZM191.92,186.32l-76.44-58.32,76.44-58.33v116.65Z" fill="url(#linear-gradient)" fill-rule="evenodd"/>
</svg>