<?xml version="1.0" encoding="UTF-8"?>
<svg id="Layer_1" xmlns="http://www.w3.org/2000/svg" width="256" height="256" version="1.1" viewBox="0 0 256 256">
  <!-- Generator: Adobe Illustrator 29.8.4, SVG Export Plug-In . SVG Version: 2.1.1 Build 6)  -->
  <rect x="0" y="0" width="256" height="256" rx="21.34" ry="21.34" fill="#e4ff97"/>
  <g>
    <g id="Text">
      <path id="n" d="M219.09,162.33c2.06-2.2,5.12-3.37,8.11-3.37,9.11,0,11.37,6.18,11.37,14.09v18.28c0,.48-.33.82-.8.82h-5.72c-.47,0-.87-.34-.87-.82v-17.52c0-4.74-.6-7.97-5.72-7.97-6.45,0-6.45,6.18-6.45,11.47v14.01c0,.48-.4.82-.86.82h-5.72c-.47,0-.86-.34-.86-.82v-30.64c0-.34.4-.76.86-.76h5.72c.46,0,.86.41.86.76l.06,1.65Z"/>
      <path id="o" d="M207.52,175.04c0,9.69-7.31,17.11-16.69,17.11s-16.69-7.42-16.69-17.11,7.38-17.11,16.69-17.11c9.37,0,16.69,7.49,16.69,17.11M181.59,175.04c0,5.36,4.12,9.89,9.24,9.89s9.37-4.54,9.37-9.89-4.12-9.83-9.37-9.83-9.24,4.47-9.24,9.83"/>
      <path id="t" d="M155.92,166.93h-5.32c-.47,0-.86-.21-.86-.69v-5.56c0-.34.4-.76.86-.76h1.19c4.12,0,4.12-3.1,4.12-4.74v-3.5c0-.48.4-.76.87-.76h5.71c.47,0,.8.27.8.76v8.25h6.98c.46,0,.86.41.86.76v5.56c0,.48-.4.69-.86.69h-6.98v10.31c0,2.61-.2,6.94,2.79,7.63,1.66.21,2.66-.21,3.66-.62,0,0,.33-.14.53-.14.46,0,.86.34.86.76v5.84c0,.21-.27.62-.6.69h.07c-1.4.62-3.26.76-4.72.76-7.98,0-9.98-5.77-9.98-12.85v-12.37h0Z"/>
      <path id="e" d="M125.15,177.65c.33,4.54,3.46,7.7,8.05,7.7,3.99,0,5.78-2.2,7.85-5.63.27-.34.6-.48,1.06-.21l4.85,2.82c.33.28.6.62.4,1.03v-.07c-2.92,5.64-8.11,8.86-14.23,8.86-9.51,0-15.36-7.42-15.36-16.9s5.19-17.31,15.23-17.31,14.83,8.45,14.83,18v.97c0,.48-.4.75-.86.75h-21.81ZM140.24,171.19c-.93-3.5-3.46-6.53-7.25-6.53-3.52,0-6.38,3.16-7.31,6.53h14.56Z"/>
      <path id="l" d="M113,191.32c0,.48-.4.82-.8.82h-5.72c-.47,0-.87-.34-.87-.82v-52.43c0-.34.4-.76.87-.76h5.72c.4,0,.8.41.8.76,0,0,0,52.43,0,52.43Z"/>
      <path id="b" d="M69.42,137.87c0-.34.4-.75.86-.75h5.78c.47,0,.86.41.86.75v24.46c2.46-2.75,5.65-4.4,9.51-4.4,9.11,0,14.76,7.97,14.76,16.9s-5.32,17.32-15.03,17.32c-3.52,0-6.92-1.79-9.31-4.33v2.47c0,.48-.4.82-.86.82h-5.72c-.47,0-.86-.34-.86-.82v-52.43h0ZM93.88,174.97c0-5.5-3.19-10.17-8.84-10.17-5.32,0-8.51,4.95-8.51,10.17s3.06,10.37,8.51,10.37c5.72,0,8.84-4.74,8.84-10.37"/>
      <path id="A" d="M30.92,179.51l-5.32,12.09c-.13.21-.6.55-.8.55h-6.52c-.66,0-.99-.55-.8-1.17l23.2-52.29c.4-.62,1.26-.62,1.59,0,7.51,16.97,15.69,35.32,23.2,52.29.2.62-.14,1.17-.8,1.17h-6.52c-.27,0-.66-.34-.8-.55-1.66-3.92-3.59-8.11-5.32-12.09h-21.14ZM41.49,154.84l-7.51,17.38h15.02l-7.51-17.38Z"/>
    </g>
    <path id="Icon" d="M79.72,119.81c0,.5-.42.86-.84.86h-6.04c-.49,0-.91-.36-.91-.86v-55.09c0-.36.42-.79.91-.79h6.04c.42,0,.84.43.84.79v55.09h0ZM95.51,119.81c0,.5-.42.86-.84.86h-6.04c-.49,0-.91-.36-.91-.86v-55.09c0-.36.42-.79.91-.79h6.04c.42,0,.84.43.84.79v55.09h0ZM111.31,119.81c0,.5-.42.86-.84.86h-6.04c-.49,0-.91-.36-.91-.86v-55.09c0-.36.42-.79.91-.79h6.04c.42,0,.84.43.84.79v55.09ZM127.18,119.81c0,.5-.42.86-.84.86h-6.04c-.49,0-.91-.36-.91-.86v-55.09c0-.36.42-.79.91-.79h6.04c.42,0,.84.43.84.79v55.09ZM189.32,63.85c.49,0,.84.44.84.87v6.21c0,.51-.35.94-.84.94h-53.58c-.35,0-.77-.43-.77-.94v-6.21c0-.43.42-.87.77-.87,0,0,53.58,0,53.58,0ZM189.32,80.17c.49,0,.84.43.84.87v6.21c0,.5-.35.94-.84.94h-53.58c-.35,0-.77-.43-.77-.94v-6.21c0-.43.42-.87.77-.87h53.58ZM189.32,96.41c.49,0,.84.43.84.87v6.21c0,.51-.35.94-.84.94h-53.58c-.35,0-.77-.43-.77-.94v-6.21c0-.44.42-.87.77-.87h53.58ZM189.32,112.65c.49,0,.84.44.84.87v6.21c0,.51-.35.94-.84.94h-53.58c-.35,0-.77-.43-.77-.94v-6.21c0-.43.42-.87.77-.87h53.58Z"/>
  </g>
</svg>