<?xml version="1.0" encoding="UTF-8"?>
<svg id="Layer_1" xmlns="http://www.w3.org/2000/svg" width="256" height="256" version="1.1" viewBox="0 0 256 256">
  <!-- Generator: Adobe Illustrator 29.8.4, SVG Export Plug-In . SVG Version: 2.1.1 Build 6)  -->
  <path id="Vector" d="M210.09,0H45.91C20.55,0,0,20.55,0,45.91v164.18c0,25.36,20.55,45.91,45.91,45.91h164.18c25.36,0,45.91-20.55,45.91-45.91V45.91c0-25.36-20.55-45.91-45.91-45.91Z" fill="#000b1d"/>
  <path id="Vector_2" d="M56.2,79.71h52.18c26.09,0,38.97,13.37,38.97,29.23,0,10.73-3.63,18.49-12.55,23.28,9.91,4.13,16.18,11.56,16.35,23.94.17,19.98-16.02,34.18-46.56,34.18h-48.38v-110.63ZM104.91,123.13c7.27,0,11.72-3.14,11.72-9.58,0-5.94-3.8-9.41-12.05-9.41h-17.83v18.99h18.16ZM105.4,165.9c7.93,0,14.04-2.97,14.04-10.57,0-6.11-3.63-10.24-13.04-10.24h-19.65v20.8h18.66Z" fill="#fff"/>
  <path id="Vector_3" d="M197.41,102.66c6.77,0,12.22.83,14.7,1.65v22.46c-1.98-.49-5.78-.83-8.92-.83-6.11,0-9.58.5-12.71,1.65v62.75h-28.9v-80.42c10.4-4.62,20.81-7.27,35.83-7.27Z" fill="#fff"/>
</svg>