<?xml version="1.0" encoding="UTF-8"?>
<svg id="Layer_1" xmlns="http://www.w3.org/2000/svg" width="256" height="256" version="1.1" viewBox="0 0 256 256">
  <!-- Generator: Adobe Illustrator 29.8.4, SVG Export Plug-In . SVG Version: 2.1.1 Build 6)  -->
  <g id="vlpa">
    <g id="vlpb">
      <g id="vlpc">
        <g id="vlpd">
          <path d="M45.33,3.2h165.33c25.07,0,45.33,20.27,45.33,45.33v158.93c0,25.07-20.27,45.33-45.33,45.33H45.33c-25.07,0-45.33-20.27-45.33-45.33V48.53C0,23.47,20.27,3.2,45.33,3.2Z" fill="#00005b"/>
        </g>
      </g>
    </g>
    <g id="vlpe">
      <g id="vlpf">
        <path d="M102.83,152.53h-39.68l-8.11,25.17c-.21.96-1.07,1.6-2.03,1.49h-20.05c-1.17,0-1.49-.64-1.17-1.92l34.35-98.45c.32-1.07.64-2.03,1.07-3.31.43-2.24.64-4.59.64-6.93-.11-.53.32-1.07.85-1.17h27.63c.75,0,1.28.32,1.39.85l38.93,108.8c.32,1.17,0,1.71-1.07,1.71h-22.29c-.75.11-1.49-.43-1.71-1.17l-8.75-25.6v.53ZM69.33,131.31h27.09c-.64-2.24-1.49-4.91-2.45-7.68-.96-2.88-1.92-5.97-2.88-9.17-1.07-3.31-2.03-6.51-3.09-9.81s-2.03-6.4-2.88-9.49c-.85-2.99-1.6-5.76-2.35-8.32h-.21c-.96,4.59-2.13,9.17-3.63,13.76-1.6,5.12-3.2,10.45-4.91,15.79-1.39,5.44-3.09,10.45-4.69,14.93Z" fill="#99f"/>
        <path d="M199.47,142.93h-33.81c.43,3.31,1.49,6.61,3.31,9.49,1.92,2.88,4.59,5.12,7.79,6.4,4.27,1.81,8.96,2.77,13.65,2.67,3.73-.11,7.47-.43,11.09-1.17,3.31-.43,6.51-1.28,9.49-2.45.53-.43.85-.21.85.85v16.32c0,.43-.11.85-.21,1.28-.21.32-.43.53-.75.75-3.41,1.49-6.93,2.56-10.67,3.2-5.01.96-10.03,1.39-15.15,1.28-8.11,0-14.93-1.28-20.48-3.73-5.23-2.24-9.81-5.76-13.44-10.13-3.41-4.16-5.87-8.85-7.36-13.97-1.49-5.01-2.24-10.24-2.24-15.57,0-5.76.85-11.41,2.67-16.96,1.71-5.33,4.37-10.24,8-14.61,3.52-4.27,7.89-7.68,12.91-10.13s10.99-3.31,17.81-3.31c5.65-.11,11.31.96,16.53,3.31,4.37,1.92,8.21,4.8,11.2,8.53,2.77,3.63,5.01,7.68,6.4,12.16,1.39,4.27,2.03,8.64,2.03,13.01,0,2.56-.11,4.8-.21,6.83-.21,2.03-.32,3.52-.43,4.48-.11.75-.75,1.39-1.49,1.39-.64,0-1.81.11-3.52.21-1.71.21-3.73.32-6.19.32s-5.01-.43-7.79-.43h0ZM165.65,127.36h22.51c2.77,0,4.8,0,6.08-.11.85-.11,1.71-.32,2.45-.85v-1.07c0-1.39-.21-2.67-.64-3.95-1.92-5.97-7.57-10.03-13.87-9.81-5.87-.32-11.41,2.77-14.19,8.11-1.28,2.45-2.03,5.01-2.35,7.68Z" fill="#99f"/>
      </g>
    </g>
  </g>
</svg>