<?xml version="1.0" encoding="UTF-8"?>
<svg id="Layer_1" xmlns="http://www.w3.org/2000/svg" width="256" height="256" version="1.1" viewBox="0 0 256 256">
  <!-- Generator: Adobe Illustrator 29.8.4, SVG Export Plug-In . SVG Version: 2.1.1 Build 6)  -->
  <g id="vlpa">
    <g id="vlpb">
      <g id="vlpc">
        <g id="vlpd">
          <path d="M45.33,3.2h165.33c25.07,0,45.33,20.27,45.33,45.33v158.93c0,25.07-20.27,45.33-45.33,45.33H45.33c-25.07,0-45.33-20.27-45.33-45.33V48.53C0,23.47,20.27,3.2,45.33,3.2Z" fill="#00005b"/>
        </g>
      </g>
    </g>
    <g id="vlpe">
      <g id="vlpf">
        <path d="M60.8,178.13v-109.87c0-.75.32-1.17,1.07-1.17,1.81,0,3.52,0,5.97-.11,2.56-.11,5.23-.11,8.11-.21s5.97-.11,9.28-.21,6.51-.11,9.71-.11c8.75,0,16,1.07,21.97,3.31,5.33,1.81,10.24,4.8,14.29,8.75,3.41,3.41,6.08,7.57,7.79,12.16,1.6,4.48,2.45,9.07,2.45,13.87,0,9.17-2.13,16.75-6.4,22.72-4.27,5.97-10.24,10.45-17.17,13.01-7.25,2.67-15.25,3.63-24,3.63-2.56,0-4.27,0-5.33-.11s-2.56-.11-4.59-.11v34.24c.11.75-.43,1.39-1.17,1.49h-20.69c-.85,0-1.28-.43-1.28-1.39v.11ZM84.05,87.79v35.84c1.49.11,2.88.21,4.16.21h5.65c4.16,0,8.32-.64,12.27-1.92,3.41-.96,6.4-2.99,8.75-5.65,2.24-2.67,3.31-6.29,3.31-10.99.11-3.31-.75-6.61-2.45-9.49-1.81-2.77-4.37-4.91-7.47-6.08-3.95-1.6-8.21-2.24-12.59-2.13-2.77,0-5.23,0-7.25.11-2.13-.11-3.63,0-4.37.11h0Z" fill="#99f"/>
        <path d="M156.8,94.08h18.67c1.07,0,1.92.75,2.24,1.71.32.85.53,1.71.64,2.67.21,1.07.43,2.24.53,3.31.11,1.17.21,2.45.21,3.84,3.2-3.73,7.04-6.83,11.41-9.17,4.91-2.77,10.56-4.16,16.21-4.16.75-.11,1.39.43,1.49,1.17v21.23c0,.85-.53,1.17-1.71,1.17-3.84-.11-7.79.21-11.52,1.07-3.09.64-6.08,1.6-8.96,2.88-2.03.96-3.95,2.24-5.44,3.95v54.4c0,1.07-.43,1.49-1.39,1.49h-21.01c-.85.11-1.6-.43-1.71-1.28v-59.52c0-2.56,0-5.23-.11-8s-.11-5.55-.21-8.32c0-2.45-.21-4.8-.43-7.25-.11-.53.21-1.07.75-1.17,0-.11.21-.11.32,0h0Z" fill="#99f"/>
      </g>
    </g>
  </g>
</svg>