<?xml version="1.0" encoding="UTF-8"?>
<svg id="Layer_1" xmlns="http://www.w3.org/2000/svg" width="256" height="256" version="1.1" viewBox="0 0 256 256">
  <!-- Generator: Adobe Illustrator 29.8.4, SVG Export Plug-In . SVG Version: 2.1.1 Build 6)  -->
  <path id="Vector" d="M210.09,0H45.91C20.55,0,0,20.55,0,45.91v164.18c0,25.36,20.55,45.91,45.91,45.91h164.18c25.36,0,45.91-20.55,45.91-45.91V45.91c0-25.36-20.55-45.91-45.91-45.91Z" fill="#49021f"/>
  <path id="Vector_2" d="M65.86,79.71h30.71v110.63h-30.71v-110.63Z" fill="#f36"/>
  <path id="Vector_3" d="M107.08,147.74c0-30.05,22.46-45.08,45.74-45.08,3.14,0,6.44.33,8.42.66v-27.08h28.9v108.49c-6.94,3.47-20.64,7.1-35.5,7.1-25.43,0-47.56-14.37-47.56-44.09ZM161.24,167.72v-40.45c-1.98-.66-4.46-1.16-7.76-1.16-9.08,0-17.5,5.28-17.5,21.13,0,14.53,7.6,21.14,17.67,21.14,2.31,0,5.45-.16,7.6-.66Z" fill="#f36"/>
</svg>