<?xml version="1.0" encoding="UTF-8"?>
<svg id="Layer_1" xmlns="http://www.w3.org/2000/svg" width="256" height="256" version="1.1" viewBox="0 0 256 256">
  <!-- Generator: Adobe Illustrator 29.8.4, SVG Export Plug-In . SVG Version: 2.1.1 Build 6)  -->
  <g id="vlpa">
    <path d="M45.33,3.2h165.34c25.06,0,45.33,20.27,45.33,45.33v158.95c0,25.06-20.27,45.33-45.33,45.33H45.33c-25.06,0-45.33-20.27-45.33-45.33V48.52C0,23.46,20.27,3.2,45.33,3.2Z" fill="#00005b"/>
    <g id="vlpb">
      <path d="M103.84,152.96h-39.54l-8.09,25.06c-.2,1-1.1,1.6-2,1.5h-20.37c-1.2,0-1.5-.6-1.2-1.9l34.45-98.45c.3-1.1.6-1.9,1.1-3.29.4-2.2.6-4.59.6-6.89-.1-.5.3-1.1.9-1.2h27.76c.9,0,1.3.3,1.4.9l38.84,108.83c.3,1.2,0,1.7-1.1,1.7h-22.27c-.7.1-1.5-.4-1.7-1.2l-8.79-25.36v.3ZM70.49,131.69h27.06c-.6-2.2-1.5-4.89-2.5-7.69-1-2.9-1.9-5.99-2.9-9.19-1.1-3.29-2-6.49-3.1-9.78s-2-6.39-2.9-9.49c-.9-3-1.6-5.79-2.4-8.29h-.2c-1,4.59-2.1,9.19-3.59,13.78-1.6,5.09-3.2,10.48-4.89,15.78-1.4,5.39-3,10.38-4.59,14.88Z" fill="#99f"/>
      <path d="M149.77,177.92v-63.4c0-1.9,0-4.19-.1-6.49-.1-2.5-.1-4.69-.2-6.79s-.2-4.19-.3-5.39c-.1-.3-.1-.7.2-1.1.3-.2.6-.3,1.1-.3h17.17c.6,0,1.2.1,1.7.3.4.2.7.6.9,1.2s.5,1.5.7,2.4c.3,1.2.5,2.4.6,3.49,3.29-2.9,7.19-5.09,11.28-6.59,4.19-1.4,8.49-2.1,12.88-2.1,3.39,0,6.79.5,9.98,1.6,7.59,2.5,13.58,8.29,16.17,15.78,1.7,4.39,2.4,10.08,2.4,17.07v50.42c0,1.1-.4,1.5-1.4,1.5l-20.07.2c-.9.1-1.6-.4-1.7-1.3v-48.22c-.1-3.2-.7-6.39-2-9.29-1-2.1-2.5-4.09-4.39-5.29-2.2-1.4-4.69-2-7.29-1.9-2.8,0-5.59.4-8.09,1.5-2.4,1-4.49,2.4-6.39,4.09v58.91c0,1.1-.4,1.5-1.4,1.5h-20.27c-.7.1-1.4-.4-1.5-1.2-.1-.4-.1-.5,0-.6h0Z" fill="#99f"/>
    </g>
  </g>
</svg>