<?xml version="1.0" encoding="UTF-8"?>
<svg id="Layer_1" xmlns="http://www.w3.org/2000/svg" width="256" height="256" version="1.1" viewBox="0 0 256 256">
  <!-- Generator: Adobe Illustrator 29.8.4, SVG Export Plug-In . SVG Version: 2.1.1 Build 6)  -->
  <path id="Vector" d="M210.09,0H45.91C20.55,0,0,20.55,0,45.91v164.18c0,25.36,20.55,45.91,45.91,45.91h164.18c25.36,0,45.91-20.55,45.91-45.91V45.91c0-25.36-20.55-45.91-45.91-45.91Z" fill="#00005b"/>
  <path id="Vector_2" d="M68.9,79.71l14.7,52.84,15.85-52.84h34.51l6.94,110.63h-29.56l-1.49-42.11c-.33-10.57-.66-21.14-.99-31.87l-16.68,65.39h-19.81l-14.7-62.09c-.5,9.58-.83,19.15-1.16,28.57l-1.98,42.11h-27.74l7.27-110.63h34.84Z" fill="#99f"/>
  <path id="Vector_3" d="M231.85,144.76c0,3.96-.33,8.26-.82,11.56h-54c3.3,8.26,11.23,12.22,23.61,12.22,8.92,0,16.68-1.65,24.44-5.28l.33,22.95c-8.42,4.29-17.5,5.78-29.23,5.78-28.9,0-48.22-16.02-48.22-45.08,0-26.58,18.49-44.25,42.93-44.25s40.95,16.18,40.95,42.11ZM176.04,137.5h28.9c-.66-7.76-5.45-13.21-13.87-13.21s-13.21,4.29-15.03,13.21Z" fill="#99f"/>
</svg>