<?xml version="1.0" encoding="UTF-8"?>
<svg id="Layer_1" xmlns="http://www.w3.org/2000/svg" width="256" height="256" version="1.1" viewBox="0 0 256 256">
  <!-- Generator: Adobe Illustrator 29.8.4, SVG Export Plug-In . SVG Version: 2.1.1 Build 6)  -->
  <path d="M45.33,3.2h165.33c25.07,0,45.33,20.27,45.33,45.33v158.93c0,25.07-20.27,45.33-45.33,45.33H45.33c-25.07,0-45.33-20.27-45.33-45.33V48.53C0,23.47,20.27,3.2,45.33,3.2Z" fill="#00005b"/>
  <path d="M122.8,164.1v16.6c.1,1-.4,1.9-1.3,2.3-3.1,1.1-6.2,1.8-9.5,2.2-4.2.5-8.4.7-12.6.7-6,0-12-.7-17.8-2.2-5.4-1.4-10.6-3.6-15.4-6.6-4.6-2.9-8.6-6.6-11.9-10.9-3.4-4.5-6.1-9.6-7.7-15-1.9-6.3-2.8-12.8-2.7-19.3,0-10.8,2.4-20.4,7.1-28.6,4.7-8.2,11.7-14.9,20.1-19.2,9.6-4.9,20.3-7.4,31.1-7.2,4.2,0,8.3.2,12.5.6,2.9.3,5.7,1,8.5,1.9.6.5.9,1.2.8,1.9v18.1c0,1-.4,1.3-1.1,1-3-1.4-6.3-2.4-9.6-2.9-3.9-.6-7.8-.9-11.8-.9-6.5-.1-12.9,1.4-18.5,4.5-5,2.8-9.2,6.9-11.9,12-2.9,5.6-4.3,11.8-4.2,18.1-.1,4.5.6,8.9,2,13.2,1.2,3.6,3.1,6.9,5.6,9.8,2.2,2.7,5,4.9,8,6.6,3,1.6,6.2,2.8,9.6,3.6,3.2.9,6.6,1.4,9.9,1.5,3.6,0,7.3-.1,10.9-.5,3-.4,5.9-1.1,8.7-2.2.4-.3.7-.4,1-.2.2.3.3.7.2,1.1Z" fill="#99f"/>
  <path d="M159.8,126.1v56.4c0,.9-.4,1.3-1.1,1.3h-20.1c-.7.1-1.3-.4-1.4-1.1v-111.5c0-.7.4-1.1,1.3-1.1h20.3c.5-.1,1.1.3,1.1.8v.3l.1,38c2.9-1.9,6-3.5,9.3-4.7,3.4-1.2,7.3-1.5,11.8-1.5,3.2,0,6.4.5,9.4,1.4,3.2.9,6.2,2.5,8.8,4.7,2.7,2.4,4.6,5.7,6.2,9.8,1.6,4.1,2.4,9.5,2.4,16v47.4c0,1-.4,1.4-1.3,1.4h-18.9c-.8.1-1.5-.4-1.6-1.2v-45.4c.1-2.9-.4-5.8-1.5-8.5-.9-2-2.3-3.8-4.2-5.1-2.2-1.3-4.8-1.9-7.4-1.8-2.4,0-4.8.3-7.1,1-2.2.9-4.3,2-6.1,3.4Z" fill="#99f"/>
</svg>