<?xml version="1.0" encoding="UTF-8"?>
<svg id="Layer_1" xmlns="http://www.w3.org/2000/svg" width="256" height="256" version="1.1" viewBox="0 0 256 256">
  <!-- Generator: Adobe Illustrator 29.8.4, SVG Export Plug-In . SVG Version: 2.1.1 Build 6)  -->
  <path d="M45.33,3.2h165.33c25.07,0,45.33,20.27,45.33,45.33v158.93c0,25.07-20.27,45.33-45.33,45.33H45.33c-25.07,0-45.33-20.27-45.33-45.33V48.53C0,23.47,20.27,3.2,45.33,3.2Z" fill="#000b1d"/>
  <path d="M125.9,164.1v16.6c.1,1-.4,1.9-1.3,2.3-3.2,1.1-6.4,1.8-9.7,2.2-4.1.5-8.3.7-12.5.7-6,0-12-.7-17.8-2.2-5.4-1.4-10.6-3.6-15.4-6.6-4.6-2.9-8.6-6.6-11.9-10.9-3.4-4.5-6.1-9.6-7.7-15-1.9-6.3-2.7-12.9-2.6-19.5,0-10.8,2.2-20.2,6.9-28.4,4.7-8.2,11.7-14.9,20.1-19.2,8.7-4.6,19.3-7.1,31.4-7.1,4.2,0,8.3.2,12.5.6,2.8.4,5.6,1,8.2,2.1.6.5.9,1.2.8,1.9v17.9c0,1-.4,1.3-1.1,1-3-1.4-6.2-2.3-9.5-2.8-3.9-.6-7.8-.9-11.8-.9-7.2,0-13.4,1.4-18.5,4.3-5,2.8-9.2,6.9-11.9,12-2.9,5.6-4.3,11.8-4.2,18.1-.1,4.5.6,8.9,2,13.2,1.2,3.6,3.1,6.9,5.6,9.8,2.2,2.7,5,4.9,8,6.6,3,1.7,6.2,3,9.6,3.8,3.2.8,6.6,1.2,9.9,1.2,3.6,0,7.2-.1,10.7-.5,3-.4,6-1.1,8.9-2.1.4-.3.7-.4,1-.2.3.3.4.7.3,1.1Z" fill="#fff"/>
  <path d="M171.6,102.9c7.9,0,14.4,1.4,19.2,4.3,4.9,2.9,8.2,6.2,10.5,11.1,2.4,5.2,3.6,10.9,3.5,16.6v31.1c0,2,0,4,.1,5.8s.1,3.7.2,5.6c0,.4-.1.7-.3.8-4.8,1.8-8.8,3.6-12.6,4.7-3.6,1-7.2,1.8-10.9,2.3-3.7.4-7.5.7-11.3.6-5.6.1-11.1-.9-16.3-2.9-4.8-1.8-9.1-4.8-12.3-8.9-3-4-4.5-9-4.5-15.1s1.6-10.6,4.7-14.5c3.2-3.9,7.9-6.8,13.4-8.7,6.1-2,12.4-3,18.8-2.9h5.9c1.2,0,2.4,0,3.6.2v-1c-.1-1-.2-1.9-.6-2.8-.4-1.3-1.2-2.5-2.2-3.5-1.3-1.4-2.8-2.4-4.6-3.1-2.6-.8-5.3-1.1-8-1-3.9,0-7.8.3-11.6,1.1-3.5.8-7.1,2.8-10.1,4-.3.1-.7.1-1,0s-.5-.5-.5-.8v-16.7c-.1-.8.4-1.5,1.1-1.8,3.5-1.6,7.8-2.5,12.3-3.3,4.7-.8,9.1-1.2,13.5-1.2ZM183.2,166.5v-16.1c-1.3-.2-2.1-.4-3.3-.5s-2.6-.2-4.3-.2c-5.8,0-9.7.9-12.1,2.6-2.4,1.7-3.6,3.6-3.6,6.6,0,1.5.5,3,1.4,4.2,1.1,1.7,2.7,3.1,4.5,3.9,2.1.9,4.5.9,7.7.9,1.8,0,3.7-.1,5.5-.4,1.3-.2,2.8-.5,4.2-1h0Z" fill="#fff"/>
</svg>