<?xml version="1.0" encoding="UTF-8"?>
<svg id="Layer_1" xmlns="http://www.w3.org/2000/svg" width="256" height="256" version="1.1" viewBox="0 0 256 256">
  <!-- Generator: Adobe Illustrator 29.8.4, SVG Export Plug-In . SVG Version: 2.1.1 Build 6)  -->
  <path id="Vector" d="M210.09,0H45.91C20.55,0,0,20.55,0,45.91v164.18c0,25.36,20.55,45.91,45.91,45.91h164.18c25.36,0,45.91-20.55,45.91-45.91V45.91c0-25.36-20.55-45.91-45.91-45.91Z" fill="#00005b"/>
  <path id="Vector_2" d="M67.72,79.71h35.34l39.63,110.63h-32.36l-5.45-16.84h-41.45l-5.45,16.84h-31.04l40.79-110.63ZM96.29,147.24l-12.05-37.15-12.05,37.15h24.11Z" fill="#99f"/>
  <path id="Vector_3" d="M145.68,157.15v-53h28.9v51.68c0,9.25,4.46,13.04,11.89,13.04,3.47,0,6.44-.17,8.92-1.16v-63.57h28.9v78.93c-11.06,5.62-22.95,9.08-37.98,9.08-28.24,0-40.62-11.23-40.62-35.01Z" fill="#99f"/>
</svg>