<?xml version="1.0" encoding="UTF-8"?>
<svg id="Layer_1" xmlns="http://www.w3.org/2000/svg" width="256" height="256" version="1.1" viewBox="0 0 256 256">
  <!-- Generator: Adobe Illustrator 29.8.4, SVG Export Plug-In . SVG Version: 2.1.1 Build 6)  -->
  <path d="M95.86,142.17c.93-16.6,9.05-31.28,21.35-41.64,12.04-10.19,28.2-16.43,45.95-16.43s33.82,6.23,45.86,16.43c12.3,10.37,20.38,25.04,21.35,41.64.93,17.04-5.93,32.94-17.92,44.72-12.3,11.95-29.69,19.5-49.28,19.5s-37.07-7.5-49.28-19.5c-12.04-11.77-18.89-27.59-17.92-44.63l-.09-.09Z" fill="#fff"/>
  <g>
    <path d="M132.66,140.14c.48-8.53,4.65-16.07,10.97-21.4,6.18-5.24,14.49-8.44,23.61-8.44s17.38,3.2,23.57,8.44c6.32,5.33,10.47,12.87,10.97,21.4.48,8.76-3.05,16.93-9.21,22.98-6.32,6.14-15.26,10.02-25.33,10.02s-19.05-3.86-25.33-10.02c-6.18-6.05-9.71-14.18-9.21-22.93l-.05-.05Z" fill="#265787"/>
    <path d="M78.49,158.19c.06,3.34,1.12,9.84,2.72,14.9,3.36,10.74,9.07,20.68,16.97,29.39,8.13,8.98,18.15,16.21,29.71,21.35,12.14,5.37,25.33,8.13,39.01,8.13,13.68-.02,26.86-2.82,39.01-8.26,11.56-5.19,21.58-12.42,29.71-21.44,7.95-8.8,13.63-18.74,16.97-29.48,1.69-5.42,2.76-10.93,3.19-16.43.42-5.42.24-10.88-.53-16.34-1.51-10.61-5.19-20.59-10.84-29.62-5.15-8.35-11.83-15.62-19.77-21.76h.02s-79.91-61.41-79.91-61.41c-.07-.05-.13-.11-.21-.16-5.24-4.03-14.09-4.01-19.82.02-5.82,4.08-6.5,10.84-1.31,15.08l-.02.02,33.36,27.13-101.58.11h-.14c-8.4,0-16.48,5.51-18.06,12.51-1.64,7.09,4.06,13,12.82,13v.03s51.45-.1,51.45-.1L9.16,165.28c-.12.09-.24.18-.35.26-8.67,6.64-11.47,17.7-6,24.65,5.55,7.09,17.34,7.13,26.09.04l50.11-41.08s-.73,5.55-.67,8.85l.15.19ZM207.61,176.75c-10.34,10.52-24.83,16.52-40.45,16.52-15.67.03-30.16-5.87-40.5-16.39-5.06-5.15-8.76-11.02-11.06-17.29-2.24-6.18-3.12-12.73-2.54-19.32.55-6.46,2.47-12.64,5.55-18.19,3.02-5.46,7.18-10.43,12.28-14.63,10.07-8.17,22.84-12.64,36.21-12.64,13.41-.02,26.18,4.37,36.25,12.55,5.1,4.17,9.25,9.12,12.28,14.58,3.08,5.55,5.01,11.69,5.55,18.19.57,6.59-.3,13.14-2.55,19.32-2.29,6.32-6,12.19-11.06,17.34l.03-.05Z" fill="#ea7600"/>
  </g>
</svg>