<?xml version="1.0" encoding="UTF-8"?>
<svg id="Layer_1" xmlns="http://www.w3.org/2000/svg" width="256" height="256" version="1.1" xmlns:xlink="http://www.w3.org/1999/xlink" viewBox="0 0 256 256">
  <!-- Generator: Adobe Illustrator 29.8.4, SVG Export Plug-In . SVG Version: 2.1.1 Build 6)  -->
  <defs>
    <mask id="mask" x="0" y="0" width="256" height="256" maskUnits="userSpaceOnUse">
      <g id="mask0_580_4177">
        <path d="M256,79.73c0-3.04,0-6.08-.02-9.12-.02-2.56-.04-5.12-.11-7.68-.15-5.58-.48-11.2-1.47-16.72-1.01-5.59-2.65-10.8-5.24-15.89-2.55-5-5.87-9.57-9.84-13.53-3.97-3.96-8.54-7.29-13.54-9.83-5.09-2.59-10.3-4.23-15.9-5.24-5.52-.99-11.14-1.32-16.72-1.47-2.56-.07-5.12-.1-7.68-.11-3.04-.02-6.08-.02-9.12-.02L141.05,0h-26.41l-34.68.13c-3.05,0-6.09,0-9.14.02-2.57.02-5.13.05-7.7.11-5.59.15-11.23.48-16.76,1.47-5.61,1.01-10.83,2.65-15.93,5.23-5.01,2.54-9.59,5.87-13.57,9.83-3.97,3.96-7.3,8.53-9.85,13.53-2.6,5.09-4.24,10.3-5.25,15.89-.99,5.51-1.32,11.14-1.47,16.71-.07,2.56-.1,5.12-.11,7.68C.16,73.65,0,77.43,0,80.47v34.2S0,141.36,0,141.36l.16,34.93c0,3.04,0,6.09.02,9.13.02,2.56.05,5.13.11,7.69.15,5.58.48,11.22,1.47,16.74,1.01,5.6,2.65,10.82,5.25,15.91,2.55,5,5.88,9.58,9.86,13.55,3.97,3.97,8.56,7.3,13.56,9.84,5.1,2.59,10.32,4.24,15.93,5.24,5.53.99,11.16,1.32,16.75,1.47,2.57.07,5.13.1,7.7.11,3.05.02,6.09.02,9.14.02h35s26.47,0,26.47,0h34.93c3.04,0,6.08,0,9.12-.02,2.56-.02,5.12-.05,7.68-.11,5.58-.15,11.21-.48,16.73-1.47,5.6-1.01,10.81-2.65,15.89-5.24,5-2.55,9.57-5.87,13.54-9.84,3.97-3.97,7.29-8.55,9.84-13.55,2.59-5.09,4.23-10.31,5.24-15.92.99-5.52,1.32-11.15,1.47-16.73.07-2.56.1-5.13.11-7.69.02-3.04.02-6.09.02-9.13,0,0,0-34.31,0-34.93v-26.72c0-.46,0-34.91,0-34.91Z" fill="#fff" fill-rule="evenodd"/>
      </g>
    </mask>
    <radialGradient id="radial-gradient" cx="3.82" cy="253" fx="3.82" fy="253" r=".31" gradientTransform="translate(200291.02 -193853.49) rotate(-135) scale(1101.59 -1101.59)" gradientUnits="userSpaceOnUse">
      <stop offset="0" stop-color="#66bf8b"/>
      <stop offset=".46" stop-color="#5fb58b"/>
      <stop offset=".83" stop-color="#215788"/>
    </radialGradient>
    <radialGradient id="radial-gradient1" cx="3.32" cy="252.5" fx="3.32" fy="252.5" r=".31" gradientTransform="translate(-193853.49 -199261.02) rotate(135) scale(1101.59 -1101.59)" gradientUnits="userSpaceOnUse">
      <stop offset=".14" stop-color="#278baa"/>
      <stop offset=".6" stop-color="#215788" stop-opacity="0"/>
    </radialGradient>
    <radialGradient id="radial-gradient2" cx="3.32" cy="253.5" fx="3.32" fy="253.5" r=".31" gradientTransform="translate(194862.12 201917.72) rotate(-44.76) scale(1106.14 -1106.14)" gradientUnits="userSpaceOnUse">
      <stop offset=".14" stop-color="#00548a"/>
      <stop offset=".81" stop-color="#215788" stop-opacity="0"/>
    </radialGradient>
  </defs>
  <path d="M256,79.73c0-3.04,0-6.08-.02-9.12-.02-2.56-.04-5.12-.11-7.68-.15-5.58-.48-11.2-1.47-16.72-1.01-5.59-2.65-10.8-5.24-15.89-2.55-5-5.87-9.57-9.84-13.53-3.97-3.96-8.54-7.29-13.54-9.83-5.09-2.59-10.3-4.23-15.9-5.24-5.52-.99-11.14-1.32-16.72-1.47-2.56-.07-5.12-.1-7.68-.11-3.04-.02-6.08-.02-9.12-.02L141.05,0h-26.41l-34.68.13c-3.05,0-6.09,0-9.14.02-2.57.02-5.13.05-7.7.11-5.59.15-11.23.48-16.76,1.47-5.61,1.01-10.83,2.65-15.93,5.23-5.01,2.54-9.59,5.87-13.57,9.83-3.97,3.96-7.3,8.53-9.85,13.53-2.6,5.09-4.24,10.3-5.25,15.89-.99,5.51-1.32,11.14-1.47,16.71-.07,2.56-.1,5.12-.11,7.68C.16,73.65,0,77.43,0,80.47v34.2S0,141.36,0,141.36l.16,34.93c0,3.04,0,6.09.02,9.13.02,2.56.05,5.13.11,7.69.15,5.58.48,11.22,1.47,16.74,1.01,5.6,2.65,10.82,5.25,15.91,2.55,5,5.88,9.58,9.86,13.55,3.97,3.97,8.56,7.3,13.56,9.84,5.1,2.59,10.32,4.24,15.93,5.24,5.53.99,11.16,1.32,16.75,1.47,2.57.07,5.13.1,7.7.11,3.05.02,6.09.02,9.14.02h35s26.47,0,26.47,0h34.93c3.04,0,6.08,0,9.12-.02,2.56-.02,5.12-.05,7.68-.11,5.58-.15,11.21-.48,16.73-1.47,5.6-1.01,10.81-2.65,15.89-5.24,5-2.55,9.57-5.87,13.54-9.84,3.97-3.97,7.29-8.55,9.84-13.55,2.59-5.09,4.23-10.31,5.24-15.92.99-5.52,1.32-11.15,1.47-16.73.07-2.56.1-5.13.11-7.69.02-3.04.02-6.09.02-9.13,0,0,0-34.31,0-34.93v-26.72c0-.46,0-34.91,0-34.91Z" fill="#fff" fill-opacity="0" fill-rule="evenodd"/>
  <g mask="url(#mask)">
    <g>
      <path d="M208,0H48C21.49,0,0,21.49,0,48v160C0,234.51,21.49,256,48,256h160c26.51,0,48-21.49,48-48V48C256,21.49,234.51,0,208,0Z" fill="url(#radial-gradient)"/>
      <path d="M208,0H48C21.49,0,0,21.49,0,48v160C0,234.51,21.49,256,48,256h160c26.51,0,48-21.49,48-48V48C256,21.49,234.51,0,208,0Z" fill="url(#radial-gradient1)"/>
      <path d="M208,0H48C21.49,0,0,21.49,0,48v160C0,234.51,21.49,256,48,256h160c26.51,0,48-21.49,48-48V48C256,21.49,234.51,0,208,0Z" fill="url(#radial-gradient2)"/>
      <path d="M113.28,66.59c8.21-20.85,24.22-32.39,47.58-34.3,1.46-.12,9.4-.23,17.64-.26l14.98-.04.67.67c.51.51.64.85.52,1.4-.08.4-1.18,6.47-2.43,13.5-1.47,8.24-2.42,12.91-2.67,13.17-.33.34-2.34.42-13.49.56-11.13.13-13.4.23-15.09.62-7.3,1.7-12.29,5.73-15.45,12.5-1.9,4.06-2.63,6.89-4,15.31-.74,4.59-.77,4.93-.35,5.39.43.47,1.29.49,19.3.49s18.86.01,19.38.53c.29.29.53.71.53.93,0,1.03-4.6,26.38-4.84,26.67-.21.25-4.69.35-19.79.4-17.42.06-19.57.12-19.94.49-.3.3-1.58,7.07-4.53,24.08-2.26,13.01-4.42,25.14-4.79,26.95-1.8,8.68-4.9,16.76-8.92,23.25-8.04,12.96-20.7,20.75-37.37,22.99-3.16.42-16.12.82-17.27.53-1.41-.35-1.4-.48,1.03-14.13,1.25-7.03,2.34-13.04,2.41-13.35.25-1.12.76-1.32,3.76-1.5,6.41-.37,11.05-1.94,14.65-4.93,3.75-3.12,6.95-9.2,8.42-16.01.89-4.12,8.17-46.46,8.1-47.1-.14-1.26-.71-1.33-10.5-1.33-9.76,0-9.93-.03-9.93-1.36,0-.29.96-6.3,2.13-13.35,1.86-11.19,2.21-12.89,2.69-13.3.51-.43,1.43-.47,10.63-.47s10.09-.02,10.34-.5c.15-.28.75-3.43,1.33-7,1.73-10.62,2.96-15.66,5.27-21.5Z" fill="#fff"/>
    </g>
  </g>
  <path d="M256,79.73c0-3.04,0-6.08-.02-9.12-.02-2.56-.04-5.12-.11-7.68-.15-5.58-.48-11.2-1.47-16.72-1.01-5.59-2.65-10.8-5.24-15.89-2.55-5-5.87-9.57-9.84-13.53-3.97-3.96-8.54-7.29-13.54-9.83-5.09-2.59-10.3-4.23-15.9-5.24-5.52-.99-11.14-1.32-16.72-1.47-2.56-.07-5.12-.1-7.68-.11-3.04-.02-6.08-.02-9.12-.02L141.05,0h-26.41l-34.68.13c-3.05,0-6.09,0-9.14.02-2.57.02-5.13.05-7.7.11-5.59.15-11.23.48-16.76,1.47-5.61,1.01-10.83,2.65-15.93,5.23-5.01,2.54-9.59,5.87-13.57,9.83-3.97,3.96-7.3,8.53-9.85,13.53-2.6,5.09-4.24,10.3-5.25,15.89-.99,5.51-1.32,11.14-1.47,16.71-.07,2.56-.1,5.12-.11,7.68C.16,73.65,0,77.43,0,80.47v34.2S0,141.36,0,141.36l.16,34.93c0,3.04,0,6.09.02,9.13.02,2.56.05,5.13.11,7.69.15,5.58.48,11.22,1.47,16.74,1.01,5.6,2.65,10.82,5.25,15.91,2.55,5,5.88,9.58,9.86,13.55,3.97,3.97,8.56,7.3,13.56,9.84,5.1,2.59,10.32,4.24,15.93,5.24,5.53.99,11.16,1.32,16.75,1.47,2.57.07,5.13.1,7.7.11,3.05.02,6.09.02,9.14.02h35s26.47,0,26.47,0h34.93c3.04,0,6.08,0,9.12-.02,2.56-.02,5.12-.05,7.68-.11,5.58-.15,11.21-.48,16.73-1.47,5.6-1.01,10.81-2.65,15.89-5.24,5-2.55,9.57-5.87,13.54-9.84,3.97-3.97,7.29-8.55,9.84-13.55,2.59-5.09,4.23-10.31,5.24-15.92.99-5.52,1.32-11.15,1.47-16.73.07-2.56.1-5.13.11-7.69.02-3.04.02-6.09.02-9.13,0,0,0-34.31,0-34.93v-26.72c0-.46,0-34.91,0-34.91Z" fill="#fff" fill-opacity="0" fill-rule="evenodd"/>
</svg>