<?xml version="1.0" encoding="UTF-8"?>
<svg id="Layer_1" xmlns="http://www.w3.org/2000/svg" width="256" height="256" version="1.1" viewBox="0 0 256 256">
  <!-- Generator: Adobe Illustrator 29.8.4, SVG Export Plug-In . SVG Version: 2.1.1 Build 6)  -->
  <path d="M39.1,25.57C59.32,10,88.95,0,128.01,0c80.95,0,121.43,42.96,121.43,89.5,0,13.73-3.41,29.22-9.24,45.1-3.24-.2-150.76-89.8-201.09-109.03,0,0,0,0-.01,0Z" fill="#42a5f5"/>
  <path d="M59.95,84.67c.51.19,1.02.45,1.54.7-4.87-2.05-9.87-3.78-15.06-5.12-8.72-2.24-17.88-3.46-27.37-3.46-2.05,0-4.04.06-6.02.13,9.74-11.14,21.28-20.61,34.28-27.9,2.76,4.29,7.31,11.2,12.76,18.56,2.63,3.58,5.45,7.3,8.33,10.88-2.95,1.92-5.77,4.03-8.46,6.21h0Z" fill="#6d4c41"/>
  <path d="M19.07,142.91c-7.8-18.75-12.51-37.32-12.51-53.44,0-4.03.32-8.06.96-12.03,3.78-.45,7.63-.64,11.54-.64,14.46,0,28.25,2.81,40.87,7.91-15.29,17.69-28.09,36.89-40.86,58.2Z" fill="#9ccc65"/>
  <path d="M74.63,37.44c-9.36,2.75-18.14,6.53-26.47,11.14-.26.13-.58.32-.83.45-.06-.06-.13-.19-.19-.38-1.09-2.5-5.38-13.95-7.12-21.89-.13-.51-.19-1.09-.32-1.6,8.52-6.53,18.78-12.03,30.7-16.19.19,9.86,1.66,19.39,4.23,28.48h0Z" fill="#1e88e5"/>
  <path d="M47.32,49.02c-13.01,7.36-24.61,16.83-34.28,27.97-1.86.06-3.72.26-5.51.45,3.01-19.84,13.72-38.34,32.17-52.29,1.54,8.38,6.92,22.6,7.62,23.87Z" fill="#757575"/>
  <path d="M6.75,83.97l.06-.06c-.19,1.86-.26,3.71-.26,5.57,0-1.86.06-3.65.19-5.5h0Z" fill="#8d6e63"/>
  <path d="M128.01,185.6c0,24.26-7.88,46.59-21.34,64.64-.19-.06-.32-.13-.45-.19-31.98-16.13-68.45-62.14-87.16-107.14,7.76-23.23,22.11-43.39,40.89-58.24,39.87,16.19,68.06,55.3,68.06,100.93Z" fill="#aed581"/>
  <path d="M91.35,104.19c-.32-.26-.64-.51-.9-.77-4.68-4.03-9.61-7.68-14.93-10.88-1.34-.83-2.76-1.66-4.23-2.43-1.6-.96-3.27-1.79-5-2.56-1.6-.77-3.21-1.54-4.81-2.18-.51-.26-1.02-.51-1.54-.7,2.69-2.18,5.51-4.29,8.46-6.21,6.02,7.49,13.64,16.19,22.94,25.73h.01Z" fill="#8d6e63"/>
  <path d="M89.38,239.1c-.38-.26-.7-.51-1.02-.77.26.26.51.45.77.64.19.13.38.26.51.38.19.13.32.26.51.38.26.26.58.45.83.64.58.45,1.15.83,1.66,1.28.38.26.7.51,1.09.7-1.47-1.02-2.94-2.11-4.35-3.26h0ZM94.24,242.75c.83.64,1.66,1.15,2.5,1.73.45.32.9.58,1.34.83-1.28-.83-2.57-1.66-3.85-2.56h.01ZM59.95,84.67l-.06.06c.51.19,1.09.38,1.6.64-.51-.26-1.02-.51-1.54-.7Z" fill="#8d6e63"/>
  <path d="M61.48,85.38c-.51-.26-1.09-.45-1.6-.64l.06-.06c.51.19,1.02.45,1.54.7ZM88.34,238.34c.32.26.64.51,1.02.77-.06,0-.19-.06-.26-.13-.26-.19-.51-.38-.77-.64h.01ZM89.38,239.1c1.41,1.15,2.89,2.24,4.36,3.26-.38-.19-.7-.45-1.09-.7-.51-.45-1.09-.83-1.66-1.28-.26-.19-.58-.38-.83-.64-.26-.19-.52-.38-.77-.64h-.01ZM94.24,242.75c1.28.9,2.57,1.73,3.85,2.56-.45-.26-.9-.51-1.34-.83-.84-.58-1.67-1.09-2.5-1.73h-.01ZM121.02,224c-3.59,9.47-8.4,18.3-14.36,26.24,7.44,3.71,14.68,5.76,21.34,5.76.83,0,1.73-.06,2.63-.13.45,0,.9-.06,1.34-.13.19,0,.32,0,.51-.06,8.01-1.09,17.18-5.12,26.79-11.2,1.66-1.09,3.4-2.3,5.06-3.52,29.93-22.27,60.88-65.54,75.81-106.37-3.78-17.15-10.89-33.02-20.76-46.91-.77-.51-1.47-1.02-2.24-1.54-12.12-9.98-26.09-17.73-41.4-22.59-11.99-3.9-24.81-5.95-38.14-5.95-17.24,0-33.71,3.52-48.65,9.79,15.89,24.13,45.44,54.91,45.44,105.41,0,28.1-11.8,48.51-13.27,50.94-.06.06-.12.19-.12.26h.02Z" fill="#8d6e63"/>
  <path d="M240.17,134.59c-14.93,40.83-45.89,84.1-75.81,106.37-1.66,1.22-3.4,2.43-5.06,3.52-9.61,6.08-18.78,10.11-26.79,11.2-.19.06-.32.06-.51.06-.45.06-.9.13-1.34.13-.9.06-1.79.13-2.63.13-6.66,0-13.91-2.05-21.34-5.76,5.96-7.94,10.76-16.77,14.36-26.24,0,0,.06-.06.13-.26.19-.32.58-.96,1.09-1.92.45-.83.96-1.86,1.6-3.14.7-1.34,1.41-2.94,2.11-4.74.38-.9.77-1.86,1.22-2.88.38-1.02.77-2.11,1.15-3.2,1.28-3.58,2.5-7.68,3.53-12.16.26-1.09.45-2.24.7-3.46,1.15-5.89,1.86-12.42,1.86-19.46,0-39.23-17.82-66.56-33.32-88.13-4.36-6.21-8.59-11.9-12.12-17.28,14.93-6.27,31.4-9.79,48.65-9.79,13.33,0,26.15,2.05,38.13,5.95,15.32,4.86,29.29,12.61,41.4,22.59.77.51,1.47,1.02,2.25,1.54,5.25,7.42,9.74,15.42,13.33,23.87,3.21,7.36,5.71,15.04,7.44,23.04l-.03.02h0Z" fill="#8d6e63"/>
  <path d="M232.73,111.55c-14.36,6.46-30.32,10.05-47.04,10.05-33.45,0-63.58-14.21-84.6-36.93-4.36-6.21-8.59-11.9-12.12-17.28,14.93-6.27,31.4-9.79,48.65-9.79,13.33,0,26.15,2.05,38.13,5.95,15.32,4.86,29.29,12.61,41.4,22.59.77.51,1.47,1.02,2.25,1.54,5.25,7.42,9.73,15.42,13.32,23.87h0Z" fill="#a1887f"/>
  <path d="M33,58.43c-7.3,5.5-14.02,11.71-19.97,18.56-.38,0-.83,0-1.22.06-1.47.06-2.88.19-4.29.38.26-1.66.58-3.39.96-5.06.32-1.66.77-3.33,1.28-4.99.45-1.54.96-3.01,1.47-4.54.06-.13.06-.19.13-.32.58-1.6,1.28-3.2,1.98-4.8,1.92-.06,3.78-.13,5.7-.13,4.74,0,9.41.26,13.95.83h0Z" fill="#7f877f"/>
  <g>
    <path d="M68.38,78.46c-2.94,1.98-5.76,4.03-8.51,6.27-12.1-4.93-25.22-7.68-39.04-7.87-.58-.06-1.22-.06-1.79-.06-1.73,0-3.39.06-5.12.13-.32,0-.58,0-.9.06,5.95-6.85,12.67-13.06,19.97-18.56,1.6.13,3.2.32,4.74.58,5.12.83,12.61,2.88,20.03,5.44,3.26,4.54,6.85,9.41,10.62,14.02h0Z" fill="#806d59"/>
    <path d="M219.4,87.68c-.77-.51-1.47-1.02-2.25-1.54-12.12-9.98-26.09-17.73-41.4-22.59-11.98-3.9-24.8-5.95-38.13-5.95-17.24,0-33.71,3.52-48.65,9.79,15.89,24.13,45.44,54.91,45.44,105.41,0,29.95-13.4,51.2-13.4,51.2,4.55-11.9,6.99-24.83,6.99-38.4,0-1.98-.06-4.03-.19-5.95-.06-1.98-.26-3.97-.45-5.95-.38-3.33-.9-6.59-1.54-9.79-.19-1.09-.45-2.11-.7-3.2-.32-1.34-.64-2.75-1.02-4.1-.45-1.66-.96-3.26-1.47-4.93-1.15-3.46-2.5-6.85-3.97-10.18-.32-.77-.7-1.6-1.09-2.37-6.21-13.12-15-24.83-25.7-34.43-.19-.19-.32-.38-.51-.51-9.29-9.54-16.92-18.24-22.94-25.73-8.84-10.88-16.99-23.1-21.09-29.44,19.1-10.82,41.15-17.02,64.67-17.02,44.41,0,83.64,22.02,107.41,55.68h0Z" fill="#eee"/>
    <path d="M122.24,221.82c.45-.83.96-1.86,1.6-3.14-.58,1.28-1.15,2.3-1.6,3.14Z" fill="#eee"/>
  </g>
</svg>