<?xml version="1.0" encoding="UTF-8"?>
<svg xmlns="http://www.w3.org/2000/svg" width="256" height="256" version="1.1" xmlns:xlink="http://www.w3.org/1999/xlink" viewBox="0 0 256 256">
  <!-- Generator: Adobe Illustrator 29.8.4, SVG Export Plug-In . SVG Version: 2.1.1 Build 6)  -->
  <defs>
    <mask id="mask" x="0" y="0" width="256" height="256" maskUnits="userSpaceOnUse">
      <g id="mask0">
        <path d="M181.58,254.91c4.03,1.58,8.62,1.48,12.69-.49l52.67-25.49c5.53-2.68,9.05-8.31,9.05-14.49V41.57c0-6.18-3.52-11.82-9.05-14.49L194.27,1.59c-5.34-2.58-11.58-1.95-16.27,1.47-.67.49-1.31,1.04-1.9,1.64l-100.84,92.53L31.34,63.69c-4.09-3.12-9.81-2.87-13.61.61l-14.09,12.89c-4.65,4.25-4.65,11.6-.01,15.86l38.09,34.95L3.63,162.95c-4.64,4.26-4.63,11.61.01,15.86l14.09,12.89c3.8,3.47,9.52,3.73,13.61.61l43.92-33.53,100.84,92.53c1.6,1.61,3.47,2.81,5.48,3.6ZM192.08,69.58l-76.51,58.42,76.51,58.42v-116.83Z" fill="#fff" fill-rule="evenodd"/>
      </g>
    </mask>
    <linearGradient id="linear-gradient" x1="127.92" y1="414.52" x2="127.92" y2="158.52" gradientTransform="translate(0 414.52) scale(1 -1)" gradientUnits="userSpaceOnUse">
      <stop offset="0" stop-color="#fff"/>
      <stop offset="1" stop-color="#fff" stop-opacity="0"/>
    </linearGradient>
  </defs>
  <g isolation="isolate">
    <g id="Layer_1">
      <g mask="url(#mask)">
        <g>
          <path d="M246.95,27.12L194.23,1.59c-6.1-2.95-13.39-1.71-18.18,3.11L3.48,162.95c-4.64,4.26-4.64,11.61.01,15.86l14.1,12.89c3.8,3.47,9.52,3.73,13.61.61L239.01,33.74c6.97-5.32,16.99-.32,16.99,8.48v-.62c0-6.18-3.52-11.81-9.05-14.49Z" fill="#0065a9"/>
          <path d="M246.95,228.88l-52.72,25.53c-6.1,2.96-13.39,1.71-18.18-3.11L3.48,93.05c-4.64-4.26-4.64-11.61.01-15.86l14.1-12.89c3.8-3.47,9.52-3.73,13.61-.61l207.82,158.57c6.97,5.32,16.99.32,16.99-8.48v.62c0,6.18-3.52,11.81-9.05,14.49Z" fill="#007acc"/>
          <path d="M194.23,254.41c-6.1,2.95-13.4,1.7-18.18-3.11,5.9,5.93,15.99,1.73,15.99-6.66V11.36c0-8.39-10.09-12.6-15.99-6.66,4.79-4.82,12.08-6.07,18.18-3.11l52.71,25.49c5.54,2.68,9.06,8.31,9.06,14.49v172.86c0,6.18-3.52,11.82-9.06,14.49l-52.71,25.49Z" fill="#1f9cf0"/>
          <g mix-blend-mode="overlay" opacity=".25">
            <path d="M181.42,254.91c4.03,1.58,8.62,1.48,12.69-.49l52.67-25.49c5.53-2.68,9.05-8.31,9.05-14.49V41.57c0-6.18-3.52-11.82-9.05-14.49L194.12,1.58c-5.34-2.58-11.58-1.95-16.27,1.47-.67.49-1.31,1.04-1.9,1.64l-100.84,92.53L31.18,63.69c-4.09-3.12-9.81-2.87-13.61.61l-14.09,12.89c-4.65,4.25-4.65,11.6-.01,15.86l38.09,34.95L3.48,162.95c-4.64,4.26-4.63,11.61.01,15.86l14.09,12.89c3.8,3.47,9.52,3.73,13.61.61l43.92-33.53,100.84,92.53c1.6,1.61,3.47,2.81,5.48,3.6ZM191.92,69.58l-76.51,58.42,76.51,58.42v-116.83Z" fill="url(#linear-gradient)" fill-rule="evenodd"/>
          </g>
        </g>
      </g>
    </g>
  </g>
</svg>