<?xml version="1.0" encoding="UTF-8"?>
<svg id="Layer_1" data-name="Layer 1" xmlns="http://www.w3.org/2000/svg" viewBox="0 0 478.28 57.66">
  <path d="M472.85,54.96c2.92-2.13,4.61-5.87,5.08-11.21.23-2.94.35-6.26.35-9.96,0-5.99-1.26-9.82-3.79-11.49-1.28-.81-2.84-1.21-4.69-1.21-3.98,0-6.63-.22-7.93-.66-1.48-.52-2.23-1.55-2.23-3.09,0-3.1.2-5.14.61-6.13.4-.99,1.07-1.49,2.01-1.49,1.12,0,1.83.35,2.13,1.06.3.7.45,1.69.45,2.97,0,.6.05,1.13.16,1.6.16.68.65,1.19,1.48,1.52,1.15.47,3.2.7,6.17.7,2.21,0,3.65-.6,4.3-1.8.42-.73.62-1.95.62-3.67,0-3.49-.68-6.17-2.03-8.05-1.64-2.29-4.26-3.58-7.85-3.87-1.82-.13-3.63-.19-5.43-.19s-3.64.07-5.53.21c-1.89.14-3.63.58-5.21,1.31-3.54,1.61-5.31,5.14-5.31,10.59v3.16c0,2.03.04,4.01.12,5.94.23,4.4,1.43,7.37,3.59,8.91,1.22.89,2.94,1.33,5.16,1.33h5.43c1.59,0,2.67.31,3.24.92.57.61.86,2.02.86,4.24,0,7.92-1.37,11.88-4.1,11.88-1.48,0-2.23-1.52-2.23-4.57,0-2.4.13-4.04.39-4.94.26-.9.39-1.5.39-1.82,0-1.28-.46-2.18-1.37-2.72-.91-.53-2.38-.8-4.41-.8-1.09,0-2.14.04-3.12.12-2.24.21-3.49,1.05-3.75,2.54-.6,3.52-.9,5.99-.9,7.42,0,4.17.82,7.3,2.46,9.41.96,1.25,2.29,2.24,3.98,2.97,2.37,1.04,5.7,1.56,10,1.56,4.82,0,8.45-.9,10.9-2.69M423.32,21.05c-.6-.02-.9-.26-.9-.7,0-3.65.27-6.33.8-8.05.53-1.72,1.43-2.58,2.68-2.58s2,.63,2.32,1.9c.33,1.26.49,4.19.49,8.77,0,.49-.25.74-.74.74l-4.65-.08ZM436.02,55.43c2.42-1.61,3.77-4.62,4.06-9.02.18-2.86.27-5.06.27-6.6,0-1.07-.53-1.9-1.6-2.5-1.25-.73-2.92-1.09-5-1.09-1.69,0-2.98.13-3.87.39-1.54.5-2.3,1.47-2.3,2.93,0,5.96-.87,8.94-2.62,8.94-1.02,0-1.72-1.02-2.11-3.07-.39-2.04-.59-5.53-.59-10.45,0-1.93.02-2.91.08-2.95.05-.04,3.98-.06,11.8-.06,2.11,0,3.59-.42,4.45-1.27.86-.85,1.37-1.97,1.52-3.38.13-1.12.2-2.32.2-3.59v-2.77c-.03-6.12-.61-10.69-1.76-13.71-.91-2.5-2.34-4.3-4.3-5.39-2.24-1.22-5.34-1.84-9.3-1.84-1.8,0-3.63.1-5.51.31-7.03.78-10.55,4.71-10.55,11.8,0,4.04.2,12.11.59,24.22.13,4.61.26,7.99.39,10.16.21,3.62,1.15,6.28,2.81,7.97.99.99,2.27,1.72,3.83,2.19,2.14.68,4.95,1.02,8.44,1.02,5.16,0,8.84-.74,11.05-2.23M403.83,57.34c1.56-.08,2.57-.55,3.03-1.43.46-.87.68-2.21.68-4,0-1.93-.22-3.33-.66-4.22-.44-.88-1.38-1.33-2.81-1.33-.89,0-2.56.08-5.02.23-2.46.16-3.82.24-4.08.24-.36,0-.6-.1-.7-.31-.1-.21-.16-.51-.16-.9,0-6.93.27-16.58.82-28.95.26-6.15.39-10.13.39-11.95,0-1.72-.46-2.94-1.37-3.65-.91-.72-2.81-1.07-5.7-1.07s-4.86.41-5.92,1.23c-1.05.82-1.58,2.3-1.58,4.43,0,6.38.1,17.59.31,33.63.1,8.02.16,12.86.16,14.53,0,.81.18,1.5.55,2.07.7,1.17,3.36,1.76,7.97,1.76s9.52-.1,14.1-.31M356.64,25.27c-.18,0-.27-.08-.27-.23,0-3.72.1-7.98.31-12.77.08-1.64.14-2.47.18-2.5.04-.03.76-.04,2.17-.04.96,0,1.68.13,2.15.39.47.26.77.83.92,1.72.14.88.21,2.28.21,4.18,0,3.15-.22,5.44-.66,6.88-.49,1.59-1.41,2.38-2.73,2.38h-2.27ZM354.1,56.85c.6-.53.98-1.69,1.13-3.46.21-2.34.4-6,.57-10.98.17-4.97.25-7.55.25-7.71s.1-.25.31-.25h3.09c4.71,0,8.14-.62,10.27-1.88,2.01-1.17,3.37-2.79,4.1-4.84,1.25-3.49,1.88-8.7,1.88-15.62,0-4.3-1.59-7.47-4.77-9.53-2.63-1.72-5.9-2.58-9.8-2.58h-11.33c-2.34,0-4.04.25-5.08.74-.68.31-1.21.76-1.6,1.33-.55.83-.82,2.06-.82,3.67,0,2.42.14,18.63.43,48.63.03,1.38.62,2.27,1.78,2.68,1.16.4,3.42.6,6.78.6,1.28,0,2.21-.27,2.81-.8M288.93,56.6c.59-.7.96-1.94,1.11-3.71.16-1.64.33-4.8.51-9.49.47-11.2.82-21.35,1.05-30.47.02-1.17,1.17-1.76,3.44-1.76.96,0,1.6.46,1.91,1.37.31.91.47,2.49.47,4.73l-.2,34.73c0,2.06.53,3.48,1.6,4.26s2.99,1.17,5.78,1.17,4.56-.33,5.57-1c1-.66,1.5-1.92,1.5-3.77,0-.94-.04-3.6-.12-7.99-.08-4.39-.16-9.3-.25-14.73-.09-5.43-.14-10.1-.14-14,0-1.64.61-2.84,1.84-3.61,1.22-.77,2.8-1.15,4.73-1.15.99,0,1.64.46,1.95,1.37.31.91.47,2.49.47,4.73l-.2,34.84c0,1.85.44,3.16,1.33,3.94,1.04.91,3.06,1.37,6.05,1.37,2.79,0,4.66-.35,5.62-1.05.96-.7,1.45-1.94,1.45-3.71,0-4.43-.09-12.75-.27-24.96-.1-5.7-.22-10.44-.35-14.22-.23-6.12-1.77-10.05-4.61-11.8-1.3-.81-2.73-1.29-4.3-1.44-1.56-.16-3.12-.23-4.69-.23-.55,0-1.41.13-2.58.39-2.97.65-5.55,1.93-7.73,3.83-.26.21-.46.31-.59.31s-.25-.08-.35-.23c-1.12-1.77-2.66-2.97-4.61-3.59-1.41-.47-3.7-.7-6.88-.7-1.54,0-3.49.48-5.86,1.44-.18.08-.34.12-.47.12-.21,0-.39-.08-.55-.23-.55-.55-1.32-.91-2.32-1.07-1-.17-2.22-.25-3.65-.25-2.42,0-4.15.26-5.2.78-1.41.7-2.11,2.15-2.11,4.34l.27,48.71c0,.81.18,1.5.55,2.07.7,1.17,3.37,1.76,8.01,1.76,1.28,0,2.21-.35,2.79-1.05M268.4,56.76c1.09-.73,1.64-2.01,1.64-3.83,0-1.09-.05-3.27-.16-6.52-.26-7.34-.39-12.5-.39-15.47l-.08-18.83c-.03-5.44-1.81-8.97-5.35-10.59-1.59-.73-3.32-1.17-5.2-1.31-1.88-.14-3.72-.21-5.55-.21s-3.59.06-5.39.19c-4.09.34-6.94,1.97-8.55,4.88-.91,1.67-1.37,4.01-1.37,7.03,0,3.18.2,5.4.59,6.68.23.78.57,1.42,1.01,1.91.7.81,1.81,1.21,3.32,1.21,1.93,0,3.42-.09,4.49-.27,1.9-.29,2.96-.94,3.16-1.95.1-.47.16-1.38.16-2.73,0-1.75.09-3.16.27-4.26.31-1.98,1.08-2.97,2.3-2.97.86,0,1.47.59,1.84,1.76.44,1.43.66,4.1.66,8.01,0,2.42-.02,3.65-.06,3.67s-1.28.04-3.73.04c-3.93,0-7.2.85-9.8,2.54-3.2,2.08-4.8,5.27-4.8,9.57,0,1.74.14,4.35.43,7.81.36,4.79,1.25,8.15,2.66,10.08.76,1.02,1.73,1.88,2.93,2.58,1.98,1.17,4.95,1.77,8.91,1.8l11.29.08c2.27,0,3.85-.3,4.77-.9M254.22,48.48c-1.49,0-2.46-1.05-2.93-3.16-.31-1.41-.47-3.44-.47-6.09,0-2.5.13-4.13.39-4.88.16-.5.4-.83.74-1.02.47-.26,1.2-.39,2.19-.39h1.29c.13,0,.2.05.2.16,0,2.97-.03,5.77-.08,8.4l-.04,6.72c0,.18-.13.27-.39.27h-.9ZM227.46,54.96c2.92-2.13,4.61-5.87,5.08-11.21.24-2.94.35-6.26.35-9.96,0-5.99-1.26-9.82-3.79-11.49-1.28-.81-2.84-1.21-4.69-1.21-3.98,0-6.63-.22-7.93-.66-1.48-.52-2.23-1.55-2.23-3.09,0-3.1.2-5.14.6-6.13.4-.99,1.08-1.49,2.01-1.49,1.12,0,1.83.35,2.13,1.06.3.7.45,1.69.45,2.97,0,.6.05,1.13.16,1.6.16.68.65,1.19,1.49,1.52,1.15.47,3.2.7,6.17.7,2.21,0,3.65-.6,4.3-1.8.42-.73.62-1.95.62-3.67,0-3.49-.68-6.17-2.03-8.05-1.64-2.29-4.26-3.58-7.85-3.87-1.82-.13-3.63-.19-5.43-.19s-3.64.07-5.53.21c-1.89.14-3.63.58-5.21,1.31-3.54,1.61-5.31,5.14-5.31,10.59v3.16c0,2.03.04,4.01.12,5.94.23,4.4,1.43,7.37,3.59,8.91,1.22.89,2.94,1.33,5.16,1.33h5.43c1.59,0,2.67.31,3.24.92.57.61.86,2.02.86,4.24,0,7.92-1.37,11.88-4.1,11.88-1.48,0-2.23-1.52-2.23-4.57,0-2.4.13-4.04.39-4.94.26-.9.39-1.5.39-1.82,0-1.28-.46-2.18-1.37-2.72-.91-.53-2.38-.8-4.41-.8-1.09,0-2.14.04-3.12.12-2.24.21-3.49,1.05-3.75,2.54-.6,3.52-.9,5.99-.9,7.42,0,4.17.82,7.3,2.46,9.41.96,1.25,2.29,2.24,3.99,2.97,2.37,1.04,5.7,1.56,10,1.56,4.82,0,8.45-.9,10.9-2.69M158.09,21.05c-.6-.02-.9-.26-.9-.7,0-3.65.27-6.33.8-8.05.53-1.72,1.43-2.58,2.68-2.58s2,.63,2.32,1.9c.33,1.26.49,4.19.49,8.77,0,.49-.25.74-.74.74l-4.65-.08ZM170.78,55.43c2.42-1.61,3.78-4.62,4.06-9.02.18-2.86.27-5.06.27-6.6,0-1.07-.53-1.9-1.6-2.5-1.25-.73-2.92-1.09-5-1.09-1.69,0-2.98.13-3.87.39-1.54.5-2.31,1.47-2.31,2.93,0,5.96-.87,8.94-2.62,8.94-1.02,0-1.72-1.02-2.11-3.07-.39-2.04-.59-5.53-.59-10.45,0-1.93.03-2.91.08-2.95.05-.04,3.99-.06,11.8-.06,2.11,0,3.59-.42,4.45-1.27.86-.85,1.37-1.97,1.52-3.38.13-1.12.2-2.32.2-3.59v-2.77c-.03-6.12-.61-10.69-1.76-13.71-.91-2.5-2.34-4.3-4.3-5.39-2.24-1.22-5.34-1.84-9.3-1.84-1.8,0-3.63.1-5.51.31-7.03.78-10.55,4.71-10.55,11.8,0,4.04.19,12.11.59,24.22.13,4.61.26,7.99.39,10.16.21,3.62,1.15,6.28,2.81,7.97.99.99,2.27,1.72,3.83,2.19,2.14.68,4.95,1.02,8.44,1.02,5.16,0,8.84-.74,11.05-2.23M91.54,56.6c.59-.7.96-1.94,1.11-3.71.16-1.64.33-4.8.51-9.49.47-11.2.82-21.35,1.06-30.47.03-1.17,1.17-1.76,3.44-1.76.96,0,1.6.46,1.91,1.37.31.91.47,2.49.47,4.73l-.19,34.73c0,2.06.53,3.48,1.6,4.26s2.99,1.17,5.78,1.17,4.56-.33,5.57-1c1-.66,1.5-1.92,1.5-3.77,0-.94-.04-3.6-.12-7.99-.08-4.39-.16-9.3-.25-14.73-.09-5.43-.14-10.1-.14-14,0-1.64.61-2.84,1.84-3.61,1.22-.77,2.8-1.15,4.73-1.15.99,0,1.64.46,1.95,1.37.31.91.47,2.49.47,4.73l-.2,34.84c0,1.85.44,3.16,1.33,3.94,1.04.91,3.06,1.37,6.06,1.37,2.79,0,4.66-.35,5.62-1.05.96-.7,1.44-1.94,1.44-3.71,0-4.43-.09-12.75-.27-24.96-.1-5.7-.22-10.44-.35-14.22-.23-6.12-1.77-10.05-4.61-11.8-1.3-.81-2.73-1.29-4.3-1.44-1.56-.16-3.12-.23-4.69-.23-.55,0-1.41.13-2.58.39-2.97.65-5.55,1.93-7.74,3.83-.26.21-.46.31-.59.31s-.25-.08-.35-.23c-1.12-1.77-2.66-2.97-4.61-3.59-1.41-.47-3.7-.7-6.88-.7-1.54,0-3.49.48-5.86,1.44-.18.08-.34.12-.47.12-.21,0-.39-.08-.55-.23-.55-.55-1.32-.91-2.32-1.07-1-.17-2.22-.25-3.65-.25-2.42,0-4.15.26-5.2.78-1.41.7-2.11,2.15-2.11,4.34l.27,48.71c0,.81.18,1.5.55,2.07.7,1.17,3.37,1.76,8.01,1.76,1.28,0,2.21-.35,2.79-1.05M71.02,56.76c1.09-.73,1.64-2.01,1.64-3.83,0-1.09-.05-3.27-.16-6.52-.26-7.34-.39-12.5-.39-15.47l-.08-18.83c-.03-5.44-1.81-8.97-5.35-10.59-1.59-.73-3.32-1.17-5.19-1.31-1.88-.14-3.72-.21-5.55-.21s-3.59.06-5.39.19c-4.09.34-6.94,1.97-8.56,4.88-.91,1.67-1.37,4.01-1.37,7.03,0,3.18.19,5.4.59,6.68.23.78.57,1.42,1.02,1.91.7.81,1.81,1.21,3.32,1.21,1.93,0,3.42-.09,4.49-.27,1.9-.29,2.96-.94,3.16-1.95.1-.47.16-1.38.16-2.73,0-1.75.09-3.16.27-4.26.31-1.98,1.08-2.97,2.31-2.97.86,0,1.47.59,1.84,1.76.44,1.43.66,4.1.66,8.01,0,2.42-.02,3.65-.06,3.67-.04.03-1.28.04-3.73.04-3.93,0-7.2.85-9.81,2.54-3.2,2.08-4.81,5.27-4.81,9.57,0,1.74.14,4.35.43,7.81.36,4.79,1.25,8.15,2.66,10.08.76,1.02,1.73,1.88,2.93,2.58,1.98,1.17,4.95,1.77,8.91,1.8l11.29.08c2.27,0,3.85-.3,4.77-.9M56.84,48.48c-1.48,0-2.46-1.05-2.93-3.16-.31-1.41-.47-3.44-.47-6.09,0-2.5.13-4.13.39-4.88.16-.5.4-.83.74-1.02.47-.26,1.2-.39,2.19-.39h1.29c.13,0,.19.05.19.16,0,2.97-.03,5.77-.08,8.4l-.04,6.72c0,.18-.13.27-.39.27h-.9ZM25.55,57.03c2.86-.52,4.99-1.76,6.37-3.71,1.85-2.58,2.77-7.08,2.77-13.52,0-1.35-.04-2.66-.12-3.91,0-.29.03-.49.08-.61.05-.12.19-.21.43-.29,1.04-.29,1.56-1.06,1.56-2.31,0-1.72-.1-2.98-.31-3.79s-.5-1.33-.88-1.56c-.38-.24-.83-.35-1.35-.35-1.12,0-2.36-.04-3.71-.12-1.95-.13-5.27-.2-9.96-.2-1.61,0-2.65.42-3.11,1.25-.46.83-.68,2.08-.68,3.75,0,1.56.18,2.73.53,3.52.35.78,1.23,1.17,2.64,1.17h1.6c.34,0,.51.17.51.51-.16,3.49-.42,5.9-.78,7.23-.42,1.59-.97,2.62-1.66,3.11-.69.48-1.49.72-2.4.72-1.54,0-2.54-2.14-3.01-6.41-.47-4.27-.7-10.53-.7-18.79,0-4.95.19-8.44.57-10.49.38-2.04,1.09-3.07,2.13-3.07,1.74,0,2.62,2.98,2.62,8.95,0,.68.16,1.26.47,1.76.65,1.04,2.55,1.56,5.7,1.56,1.72,0,3.18-.26,4.38-.78,1.48-.65,2.23-1.59,2.23-2.81,0-1.54-.09-3.75-.27-6.64-.21-3.41-1.06-5.96-2.54-7.66-1.04-1.17-2.42-2.03-4.14-2.58-2.16-.65-4.97-.98-8.44-.98C10.3,0,6.35.94,4.22,2.81c-1.95,1.69-3.03,4.48-3.24,8.36-.31,5.03-.59,13.06-.82,24.1-.1,4.74-.16,8.16-.16,10.27,0,6.17,2.8,9.94,8.4,11.29,2.19.55,5.3.82,9.34.82,3.05,0,5.65-.21,7.81-.62" fill="#fff"/>
  <rect x="0" width="478.28" height="57.66" fill="none"/>
</svg>