<?xml version="1.0" encoding="UTF-8"?><svg id="a" xmlns="http://www.w3.org/2000/svg" viewBox="0 0 36.66 36.66"><path id="b" d="M13.08,9.24c-3.14,1.81-5.25,5.21-5.25,9.09H2.05v-2s-.02-.07-.06-.07l-.4-.05c-.42-.06-1.05-.56-1.45-.94-.12-.12-.17-.3-.12-.46l.69-2.59c.04-.16.17-.29.34-.33.54-.14,1.33-.26,1.72-.09l.38.15s.07.01.08-.02l2.01-3.47s.01-.07-.02-.09l-.33-.25c-.33-.25-.63-1-.78-1.54-.04-.16,0-.34.12-.46l1.89-1.89c.12-.12.3-.16.46-.12.54.15,1.29.45,1.54.78l.25.33s.06.03.09.02l1.73-1,2.89,5Z" style="fill:red;"/><path id="c" d="M13.08,27.42l-2.89,5-1.73-1s-.07-.01-.09.02l-.25.33c-.25.33-1,.63-1.54.78-.16.04-.34,0-.46-.12l-1.89-1.89c-.12-.12-.16-.3-.12-.46.15-.54.45-1.29.78-1.54l.33-.25s.03-.06.02-.09l-2.01-3.47s-.05-.04-.08-.02l-.38.15c-.39.17-1.18.05-1.72-.09-.17-.04-.3-.17-.34-.33L.02,21.85c-.05-.16,0-.34.12-.46.4-.38,1.03-.88,1.45-.94l.4-.05s.06-.03.06-.07v-2h5.78c0,3.88,2.11,7.28,5.25,9.09Z" style="fill:#006837;"/><path id="d" d="M24.86,33.89c.17.39.05,1.18-.09,1.72-.04.17-.17.3-.33.34l-2.59.69c-.16.05-.34,0-.46-.12-.38-.4-.88-1.03-.94-1.45l-.05-.4s-.03-.06-.07-.06h-4s-.07.02-.07.06l-.05.4c-.06.42-.56,1.05-.94,1.45-.12.12-.3.17-.46.12l-2.59-.69c-.16-.04-.29-.17-.33-.34-.14-.54-.26-1.33-.09-1.72l.15-.38s.01-.07-.02-.08l-1.74-1.01,2.89-5c1.54.9,3.33,1.41,5.25,1.41s3.71-.51,5.25-1.41l2.89,5-1.74,1.01s-.04.05-.02.08l.15.38Z" style="fill:#fcee21;"/><path id="e" d="M36.64,21.85l-.69,2.59c-.04.16-.17.29-.34.33-.54.14-1.33.26-1.72.09l-.38-.15s-.07-.01-.08.02l-2.01,3.47s-.01.07.02.09l.33.25c.33.25.63,1,.78,1.54.04.16,0,.34-.12.46l-1.89,1.89c-.12.12-.3.16-.46.12-.54-.15-1.29-.45-1.54-.78l-.25-.33s-.06-.03-.09-.02l-1.73,1-2.89-5c3.14-1.81,5.25-5.21,5.25-9.09h5.78v2s.02.07.06.07l.4.05c.42.06,1.05.56,1.45.94.12.12.17.3.12.46Z" style="fill:#662d91;"/><path id="f" d="M36.52,15.27c-.4.38-1.03.88-1.45.94l-.4.05s-.06.03-.06.07v2h-5.78c0-3.88-2.11-7.28-5.25-9.09l2.89-5,1.73,1s.07.01.09-.02l.25-.33c.25-.33,1-.63,1.54-.78.16-.04.34,0,.46.12l1.89,1.89c.12.12.16.3.12.46-.15.54-.45,1.29-.78,1.54l-.33.25s-.03.06-.02.09l2.01,3.47s.05.04.08.02l.38-.15c.39-.17,1.18-.05,1.72.09.17.04.3.17.34.33l.69,2.59c.05.16,0,.34-.12.46Z" style="fill:#f7931e;"/><path id="g" d="M26.47,4.24l-2.89,5c-1.54-.9-3.33-1.41-5.25-1.41s-3.71.51-5.25,1.41l-2.89-5,1.74-1.01s.04-.05.02-.08l-.15-.38c-.17-.39-.05-1.18.09-1.72.04-.17.17-.3.33-.34L14.81.02c.16-.05.34,0,.46.12.38.4.88,1.03.94,1.45l.05.4s.03.06.07.06h4s.07-.02.07-.06l.05-.4c.06-.42.56-1.05.94-1.45.12-.12.3-.17.46-.12l2.59.69c.16.04.29.17.33.34.14.54.26,1.33.09,1.72l-.15.38s-.01.07.02.08l1.74,1.01Z" style="fill:blue;"/><g id="h"><g id="i"><path d="M14.28,12.92c-1.65,1.23-2.71,3.2-2.71,5.41,0,3.09,2.07,5.69,4.91,6.5" style="fill:none; stroke:#000; stroke-miterlimit:10; stroke-width:1.5px;"/><polygon points="15.3 15.65 12.66 10.65 16.48 11.83 15.3 15.65"/></g><g id="j"><path d="M22.38,23.74c1.65-1.23,2.71-3.2,2.71-5.41,0-3.09-2.07-5.69-4.91-6.5" style="fill:none; stroke:#000; stroke-miterlimit:10; stroke-width:1.5px;"/><polygon points="21.36 21.01 24 26.01 20.18 24.83 21.36 21.01"/></g></g></svg>