<?xml version="1.0" encoding="UTF-8"?>
<svg xmlns="http://www.w3.org/2000/svg" version="1.1" xmlns:xlink="http://www.w3.org/1999/xlink" viewBox="0 0 100 100">
  <defs>
    <style>
      .cls-1 {
        fill: #af8080;
      }

      .cls-1, .cls-2, .cls-3 {
        isolation: isolate;
      }

      .cls-4 {
        fill: #3ca2a6;
      }

      .cls-5 {
        fill: #706f95;
      }

      .cls-6 {
        fill: none;
      }

      .cls-3 {
        fill: url(#radial-gradient);
        mix-blend-mode: multiply;
      }

      .cls-7 {
        fill: #d91c5c;
      }

      .cls-8 {
        fill: #f496b0;
      }

      .cls-9 {
        fill: #53272d;
      }

      .cls-10 {
        fill: #65a744;
      }

      .cls-11 {
        fill: gray;
      }

      .cls-12 {
        clip-path: url(#clippath);
      }

      .cls-13 {
        fill: #e6a756;
      }
    </style>
    <clipPath id="clippath">
      <circle class="cls-6" cx="45.7" cy="35.5" r="23.1"/>
    </clipPath>
    <radialGradient id="radial-gradient" cx="45.7" cy="-6221.6" fx="45.7" fy="-6221.6" r="23.1" gradientTransform="translate(0 -6186.1) scale(1 -1)" gradientUnits="userSpaceOnUse">
      <stop offset=".7" stop-color="#ccc" stop-opacity="0"/>
      <stop offset="1" stop-color="#53272d"/>
    </radialGradient>
  </defs>
  <!-- Generator: Adobe Illustrator 28.7.1, SVG Export Plug-In . SVG Version: 1.2.0 Build 142)  -->
  <g class="cls-2">
    <g id="Layer_1">
      <path id="head-bg" class="cls-11" d="M2.2,59.9C-3.3,33,14.1,7.5,40.1,2.2c19-3.9,38.9,3.8,50.3,20.5,17.2,25.4,6.8,60.3-21.6,72.2-28.5,12.1-60.8-5.3-66.8-35.2h.1Z"/>
      <path id="head-fill" class="cls-9" d="M50,0C22.4,0,0,22.4,0,50s22.4,50,50,50,50-22.4,50-50S77.6,0,50,0ZM76.8,89.8c-6.9,4.7-14.5,7.2-22.1,8-.1,0-.2,0-.3,0-.9-1.4-1.9-2.3-3.3-3.3-.2-.6-.7-1.3-.9-2.1-.3-1.7,1.4-2.1,2.5-4.9,0-.3.3-.9.4-1.1l.4-.5c0-.2.2-.2.3-.2.2,0,.5-.5.8-1,.3-.5.5-1.1.5-1.6.2-1.7,0-2.4.2-3.9.4-2.7,2.6-5.3,5-6.5h.6c.8.3,1.7.6,2.5.9,1.1.4,2.2.7,3.4.7,2.7,0,5.7-2.4,6.1-5.9v-1.5c0-.9-.6-1.6.2-2.4.8-.8.8,0,1.2-.4.4-.4.3-1,.3-1.6v-.4c0-.2-.2-.5-.4-.7,3.2-1.5.5-3.6.5-4.1,0,0,.3-.5.3-1,1.5,0,3.3-.8,4.1-2,.2-.3.4-.6.4-.9.3-1.6-.4-2.3-2.7-4.5,0,0-2.4-2.2-3.6-4.3-.5-.9-.7-1.6-.7-2.6v-1c.3-.9,1-1.5,1-2.4s-1.2-5.8-1.2-6.6c-.2-.9-.4-1.7-.5-2.1-.2-.6-.6-1.4-1.1-2.1.8.2,2,.5,2.6,1,.8.6,1.3,1.4,1.6,2.3.4,1.1.5,2.3.5,3.2s0,.2.2.2.3,0,.3-.2c0,0,.4-1.4.2-3.4,0-2.1-.8-3.7-1.6-4.8,1.8-.3,3.4-1.3,4.5-2.6,1.1-1.4,1.5-4,1.3-4.8-.3-.9-1-1.9-1.9-2.3-.5-3.3-3.2-6.6-7.3-7.7-8.1-2-12,3.3-18,1.8s-22.3-1.4-28.2,7c-.9,1.3-1.6,3-1,4.4-1.2.8-2.2,1.9-2.9,3.1-5.1,8.2-3.4,18.9.9,27.5,1.5,2.9,2.9,4.3,2.5,7.9-.2,2.2-1.2,4.6,1.6,5.6.6.2,1.5.5,1.7.5h1.2c0,2.6.8,6.4-1.6,10.6-1.4,2.3-3.6,4.5-4.2,6.1h-.3c-1.7.3-3.6,1.2-5.2,2.2,0,0-.1-.1-.2-.2-4.9-4.5-8.9-10.1-11.7-16.6C-6.1,40.6,10.9,9,40.3,3c3.2-.6,6.4-1,9.7-1,13.1,0,25.2,5.3,33.9,14.1,21.4,21.4,17.9,56.8-7.1,73.7Z"/>
      <circle id="head-inner" class="cls-1" cx="45.7" cy="35.5" r="23.1"/>
      <g id="Notes">
        <g class="cls-12">
          <path id="Note9" class="cls-13" d="M42.4,74.4c-.6-1.6-2-2.4-6.1-5.3,0-.8-1-.7-1,0l.2,14.8c-2.1-1.3-5.5.2-5.2,2.3s1.7,2.1,3.5,1.8c1.7-.2,3-1.5,2.8-2.7v-11c2.9,0,4.5,1.4,3.9,5.9.7-.8,1.4-1.7,1.8-2.7.4-1,.5-2.1.2-3.2Z"/>
          <path id="Note8" class="cls-5" d="M43.9,83.5v-14.4c0-.4-.4-.6-.8-.5-9.9,3.6-9.6,3.3-9.8,3.9,0,.1,0,0,0,12.2-1.7-1-4.5.1-4.3,1.8s1.4,1.7,2.8,1.5c1.4-.2,2.4-1.2,2.3-2.2v-8.4s8.9-3.2,8.9-3.2v8.2c-1.7-1-4.5.1-4.3,1.8s1.4,1.7,2.8,1.5c1.4-.2,2.4-1.2,2.3-2.2ZM34.1,76.2v-1.6s9-3.2,9-3.2v1.6s-9,3.2-9,3.2Z"/>
          <path id="Note7" class="cls-4" d="M36.4,75.4c-2.1,0-3.8,1.4-3.7,2.9s1.8,2.8,3.9,2.8,3.8-1.4,3.7-2.9-1.8-2.8-3.9-2.8ZM36.5,80.6c-1,0-1.9-1-1.9-2.3,0-1.3.8-2.4,1.8-2.4,1,0,1.9,1,1.9,2.3,0,1.3-.8,2.4-1.8,2.4Z"/>
          <g id="Note6">
            <path class="cls-13" d="M32.3,68.8s0,0,0,0c-2.9.9-4.2,3.4-4.1,4.4,0,1.1.9,2,2,1.9,1.1,0,2-.9,1.9-2,0-1.1-1-2-2.1-1.9,3.6-2,8.1.1,8.1,5.7,0,.4,0,.8,0,.6-.5,4.9-2.7,7.8-6.1,10.5,5.5-1.2,9.5-6.9,8.8-12.7-.7-5.2-5-7.5-8.4-6.6Z"/>
            <path class="cls-13" d="M44.6,76.1c0-1.6-2.5-1.6-2.4,0s2.5,1.6,2.4,0Z"/>
            <path class="cls-13" d="M42.3,80c0,1.6,2.5,1.6,2.4,0,0-1.6-2.5-1.6-2.4,0Z"/>
          </g>
          <path id="Note5" class="cls-8" d="M38,76.2c-.1-1.4-.3-2.9-.3-4.4,1-.9,2.9-2.9,3.8-4,2-2.1,1.9-7.7-1-8.2,0,0,0,0,0,0-3.5-.2-4.4,8.6-4.3,12.3-3.5,2.6-7.1,5.3-6.6,9.9.6,3.6,4.5,6,8,5.8.1,2.4.3,6.7-1.4,8-1.7,1.4-4,.4-3.8-1.7,0,0,0,0,0,0,.2-.8.6-1.1.8-1.3-.4.7,0,1.6.9,1.6,1.2,0,1.5-1.6.4-2.1h0c-2.5-.6-3.9,3.1-1.1,4.6,0,0,0,0,0,0,1.2.5,2.4.3,3.4-.4,0,0,2.3-.7,2.2-9,7.1-2.1,5.2-11.8-1-11ZM40.2,60.9c1.6,0,3.4,5-2.5,9.7,0-2.3.6-8.8,2.5-9.7ZM36.1,73.3c0,1.2.1,2.3.3,3.4-3.3,1.6-3.4,5.9-.7,7.9h.1c-3.1-3.3,0-6.7-.5-5.9.3-.3.6-.7,1.3-1,.3,2.6.7,5.6,1,8.5-.7,0-8.5-6.6-1.3-12.8ZM42,82.6c-.5,1.6-1.7,2.7-3.1,3.2-.1-2.9-.4-5.1-.8-8.5,1.6-.1,2.6.7,2.5.7.9.7,1.4,1.7,1.6,2.8,0,.7-.2,2-.1,1.9Z"/>
          <path id="Note4" class="cls-10" d="M43.8,84.1l.9-15c0-.4-.4-.7-.7-.6-10.6,3.1-10.4,2.8-10.5,3.7l-.7,12.4c-1.7-1.2-4.7-.1-4.5,1.6,0,1.1,1.3,1.8,2.8,1.7,1.5-.1,2.6-1.1,2.5-2.1l.7-11.6,9.5-2.8-.7,11.4c-1.7-1.2-4.7-.1-4.5,1.6,0,1.1,1.3,1.8,2.8,1.7,1.5-.1,2.6-1.1,2.5-2.1Z"/>
          <path id="Note3" class="cls-4" d="M39.6,85.3l-.2-16.2c0-.7-1-.6-1,0v14.8c-2-1.3-5.4.2-5.1,2.3s1.7,2.1,3.4,1.8c1.7-.2,3-1.5,2.8-2.7Z"/>
          <path id="Note2" class="cls-5" d="M34.7,80.3v-10.2c0-.7-1-.7-1,0,0,16.9-.3,16.8.4,16.8.3,0,.5-.2.5-.5v-.2c1.5-.4,2.9-1.4,3.8-2.6,2.8-3.8-2.2-6.3-3.8-3.3ZM34.6,85.5v-4.6c.7-.7,1.9-1.3,2.6-.5.7.7,1.5,3.2-2.6,5.1Z"/>
          <path id="Note1" class="cls-7" d="M39.6,85.3l-.2-16.2c0-.7-1-.6-1,0v14.8c-2.3-1.4-5.8.7-5.1,2.4.4,1.3,2.1,1.9,3.4,1.7,1.7-.2,3-1.5,2.8-2.7ZM36.5,87.6c-.9,0-1.6-.8-1.7-1.9,0-1.1.6-2,1.5-2,.9,0,1.6.8,1.7,1.9,0,1.1-.6,2-1.5,2Z"/>
        </g>
      </g>
      <circle id="gradient-circle" class="cls-3" cx="45.7" cy="35.5" r="23.1"/>
    </g>
  </g>
</svg>