<?xml version="1.0" encoding="UTF-8"?>
<svg xmlns="http://www.w3.org/2000/svg" version="1.1" xmlns:xlink="http://www.w3.org/1999/xlink" viewBox="0 0 100 100">
  <defs>
    <style>
      .cls-1 {
        fill: #af8080;
      }

      .cls-1, .cls-2, .cls-3 {
        isolation: isolate;
      }

      .cls-4 {
        fill: none;
      }

      .cls-3 {
        fill: url(#radial-gradient);
        mix-blend-mode: multiply;
      }

      .cls-5 {
        fill: #53272d;
      }

      .cls-6 {
        fill: #662f8e;
      }

      .cls-7 {
        fill: gray;
      }

      .cls-8 {
        clip-path: url(#clippath);
      }
    </style>
    <clipPath id="clippath">
      <circle class="cls-4" cx="45.8" cy="35.5" r="23.1" transform="translate(-6.9 11.5) rotate(-13.3)"/>
    </clipPath>
    <radialGradient id="radial-gradient" cx="45.7" cy="-6321.6" fx="45.7" fy="-6321.6" r="23.1" gradientTransform="translate(0 -6286.1) scale(1 -1)" gradientUnits="userSpaceOnUse">
      <stop offset=".7" stop-color="#ccc" stop-opacity="0"/>
      <stop offset="1" stop-color="#53272d"/>
    </radialGradient>
  </defs>
  <!-- Generator: Adobe Illustrator 28.7.0, SVG Export Plug-In . SVG Version: 1.2.0 Build 136)  -->
  <g class="cls-2">
    <g id="Layer_1">
      <path id="head-bg" class="cls-7" d="M3,59.7C-2.4,33.3,14.7,8.2,40.3,3c18.7-3.8,38.3,3.7,49.5,20.2,16.9,25,6.7,59.3-21.2,71-28,11.9-59.8-5.2-65.7-34.6h0Z"/>
      <path class="cls-4" d="M83.9,16.1C75.2,7.3,63.1,2,50,2s-6.5.4-9.7,1C10.9,9-6.1,40.6,5.7,68.7c2.8,6.6,6.8,12.1,11.7,16.6,1.7-1.1,3.7-2.1,5.5-2.4h.3c.6-1.6,2.8-3.8,4.2-6.1,2.4-4.2,1.7-8,1.6-10.6h-1.2c-.2,0-1.1-.3-1.7-.5-2.8-1-1.8-3.4-1.6-5.6.4-3.6-1-5-2.5-7.9-4.3-8.6-6-19.3-.9-27.5.7-1.2,1.7-2.3,2.9-3.1-.6-1.4,0-3.1,1-4.4,5.9-8.4,21-8.8,28.2-7s9.9-3.8,18-1.8c4.1,1.1,6.8,4.4,7.3,7.7.9.4,1.6,1.4,1.9,2.3.2.8-.2,3.4-1.3,4.7h0c-1.1,1.4-2.7,2.4-4.5,2.7.8,1.1,1.5,2.7,1.6,4.8.2,2-.2,3.4-.2,3.4,0,0,0,.2-.3.2s-.2,0-.2-.2c0-.9,0-2.1-.5-3.2-.3-.9-.8-1.7-1.6-2.3-.6-.5-1.8-.8-2.6-1,.5.7.9,1.5,1.1,2.1,0,.4.3,1.2.5,2.1,0,.8,1.3,5.9,1.2,6.6,0,.9-.7,1.5-1,2.4v1c0,1,.2,1.7.7,2.6,1.2,2.1,3.7,4.4,3.6,4.3,2.3,2.2,3,2.9,2.7,4.5,0,.3-.2.6-.4.9-.8,1.2-2.6,1.9-4.1,2,0,.5-.2.9-.3,1,0,.5,2.7,2.6-.5,4.1.2.2.3.5.4.7v.4c0,.6,0,1.3-.3,1.6-.3.3-1,.2-1.2.4-.8.8-.3,1.5-.2,2.4v1.5c-.4,3.5-3.4,5.8-6.1,5.9-1.2,0-2.3-.3-3.4-.7-.8-.3-1.7-.6-2.5-.9h-.6c-2.4,1.2-4.6,3.8-5,6.5-.2,1.5,0,2.2-.2,3.9,0,.5-.2,1.1-.5,1.6s-.6.9-.8,1c0,0-.2,0-.3.2,0,0-.4.4-.4.5,0,.2-.3.8-.4,1.1-1.1,2.8-2.8,3.2-2.5,4.9.2.9.8,1.7,1,2.3,1.5,1,2.6,2,3.5,3.6,7.6-.7,15.2-3.3,22.1-8,25-16.9,28.5-52.3,7.1-73.7h0v-.2h0Z"/>
      <path class="cls-5" d="M50,0C22.4,0,0,22.4,0,50s22.4,50,50,50,50-22.4,50-50S77.6,0,50,0ZM76.8,89.8c-6.9,4.7-14.5,7.2-22.1,8h0c-13.9,1.6-27.8-2.6-38.5-11.6.4-.3.8-.6,1.2-.9-4.9-4.5-8.9-10.1-11.7-16.6C-6.1,40.6,10.9,9,40.3,3c3.2-.6,6.4-1,9.7-1,13.1,0,25.2,5.3,33.9,14.1,21.4,21.4,17.9,56.8-7.1,73.7Z"/>
      <path class="cls-5" d="M51.2,94.2c-.2-.6-.8-1.4-1-2.3-.3-1.7,1.4-2.1,2.5-4.9,0-.3.3-.9.4-1.1l.4-.5c0-.2.2-.2.3-.2.2,0,.5-.5.8-1s.5-1.1.5-1.6c.2-1.7,0-2.4.2-3.9.4-2.7,2.6-5.3,5-6.5h.6c.8.3,1.7.6,2.5.9,1.1.4,2.2.7,3.4.7,2.7,0,5.7-2.4,6.1-5.9v-1.5c0-.9-.6-1.6.2-2.4s.8,0,1.2-.4.3-1,.3-1.6v-.4c0-.2-.2-.5-.4-.7,3.2-1.5.5-3.6.5-4.1,0,0,.3-.5.3-1,1.5,0,3.3-.8,4.1-2,.2-.3.4-.6.4-.9.3-1.6-.4-2.3-2.7-4.5,0,0-2.4-2.2-3.6-4.3-.5-.9-.7-1.6-.7-2.6v-1c.3-.9,1-1.5,1-2.4s-1.2-5.8-1.2-6.6c-.2-.9-.4-1.7-.5-2.1-.2-.6-.6-1.4-1.1-2.1.8.2,2,.5,2.6,1,.8.6,1.3,1.4,1.6,2.3.4,1.1.5,2.3.5,3.2s0,.2.2.2.3,0,.3-.2c0,0,.4-1.4.2-3.4,0-2.1-.8-3.7-1.6-4.8,1.8-.3,3.4-1.3,4.5-2.6h0c1.1-1.4,1.5-4,1.3-4.8-.3-.9-1-1.9-1.9-2.3-.5-3.3-3.2-6.6-7.3-7.7-8.1-2-12,3.3-18,1.8s-22.3-1.4-28.2,7c-.9,1.3-1.6,3-1,4.4-1.2.8-2.2,1.9-2.9,3.1-5.1,8.2-3.4,18.9.9,27.5,1.5,2.9,2.9,4.3,2.5,7.9-.2,2.2-1.2,4.6,1.6,5.6.6.2,1.5.5,1.7.5h1.2c0,2.6.8,6.4-1.6,10.6-1.4,2.3-3.6,4.5-4.2,6.1h-.3c-1.8.3-3.8,1.3-5.5,2.4,10.1,9.3,23.7,13.8,37.3,12.5-.9-1.6-2-2.6-3.5-3.6h0v.2h0Z"/>
      <path class="cls-5" d="M17.4,85.3c-.4.3-.8.6-1.2.9,10.7,9,24.6,13.2,38.5,11.6h0c-13.5,1.3-27.2-3.2-37.3-12.5Z"/>
      <circle id="head-inner" class="cls-1" cx="45.7" cy="35.5" r="23.1"/>
      <g class="cls-8">
        <path class="cls-6" d="M34.9,21.8c0-.1-.1-.3-.2-.4,0,0,0,0,0,0-1.5-3.2-4.6-5.5-8.3-6-.2,0-.4,0-.6,0-.2,0-.5,0-.7,0-3.5,0-6.6,1.7-8.6,4.3,0,0,0,0,0,0,0,.1-.2.3-.3.4,0,0,0,0,0,0-1.2,1.7-1.8,3.8-1.8,6s.3,2.9.9,4.2c0,.1.1.3.2.4,0,0,0,0,0,0,1.5,3.2,4.6,5.5,8.3,6,.2,0,.4,0,.6,0,.2,0,.5,0,.7,0,3.5,0,6.6-1.7,8.5-4.3.1-.1.2-.3.3-.4,0,0,0,0,0,0,1.2-1.7,1.8-3.8,1.8-6s-.3-2.9-.9-4.2ZM24.5,17.5c1.1-.6,2.6-.2,3.2.9.6,1.1.2,2.6-.9,3.2-1.1.6-2.6.2-3.2-.9-.6-1.1-.2-2.6.9-3.2ZM19.8,19.9c1.3,0,2.3,1.1,2.3,2.4,0,1.3-1.1,2.3-2.4,2.3-1.3,0-2.3-1.1-2.3-2.4,0-1.3,1.1-2.3,2.4-2.3ZM21.1,29.9c-.7,1.1-2.1,1.5-3.2.8-1.1-.7-1.5-2.1-.8-3.2.7-1.1,2.1-1.5,3.2-.8,1.1.7,1.5,2.1.8,3.2ZM25.5,34.6c-1.1.6-2.6.2-3.2-.9s-.2-2.6.9-3.2c1.1-.6,2.6-.2,3.2.9.6,1.1.2,2.6-.9,3.2ZM26.2,28.7c-.9-.4-1.9-.5-2.9-.3,0-1-.5-1.9-1.2-2.7.8-.6,1.4-1.4,1.7-2.4.9.4,1.9.6,2.9.3,0,1,.5,1.9,1.2,2.7-.8.6-1.4,1.4-1.7,2.4ZM30.3,32.2c-1.3,0-2.3-1.1-2.3-2.4,0-1.3,1.1-2.3,2.4-2.3,1.3,0,2.3,1.1,2.3,2.4,0,1.3-1.1,2.3-2.4,2.3ZM32.9,24.6c-.7,1.1-2.1,1.5-3.2.8-1.1-.7-1.5-2.1-.8-3.2.7-1.1,2.1-1.5,3.2-.8,1.1.7,1.5,2.1.8,3.2Z"/>
        <path class="cls-6" d="M57.9,23.4c0-.1,0-.3,0-.4,0,0,0,0,0,0,.4-3.5-.9-7.2-3.8-9.5-.2-.1-.3-.2-.5-.4-.2-.1-.4-.3-.6-.4-3-1.9-6.5-2.2-9.5-1,0,0,0,0,0,0-.1,0-.3.1-.4.2,0,0,0,0,0,0-1.9.8-3.6,2.2-4.8,4.1s-1.3,2.6-1.5,4c0,.1,0,.3,0,.4,0,0,0,0,0,0-.4,3.5.9,7.2,3.8,9.5.2.1.3.2.5.4.2.1.4.3.6.4,2.9,1.9,6.5,2.2,9.5,1,.2,0,.3-.1.5-.2,0,0,0,0,0,0,1.9-.8,3.6-2.2,4.8-4.1s1.3-2.6,1.6-4ZM51.5,14.2c1.3,0,2.3,1.2,2.2,2.5,0,1.3-1.2,2.3-2.5,2.2-1.3,0-2.3-1.2-2.2-2.5,0-1.3,1.2-2.3,2.5-2.2ZM46.3,13.7c1.1.7,1.4,2.2.6,3.3-.7,1.1-2.2,1.4-3.3.6-1.1-.7-1.4-2.2-.6-3.3.7-1.1,2.2-1.4,3.3-.6ZM42,22.8c-1.2.6-2.6,0-3.1-1.1-.6-1.2,0-2.6,1.1-3.1,1.2-.6,2.6,0,3.1,1.1.6,1.2,0,2.6-1.1,3.1ZM43.2,29.1c-1.3,0-2.3-1.2-2.2-2.5s1.2-2.3,2.5-2.2c1.3,0,2.3,1.2,2.2,2.5,0,1.3-1.2,2.3-2.5,2.2ZM46.9,24.5c-.5-.8-1.3-1.5-2.3-1.8.5-.9.6-1.9.4-2.9,1,0,2-.4,2.7-1.1.5.9,1.3,1.5,2.3,1.8-.5.9-.6,1.9-.4,2.9-1,0-2,.4-2.7,1.1ZM48.5,29.6c-1.1-.7-1.4-2.2-.6-3.3.7-1.1,2.2-1.4,3.3-.6,1.1.7,1.4,2.2.6,3.3-.7,1.1-2.2,1.4-3.3.6ZM54.8,24.7c-1.2.6-2.6,0-3.1-1.1-.6-1.2,0-2.6,1.1-3.1,1.2-.6,2.6,0,3.1,1.1.6,1.2,0,2.6-1.1,3.1Z"/>
        <path class="cls-6" d="M64.4,32.2c-1.3.6-2.5,1.2-3.8,1.8v.5h-.8v-.4h-1.6v.5h-.9c0,0-.1.2-.1.2v-.2h.1s-.1-.1-.1-.1v-1.5h0c0,0-1.5-.3-1.5-.3v-2.2h-27.7v16h9.3v1.1h1.4v2.5h.5l-8.9,16.8h-1.3v.9h2.9v-.9h-.7l8.9-16.8h1.3v20.8h-1.3v1h5.1v-1h-1.3v-20.8h1.4l8.9,16.8h-.5v.9h3v-.9h-1.5l-8.9-16.8h.5v-2.5h1.5v-1.1h7.5v-3.9l1.5-.2h0v-1.7c.1,0,0,0,0,0v-.2.2c.1,0,1.1,0,1.1,0v.5h1.6v-.4h.8v.5l3.8,1.8c-.1-1.7-.2-3.5-.2-5.4,0-1.8,0-3.5.2-5.1ZM43.1,67c0,.2-.2.4-.4.4-.2,0-.4-.2-.4-.4,0,0,0,0,0,0h0v-17.1h.8v17.1ZM40.5,43.7c-.9,0-1.6-.7-1.6-1.6,0-.9.7-1.6,1.6-1.6.9,0,1.6.7,1.6,1.6,0,.9-.7,1.6-1.6,1.6ZM33.7,33.2h7.7c.3,0,.5.2.5.5,0,.3-.2.5-.5.6h-7.7c-.3,0-.5-.2-.5-.5,0-.3.2-.5.5-.6ZM32.5,35.2s0,0,0,0h0s8.8,0,8.8,0c.3,0,.5.2.6.5,0,.3-.2.5-.5.6,0,0,0,0,0,0h0s-8.8,0-8.8,0c-.3,0-.5-.2-.6-.5,0-.3.2-.5.5-.6ZM31.3,37.2h10.3c.3,0,.5.2.5.5,0,.3-.2.5-.5.6h-10.3c-.3,0-.5-.2-.5-.5,0-.3.2-.5.5-.6ZM32.3,43.7c-.9,0-1.6-.7-1.6-1.6,0-.9.7-1.6,1.6-1.6.9,0,1.6.7,1.6,1.6,0,.9-.7,1.6-1.6,1.6ZM34.8,42.1c0-.9.7-1.6,1.6-1.6.9,0,1.6.7,1.6,1.6,0,.9-.7,1.6-1.6,1.6-.9,0-1.6-.7-1.6-1.6Z"/>
      </g>
      <circle id="gradient-circle" class="cls-3" cx="45.7" cy="35.5" r="23.1"/>
    </g>
  </g>
</svg>