<?xml version="1.0" encoding="UTF-8"?>
<svg xmlns="http://www.w3.org/2000/svg" version="1.1" xmlns:xlink="http://www.w3.org/1999/xlink" viewBox="0 0 100 100">
  <defs>
    <style>
      .cls-1 {
        fill: gray;
      }

      .cls-2 {
        fill: none;
      }

      .cls-3, .cls-4, .cls-5 {
        isolation: isolate;
      }

      .cls-4 {
        fill: url(#radial-gradient);
        mix-blend-mode: multiply;
      }

      .cls-6 {
        fill: #53272d;
      }

      .cls-7 {
        fill: #ed1e79;
      }

      .cls-5 {
        fill: #af8080;
      }

      .cls-8 {
        clip-path: url(#clippath);
      }
    </style>
    <clipPath id="clippath">
      <circle class="cls-2" cx="45.7" cy="35.5" r="23.1" transform="translate(-10.9 23.7) rotate(-26.1)"/>
    </clipPath>
    <radialGradient id="radial-gradient" cx="45.7" cy="6421.5" fx="45.7" fy="6421.5" r="23.1" gradientTransform="translate(0 -6386)" gradientUnits="userSpaceOnUse">
      <stop offset=".7" stop-color="#ccc" stop-opacity="0"/>
      <stop offset="1" stop-color="#53272d"/>
    </radialGradient>
  </defs>
  <!-- Generator: Adobe Illustrator 28.7.0, SVG Export Plug-In . SVG Version: 1.2.0 Build 136)  -->
  <g class="cls-3">
    <g id="Layer_1">
      <path id="head-bg" class="cls-1" d="M3,59.7C-2.4,33.3,14.7,8.2,40.3,3c18.7-3.8,38.3,3.7,49.5,20.2,16.9,25,6.7,59.3-21.2,71-28,11.9-59.8-5.2-65.7-34.6h0Z"/>
      <path class="cls-2" d="M83.9,16.1C75.2,7.3,63.1,2,50,2s-6.5.4-9.7,1C10.9,9-6.1,40.6,5.7,68.7c2.8,6.6,6.8,12.1,11.7,16.6,1.7-1.1,3.7-2.1,5.5-2.4h.3c.6-1.6,2.8-3.8,4.2-6.1,2.4-4.2,1.7-8,1.6-10.6h-1.2c-.2,0-1.1-.3-1.7-.5-2.8-1-1.8-3.4-1.6-5.6.4-3.6-1-5-2.5-7.9-4.3-8.6-6-19.3-.9-27.5.7-1.2,1.7-2.3,2.9-3.1-.6-1.4,0-3.1,1-4.4,5.9-8.4,21-8.8,28.2-7s9.9-3.8,18-1.8c4.1,1.1,6.8,4.4,7.3,7.7.9.4,1.6,1.4,1.9,2.3.2.8-.2,3.4-1.3,4.7h0c-1.1,1.4-2.7,2.4-4.5,2.7.8,1.1,1.5,2.7,1.6,4.8.2,2-.2,3.4-.2,3.4,0,0,0,.2-.3.2s-.2,0-.2-.2c0-.9,0-2.1-.5-3.2-.3-.9-.8-1.7-1.6-2.3-.6-.5-1.8-.8-2.6-1,.5.7.9,1.5,1.1,2.1,0,.4.3,1.2.5,2.1,0,.8,1.3,5.9,1.2,6.6,0,.9-.7,1.5-1,2.4v1c0,1,.2,1.7.7,2.6,1.2,2.1,3.7,4.4,3.6,4.3,2.3,2.2,3,2.9,2.7,4.5,0,.3-.2.6-.4.9-.8,1.2-2.6,1.9-4.1,2,0,.5-.2.9-.3,1,0,.5,2.7,2.6-.5,4.1.2.2.3.5.4.7v.4c0,.6,0,1.3-.3,1.6-.3.3-1,.2-1.2.4-.8.8-.3,1.5-.2,2.4v1.5c-.4,3.5-3.4,5.8-6.1,5.9-1.2,0-2.3-.3-3.4-.7-.8-.3-1.7-.6-2.5-.9h-.6c-2.4,1.2-4.6,3.8-5,6.5-.2,1.5,0,2.2-.2,3.9,0,.5-.2,1.1-.5,1.6s-.6.9-.8,1c0,0-.2,0-.3.2,0,0-.4.4-.4.5,0,.2-.3.8-.4,1.1-1.1,2.8-2.8,3.2-2.5,4.9.2.9.8,1.7,1,2.3,1.5,1,2.6,2,3.5,3.6,7.6-.7,15.2-3.3,22.1-8,25-16.9,28.5-52.3,7.1-73.7h0v-.2Z"/>
      <path class="cls-6" d="M50,0C22.4,0,0,22.4,0,50s22.4,50,50,50,50-22.4,50-50S77.6,0,50,0ZM76.8,89.8c-6.9,4.7-14.5,7.2-22.1,8h0c-13.9,1.6-27.8-2.6-38.5-11.6.4-.3.8-.6,1.2-.9-4.9-4.5-8.9-10.1-11.7-16.6C-6.1,40.6,10.9,9,40.3,3c3.2-.6,6.4-1,9.7-1,13.1,0,25.2,5.3,33.9,14.1,21.4,21.4,17.9,56.8-7.1,73.7Z"/>
      <path class="cls-6" d="M51.2,94.2c-.2-.6-.8-1.4-1-2.3-.3-1.7,1.4-2.1,2.5-4.9,0-.3.3-.9.4-1.1l.4-.5c0-.2.2-.2.3-.2.2,0,.5-.5.8-1s.5-1.1.5-1.6c.2-1.7,0-2.4.2-3.9.4-2.7,2.6-5.3,5-6.5h.6c.8.3,1.7.6,2.5.9,1.1.4,2.2.7,3.4.7,2.7,0,5.7-2.4,6.1-5.9v-1.5c0-.9-.6-1.6.2-2.4s.8,0,1.2-.4.3-1,.3-1.6v-.4c0-.2-.2-.5-.4-.7,3.2-1.5.5-3.6.5-4.1,0,0,.3-.5.3-1,1.5,0,3.3-.8,4.1-2,.2-.3.4-.6.4-.9.3-1.6-.4-2.3-2.7-4.5,0,0-2.4-2.2-3.6-4.3-.5-.9-.7-1.6-.7-2.6v-1c.3-.9,1-1.5,1-2.4s-1.2-5.8-1.2-6.6c-.2-.9-.4-1.7-.5-2.1-.2-.6-.6-1.4-1.1-2.1.8.2,2,.5,2.6,1,.8.6,1.3,1.4,1.6,2.3.4,1.1.5,2.3.5,3.2s0,.2.2.2.3,0,.3-.2c0,0,.4-1.4.2-3.4,0-2.1-.8-3.7-1.6-4.8,1.8-.3,3.4-1.3,4.5-2.6h0c1.1-1.4,1.5-4,1.3-4.8-.3-.9-1-1.9-1.9-2.3-.5-3.3-3.2-6.6-7.3-7.7-8.1-2-12,3.3-18,1.8s-22.3-1.4-28.2,7c-.9,1.3-1.6,3-1,4.4-1.2.8-2.2,1.9-2.9,3.1-5.1,8.2-3.4,18.9.9,27.5,1.5,2.9,2.9,4.3,2.5,7.9-.2,2.2-1.2,4.6,1.6,5.6.6.2,1.5.5,1.7.5h1.2c0,2.6.8,6.4-1.6,10.6-1.4,2.3-3.6,4.5-4.2,6.1h-.3c-1.8.3-3.8,1.3-5.5,2.4,10.1,9.3,23.7,13.8,37.3,12.5-.9-1.6-2-2.6-3.5-3.6h0v.2Z"/>
      <path class="cls-6" d="M17.4,85.3c-.4.3-.8.6-1.2.9,10.7,9,24.6,13.2,38.5,11.6h0c-13.5,1.3-27.2-3.2-37.3-12.5Z"/>
      <circle id="head-inner" class="cls-5" cx="45.7" cy="35.5" r="23.1"/>
      <g class="cls-8">
        <path id="gear-small" class="cls-7" d="M52,43.7h0l-.3-.5c-.3-.4-.6-1.4-.8-2.1,0-.2,0-.4.2-.5l1.8-.9h.5c.5.5,1.1,1.3,1.3,1.8l.2.5h0l2.7-.5h0v-.6c0-.5.3-1.5.6-2.2,0-.2.2-.3.4-.2l2,.3c.2,0,.3.2.3.4v2.2l-.2.5h0l2.4,1.3h0l.3-.5c.3-.4,1.1-1,1.7-1.4h.5l1.4,1.4s.2.3,0,.5c-.4.6-.9,1.4-1.4,1.8l-.4.3h0l1.3,2.5h0l.5-.2c.5-.2,1.5-.2,2.2,0,.2,0,.3.2.4.3l.3,2c0,.2,0,.4-.2.4-.6.3-1.6.6-2.1.6h-.6l-.4,2.7h0l.5.3c.5.2,1.3.8,1.9,1.2,0,0,.2.3,0,.5l-.9,1.8c0,.2-.3.3-.4.2-.7,0-1.7-.4-2.1-.8l-.4-.3h0l-1.9,1.9h0l.3.5c.3.4.6,1.4.8,2.1,0,.2,0,.4-.2.5l-1.8.9h-.5c-.5-.5-1.1-1.3-1.3-1.8l-.2-.5h0l-2.7.5h0v.6c0,.5-.3,1.5-.6,2.2,0,.2-.2.3-.4.2l-2-.3c-.2,0-.3-.2-.3-.4v-2.2l.2-.5h0l-2.4-1.3h0l-.3.5c-.3.4-1.1,1-1.7,1.4h-.5l-1.4-1.4s-.2-.3,0-.5c.4-.6.9-1.4,1.4-1.8l.4-.3h0l-1.3-2.5h0l-.5.2c-.5.2-1.5.2-2.2,0-.2,0-.3-.2-.4-.3l-.3-2c0-.2,0-.4.2-.4.6-.3,1.6-.6,2.1-.6h.6l.4-2.7h0l-.5-.3c-.5-.2-1.3-.8-1.9-1.2,0,0-.2-.3,0-.5l.9-1.8c0-.2.3-.3.4-.2.7,0,1.7.4,2.1.8l.4.3h0s1.9-1.9,1.9-1.9ZM52.2,54.1c1.6,3.1,5.4,4.3,8.5,2.6,3.1-1.6,4.3-5.4,2.6-8.5-1.6-3.1-5.4-4.3-8.5-2.6-3.1,1.6-4.3,5.4-2.6,8.5Z"/>
        <path id="gear-large" class="cls-7" d="M16,13h0c0-.1-.4-.4-.4-.4-.4-.4-1-1.2-1.3-1.9v-.5l1.4-1.4c.1-.1.3-.2.5,0,.6.3,1.5.8,1.9,1.2l.4.4h.1l2.5-1.9h0c0-.1-.3-.6-.3-.6-.3-.5-.5-1.5-.6-2.2,0-.2,0-.4.2-.5l1.7-.9h.5c.5.5,1.2,1.3,1.4,1.8l.2.5h.1l3-1h0v-.6c-.3-.5-.2-1.6,0-2.3,0-.2.2-.3.4-.4l1.9-.3c.2,0,.4,0,.5.2.3.6.8,1.6.8,2.1v.5h3.3v-.6c0-.6.5-1.5.8-2.1,0-.2.3-.3.5-.2l2,.3c.2,0,.3.2.4.4,0,.7.2,1.7,0,2.3v.5h0l3,.9h0l.2-.5c.2-.5.9-1.3,1.4-1.8,0,0,.3-.2.5,0l1.8.9c.2,0,.3.3.2.5,0,.7-.3,1.7-.6,2.2l-.3.5h0c0,.1,2.6,1.9,2.6,1.9h0l.4-.4c.4-.4,1.2-1,1.9-1.3h.5l1.4,1.4c0,.1.2.3,0,.5-.3.6-.8,1.5-1.2,1.9l-.4.4h0c0,.1,1.9,2.6,1.9,2.6h0l.5-.3c.5-.3,1.5-.5,2.2-.6.2,0,.4,0,.5.2l.9,1.7v.5c-.5.5-1.3,1.2-1.8,1.4l-.5.2h0c0,.1,1,3.1,1,3.1h.6c.5-.3,1.6-.2,2.3,0,.2,0,.3.2.4.4l.3,1.9c0,.2,0,.4-.2.5-.6.3-1.6.8-2.1.8h-.5v3.3h.6c.6,0,1.5.5,2.1.8.2,0,.3.3.2.5l-.3,1.9c0,.2-.2.3-.4.4-.7.1-1.7.2-2.3.1h-.5s0,0,0,0l-.9,3h0l.5.3c.5.2,1.3.9,1.8,1.4s.2.3,0,.5l-.9,1.8c0,.2-.3.3-.5.2-.7,0-1.7-.3-2.2-.6l-.5-.3h0l-1.8,2.6h0l.4.5c.4.4,1,1.2,1.3,1.9v.5l-1.4,1.4s-.3.2-.5,0c-.6-.3-1.5-.8-1.9-1.2l-.4-.4h0l-2.5,1.9h0l.3.6c.3.5.5,1.5.6,2.2,0,.2,0,.4-.2.5l-1.7.9h-.5c-.5-.5-1.2-1.3-1.4-1.8l-.2-.5h0l-3,1h0v.6c.3.5.2,1.6,0,2.3,0,.2-.2.3-.4.4l-1.9.3c-.2,0-.4,0-.5-.2-.3-.6-.8-1.6-.8-2.1v-.5h-3.3v.6c0,.6-.5,1.5-.8,2.1,0,.2-.3.3-.5.2l-1.9-.3c-.2,0-.3-.2-.4-.4-.1-.7-.2-1.7-.1-2.3v-.5h0l-3-.9h-.1l-.2.5c-.2.5-.9,1.3-1.4,1.8-.1,0-.3.2-.5,0l-1.8-.9c-.2,0-.3-.3-.2-.5,0-.7.3-1.7.6-2.2l.3-.5h0l-2.6-1.9h-.1l-.4.4c-.4.4-1.2,1-1.9,1.3h-.5l-1.4-1.4c-.1,0-.2-.3,0-.5.3-.6.8-1.5,1.2-1.9l.4-.4h0l-1.9-2.6h-.1l-.5.3c-.5.3-1.5.5-2.2.6-.2,0-.4,0-.5-.2l-.9-1.7v-.5c.5-.5,1.3-1.2,1.8-1.4l.5-.2h0l-1-3.1h-.6c-.5.3-1.6.2-2.3,0-.2,0-.3-.2-.4-.4l-.3-1.9c0-.2,0-.4.2-.5.6-.3,1.6-.8,2.1-.8h.5v-3.3h-.6c-.6,0-1.5-.5-2.1-.8-.2,0-.3-.3-.2-.5l.3-2c0-.2.2-.3.4-.4.7-.1,1.7-.2,2.3-.1h.6l.9-3h0c0-.1-.5-.3-.5-.3-.5-.2-1.3-.9-1.8-1.4s-.2-.3,0-.5l.9-1.8c0-.2.3-.3.4-.2.7,0,1.7.3,2.2.6l.5.3h.1l1.8-2.6h0ZM24.3,36c5,4.8,12.9,4.8,17.7-.2,4.8-5,4.8-12.9-.2-17.7-5-4.8-12.9-4.8-17.7.2-4.8,5-4.8,12.9.2,17.7h0Z"/>
      </g>
      <circle id="gradient-circle" class="cls-4" cx="45.7" cy="35.5" r="23.1"/>
    </g>
  </g>
</svg>