<?xml version="1.0" encoding="UTF-8"?>
<svg xmlns="http://www.w3.org/2000/svg" viewBox="0 0 100 100">
  <defs>
    <style>
      .cls-1 {
        fill: purple;
      }

      .cls-2 {
        fill: violet;
      }
    </style>
  </defs>
  <g id="Layer_1">
    <circle class="cls-1" cx="50" cy="50" r="50"/>
  </g>
  <g id="Layer_2">
    <path class="cls-2" d="M78.18,25.22c1.1-1.4,1.5-4,1.3-4.8-.3-.9-1-1.9-1.9-2.3-.5-3.3-3.2-6.6-7.3-7.7-8.1-2-12,3.3-18,1.8s-22.3-1.4-28.2,7c-.9,1.3-1.6,3-1,4.4-1.2.8-2.2,1.9-2.9,3.1-5.1,8.2-3.4,18.9.9,27.5,1.5,2.9,2.9,4.3,2.5,7.9-.2,2.2-1.2,4.6,1.6,5.6.6.2,1.5.5,1.7.5h1.2c0,2.6.8,6.4-1.6,10.6-1.4,2.3-3.6,4.5-4.2,6.1h-.3c-1.75.29-3.68,1.24-5.35,2.31,8.85,7.94,20.55,12.78,33.37,12.78.61,0,1.21-.02,1.81-.05.65-.04,1.31-.07,1.96-.14-.9-1.59-1.99-2.59-3.48-3.59-.24-.58-.74-1.3-.92-2.11-.3-1.7,1.4-2.1,2.5-4.9,0-.3.3-.9.4-1.1l.4-.5c0-.2.2-.2.3-.2.2,0,.5-.5.8-1s.5-1.1.5-1.6c.2-1.7,0-2.4.2-3.9.4-2.7,2.6-5.3,5-6.5h.6c.8.3,1.7.6,2.5.9,1.1.4,2.2.7,3.4.7,2.7,0,5.7-2.4,6.1-5.9v-1.5c0-.9-.6-1.6.2-2.4s.8,0,1.2-.4.3-1,.3-1.6v-.4c0-.2-.2-.5-.4-.7,3.2-1.5.5-3.6.5-4.1,0,0,.3-.5.3-1,1.5,0,3.3-.8,4.1-2,.2-.3.4-.6.4-.9.3-1.6-.4-2.3-2.7-4.5,0,0-2.4-2.2-3.6-4.3-.5-.9-.7-1.6-.7-2.6v-1c.3-.9,1-1.5,1-2.4s-1.2-5.8-1.2-6.6c-.2-.9-.4-1.7-.5-2.1-.2-.6-.6-1.4-1.1-2.1.8.2,2,.5,2.6,1,.8.6,1.3,1.4,1.6,2.3.4,1.1.5,2.3.5,3.2s0,.2.2.2.3,0,.3-.2c0,0,.4-1.4.2-3.4,0-2.1-.8-3.7-1.6-4.8,1.8-.3,3.4-1.3,4.5-2.6Z"/>
  </g>
</svg>