<?xml version="1.0" encoding="UTF-8"?>
<svg xmlns="http://www.w3.org/2000/svg" viewBox="0 0 100 100">
  <defs>
    <style>
      .cls-1 {
        fill: #c0bfbf;
        fill-rule: evenodd;
      }

      .cls-2 {
        fill: #ec008c;
      }
    </style>
  </defs>
  <g id="Layer_1">
    <circle class="cls-2" cx="50" cy="50" r="50"/>
  </g>
  <g id="Layer_2">
    <path class="cls-1" d="M70.78,49.16c-1.41,0-2.49-1.09-2.49-2.51s1.08-2.51,2.49-2.51,2.49,1.09,2.49,2.51-1.08,2.51-2.49,2.51h0ZM65.79,54.18c-1.41,0-2.49-1.09-2.49-2.51s1.08-2.51,2.49-2.51,2.49,1.09,2.49,2.51-1.08,2.51-2.49,2.51h0ZM60.8,49.16c-1.41,0-2.49-1.09-2.49-2.51s1.08-2.51,2.49-2.51,2.49,1.09,2.49,2.51-1.08,2.51-2.49,2.51h0ZM65.79,39.13c1.41,0,2.49,1.09,2.49,2.51s-1.08,2.51-2.49,2.51-2.49-1.09-2.49-2.51,1.08-2.51,2.49-2.51h0ZM39.2,48.33h-3.32v3.34c0,.92-.75,1.67-1.66,1.67s-1.66-.75-1.66-1.67v-3.34h-3.32c-.91,0-1.66-.75-1.66-1.67s.75-1.67,1.66-1.67h3.32v-3.34c0-.92.75-1.67,1.66-1.67s1.66.75,1.66,1.67v3.34h3.32c.91,0,1.66.75,1.66,1.67s-.75,1.67-1.66,1.67h0ZM69.12,26.6c-9.81,0-4.82,5.02-19.12,5.02s-9.31-5.02-19.12-5.02c-10.47,0-23.77,46.81-9.97,46.81,12.72,0,7.9-11.7,29.09-11.7s16.37,11.7,29.09,11.7c13.8,0,.5-46.81-9.97-46.81h0Z"/>
  </g>
</svg>