<?xml version="1.0" encoding="UTF-8"?><svg id="a" xmlns="http://www.w3.org/2000/svg" xmlns:xlink="http://www.w3.org/1999/xlink" viewBox="0 0 100 100"><defs><filter id="c" x="3" y="8" width="94" height="84" filterUnits="userSpaceOnUse"><feOffset dx="0" dy="0"/><feGaussianBlur result="d" stdDeviation="4"/><feFlood flood-color="#f8ece2" flood-opacity=".75"/><feComposite in2="d" operator="in"/><feComposite in="SourceGraphic"/></filter></defs><g id="b"><circle cx="50" cy="50" r="50" style="fill:#180a02;"/></g><g id="e" style="filter:url(#c);"><path d="M36.42,36.39h1.75v-1.06c8.05,2.44,11.85,8.25,11.56,17.64h-1.96v6.55h6.55v-6.55h-1.98c.25-8.56-2.64-14.61-8.61-18.09l12.81,2.36c.2,1.27,1.29,2.2,2.58,2.2h.06l-.06,11.79c0,.24.2.44.44.44.14,0,.27-.06.35-.17l4.02-5.06,6.47-.12c.24,0,.44-.2.44-.44,0-.14-.06-.27-.17-.35l-9.45-7.14c.87-1.15.64-2.79-.51-3.66-1.15-.87-2.79-.64-3.65.51-.07.09-.13.19-.19.28l-18.69-3.44v-2.25h-6.55v6.55h4.8-.01ZM52.57,57.78h-3.06v-3.06h3.06v3.06h0ZM33.36,31.59h3.06v3.06h-3.06v-3.06h0Z" style="fill:#f1c696; fill-rule:evenodd;"/><path d="M81.5,20.32H18.5c-1.93,0-3.49,1.57-3.5,3.49v41.91c0,1.93,1.57,3.49,3.5,3.49h24.5v5.24h-8.75v5.24h31.5v-5.24h-8.75v-5.24h24.5c1.93,0,3.49-1.57,3.5-3.49V23.81c0-1.93-1.57-3.49-3.5-3.49h0ZM79.75,63.97H20.25V25.55h59.5v38.41h0Z" style="fill:#f1c696; fill-rule:evenodd;"/></g></svg>