<?xml version="1.0" encoding="UTF-8"?>
<svg xmlns="http://www.w3.org/2000/svg" viewBox="0 0 100 100">
  <defs>
    <style>
      .cls-1 {
        fill: #ec008c;
      }

      .cls-2 {
        fill: #bfbfbf;
        fill-rule: evenodd;
      }
    </style>
  </defs>
  <g id="Layer_1">
    <circle class="cls-1" cx="50" cy="50" r="50"/>
  </g>
  <g id="Layer_2">
    <g>
      <path class="cls-2" d="M80.71,37.21l-34.38,8.15v28.45c-1.92-.38-3.9-.21-5.73.49-4.14,1.51-6.68,4.97-5.73,7.73.95,2.76,5.17,3.82,9.31,2.28,3.74-1.36,5.88-4.77,5.88-6.89v-27.55l26.74-6.31v23.97c-1.96-.39-3.99-.22-5.85.5-4.24,1.56-6.86,5.12-5.83,7.97,1.03,2.85,5.3,3.91,9.55,2.36,3.59-1.29,5.98-3.95,6.1-6.45l-.07-34.68Z"/>
      <path class="cls-2" d="M36.37,20.82c-.83-.55-1.53-1.28-2.03-2.15v-1.76c0-1.06-.85-1.91-1.89-1.91s-1.89.86-1.89,1.91v28.84c-1.83-.33-3.71-.14-5.45.53-4.11,1.5-6.62,4.96-5.68,7.73.95,2.77,5.13,3.82,9.24,2.28,2.84-1.05,4.94-3.05,5.61-5.1v-20.15c.26.2.52.39.8.55,6.31,3.82,2.84,9.86,5.92,9.89,3.96.03,4.13-14.77-4.63-20.66h0Z"/>
    </g>
  </g>
</svg>