<?xml version="1.0" encoding="UTF-8"?>
<svg xmlns="http://www.w3.org/2000/svg" viewBox="0 0 100 100">
  <defs>
    <style>
      .cls-1 {
        fill: #ec008c;
      }

      .cls-2 {
        fill: #bfbfbf;
        fill-rule: evenodd;
      }
    </style>
  </defs>
  <g id="Layer_1">
    <circle class="cls-1" cx="50" cy="50" r="50"/>
  </g>
  <g id="Layer_2">
    <g>
      <path class="cls-2" d="M31.78,36.09c0,.98-.79,1.77-1.77,1.77s-1.77-.79-1.77-1.77.79-1.77,1.77-1.77,1.77.79,1.77,1.77h0Z"/>
      <path class="cls-2" d="M31.78,42.93c0,.98-.79,1.77-1.77,1.77s-1.77-.79-1.77-1.77.79-1.77,1.77-1.77,1.77.79,1.77,1.77h0Z"/>
      <path class="cls-2" d="M28.25,39.51c0,.91-.79,1.66-1.77,1.66s-1.77-.74-1.77-1.66.79-1.66,1.77-1.66,1.77.74,1.77,1.66h0Z"/>
      <path class="cls-2" d="M35.09,39.51c0,.91-.74,1.66-1.66,1.66s-1.66-.74-1.66-1.66.74-1.66,1.66-1.66,1.66.74,1.66,1.66h0Z"/>
      <path class="cls-2" d="M56.07,32.56c0,.98-.79,1.77-1.77,1.77s-1.77-.79-1.77-1.77.79-1.77,1.77-1.77,1.77.79,1.77,1.77h0Z"/>
      <path class="cls-2" d="M56.07,39.51c0,.91-.79,1.66-1.77,1.66s-1.77-.74-1.77-1.66.79-1.66,1.77-1.66,1.77.74,1.77,1.66h0Z"/>
      <path class="cls-2" d="M52.54,36.09c0,.98-.74,1.77-1.66,1.77s-1.66-.79-1.66-1.77.74-1.77,1.66-1.77,1.66.79,1.66,1.77h0Z"/>
      <path class="cls-2" d="M59.61,36.09c0,.98-.79,1.77-1.77,1.77s-1.77-.79-1.77-1.77.79-1.77,1.77-1.77,1.77.79,1.77,1.77h0Z"/>
      <polygon class="cls-2" points="79.7 47.35 74.4 52.57 67.33 52.57 67.33 71.72 74.4 71.72 79.7 76.94 85 76.94 85 47.35 79.7 47.35 79.7 47.35"/>
      <path class="cls-2" d="M54.25,43.92c-4.36,0-7.85-3.48-7.85-7.82s3.49-7.82,7.85-7.82,7.85,3.48,7.85,7.82-3.49,7.82-7.85,7.82h0ZM56.87,71.73c-.96,0-1.74-.78-1.74-1.74s.79-1.74,1.74-1.74,1.74.78,1.74,1.74-.79,1.74-1.74,1.74h0ZM40.29,47.39c1.13-1.56,2.01-3.3,2.35-5.3,1.13,2.17,2.97,4,5.06,5.3h-7.41ZM29.83,47.39c-4.36,0-7.85-3.48-7.85-7.82s3.49-7.82,7.85-7.82,7.85,3.48,7.85,7.82-3.49,7.82-7.85,7.82h0ZM60.71,47.39c3.92-2.26,6.63-6.43,6.63-11.3,0-7.21-5.84-13.04-13.08-13.04-6.37,0-11.6,4.52-12.82,10.52-2.18-4.17-6.54-7.04-11.6-7.04-7.24,0-13.08,5.82-13.08,13.04,0,4.26,2.09,8,5.23,10.43v2.61h-1.74l-1.74-1.74h-3.49v8.69h3.49l1.74-1.74h1.74v15.64c0,1.91,1.57,3.48,3.49,3.48h34.89c1.92,0,3.49-1.56,3.49-3.48v-22.59c0-1.83-1.4-3.3-3.14-3.48h0Z"/>
    </g>
  </g>
</svg>